<?xml version="1.0" encoding="utf-8"?>
<!-- Generator: Adobe Illustrator 15.0.0, SVG Export Plug-In . SVG Version: 6.00 Build 0)  -->
<!DOCTYPE svg PUBLIC "-//W3C//DTD SVG 1.1//EN" "http://www.w3.org/Graphics/SVG/1.1/DTD/svg11.dtd">
<svg version="1.1" id="Layer_1" xmlns="http://www.w3.org/2000/svg" xmlns:xlink="http://www.w3.org/1999/xlink" x="0px" y="0px"
	 width="74.405px" height="25.079px" viewBox="259.391 639.085 74.405 25.079"
	 enable-background="new 259.391 639.085 74.405 25.079" xml:space="preserve">
<g>
	<path fill="#5A4495" d="M328.797,639.086h-0.588h-6.133h-0.279h-0.588h-5.795v-0.001h-14.912h-14.604l-2.056,2.545
		c-0.19,0.234-0.476,0.372-0.778,0.372h-7.757c-0.303,0-0.588-0.138-0.778-0.372l-2.056-2.545h-8.083c-2.762,0-5,2.237-5,5v12.167
		c0,2.762,2.238,5,5,5h8.088l2.051,2.539c0.19,0.236,0.477,0.373,0.778,0.373h7.757c0.304,0,0.588-0.137,0.778-0.373l2.051-2.539
		h14.607h11.256h3.318h0.338h5.795h0.588h0.279h6.133h0.588c2.762,0,5-2.237,5-4.999v-12.167
		C333.797,641.323,331.559,639.086,328.797,639.086z"/>
	<g>
		<g>
			<g>
				<path fill="#FFFFFF" d="M272.661,649.098l0.742-0.853l0.984,0.925l-0.696,0.694c0.336,0.408,0.528,0.912,0.528,1.463
					c0,1.466-1.2,2.437-2.675,2.437c-0.348,0-0.647-0.035-0.937-0.107c-0.516,0.433-0.563,0.959,0.229,0.959
					c0.552,0,0.912-0.229,1.715-0.229c3.058,0,3.034,4.27-1.008,4.27c-3.034,0-3.658-1.967-2.626-3.321
					c-0.433-0.673-0.252-1.703,0.552-2.326c-0.396-0.42-0.612-0.996-0.612-1.681c0-1.463,1.211-2.444,2.688-2.444
					C271.941,648.884,272.325,648.955,272.661,649.098z M270.034,656.018c-0.324,0.613,0.071,1.213,1.511,1.213
					c2.11,0,2.051-1.465,0.948-1.465c-0.648,0-1.296,0.276-2.147,0.276C270.238,656.044,270.13,656.031,270.034,656.018z
					 M271.545,652.385c0.66,0,1.091-0.373,1.091-1.058c0-0.694-0.432-1.09-1.091-1.09c-0.671,0-1.104,0.406-1.104,1.09
					C270.441,652.025,270.909,652.385,271.545,652.385z"/>
				<path fill="#FFFFFF" d="M275.207,651.916c0-1.737,1.343-3.045,3.059-3.045c1.715,0,3.059,1.308,3.059,3.045
					c0,1.74-1.344,3.048-3.059,3.048C276.55,654.964,275.207,653.656,275.207,651.916z M279.68,651.916
					c0-0.887-0.563-1.547-1.415-1.547c-0.864,0-1.427,0.66-1.427,1.547c0,0.9,0.587,1.562,1.427,1.562
					C279.116,653.477,279.68,652.816,279.68,651.916z"/>
				<path fill="#FFFFFF" d="M286.558,649.003v-2.087h1.679v2.087h0.828v1.559h-0.828v4.295h-1.679v-4.295h-0.814v-1.559H286.558z"/>
				<path fill="#FFFFFF" d="M289.882,651.916c0-1.737,1.343-3.045,3.059-3.045c1.715,0,3.059,1.308,3.059,3.045
					c0,1.74-1.344,3.048-3.059,3.048S289.882,653.656,289.882,651.916z M294.356,651.916c0-0.887-0.563-1.547-1.415-1.547
					c-0.863,0-1.427,0.66-1.427,1.547c0,0.9,0.587,1.562,1.427,1.562C293.792,653.477,294.356,652.816,294.356,651.916z"/>
				<path fill="#FFFFFF" d="M302.793,650.49v4.365h-1.703v-4.365h-0.84v-1.487h0.84v-1.056c0-1.416,0.996-2.229,2.159-2.229
					c0.406,0,0.768,0.069,1.066,0.203l-0.552,1.428c-0.108-0.062-0.239-0.096-0.372-0.096c-0.383,0-0.6,0.299-0.6,0.813v0.937h1.234
					v1.487H302.793z"/>
				<path fill="#FFFFFF" d="M306.885,654.855h-1.679v-5.854h1.679v0.396c0,0.131-0.023,0.348-0.06,0.576
					c0.336-0.638,0.862-1.117,1.631-1.117v1.646c-0.876,0-1.571,0.504-1.571,1.463V654.855z"/>
				<path fill="#FFFFFF" d="M309.298,651.916c0-1.737,1.343-3.045,3.059-3.045c1.715,0,3.059,1.308,3.059,3.045
					c0,1.74-1.344,3.048-3.059,3.048C310.641,654.964,309.298,653.656,309.298,651.916z M313.771,651.916
					c0-0.887-0.563-1.547-1.415-1.547c-0.863,0-1.427,0.66-1.427,1.547c0,0.9,0.587,1.562,1.427,1.562
					C313.208,653.477,313.771,652.816,313.771,651.916z"/>
				<path fill="#FFFFFF" d="M318.273,654.855h-1.68v-5.854h1.68v0.396c0,0.096-0.013,0.24-0.037,0.408
					c0.386-0.553,0.974-0.949,1.775-0.949c1.211,0,2.123,0.949,2.123,2.521v3.479h-1.691v-3.383c0-0.814-0.516-1.234-1.079-1.234
					c-0.504,0-1.066,0.406-1.091,1.188V654.855L318.273,654.855z"/>
				<path fill="#FFFFFF" d="M324.129,649.003v-2.087h1.68v2.087h0.828v1.559h-0.828v4.295h-1.68v-4.295h-0.814v-1.559H324.129z"/>
			</g>
		</g>
	</g>
</g>
</svg>
