<?xml version="1.0" encoding="utf-8"?>
<!-- Generator: Adobe Illustrator 15.0.0, SVG Export Plug-In . SVG Version: 6.00 Build 0)  -->
<!DOCTYPE svg PUBLIC "-//W3C//DTD SVG 1.1//EN" "http://www.w3.org/Graphics/SVG/1.1/DTD/svg11.dtd">
<svg version="1.1" id="Layer_1" xmlns="http://www.w3.org/2000/svg" xmlns:xlink="http://www.w3.org/1999/xlink" x="0px" y="0px"
	 width="161.499px" height="25.077px" viewBox="216.89 18.804 161.499 25.077"
	 enable-background="new 216.89 18.804 161.499 25.077" xml:space="preserve">
<g>
	<path fill="#5A4495" d="M373.39,18.804h-20h-6h-20h-14.722h-8.334h-17.666h-43.271l-2.056,2.545
		c-0.19,0.233-0.476,0.371-0.778,0.371h-7.757c-0.302,0-0.588-0.138-0.778-0.371l-2.056-2.545h-8.083c-2.761,0-5,2.237-5,5V35.97
		c0,2.762,2.239,5,5,5h8.088l2.051,2.539c0.19,0.235,0.477,0.372,0.778,0.372h7.757c0.303,0,0.588-0.137,0.778-0.372l2.051-2.539
		h43.274h17.666h8.334h14.722h20h6h20c2.762,0,5-2.238,5-5V23.804C378.39,21.042,376.151,18.804,373.39,18.804z"/>
	<g>
		<g>
			<g>
				<path fill="#FFFFFF" d="M226.454,31.607c0.407,0.468,1.055,0.659,1.618,0.659c0.36,0,0.624-0.145,0.624-0.359
					c0-0.3-0.3-0.443-0.792-0.588c-0.911-0.264-2.038-0.768-2.038-1.955c0-1.127,1.091-1.763,2.074-1.763
					c0.889,0,1.512,0.3,2.039,0.852l-0.936,1.008c-0.252-0.275-0.721-0.527-1.067-0.527c-0.312,0-0.54,0.145-0.54,0.372
					c0,0.288,0.335,0.432,0.863,0.588c0.888,0.264,2.027,0.814,2.027,1.931c0,1.104-0.947,1.871-2.268,1.871
					c-1.056,0-1.919-0.3-2.555-0.983L226.454,31.607z"/>
				<path fill="#FFFFFF" d="M236.854,33.574c-0.72,0-1.211-0.384-1.475-0.995c-0.336,0.563-1.043,1.115-2.087,1.115
					c-1.295,0-1.955-0.84-1.955-1.715c0-0.973,0.792-1.919,2.423-1.919c0.492,0,0.971,0.06,1.415,0.144v-0.191
					c0-0.575-0.396-0.959-1.043-0.959c-0.456,0-0.828,0.203-1.067,0.588l-1.175-0.876c0,0,0.671-1.199,2.327-1.199
					c1.631,0,2.626,0.972,2.626,2.375v1.763c0,0.216,0.144,0.349,0.36,0.349h0.239v1.522L236.854,33.574L236.854,33.574z
					 M235.175,31.247c-0.313-0.06-0.696-0.119-0.923-0.119c-0.685,0-1.211,0.229-1.211,0.707c0,0.324,0.239,0.54,0.684,0.54
					C234.432,32.375,234.959,31.883,235.175,31.247z"/>
				<path fill="#FFFFFF" d="M239.988,32.927l-2.183-5.205h1.763l1.127,2.733c0.097,0.24,0.181,0.563,0.192,0.601
					c0-0.024,0.108-0.349,0.216-0.601l1.175-2.733h1.775l-4.042,9.127h-1.751L239.988,32.927z"/>
			</g>
		</g>
		<g>
			<g>
				<path fill="#FFFFFF" d="M305.881,29.209v4.365h-1.703v-4.365h-0.84v-1.486h0.84v-1.057c0-1.415,0.995-2.229,2.158-2.229
					c0.408,0,0.768,0.07,1.067,0.203l-0.553,1.428c-0.106-0.061-0.239-0.096-0.371-0.096c-0.384,0-0.6,0.3-0.6,0.814v0.937h1.233
					v1.486H305.881z"/>
				<path fill="#FFFFFF" d="M307.934,30.636c0-1.739,1.344-3.047,3.06-3.047c1.715,0,3.059,1.308,3.059,3.047
					c0,1.738-1.344,3.047-3.059,3.047C309.278,33.683,307.934,32.375,307.934,30.636z M312.407,30.636
					c0-0.889-0.563-1.548-1.415-1.548c-0.863,0-1.429,0.659-1.429,1.548c0,0.898,0.588,1.56,1.429,1.56
					C311.844,32.195,312.407,31.535,312.407,30.636z"/>
				<path fill="#FFFFFF" d="M316.908,33.574h-1.68v-5.853h1.68v0.396c0,0.132-0.023,0.348-0.061,0.576
					c0.336-0.636,0.863-1.116,1.631-1.116v1.645c-0.876,0-1.57,0.504-1.57,1.463V33.574z"/>
			</g>
		</g>
		<g>
			<g>
				<path fill="#FFFFFF" d="M347.453,31.607c0.407,0.468,1.056,0.659,1.618,0.659c0.359,0,0.624-0.145,0.624-0.359
					c0-0.3-0.3-0.443-0.792-0.588c-0.91-0.264-2.039-0.768-2.039-1.955c0-1.127,1.093-1.763,2.075-1.763
					c0.889,0,1.512,0.3,2.039,0.852l-0.936,1.008c-0.252-0.275-0.721-0.527-1.067-0.527c-0.313,0-0.539,0.145-0.539,0.372
					c0,0.288,0.335,0.432,0.863,0.588c0.887,0.264,2.026,0.814,2.026,1.931c0,1.104-0.947,1.871-2.268,1.871
					c-1.056,0-1.919-0.3-2.555-0.983L347.453,31.607z"/>
				<path fill="#FFFFFF" d="M353.836,31.008c0.121,0.973,0.721,1.331,1.38,1.331c0.646,0,1.091-0.3,1.38-0.72l1.115,0.804
					c-0.624,0.841-1.26,1.271-2.591,1.271c-1.717,0-2.976-1.26-2.976-3.059c0-1.667,1.128-3.047,2.927-3.047
					c1.979,0,2.759,1.415,2.759,3.215v0.203L353.836,31.008L353.836,31.008z M353.885,29.977h2.314
					c-0.107-0.672-0.623-1.021-1.14-1.021C354.521,28.957,354.053,29.293,353.885,29.977z"/>
				<path fill="#FFFFFF" d="M362.823,29.7c-0.3-0.323-0.563-0.552-1.044-0.552c-0.778,0-1.331,0.624-1.331,1.487
					c0,0.898,0.553,1.463,1.331,1.463c0.48,0,0.841-0.265,1.093-0.623l1.26,0.959c-0.601,0.814-1.32,1.248-2.353,1.248
					c-1.763,0-3.01-1.345-3.01-3.047c0-1.703,1.247-3.047,2.998-3.047c0.924,0,1.655,0.396,2.219,1.031L362.823,29.7z"/>
				<path fill="#FFFFFF" d="M365.896,31.607c0.408,0.468,1.057,0.659,1.619,0.659c0.359,0,0.624-0.145,0.624-0.359
					c0-0.3-0.3-0.443-0.792-0.588c-0.911-0.264-2.039-0.768-2.039-1.955c0-1.127,1.092-1.763,2.075-1.763
					c0.888,0,1.511,0.3,2.039,0.852l-0.937,1.008c-0.252-0.275-0.72-0.527-1.066-0.527c-0.313,0-0.539,0.145-0.539,0.372
					c0,0.288,0.335,0.432,0.863,0.588c0.887,0.264,2.025,0.814,2.025,1.931c0,1.104-0.947,1.871-2.267,1.871
					c-1.057,0-1.919-0.3-2.556-0.983L365.896,31.607z"/>
			</g>
		</g>
		<path fill="#FFFFFF" d="M322.954,29.759c0,4.244,3.438,7.685,7.684,7.685h3.152c4.242,0,7.684-3.439,7.684-7.685
			c0-4.241-3.44-7.684-7.684-7.684h-3.152C326.394,22.075,322.954,25.517,322.954,29.759
			C322.954,29.759,322.954,25.517,322.954,29.759z"/>
		<rect x="249.156" y="22.368" fill="#FFFFFF" width="50" height="14.779"/>
	</g>
</g>
</svg>
