<?xml version="1.0" encoding="utf-8"?>
<!-- Generator: Adobe Illustrator 15.0.0, SVG Export Plug-In . SVG Version: 6.00 Build 0)  -->
<!DOCTYPE svg PUBLIC "-//W3C//DTD SVG 1.1//EN" "http://www.w3.org/Graphics/SVG/1.1/DTD/svg11.dtd">
<svg version="1.1" id="Layer_1" xmlns="http://www.w3.org/2000/svg" xmlns:xlink="http://www.w3.org/1999/xlink" x="0px" y="0px"
	 width="123.5px" height="25.079px" viewBox="235.89 511.195 123.5 25.079" enable-background="new 235.89 511.195 123.5 25.079"
	 xml:space="preserve">
<g>
	<g>
		<path fill="#5A4495" d="M354.39,511.195H345h-5.75h-1.86h-3h-2h-0.89h-0.11h-3H328h-4.666h-4.5h-13.166h-43.271l-2.056,2.545
			c-0.19,0.235-0.476,0.372-0.778,0.372h-7.757c-0.302,0-0.588-0.137-0.778-0.372l-2.056-2.545h-8.083c-2.761,0-5,2.238-5,5v12.167
			c0,2.762,2.239,5,5,5h8.088l2.051,2.539c0.19,0.236,0.477,0.373,0.778,0.373h7.757c0.303,0,0.588-0.137,0.778-0.373l2.051-2.539
			h43.274h13.166h4.5H328h0.39h3h0.11h0.89h2h3h1.86H345h9.39c2.762,0,5-2.238,5-5v-12.167
			C359.39,513.434,357.151,511.195,354.39,511.195z"/>
		<g>
			<g>
				<path fill="#FFFFFF" d="M248.034,522.093c-0.301-0.322-0.564-0.552-1.043-0.552c-0.78,0-1.332,0.623-1.332,1.486
					c0,0.9,0.552,1.463,1.332,1.463c0.479,0,0.839-0.264,1.091-0.623l1.259,0.959c-0.6,0.816-1.319,1.248-2.351,1.248
					c-1.764,0-3.011-1.344-3.011-3.047s1.247-3.045,2.998-3.045c0.924,0,1.655,0.396,2.219,1.031L248.034,522.093z"/>
				<path fill="#FFFFFF" d="M250.52,525.968v-8.996h1.703v8.996H250.52z"/>
				<path fill="#FFFFFF" d="M255.091,523.4c0.12,0.971,0.72,1.33,1.379,1.33c0.648,0,1.091-0.299,1.379-0.719l1.115,0.803
					c-0.624,0.84-1.259,1.271-2.59,1.271c-1.715,0-2.976-1.261-2.976-3.06c0-1.666,1.127-3.045,2.927-3.045
					c1.979,0,2.759,1.414,2.759,3.213v0.205L255.091,523.4L255.091,523.4z M255.139,522.369h2.314
					c-0.108-0.672-0.624-1.02-1.14-1.02C255.774,521.35,255.307,521.686,255.139,522.369z"/>
				<path fill="#FFFFFF" d="M265.613,525.968c-0.72,0-1.211-0.386-1.475-0.996c-0.336,0.563-1.043,1.115-2.087,1.115
					c-1.295,0-1.955-0.841-1.955-1.716c0-0.971,0.792-1.918,2.423-1.918c0.492,0,0.972,0.06,1.415,0.144v-0.191
					c0-0.576-0.396-0.959-1.043-0.959c-0.456,0-0.828,0.203-1.066,0.588l-1.176-0.877c0,0,0.672-1.198,2.327-1.198
					c1.631,0,2.626,0.973,2.626,2.375v1.764c0,0.215,0.145,0.348,0.36,0.348h0.24v1.523L265.613,525.968L265.613,525.968z
					 M263.934,523.639c-0.312-0.06-0.695-0.119-0.923-0.119c-0.684,0-1.211,0.229-1.211,0.707c0,0.324,0.24,0.541,0.684,0.541
					C263.19,524.768,263.718,524.275,263.934,523.639z"/>
				<path fill="#FFFFFF" d="M268.891,525.968h-1.679v-5.854h1.679v0.396c0,0.131-0.023,0.348-0.06,0.576
					c0.336-0.638,0.862-1.117,1.631-1.117v1.645c-0.875,0-1.571,0.504-1.571,1.463V525.968z"/>
				<path fill="#FFFFFF" d="M278.921,520.209l0.743-0.852l0.983,0.924l-0.695,0.695c0.336,0.408,0.527,0.912,0.527,1.463
					c0,1.465-1.2,2.436-2.675,2.436c-0.348,0-0.646-0.034-0.936-0.106c-0.517,0.432-0.563,0.959,0.228,0.959
					c0.552,0,0.912-0.229,1.715-0.229c3.06,0,3.035,4.271-1.007,4.271c-3.034,0-3.658-1.967-2.626-3.322
					c-0.432-0.672-0.252-1.703,0.552-2.326c-0.396-0.42-0.611-0.995-0.611-1.68c0-1.463,1.211-2.445,2.687-2.445
					C278.201,519.994,278.585,520.066,278.921,520.209z M276.294,527.13c-0.324,0.612,0.072,1.213,1.511,1.213
					c2.111,0,2.051-1.465,0.948-1.465c-0.648,0-1.295,0.276-2.147,0.276C276.498,527.154,276.39,527.143,276.294,527.13z
					 M277.805,523.496c0.66,0,1.091-0.373,1.091-1.057c0-0.695-0.432-1.09-1.091-1.09c-0.671,0-1.103,0.406-1.103,1.09
					C276.702,523.137,277.169,523.496,277.805,523.496z"/>
				<path fill="#FFFFFF" d="M283.506,525.968h-1.679v-5.854h1.679v0.396c0,0.131-0.024,0.348-0.061,0.576
					c0.337-0.638,0.863-1.117,1.632-1.117v1.645c-0.875,0-1.571,0.504-1.571,1.463V525.968z"/>
				<path fill="#FFFFFF" d="M291.028,525.968c-0.72,0-1.211-0.386-1.475-0.996c-0.336,0.563-1.043,1.115-2.087,1.115
					c-1.295,0-1.955-0.841-1.955-1.716c0-0.971,0.792-1.918,2.423-1.918c0.492,0,0.971,0.06,1.415,0.144v-0.191
					c0-0.576-0.396-0.959-1.043-0.959c-0.456,0-0.828,0.203-1.066,0.588l-1.176-0.877c0,0,0.672-1.198,2.327-1.198
					c1.631,0,2.626,0.973,2.626,2.375v1.764c0,0.215,0.145,0.348,0.36,0.348h0.24v1.523L291.028,525.968L291.028,525.968z
					 M289.349,523.639c-0.312-0.06-0.695-0.119-0.923-0.119c-0.684,0-1.211,0.229-1.211,0.707c0,0.324,0.24,0.541,0.684,0.541
					C288.605,524.768,289.133,524.275,289.349,523.639z"/>
				<path fill="#FFFFFF" d="M292.626,528.966v-8.853h1.679v0.588c0.456-0.479,1.055-0.719,1.703-0.719
					c1.619,0,2.542,1.475,2.542,3.033c0,1.584-0.888,3.07-2.531,3.07c-0.684,0-1.318-0.336-1.774-0.888v3.767L292.626,528.966
					L292.626,528.966z M296.884,523.039c0-0.862-0.432-1.559-1.308-1.559c-0.779,0-1.296,0.648-1.296,1.547
					c0,0.805,0.527,1.572,1.296,1.572C296.44,524.6,296.884,523.891,296.884,523.039z"/>
				<path fill="#FFFFFF" d="M299.73,525.968v-8.996h1.681v3.539c0,0.096-0.014,0.252-0.037,0.408
					c0.385-0.554,0.973-0.949,1.774-0.949c1.211,0,2.123,0.949,2.123,2.52v3.479h-1.69v-3.383c0-0.814-0.517-1.234-1.079-1.234
					c-0.517,0-1.021,0.406-1.091,1.246v3.371L299.73,525.968L299.73,525.968z"/>
				<path fill="#FFFFFF" d="M307.746,517.199c0.6,0,1.104,0.504,1.104,1.104c0,0.6-0.504,1.104-1.104,1.104
					c-0.601,0-1.104-0.504-1.104-1.104C306.642,517.703,307.146,517.199,307.746,517.199z M306.871,525.968v-5.854h1.715v5.854
					H306.871z"/>
				<path fill="#FFFFFF" d="M314.033,522.093c-0.302-0.322-0.564-0.552-1.045-0.552c-0.779,0-1.33,0.623-1.33,1.486
					c0,0.9,0.551,1.463,1.33,1.463c0.479,0,0.84-0.264,1.092-0.623l1.26,0.959c-0.601,0.816-1.319,1.248-2.352,1.248
					c-1.763,0-3.011-1.344-3.011-3.047s1.248-3.045,2.998-3.045c0.924,0,1.656,0.396,2.219,1.031L314.033,522.093z"/>
				<path fill="#FFFFFF" d="M321.449,523.4c0.119,0.971,0.72,1.33,1.379,1.33c0.647,0,1.092-0.299,1.38-0.719l1.114,0.803
					c-0.623,0.84-1.259,1.271-2.591,1.271c-1.715,0-2.975-1.261-2.975-3.06c0-1.666,1.128-3.045,2.927-3.045
					c1.979,0,2.759,1.414,2.759,3.213v0.205L321.449,523.4L321.449,523.4z M321.498,522.369h2.313
					c-0.107-0.672-0.624-1.02-1.14-1.02C322.133,521.35,321.666,521.686,321.498,522.369z"/>
				<path fill="#FFFFFF" d="M328.637,521.602v4.365h-1.703v-4.365h-0.84v-1.488h0.84v-1.055c0-1.416,0.996-2.23,2.159-2.23
					c0.407,0,0.768,0.07,1.067,0.203l-0.553,1.429c-0.107-0.062-0.238-0.097-0.372-0.097c-0.383,0-0.6,0.299-0.6,0.814v0.936h1.235
					v1.488H328.637z"/>
				<path fill="#FFFFFF" d="M333.064,521.602v4.365h-1.703v-4.365h-0.84v-1.488h0.84v-1.055c0-1.416,0.996-2.23,2.159-2.23
					c0.407,0,0.769,0.07,1.067,0.203l-0.552,1.429c-0.108-0.062-0.239-0.097-0.372-0.097c-0.384,0-0.601,0.299-0.601,0.814v0.936
					h1.235v1.488H333.064z"/>
				<path fill="#FFFFFF" d="M336.809,523.4c0.12,0.971,0.72,1.33,1.379,1.33c0.648,0,1.092-0.299,1.38-0.719l1.115,0.803
					c-0.624,0.84-1.259,1.271-2.591,1.271c-1.715,0-2.975-1.261-2.975-3.06c0-1.666,1.128-3.045,2.927-3.045
					c1.979,0,2.759,1.414,2.759,3.213v0.205L336.809,523.4L336.809,523.4z M336.857,522.369h2.314
					c-0.108-0.672-0.624-1.02-1.141-1.02C337.492,521.35,337.025,521.686,336.857,522.369z"/>
				<path fill="#FFFFFF" d="M345.795,522.093c-0.299-0.322-0.563-0.552-1.043-0.552c-0.779,0-1.331,0.623-1.331,1.486
					c0,0.9,0.552,1.463,1.331,1.463c0.479,0,0.84-0.264,1.092-0.623l1.259,0.959c-0.6,0.816-1.318,1.248-2.351,1.248
					c-1.765,0-3.01-1.344-3.01-3.047s1.245-3.045,2.997-3.045c0.925,0,1.654,0.396,2.22,1.031L345.795,522.093z"/>
				<path fill="#FFFFFF" d="M348.736,520.113v-2.086h1.681v2.086h0.828v1.56h-0.828v4.295h-1.681v-4.295h-0.813v-1.56H348.736z"/>
			</g>
		</g>
	</g>
</g>
</svg>
