<?xml version="1.0" encoding="utf-8"?>
<!-- Generator: Adobe Illustrator 15.0.0, SVG Export Plug-In . SVG Version: 6.00 Build 0)  -->
<!DOCTYPE svg PUBLIC "-//W3C//DTD SVG 1.1//EN" "http://www.w3.org/Graphics/SVG/1.1/DTD/svg11.dtd">
<svg version="1.1" id="Layer_1" xmlns="http://www.w3.org/2000/svg" xmlns:xlink="http://www.w3.org/1999/xlink" x="0px" y="0px"
	 width="158.499px" height="25.079px" viewBox="218.39 470.399 158.499 25.079"
	 enable-background="new 218.39 470.399 158.499 25.079" xml:space="preserve">
<g>
	<path fill="#5A4495" d="M371.89,470.399h-9.39h-5.75h-1.86h-3h-2h-1h-3h-0.39h-16.61h-14.722h-8.334h-17.666h-43.271l-2.056,2.545
		c-0.19,0.235-0.476,0.372-0.778,0.372h-7.757c-0.302,0-0.588-0.137-0.778-0.372l-2.056-2.545h-8.083c-2.761,0-5,2.238-5,5v12.167
		c0,2.762,2.239,5,5,5h8.088l2.051,2.539c0.19,0.236,0.477,0.373,0.778,0.373h7.757c0.303,0,0.588-0.137,0.778-0.373l2.051-2.539
		h43.274h17.666h8.334h14.722h16.61h0.39h3h1h2h3h1.86h5.75h9.39c2.762,0,5-2.238,5-5v-12.167
		C376.89,472.638,374.651,470.399,371.89,470.399z"/>
	<g>
		<g>
			<g>
				<path fill="#FFFFFF" d="M227.308,483.203c0.408,0.47,1.055,0.66,1.619,0.66c0.36,0,0.624-0.145,0.624-0.358
					c0-0.302-0.3-0.443-0.792-0.589c-0.912-0.264-2.039-0.768-2.039-1.954c0-1.128,1.091-1.765,2.075-1.765
					c0.888,0,1.511,0.301,2.039,0.853l-0.937,1.008c-0.252-0.275-0.72-0.527-1.066-0.527c-0.313,0-0.54,0.146-0.54,0.371
					c0,0.289,0.335,0.432,0.862,0.588c0.889,0.265,2.027,0.816,2.027,1.933c0,1.104-0.947,1.871-2.267,1.871
					c-1.057,0-1.919-0.302-2.556-0.984L227.308,483.203z"/>
				<path fill="#FFFFFF" d="M233.691,482.604c0.12,0.973,0.721,1.332,1.379,1.332c0.647,0,1.092-0.301,1.38-0.721l1.114,0.805
					c-0.624,0.84-1.259,1.271-2.59,1.271c-1.715,0-2.975-1.26-2.975-3.059c0-1.668,1.127-3.047,2.926-3.047
					c1.979,0,2.759,1.416,2.759,3.215v0.203L233.691,482.604L233.691,482.604z M233.739,481.572h2.314
					c-0.108-0.672-0.624-1.02-1.139-1.02C234.375,480.553,233.907,480.889,233.739,481.572z"/>
				<path fill="#FFFFFF" d="M239.319,479.318v-2.088h1.68v2.088h0.828v1.56h-0.828v4.293h-1.68v-4.293h-0.814v-1.56H239.319z"/>
			</g>
		</g>
		<g>
			<g>
				<path fill="#FFFFFF" d="M303.051,482.604c0.121,0.973,0.721,1.332,1.38,1.332c0.647,0,1.091-0.301,1.38-0.721l1.115,0.805
					c-0.624,0.84-1.26,1.271-2.591,1.271c-1.716,0-2.976-1.26-2.976-3.059c0-1.668,1.128-3.047,2.928-3.047
					c1.979,0,2.758,1.416,2.758,3.215v0.203L303.051,482.604L303.051,482.604z M303.1,481.572h2.314
					c-0.107-0.672-0.623-1.02-1.14-1.02C303.735,480.553,303.268,480.889,303.1,481.572z"/>
				<path fill="#FFFFFF" d="M310.239,480.805v4.365h-1.702v-4.365h-0.841v-1.486h0.841v-1.057c0-1.414,0.994-2.23,2.158-2.23
					c0.407,0,0.769,0.072,1.066,0.203l-0.551,1.428c-0.108-0.059-0.24-0.096-0.372-0.096c-0.384,0-0.601,0.301-0.601,0.816v0.936
					h1.235v1.486H310.239z"/>
				<path fill="#FFFFFF" d="M314.667,480.805v4.365h-1.703v-4.365h-0.84v-1.486h0.84v-1.057c0-1.414,0.995-2.23,2.159-2.23
					c0.406,0,0.768,0.072,1.065,0.203l-0.551,1.428c-0.108-0.059-0.24-0.096-0.372-0.096c-0.384,0-0.6,0.301-0.6,0.816v0.936h1.234
					v1.486H314.667z"/>
				<path fill="#FFFFFF" d="M318.41,482.604c0.12,0.973,0.721,1.332,1.38,1.332c0.646,0,1.091-0.301,1.38-0.721l1.115,0.805
					c-0.624,0.84-1.261,1.271-2.592,1.271c-1.716,0-2.975-1.26-2.975-3.059c0-1.668,1.128-3.047,2.927-3.047
					c1.979,0,2.758,1.416,2.758,3.215v0.203L318.41,482.604L318.41,482.604z M318.459,481.572h2.313
					c-0.106-0.672-0.623-1.02-1.139-1.02C319.095,480.553,318.627,480.889,318.459,481.572z"/>
				<path fill="#FFFFFF" d="M327.397,481.298c-0.3-0.324-0.563-0.554-1.044-0.554c-0.778,0-1.331,0.625-1.331,1.488
					c0,0.898,0.553,1.463,1.331,1.463c0.48,0,0.84-0.264,1.092-0.623l1.261,0.959c-0.601,0.814-1.32,1.248-2.353,1.248
					c-1.763,0-3.01-1.344-3.01-3.047s1.247-3.047,2.998-3.047c0.924,0,1.655,0.396,2.219,1.031L327.397,481.298z"/>
				<path fill="#FFFFFF" d="M330.339,479.318v-2.088h1.679v2.088h0.828v1.56h-0.828v4.293h-1.679v-4.293h-0.815v-1.56H330.339z"/>
				<path fill="#FFFFFF" d="M338.078,479.318v-2.088h1.68v2.088h0.828v1.56h-0.828v4.293h-1.68v-4.293h-0.814v-1.56H338.078z"/>
				<path fill="#FFFFFF" d="M341.402,482.232c0-1.74,1.345-3.047,3.06-3.047s3.059,1.307,3.059,3.047
					c0,1.738-1.344,3.047-3.059,3.047S341.402,483.971,341.402,482.232z M345.877,482.232c0-0.889-0.564-1.547-1.416-1.547
					c-0.863,0-1.427,0.658-1.427,1.547c0,0.898,0.587,1.559,1.427,1.559C345.313,483.791,345.877,483.132,345.877,482.232z"/>
			</g>
		</g>
		<path fill="#FFFFFF" d="M351.809,481.354c0,4.244,3.439,7.684,7.685,7.684h3.151c4.242,0,7.685-3.438,7.685-7.684
			c0-4.242-3.441-7.684-7.685-7.684h-3.151C355.248,473.672,351.809,477.112,351.809,481.354
			C351.809,481.354,351.809,477.112,351.809,481.354z"/>
		<rect x="247.011" y="473.966" fill="#FFFFFF" width="50" height="14.778"/>
	</g>
</g>
</svg>
