<?xml version="1.0" encoding="utf-8"?>
<!-- Generator: Adobe Illustrator 15.0.0, SVG Export Plug-In . SVG Version: 6.00 Build 0)  -->
<!DOCTYPE svg PUBLIC "-//W3C//DTD SVG 1.1//EN" "http://www.w3.org/Graphics/SVG/1.1/DTD/svg11.dtd">
<svg version="1.1" id="Layer_1" xmlns="http://www.w3.org/2000/svg" xmlns:xlink="http://www.w3.org/1999/xlink" x="0px" y="0px"
	 width="161.499px" height="25.078px" viewBox="216.89 107.058 161.499 25.078"
	 enable-background="new 216.89 107.058 161.499 25.078" xml:space="preserve">
<g>
	<path fill="#5A4495" d="M373.39,107.058h-20h-6h-20h-14.722h-8.334h-17.666h-43.271l-2.056,2.545
		c-0.19,0.233-0.476,0.371-0.778,0.371h-7.757c-0.302,0-0.588-0.138-0.778-0.371l-2.056-2.545h-8.083c-2.761,0-5,2.237-5,5v12.166
		c0,2.762,2.239,5,5,5h8.088l2.051,2.539c0.19,0.235,0.477,0.373,0.778,0.373h7.757c0.303,0,0.588-0.138,0.778-0.373l2.051-2.539
		h43.274h17.666h8.334h14.722h20h6h20c2.762,0,5-2.238,5-5v-12.166C378.39,109.296,376.151,107.058,373.39,107.058z"/>
	<g>
		<g>
			<g>
				<path fill="#FFFFFF" d="M223.821,115.976v-2.087h1.68v2.087h0.828v1.559H225.5v4.294h-1.68v-4.294h-0.814v-1.559H223.821z"/>
				<path fill="#FFFFFF" d="M227.505,121.828v-8.995h1.679v3.538c0,0.096-0.012,0.252-0.036,0.408
					c0.385-0.552,0.973-0.948,1.775-0.948c1.211,0,2.123,0.948,2.123,2.52v3.479h-1.691v-3.382c0-0.815-0.516-1.235-1.08-1.235
					c-0.516,0-1.02,0.407-1.091,1.247v3.37L227.505,121.828L227.505,121.828z"/>
				<path fill="#FFFFFF" d="M235.521,113.061c0.601,0,1.104,0.504,1.104,1.104c0,0.601-0.504,1.104-1.104,1.104
					c-0.6,0-1.104-0.504-1.104-1.104C234.417,113.565,234.921,113.061,235.521,113.061z M234.646,121.828v-5.853h1.715v5.853
					H234.646z"/>
				<path fill="#FFFFFF" d="M239.672,121.828h-1.679v-5.853h1.679v0.396c0,0.096-0.012,0.24-0.036,0.408
					c0.384-0.552,0.972-0.948,1.775-0.948c1.211,0,2.123,0.948,2.123,2.52v3.479h-1.691v-3.382c0-0.815-0.516-1.235-1.08-1.235
					c-0.504,0-1.067,0.407-1.091,1.188V121.828z"/>
				<path fill="#FFFFFF" d="M248.923,121.828l-1.644-2.459l-0.504,0.576v1.883h-1.703v-8.995h1.703v5.121l1.632-1.991h1.87
					l-2.003,2.291l2.472,3.574H248.923z"/>
			</g>
		</g>
		<g>
			<g>
				<path fill="#FFFFFF" d="M310.381,117.463v4.365h-1.703v-4.365h-0.84v-1.486h0.84v-1.057c0-1.415,0.995-2.229,2.158-2.229
					c0.408,0,0.768,0.071,1.067,0.203l-0.553,1.428c-0.106-0.06-0.239-0.096-0.371-0.096c-0.384,0-0.6,0.3-0.6,0.814v0.937h1.233
					v1.486H310.381z"/>
				<path fill="#FFFFFF" d="M312.434,118.89c0-1.739,1.344-3.046,3.06-3.046c1.715,0,3.059,1.307,3.059,3.046
					c0,1.738-1.344,3.047-3.059,3.047C313.778,121.937,312.434,120.629,312.434,118.89z M316.907,118.89
					c0-0.889-0.563-1.547-1.415-1.547c-0.863,0-1.429,0.658-1.429,1.547c0,0.898,0.588,1.56,1.429,1.56
					C316.344,120.449,316.907,119.789,316.907,118.89z"/>
				<path fill="#FFFFFF" d="M321.408,121.828h-1.68v-5.853h1.68v0.396c0,0.132-0.023,0.349-0.061,0.576
					c0.336-0.636,0.863-1.116,1.631-1.116v1.645c-0.876,0-1.57,0.504-1.57,1.463V121.828z"/>
			</g>
		</g>
		<g>
			<g>
				<path fill="#FFFFFF" d="M349.953,119.861c0.407,0.468,1.056,0.659,1.618,0.659c0.359,0,0.624-0.145,0.624-0.359
					c0-0.3-0.3-0.443-0.792-0.588c-0.91-0.264-2.039-0.768-2.039-1.955c0-1.127,1.093-1.763,2.075-1.763
					c0.889,0,1.512,0.3,2.039,0.852l-0.936,1.008c-0.252-0.275-0.721-0.527-1.067-0.527c-0.313,0-0.539,0.145-0.539,0.372
					c0,0.288,0.335,0.432,0.863,0.588c0.887,0.264,2.026,0.814,2.026,1.931c0,1.104-0.947,1.871-2.268,1.871
					c-1.056,0-1.919-0.3-2.555-0.983L349.953,119.861z"/>
				<path fill="#FFFFFF" d="M356.336,119.262c0.121,0.972,0.721,1.331,1.38,1.331c0.646,0,1.091-0.301,1.38-0.721l1.115,0.805
					c-0.624,0.84-1.26,1.271-2.591,1.271c-1.717,0-2.976-1.26-2.976-3.059c0-1.667,1.128-3.046,2.927-3.046
					c1.979,0,2.759,1.414,2.759,3.214v0.204L356.336,119.262L356.336,119.262z M356.385,118.23h2.314
					c-0.107-0.672-0.623-1.021-1.14-1.021C357.021,117.211,356.553,117.547,356.385,118.23z"/>
				<path fill="#FFFFFF" d="M365.323,117.954c-0.3-0.323-0.563-0.552-1.044-0.552c-0.778,0-1.331,0.624-1.331,1.487
					c0,0.898,0.553,1.463,1.331,1.463c0.48,0,0.841-0.265,1.093-0.623l1.26,0.959c-0.601,0.814-1.32,1.248-2.353,1.248
					c-1.763,0-3.01-1.345-3.01-3.047c0-1.703,1.247-3.046,2.998-3.046c0.924,0,1.655,0.396,2.219,1.03L365.323,117.954z"/>
				<path fill="#FFFFFF" d="M368.396,119.861c0.408,0.468,1.057,0.659,1.619,0.659c0.359,0,0.624-0.145,0.624-0.359
					c0-0.3-0.3-0.443-0.792-0.588c-0.911-0.264-2.039-0.768-2.039-1.955c0-1.127,1.092-1.763,2.075-1.763
					c0.888,0,1.511,0.3,2.039,0.852l-0.937,1.008c-0.252-0.275-0.72-0.527-1.066-0.527c-0.313,0-0.539,0.145-0.539,0.372
					c0,0.288,0.335,0.432,0.863,0.588c0.887,0.264,2.025,0.814,2.025,1.931c0,1.104-0.947,1.871-2.267,1.871
					c-1.057,0-1.919-0.3-2.556-0.983L368.396,119.861z"/>
			</g>
		</g>
		<path fill="#FFFFFF" d="M326.454,118.013c0,4.243,3.438,7.684,7.684,7.684h3.152c4.242,0,7.684-3.439,7.684-7.684
			c0-4.242-3.44-7.685-7.684-7.685h-3.152C329.894,110.329,326.454,113.771,326.454,118.013
			C326.454,118.013,326.454,113.771,326.454,118.013z"/>
		<rect x="254.656" y="110.622" fill="#FFFFFF" width="50" height="14.779"/>
	</g>
</g>
</svg>
