<?xml version="1.0" encoding="utf-8"?>
<!-- Generator: Adobe Illustrator 15.0.0, SVG Export Plug-In . SVG Version: 6.00 Build 0)  -->
<!DOCTYPE svg PUBLIC "-//W3C//DTD SVG 1.1//EN" "http://www.w3.org/Graphics/SVG/1.1/DTD/svg11.dtd">
<svg version="1.1" id="Layer_1" xmlns="http://www.w3.org/2000/svg" xmlns:xlink="http://www.w3.org/1999/xlink" x="0px" y="0px"
	 width="183.499px" height="25.079px" viewBox="205.89 434.399 183.499 25.079"
	 enable-background="new 205.89 434.399 183.499 25.079" xml:space="preserve">
<g>
	<path fill="#5A4495" d="M384.39,434.399h-20h-2h-4h-14.14h-1.86h-6h-20h-14.722h-8.334h-17.666h-43.271l-2.056,2.545
		c-0.19,0.235-0.476,0.372-0.778,0.372h-7.757c-0.302,0-0.588-0.137-0.778-0.372l-2.056-2.545h-8.083c-2.761,0-5,2.238-5,5v12.167
		c0,2.762,2.239,5,5,5h8.088l2.051,2.539c0.19,0.236,0.477,0.373,0.778,0.373h7.757c0.303,0,0.588-0.137,0.778-0.373l2.051-2.539
		h43.274h17.666h8.334h14.722h20h6h1.86h14.14h4h2h20c2.762,0,5-2.238,5-5v-12.167C389.39,436.638,387.151,434.399,384.39,434.399z"
		/>
	<g>
		<g>
			<g>
				<path fill="#FFFFFF" d="M217.534,445.298c-0.301-0.324-0.564-0.554-1.043-0.554c-0.78,0-1.332,0.625-1.332,1.488
					c0,0.898,0.552,1.463,1.332,1.463c0.479,0,0.839-0.264,1.091-0.623l1.259,0.959c-0.6,0.814-1.319,1.248-2.351,1.248
					c-1.764,0-3.011-1.344-3.011-3.047s1.247-3.047,2.998-3.047c0.924,0,1.655,0.396,2.219,1.031L217.534,445.298z"/>
				<path fill="#FFFFFF" d="M220.02,449.171v-8.994h1.68v3.537c0,0.096-0.013,0.252-0.036,0.407
					c0.384-0.551,0.972-0.946,1.774-0.946c1.211,0,2.123,0.946,2.123,2.518v3.479h-1.69v-3.382c0-0.815-0.517-1.235-1.08-1.235
					c-0.517,0-1.021,0.408-1.091,1.248v3.369L220.02,449.171L220.02,449.171z"/>
				<path fill="#FFFFFF" d="M232.449,449.171c-0.721,0-1.212-0.384-1.476-0.994c-0.336,0.563-1.043,1.114-2.087,1.114
					c-1.295,0-1.955-0.84-1.955-1.715c0-0.973,0.792-1.92,2.423-1.92c0.492,0,0.972,0.062,1.415,0.146v-0.193
					c0-0.574-0.396-0.959-1.043-0.959c-0.456,0-0.828,0.205-1.066,0.588l-1.176-0.875c0,0,0.671-1.199,2.327-1.199
					c1.631,0,2.626,0.972,2.626,2.375v1.763c0,0.217,0.145,0.348,0.36,0.348h0.24v1.523L232.449,449.171L232.449,449.171z
					 M230.77,446.844c-0.312-0.062-0.695-0.119-0.923-0.119c-0.684,0-1.211,0.227-1.211,0.707c0,0.324,0.24,0.539,0.684,0.539
					C230.026,447.971,230.554,447.479,230.77,446.844z"/>
				<path fill="#FFFFFF" d="M235.727,449.171h-1.679v-5.853h1.679v0.396c0,0.096-0.012,0.239-0.036,0.407
					c0.385-0.551,0.973-0.946,1.775-0.946c1.211,0,2.123,0.946,2.123,2.518v3.479h-1.691v-3.382c0-0.815-0.516-1.235-1.08-1.235
					c-0.504,0-1.066,0.408-1.091,1.188V449.171z"/>
				<path fill="#FFFFFF" d="M244.786,443.414l0.742-0.852l0.984,0.924l-0.696,0.695c0.336,0.408,0.528,0.91,0.528,1.463
					c0,1.463-1.2,2.434-2.675,2.434c-0.349,0-0.647-0.034-0.937-0.106c-0.516,0.432-0.563,0.959,0.229,0.959
					c0.552,0,0.912-0.228,1.715-0.228c3.059,0,3.035,4.271-1.007,4.271c-3.034,0-3.658-1.967-2.626-3.322
					c-0.433-0.672-0.252-1.703,0.552-2.326c-0.396-0.42-0.612-0.996-0.612-1.68c0-1.463,1.211-2.447,2.688-2.447
					C244.066,443.197,244.45,443.27,244.786,443.414z M242.159,450.335c-0.324,0.61,0.071,1.211,1.511,1.211
					c2.11,0,2.051-1.464,0.948-1.464c-0.648,0-1.296,0.275-2.147,0.275C242.363,450.357,242.255,450.346,242.159,450.335z
					 M243.67,446.699c0.66,0,1.091-0.371,1.091-1.055c0-0.695-0.432-1.092-1.091-1.092c-0.671,0-1.104,0.408-1.104,1.092
					C242.567,446.341,243.035,446.699,243.67,446.699z"/>
				<path fill="#FFFFFF" d="M249.023,446.604c0.12,0.973,0.721,1.332,1.379,1.332c0.647,0,1.092-0.301,1.379-0.721l1.115,0.805
					c-0.624,0.84-1.259,1.271-2.59,1.271c-1.715,0-2.975-1.26-2.975-3.059c0-1.668,1.127-3.047,2.926-3.047
					c1.979,0,2.759,1.416,2.759,3.215v0.203L249.023,446.604L249.023,446.604z M249.071,445.572h2.314
					c-0.108-0.672-0.624-1.02-1.139-1.02C249.707,444.553,249.239,444.889,249.071,445.572z"/>
			</g>
		</g>
		<g>
			<g>
				<path fill="#FFFFFF" d="M314.051,446.604c0.121,0.973,0.721,1.332,1.38,1.332c0.647,0,1.091-0.301,1.38-0.721l1.115,0.805
					c-0.624,0.84-1.26,1.271-2.591,1.271c-1.716,0-2.976-1.26-2.976-3.059c0-1.668,1.128-3.047,2.928-3.047
					c1.979,0,2.758,1.416,2.758,3.215v0.203L314.051,446.604L314.051,446.604z M314.1,445.572h2.314
					c-0.107-0.672-0.623-1.02-1.14-1.02C314.735,444.553,314.268,444.889,314.1,445.572z"/>
				<path fill="#FFFFFF" d="M321.239,444.805v4.365h-1.702v-4.365h-0.841v-1.486h0.841v-1.057c0-1.414,0.994-2.23,2.158-2.23
					c0.407,0,0.769,0.072,1.066,0.203l-0.551,1.428c-0.108-0.059-0.24-0.096-0.372-0.096c-0.384,0-0.601,0.301-0.601,0.816v0.936
					h1.235v1.486H321.239z"/>
				<path fill="#FFFFFF" d="M325.667,444.805v4.365h-1.703v-4.365h-0.84v-1.486h0.84v-1.057c0-1.414,0.995-2.23,2.159-2.23
					c0.406,0,0.768,0.072,1.065,0.203l-0.551,1.428c-0.108-0.059-0.24-0.096-0.372-0.096c-0.384,0-0.6,0.301-0.6,0.816v0.936h1.234
					v1.486H325.667z"/>
				<path fill="#FFFFFF" d="M329.41,446.604c0.12,0.973,0.721,1.332,1.38,1.332c0.646,0,1.091-0.301,1.38-0.721l1.115,0.805
					c-0.624,0.84-1.261,1.271-2.592,1.271c-1.716,0-2.975-1.26-2.975-3.059c0-1.668,1.128-3.047,2.927-3.047
					c1.979,0,2.758,1.416,2.758,3.215v0.203L329.41,446.604L329.41,446.604z M329.459,445.572h2.313
					c-0.106-0.672-0.623-1.02-1.139-1.02C330.095,444.553,329.627,444.889,329.459,445.572z"/>
				<path fill="#FFFFFF" d="M338.397,445.298c-0.3-0.324-0.563-0.554-1.044-0.554c-0.778,0-1.331,0.625-1.331,1.488
					c0,0.898,0.553,1.463,1.331,1.463c0.48,0,0.84-0.264,1.092-0.623l1.261,0.959c-0.601,0.814-1.32,1.248-2.353,1.248
					c-1.763,0-3.01-1.344-3.01-3.047s1.247-3.047,2.998-3.047c0.924,0,1.655,0.396,2.219,1.031L338.397,445.298z"/>
				<path fill="#FFFFFF" d="M341.339,443.318v-2.088h1.679v2.088h0.828v1.56h-0.828v4.293h-1.679v-4.293h-0.815v-1.56H341.339z"/>
				<path fill="#FFFFFF" d="M348.623,449.171v-8.994h1.68v3.729c0.455-0.479,1.055-0.721,1.703-0.721
					c1.619,0,2.542,1.475,2.542,3.035c0,1.582-0.888,3.07-2.53,3.07c-0.684,0-1.32-0.337-1.774-0.89v0.769L348.623,449.171
					L348.623,449.171z M352.881,446.244c0-0.862-0.432-1.559-1.309-1.559c-0.778,0-1.295,0.646-1.295,1.547
					c0,0.803,0.527,1.57,1.295,1.57C352.438,447.803,352.881,447.096,352.881,446.244z"/>
				<path fill="#FFFFFF" d="M357.094,448.523l-2.182-5.205h1.762l1.128,2.734c0.097,0.24,0.181,0.563,0.192,0.6
					c0-0.024,0.106-0.348,0.215-0.6l1.176-2.734h1.775l-4.042,9.127h-1.752L357.094,448.523z"/>
			</g>
		</g>
		<path fill="#FFFFFF" d="M363.809,445.354c0,4.244,3.439,7.684,7.685,7.684h3.151c4.242,0,7.685-3.438,7.685-7.684
			c0-4.242-3.441-7.684-7.685-7.684h-3.151C367.248,437.672,363.809,441.112,363.809,445.354
			C363.809,445.354,363.809,441.112,363.809,445.354z"/>
		<rect x="258.011" y="437.966" fill="#FFFFFF" width="50" height="14.778"/>
	</g>
</g>
</svg>
