<?xml version="1.0" encoding="utf-8"?>
<!-- Generator: Adobe Illustrator 15.0.0, SVG Export Plug-In . SVG Version: 6.00 Build 0)  -->
<!DOCTYPE svg PUBLIC "-//W3C//DTD SVG 1.1//EN" "http://www.w3.org/Graphics/SVG/1.1/DTD/svg11.dtd">
<svg version="1.1" id="Layer_1" xmlns="http://www.w3.org/2000/svg" xmlns:xlink="http://www.w3.org/1999/xlink" x="0px" y="0px"
	 width="183.5px" height="25.078px" viewBox="205.89 384.944 183.5 25.078" enable-background="new 205.89 384.944 183.5 25.078"
	 xml:space="preserve">
<g>
	<path fill="#5A4495" d="M384.39,384.944h-0.589h-6.133h-0.278h-0.589h-0.411h-0.589h-5.133h-1h-0.278h-0.589h-6.133H358h-0.61
		h-0.589h-1.456H350h-0.61h-0.589h-6.133h-0.278h-0.589h-6.133h-4.873H323h-11.61h-0.589h-6.133h-0.278h-0.589h-0.006h-6.127H285
		h-52.603l-2.056,2.545c-0.19,0.235-0.476,0.372-0.778,0.372h-7.757c-0.303,0-0.588-0.137-0.778-0.372l-2.056-2.545h-8.083
		c-2.762,0-5,2.238-5,5v12.167c0,2.762,2.238,4.999,5,4.999h8.088l2.051,2.539c0.19,0.236,0.477,0.373,0.778,0.373h7.757
		c0.304,0,0.588-0.137,0.778-0.373l2.051-2.539H285h12.668h6.127h0.006h0.589h0.278h6.133h0.589H323h7.795h4.873h6.133h0.589h0.278
		h6.133h0.589H350h5.345h1.456h0.589H358h4.668h6.133h0.589h0.278h1h5.133h0.589h0.411h0.589h0.278h6.133h0.589
		c2.762,0,5-2.237,5-4.999v-12.167C389.39,387.183,387.151,384.944,384.39,384.944z"/>
	<g>
		<g>
			<g>
				<path fill="#FFFFFF" d="M214.643,397.749c0.408,0.468,1.055,0.658,1.619,0.658c0.36,0,0.624-0.143,0.624-0.358
					c0-0.3-0.3-0.443-0.792-0.588c-0.912-0.265-2.039-0.769-2.039-1.955c0-1.127,1.091-1.763,2.075-1.763
					c0.888,0,1.511,0.3,2.039,0.853l-0.937,1.008c-0.252-0.277-0.72-0.529-1.066-0.529c-0.313,0-0.54,0.146-0.54,0.373
					c0,0.287,0.335,0.433,0.862,0.588c0.889,0.265,2.027,0.814,2.027,1.931c0,1.104-0.947,1.871-2.267,1.871
					c-1.057,0-1.919-0.3-2.556-0.982L214.643,397.749z"/>
				<path fill="#FFFFFF" d="M228.894,393.862l-2.015,5.854h-1.907l-0.875-2.734c-0.06-0.168-0.12-0.479-0.132-0.541l-0.145,0.541
					l-0.898,2.734h-1.907c-0.66-1.943-1.319-3.898-1.967-5.854h1.811l0.911,3.228c0.084,0.323,0.168,0.707,0.192,0.778
					c0.012-0.061,0.096-0.432,0.204-0.778l0.946-3.228h1.703l0.923,3.228c0.097,0.348,0.169,0.743,0.181,0.791
					c0.012-0.048,0.107-0.433,0.216-0.791l0.936-3.228H228.894z"/>
				<path fill="#FFFFFF" d="M230.722,390.948c0.6,0,1.104,0.504,1.104,1.104c0,0.6-0.505,1.104-1.104,1.104
					s-1.104-0.504-1.104-1.104C229.618,391.452,230.123,390.948,230.722,390.948z M229.847,399.717v-5.854h1.715v5.854H229.847z"/>
				<path fill="#FFFFFF" d="M233.65,393.862v-2.086h1.68v2.086h0.828v1.56h-0.828v4.295h-1.68v-4.295h-0.814v-1.56H233.65z"/>
				<path fill="#FFFFFF" d="M241.148,395.842c-0.3-0.322-0.563-0.552-1.043-0.552c-0.779,0-1.331,0.623-1.331,1.486
					c0,0.9,0.552,1.463,1.331,1.463c0.479,0,0.839-0.264,1.091-0.623l1.26,0.959c-0.601,0.816-1.319,1.248-2.352,1.248
					c-1.763,0-3.01-1.344-3.01-3.047s1.247-3.045,2.998-3.045c0.924,0,1.655,0.396,2.219,1.031L241.148,395.842z"/>
				<path fill="#FFFFFF" d="M243.634,399.717v-8.996h1.679v3.539c0,0.096-0.012,0.252-0.036,0.408
					c0.385-0.554,0.973-0.949,1.775-0.949c1.211,0,2.123,0.949,2.123,2.52v3.479h-1.691v-3.384c0-0.813-0.516-1.233-1.08-1.233
					c-0.516,0-1.02,0.406-1.091,1.246v3.371L243.634,399.717L243.634,399.717z"/>
				<path fill="#FFFFFF" d="M254.313,399.717v-8.996h1.68v3.729c0.455-0.479,1.055-0.719,1.702-0.719
					c1.619,0,2.542,1.475,2.542,3.033c0,1.584-0.888,3.07-2.53,3.07c-0.685,0-1.319-0.337-1.775-0.888v0.769L254.313,399.717
					L254.313,399.717z M258.571,396.788c0-0.862-0.432-1.559-1.308-1.559c-0.779,0-1.295,0.648-1.295,1.547
					c0,0.805,0.527,1.572,1.295,1.572C258.127,398.349,258.571,397.64,258.571,396.788z"/>
				<path fill="#FFFFFF" d="M266.767,399.717c-0.72,0-1.211-0.386-1.475-0.996c-0.336,0.563-1.043,1.115-2.087,1.115
					c-1.295,0-1.955-0.841-1.955-1.716c0-0.971,0.792-1.918,2.423-1.918c0.492,0,0.971,0.06,1.415,0.144v-0.191
					c0-0.576-0.396-0.959-1.043-0.959c-0.456,0-0.828,0.203-1.067,0.588l-1.175-0.877c0,0,0.671-1.199,2.327-1.199
					c1.631,0,2.626,0.974,2.626,2.375v1.765c0,0.215,0.144,0.348,0.36,0.348h0.239v1.523L266.767,399.717L266.767,399.717z
					 M265.087,397.388c-0.313-0.06-0.696-0.119-0.923-0.119c-0.685,0-1.211,0.229-1.211,0.707c0,0.324,0.239,0.541,0.684,0.541
					C264.344,398.517,264.872,398.024,265.087,397.388z"/>
				<path fill="#FFFFFF" d="M272.179,395.842c-0.3-0.322-0.564-0.552-1.043-0.552c-0.78,0-1.331,0.623-1.331,1.486
					c0,0.9,0.551,1.463,1.331,1.463c0.479,0,0.839-0.264,1.091-0.623l1.259,0.959c-0.6,0.816-1.318,1.248-2.351,1.248
					c-1.763,0-3.01-1.344-3.01-3.047s1.247-3.045,2.998-3.045c0.924,0,1.654,0.396,2.219,1.031L272.179,395.842z"/>
				<path fill="#FFFFFF" d="M278.515,399.717l-1.643-2.459l-0.504,0.575v1.884h-1.703v-8.996h1.703v5.121l1.631-1.99h1.871
					l-2.003,2.291l2.471,3.574H278.515L278.515,399.717z"/>
				<path fill="#FFFFFF" d="M284.995,399.717v-0.769c-0.469,0.551-1.093,0.888-1.775,0.888c-1.643,0-2.53-1.486-2.53-3.07
					c0-1.56,0.923-3.033,2.542-3.033c0.647,0,1.247,0.238,1.703,0.719v-3.729h1.679v8.996L284.995,399.717L284.995,399.717z
					 M284.959,396.776c0-0.897-0.517-1.547-1.295-1.547c-0.875,0-1.308,0.695-1.308,1.559c0,0.853,0.444,1.562,1.308,1.562
					C284.431,398.349,284.959,397.581,284.959,396.776z"/>
				<path fill="#FFFFFF" d="M289.832,399.717h-1.68v-5.854h1.68v0.396c0,0.131-0.024,0.348-0.061,0.575
					c0.336-0.637,0.863-1.116,1.631-1.116v1.645c-0.875,0-1.57,0.504-1.57,1.463V399.717z"/>
				<path fill="#FFFFFF" d="M292.245,396.776c0-1.738,1.343-3.045,3.059-3.045c1.715,0,3.058,1.307,3.058,3.045
					c0,1.74-1.343,3.047-3.058,3.047C293.588,399.823,292.245,398.517,292.245,396.776z M296.718,396.776
					c0-0.887-0.564-1.547-1.415-1.547c-0.864,0-1.427,0.66-1.427,1.547c0,0.9,0.587,1.562,1.427,1.562
					C296.154,398.338,296.718,397.677,296.718,396.776z"/>
				<path fill="#FFFFFF" d="M299.541,402.715v-8.853h1.679v0.588c0.456-0.479,1.056-0.719,1.703-0.719
					c1.619,0,2.542,1.475,2.542,3.033c0,1.584-0.887,3.07-2.53,3.07c-0.684,0-1.319-0.337-1.773-0.888v3.767L299.541,402.715
					L299.541,402.715z M303.799,396.788c0-0.862-0.433-1.559-1.309-1.559c-0.779,0-1.296,0.648-1.296,1.547
					c0,0.805,0.527,1.572,1.296,1.572C303.354,398.349,303.799,397.64,303.799,396.788z"/>
				<path fill="#FFFFFF" d="M310.699,393.862v-2.086h1.68v2.086h0.828v1.56h-0.828v4.295h-1.68v-4.295h-0.814v-1.56H310.699z"/>
				<path fill="#FFFFFF" d="M314.023,396.776c0-1.738,1.345-3.045,3.06-3.045s3.059,1.307,3.059,3.045
					c0,1.74-1.344,3.047-3.059,3.047S314.023,398.517,314.023,396.776z M318.498,396.776c0-0.887-0.564-1.547-1.416-1.547
					c-0.863,0-1.428,0.66-1.428,1.547c0,0.9,0.588,1.562,1.428,1.562C317.934,398.338,318.498,397.677,318.498,396.776z"/>
			</g>
		</g>
		<rect x="324.683" y="388.844" fill="#FFFFFF" width="57.312" height="14.778"/>
	</g>
</g>
</svg>
