<?xml version="1.0" encoding="utf-8"?>
<!-- Generator: Adobe Illustrator 15.0.0, SVG Export Plug-In . SVG Version: 6.00 Build 0)  -->
<!DOCTYPE svg PUBLIC "-//W3C//DTD SVG 1.1//EN" "http://www.w3.org/Graphics/SVG/1.1/DTD/svg11.dtd">
<svg version="1.1" id="Layer_1" xmlns="http://www.w3.org/2000/svg" xmlns:xlink="http://www.w3.org/1999/xlink" x="0px" y="0px"
	 width="110.499px" height="25.078px" viewBox="242.39 686.862 110.499 25.078"
	 enable-background="new 242.39 686.862 110.499 25.078" xml:space="preserve">
<g>
	<path fill="#5A4495" d="M347.89,686.862h-0.588h-6.133h-0.279h-0.588h-6.133h-12.668h-52.604l-2.056,2.545
		c-0.19,0.235-0.476,0.372-0.778,0.372h-7.757c-0.303,0-0.588-0.137-0.778-0.372l-2.056-2.545h-8.083c-2.762,0-5,2.238-5,5v12.167
		c0,2.762,2.238,4.999,5,4.999h8.088l2.051,2.539c0.19,0.236,0.477,0.373,0.778,0.373h7.757c0.304,0,0.588-0.137,0.778-0.373
		l2.051-2.539H321.5h12.668h6.133h0.588h0.279h6.133h0.588c2.762,0,5-2.237,5-4.999v-12.167
		C352.89,689.101,350.651,686.862,347.89,686.862z"/>
	<g>
		<g>
			<g>
				<path fill="#FFFFFF" d="M251.536,695.878l0.742-0.853l0.984,0.924l-0.696,0.695c0.336,0.408,0.528,0.91,0.528,1.463
					c0,1.463-1.2,2.435-2.675,2.435c-0.349,0-0.647-0.035-0.937-0.107c-0.516,0.432-0.563,0.959,0.229,0.959
					c0.552,0,0.912-0.227,1.715-0.227c3.058,0,3.034,4.27-1.008,4.27c-3.034,0-3.658-1.967-2.626-3.322
					c-0.433-0.672-0.252-1.703,0.552-2.325c-0.396-0.421-0.612-0.996-0.612-1.681c0-1.463,1.211-2.447,2.688-2.447
					C250.816,695.66,251.2,695.732,251.536,695.878z M248.909,702.798c-0.324,0.61,0.071,1.211,1.511,1.211
					c2.11,0,2.051-1.463,0.948-1.463c-0.648,0-1.296,0.274-2.147,0.274C249.113,702.82,249.005,702.809,248.909,702.798z
					 M250.42,699.162c0.66,0,1.091-0.371,1.091-1.055c0-0.695-0.432-1.092-1.091-1.092c-0.671,0-1.104,0.408-1.104,1.092
					C249.317,698.803,249.785,699.162,250.42,699.162z"/>
				<path fill="#FFFFFF" d="M254.082,698.695c0-1.74,1.343-3.047,3.059-3.047c1.715,0,3.059,1.307,3.059,3.047
					c0,1.738-1.344,3.047-3.059,3.047C255.425,701.742,254.082,700.434,254.082,698.695z M258.556,698.695
					c0-0.889-0.563-1.547-1.415-1.547c-0.864,0-1.427,0.658-1.427,1.547c0,0.898,0.587,1.56,1.427,1.56
					C257.992,700.255,258.556,699.594,258.556,698.695z"/>
				<path fill="#FFFFFF" d="M264.978,701.634v-8.994h1.679v3.729c0.456-0.479,1.056-0.721,1.703-0.721
					c1.619,0,2.542,1.475,2.542,3.035c0,1.582-0.888,3.07-2.53,3.07c-0.685,0-1.319-0.337-1.775-0.89v0.769L264.978,701.634
					L264.978,701.634z M269.236,698.707c0-0.862-0.432-1.559-1.308-1.559c-0.779,0-1.295,0.646-1.295,1.547
					c0,0.803,0.527,1.57,1.295,1.57C268.792,700.266,269.236,699.559,269.236,698.707z"/>
				<path fill="#FFFFFF" d="M277.431,701.634c-0.72,0-1.211-0.384-1.475-0.994c-0.336,0.563-1.043,1.115-2.087,1.115
					c-1.296,0-1.955-0.841-1.955-1.716c0-0.973,0.792-1.92,2.423-1.92c0.492,0,0.971,0.062,1.415,0.146v-0.193
					c0-0.574-0.396-0.959-1.043-0.959c-0.456,0-0.828,0.205-1.067,0.588l-1.175-0.875c0,0,0.671-1.198,2.327-1.198
					c1.631,0,2.626,0.971,2.626,2.375v1.762c0,0.217,0.144,0.348,0.359,0.348h0.24v1.523L277.431,701.634L277.431,701.634z
					 M275.752,699.307c-0.313-0.062-0.696-0.119-0.923-0.119c-0.685,0-1.211,0.227-1.211,0.707c0,0.324,0.239,0.539,0.684,0.539
					C275.008,700.434,275.536,699.941,275.752,699.307z"/>
				<path fill="#FFFFFF" d="M282.844,697.76c-0.3-0.324-0.564-0.554-1.043-0.554c-0.78,0-1.331,0.625-1.331,1.488
					c0,0.898,0.551,1.463,1.331,1.463c0.479,0,0.839-0.264,1.091-0.623l1.259,0.959c-0.6,0.814-1.318,1.248-2.351,1.248
					c-1.763,0-3.01-1.344-3.01-3.047s1.247-3.047,2.998-3.047c0.924,0,1.654,0.396,2.219,1.031L282.844,697.76z"/>
				<path fill="#FFFFFF" d="M289.18,701.634l-1.643-2.459l-0.504,0.575v1.884h-1.703v-8.994h1.703v5.121l1.631-1.992h1.871
					l-2.003,2.291l2.471,3.574H289.18L289.18,701.634z"/>
			</g>
		</g>
		<g>
			<g>
				<path fill="#FFFFFF" d="M315.878,701.634v-8.994h1.703v8.994H315.878z"/>
				<path fill="#FFFFFF" d="M324.467,701.634c-0.72,0-1.211-0.384-1.475-0.994c-0.337,0.563-1.045,1.115-2.089,1.115
					c-1.295,0-1.954-0.841-1.954-1.716c0-0.973,0.792-1.92,2.424-1.92c0.49,0,0.971,0.062,1.414,0.146v-0.193
					c0-0.574-0.396-0.959-1.043-0.959c-0.455,0-0.828,0.205-1.067,0.588l-1.175-0.875c0,0,0.672-1.198,2.326-1.198
					c1.631,0,2.627,0.971,2.627,2.375v1.762c0,0.217,0.144,0.348,0.358,0.348h0.24v1.523L324.467,701.634L324.467,701.634z
					 M322.787,699.307c-0.312-0.062-0.695-0.119-0.924-0.119c-0.684,0-1.212,0.227-1.212,0.707c0,0.324,0.24,0.539,0.685,0.539
					C322.044,700.434,322.572,699.941,322.787,699.307z"/>
				<path fill="#FFFFFF" d="M327.601,700.986l-2.183-5.205h1.763l1.128,2.734c0.096,0.24,0.18,0.563,0.191,0.6
					c0-0.024,0.106-0.348,0.216-0.6l1.175-2.734h1.775l-4.041,9.127h-1.752L327.601,700.986z"/>
				<path fill="#FFFFFF" d="M333.672,699.066c0.121,0.973,0.721,1.332,1.38,1.332c0.647,0,1.091-0.301,1.38-0.721l1.115,0.805
					c-0.624,0.84-1.26,1.271-2.591,1.271c-1.717,0-2.976-1.261-2.976-3.06c0-1.668,1.128-3.047,2.928-3.047
					c1.979,0,2.758,1.416,2.758,3.215v0.203L333.672,699.066L333.672,699.066z M333.721,698.035h2.314
					c-0.107-0.672-0.623-1.02-1.14-1.02C334.355,697.016,333.889,697.352,333.721,698.035z"/>
				<path fill="#FFFFFF" d="M340.524,701.634h-1.679v-5.853h1.679v0.396c0,0.133-0.023,0.348-0.06,0.576
					c0.336-0.636,0.863-1.115,1.631-1.115v1.643c-0.876,0-1.571,0.504-1.571,1.463V701.634z"/>
				<path fill="#FFFFFF" d="M343.885,699.666c0.408,0.47,1.055,0.66,1.619,0.66c0.358,0,0.623-0.145,0.623-0.358
					c0-0.302-0.299-0.443-0.791-0.588c-0.912-0.265-2.039-0.769-2.039-1.955c0-1.127,1.092-1.765,2.074-1.765
					c0.889,0,1.512,0.302,2.039,0.853l-0.937,1.008c-0.252-0.275-0.719-0.527-1.065-0.527c-0.313,0-0.54,0.146-0.54,0.371
					c0,0.289,0.335,0.433,0.862,0.588c0.889,0.265,2.026,0.816,2.026,1.933c0,1.104-0.947,1.871-2.266,1.871
					c-1.058,0-1.921-0.302-2.556-0.984L343.885,699.666z"/>
			</g>
		</g>
		<path fill="#FFFFFF" d="M293.283,697.919c0,4.243,3.439,7.684,7.684,7.684h3.152c4.241,0,7.684-3.439,7.684-7.684
			c0-4.242-3.441-7.685-7.684-7.685h-3.152C296.723,690.234,293.283,693.677,293.283,697.919
			C293.283,697.919,293.283,693.677,293.283,697.919z"/>
	</g>
</g>
</svg>
