<?xml version="1.0" encoding="utf-8"?>
<!-- Generator: Adobe Illustrator 15.0.0, SVG Export Plug-In . SVG Version: 6.00 Build 0)  -->
<!DOCTYPE svg PUBLIC "-//W3C//DTD SVG 1.1//EN" "http://www.w3.org/Graphics/SVG/1.1/DTD/svg11.dtd">
<svg version="1.1" id="Layer_1" xmlns="http://www.w3.org/2000/svg" xmlns:xlink="http://www.w3.org/1999/xlink" x="0px" y="0px"
	 width="90.499px" height="25.077px" viewBox="252.39 340.961 90.499 25.077" enable-background="new 252.39 340.961 90.499 25.077"
	 xml:space="preserve">
<g>
	<path fill="#5A4495" d="M337.89,340.961h-0.589h-6.133h-0.278h-0.589h-6.133h-4.335H311.5h-0.61h-0.589h-1.968h-29.436
		l-2.056,2.545c-0.19,0.234-0.476,0.372-0.778,0.372h-7.757c-0.303,0-0.588-0.138-0.778-0.372l-2.056-2.545h-8.083
		c-2.762,0-5,2.237-5,5v12.167c0,2.762,2.238,4.999,5,4.999h8.088l2.051,2.538c0.19,0.236,0.477,0.373,0.778,0.373h7.757
		c0.304,0,0.588-0.137,0.778-0.373l2.051-2.538h29.439h1.968h0.589h0.61h8.333h4.335h6.133h0.589h0.278h6.133h0.589
		c2.762,0,5-2.237,5-4.999v-12.167C342.89,343.198,340.651,340.961,337.89,340.961z"/>
	<g>
		<g>
			<g>
				<path fill="#FFFFFF" d="M262.84,356.731h-1.679v-5.854h1.679v0.396c0,0.096-0.012,0.24-0.036,0.408
					c0.384-0.553,0.972-0.949,1.775-0.949c1.211,0,2.123,0.949,2.123,2.52v3.479h-1.691v-3.383c0-0.814-0.516-1.234-1.08-1.234
					c-0.504,0-1.067,0.406-1.091,1.188V356.731L262.84,356.731z"/>
				<path fill="#FFFFFF" d="M269.572,354.165c0.12,0.972,0.721,1.33,1.38,1.33c0.646,0,1.091-0.299,1.379-0.719l1.114,0.803
					c-0.624,0.841-1.259,1.271-2.59,1.271c-1.715,0-2.975-1.26-2.975-3.06c0-1.665,1.127-3.045,2.926-3.045
					c1.979,0,2.759,1.414,2.759,3.214v0.204L269.572,354.165L269.572,354.165z M269.62,353.135h2.313
					c-0.107-0.672-0.624-1.021-1.139-1.021C270.256,352.114,269.788,352.45,269.62,353.135z"/>
				<path fill="#FFFFFF" d="M276.112,353.758l-1.931-2.879h1.883l0.828,1.248c0.145,0.227,0.288,0.538,0.288,0.538
					s0.132-0.323,0.276-0.538l0.84-1.248h1.883l-1.943,2.879l2.027,2.975h-1.871l-0.923-1.393c-0.156-0.216-0.276-0.455-0.288-0.49
					c-0.012,0.022-0.108,0.252-0.264,0.49l-0.948,1.393h-1.871L276.112,353.758z"/>
				<path fill="#FFFFFF" d="M281.608,350.879v-2.086h1.68v2.086h0.827v1.559h-0.827v4.295h-1.68v-4.295h-0.814v-1.559H281.608z"/>
				<path fill="#FFFFFF" d="M292.706,352.856c-0.301-0.322-0.564-0.551-1.043-0.551c-0.78,0-1.331,0.623-1.331,1.485
					c0,0.9,0.551,1.464,1.331,1.464c0.479,0,0.839-0.265,1.091-0.623l1.259,0.959c-0.6,0.815-1.319,1.248-2.351,1.248
					c-1.764,0-3.011-1.345-3.011-3.048c0-1.702,1.247-3.045,2.998-3.045c0.924,0,1.655,0.396,2.22,1.031L292.706,352.856z"/>
				<path fill="#FFFFFF" d="M294.832,353.793c0-1.738,1.343-3.046,3.059-3.046s3.059,1.308,3.059,3.046
					c0,1.739-1.344,3.047-3.059,3.047S294.832,355.532,294.832,353.793z M299.305,353.793c0-0.888-0.563-1.548-1.415-1.548
					c-0.864,0-1.427,0.66-1.427,1.548c0,0.899,0.587,1.561,1.427,1.561C298.741,355.353,299.305,354.692,299.305,353.793z"/>
				<path fill="#FFFFFF" d="M302.715,354.765c0.408,0.467,1.056,0.658,1.619,0.658c0.358,0,0.624-0.144,0.624-0.359
					c0-0.299-0.3-0.443-0.792-0.588c-0.911-0.264-2.039-0.769-2.039-1.955c0-1.127,1.092-1.762,2.075-1.762
					c0.888,0,1.511,0.299,2.039,0.852l-0.937,1.008c-0.252-0.276-0.72-0.528-1.067-0.528c-0.313,0-0.538,0.145-0.538,0.373
					c0,0.286,0.335,0.432,0.862,0.588c0.888,0.264,2.026,0.813,2.026,1.93c0,1.104-0.947,1.871-2.268,1.871
					c-1.056,0-1.919-0.299-2.555-0.982L302.715,354.765z"/>
				<path fill="#FFFFFF" d="M308.223,350.879v-2.086h1.68v2.086h0.827v1.559h-0.827v4.295h-1.68v-4.295h-0.814v-1.559H308.223z"/>
				<path fill="#FFFFFF" d="M317.4,356.731h-1.68v-0.396c0-0.097,0.012-0.24,0.036-0.408c-0.384,0.553-0.983,0.946-1.775,0.946
					c-1.211,0-2.122-0.946-2.122-2.518v-3.479h1.69v3.383c0,0.813,0.516,1.233,1.079,1.233c0.504,0,1.056-0.395,1.092-1.188v-3.43
					h1.68V356.731L317.4,356.731z"/>
				<path fill="#FFFFFF" d="M318.938,356.731v-5.854h1.68v0.301c0,0.106-0.023,0.299-0.049,0.479
					c0.35-0.563,0.911-0.924,1.607-0.924c0.852,0,1.367,0.396,1.644,0.961c0.42-0.563,1.066-0.961,1.858-0.961
					c1.199,0,1.931,0.816,1.931,2.219v3.779h-1.679v-3.658c0-0.637-0.456-0.959-0.911-0.959c-0.456,0-0.912,0.322-0.912,1.006v3.611
					h-1.679v-3.695c0-0.6-0.42-0.887-0.864-0.887c-0.455,0-0.923,0.313-0.946,0.912v3.67H318.938L318.938,356.731z"/>
				<path fill="#FFFFFF" d="M330.481,354.165c0.12,0.972,0.721,1.33,1.38,1.33c0.647,0,1.092-0.299,1.379-0.719l1.115,0.803
					c-0.623,0.841-1.26,1.271-2.59,1.271c-1.716,0-2.975-1.26-2.975-3.06c0-1.665,1.127-3.045,2.926-3.045
					c1.979,0,2.759,1.414,2.759,3.214v0.204L330.481,354.165L330.481,354.165z M330.529,353.135h2.314
					c-0.107-0.672-0.623-1.021-1.139-1.021C331.165,352.114,330.697,352.45,330.529,353.135z"/>
			</g>
		</g>
	</g>
</g>
</svg>
