<?xml version="1.0" encoding="utf-8"?>
<!-- Generator: Adobe Illustrator 15.0.0, SVG Export Plug-In . SVG Version: 6.00 Build 0)  -->
<!DOCTYPE svg PUBLIC "-//W3C//DTD SVG 1.1//EN" "http://www.w3.org/Graphics/SVG/1.1/DTD/svg11.dtd">
<svg version="1.1" id="Layer_1" xmlns="http://www.w3.org/2000/svg" xmlns:xlink="http://www.w3.org/1999/xlink" x="0px" y="0px"
	 width="44.497px" height="25.078px" viewBox="275.391 225.809 44.497 25.078"
	 enable-background="new 275.391 225.809 44.497 25.078" xml:space="preserve">
<g>
	<path fill="#5A4495" d="M315.001,225.821v-0.012h-0.112h-0.588h-3.3h-9.103l-2.057,2.545c-0.189,0.235-0.475,0.373-0.777,0.373
		h-7.758c-0.303,0-0.588-0.138-0.777-0.373l-2.057-2.545h-8.082c-2.762,0-5,2.237-5,5v12.168c0,2.762,2.238,4.998,5,4.998h8.088
		l2.051,2.539c0.189,0.235,0.476,0.373,0.777,0.373h7.758c0.304,0,0.588-0.138,0.777-0.373l2.051-2.539H311h3.3h0.588H315v-0.012
		c2.709-0.062,4.888-2.265,4.888-4.986V230.81C319.889,228.087,317.71,225.883,315.001,225.821z"/>
	<g>
		<g>
			<g>
				<path fill="#FFFFFF" d="M286.354,241.581v-8.995h1.68v3.538c0,0.097-0.013,0.252-0.036,0.408
					c0.384-0.552,0.972-0.948,1.774-0.948c1.211,0,2.123,0.948,2.123,2.52v3.479h-1.69V238.2c0-0.814-0.517-1.235-1.08-1.235
					c-0.517,0-1.021,0.407-1.092,1.247v3.37L286.354,241.581L286.354,241.581z"/>
				<path fill="#FFFFFF" d="M294.369,232.813c0.6,0,1.104,0.504,1.104,1.104c0,0.601-0.504,1.104-1.104,1.104
					c-0.601,0-1.104-0.504-1.104-1.104C293.265,233.317,293.77,232.813,294.369,232.813z M293.494,241.581v-5.853h1.715v5.853
					H293.494z"/>
				<path fill="#FFFFFF" d="M300.799,241.581v-0.768c-0.467,0.552-1.092,0.888-1.775,0.888c-1.643,0-2.529-1.487-2.529-3.07
					c0-1.56,0.923-3.033,2.542-3.033c0.646,0,1.247,0.238,1.702,0.72v-3.73h1.68v8.995L300.799,241.581L300.799,241.581z
					 M300.764,238.643c0-0.899-0.516-1.547-1.296-1.547c-0.875,0-1.307,0.694-1.307,1.559c0,0.852,0.443,1.56,1.307,1.56
					C300.235,240.214,300.764,239.446,300.764,238.643z"/>
				<path fill="#FFFFFF" d="M305.288,239.015c0.12,0.972,0.72,1.331,1.38,1.331c0.646,0,1.091-0.301,1.379-0.721l1.115,0.805
					c-0.623,0.84-1.261,1.271-2.591,1.271c-1.716,0-2.975-1.26-2.975-3.059c0-1.667,1.127-3.046,2.926-3.046
					c1.979,0,2.759,1.415,2.759,3.214v0.204L305.288,239.015L305.288,239.015z M305.336,237.983h2.313
					c-0.106-0.672-0.623-1.021-1.139-1.021C305.973,236.964,305.504,237.3,305.336,237.983z"/>
			</g>
		</g>
	</g>
</g>
</svg>
