<?xml version="1.0" encoding="utf-8"?>
<!-- Generator: Adobe Illustrator 15.0.0, SVG Export Plug-In . SVG Version: 6.00 Build 0)  -->
<!DOCTYPE svg PUBLIC "-//W3C//DTD SVG 1.1//EN" "http://www.w3.org/Graphics/SVG/1.1/DTD/svg11.dtd">
<svg version="1.1" id="Layer_1" xmlns="http://www.w3.org/2000/svg" xmlns:xlink="http://www.w3.org/1999/xlink" x="0px" y="0px"
	 width="120.499px" height="25.079px" viewBox="237.39 586.938 120.499 25.079"
	 enable-background="new 237.39 586.938 120.499 25.079" xml:space="preserve">
<g>
	<path fill="#5A4495" d="M352.89,586.938h-8.652h-3.015h-34.055h-43.271l-2.056,2.545c-0.19,0.235-0.476,0.372-0.778,0.372h-7.757
		c-0.302,0-0.588-0.137-0.778-0.372l-2.056-2.545h-8.083c-2.761,0-5,2.238-5,5v12.167c0,2.762,2.239,5,5,5h8.088l2.051,2.539
		c0.19,0.236,0.477,0.373,0.778,0.373h7.757c0.302,0,0.588-0.137,0.778-0.373l2.051-2.539h43.274h34.055h3.015h8.652
		c2.762,0,5-2.238,5-5v-12.167C357.89,589.177,355.651,586.938,352.89,586.938z"/>
	<g>
		<g>
			<g>
				<path fill="#FFFFFF" d="M247.923,599.743c0.408,0.469,1.055,0.659,1.619,0.659c0.359,0,0.624-0.144,0.624-0.359
					c0-0.3-0.3-0.442-0.792-0.588c-0.912-0.264-2.039-0.768-2.039-1.955c0-1.127,1.091-1.763,2.075-1.763
					c0.888,0,1.511,0.3,2.039,0.853l-0.937,1.008c-0.252-0.276-0.72-0.528-1.067-0.528c-0.312,0-0.54,0.146-0.54,0.372
					c0,0.288,0.336,0.432,0.863,0.588c0.889,0.264,2.027,0.815,2.027,1.932c0,1.104-0.947,1.87-2.268,1.87
					c-1.056,0-1.919-0.3-2.555-0.982L247.923,599.743z"/>
				<path fill="#FFFFFF" d="M254.306,599.144c0.12,0.972,0.72,1.331,1.379,1.331c0.647,0,1.091-0.3,1.379-0.72l1.115,0.804
					c-0.624,0.84-1.259,1.271-2.59,1.271c-1.715,0-2.976-1.26-2.976-3.059c0-1.667,1.128-3.046,2.927-3.046
					c1.979,0,2.759,1.415,2.759,3.214v0.204L254.306,599.144L254.306,599.144z M254.354,598.112h2.314
					c-0.108-0.672-0.624-1.02-1.14-1.02C254.99,597.094,254.522,597.429,254.354,598.112z"/>
				<path fill="#FFFFFF" d="M259.935,595.857v-2.087h1.679v2.087h0.828v1.559h-0.828v4.295h-1.679v-4.295h-0.814v-1.559H259.935z"/>
				<path fill="#FFFFFF" d="M267.807,599.743c0.408,0.469,1.055,0.659,1.619,0.659c0.359,0,0.624-0.144,0.624-0.359
					c0-0.3-0.3-0.442-0.792-0.588c-0.912-0.264-2.039-0.768-2.039-1.955c0-1.127,1.091-1.763,2.075-1.763
					c0.888,0,1.511,0.3,2.039,0.853l-0.937,1.008c-0.252-0.276-0.72-0.528-1.066-0.528c-0.313,0-0.54,0.146-0.54,0.372
					c0,0.288,0.335,0.432,0.862,0.588c0.889,0.264,2.027,0.815,2.027,1.932c0,1.104-0.947,1.87-2.267,1.87
					c-1.057,0-1.919-0.3-2.556-0.982L267.807,599.743z"/>
				<path fill="#FFFFFF" d="M273.794,592.942c0.6,0,1.104,0.504,1.104,1.104c0,0.6-0.504,1.104-1.104,1.104
					c-0.601,0-1.104-0.504-1.104-1.104C272.69,593.446,273.194,592.942,273.794,592.942z M272.918,601.711v-5.854h1.715v5.854
					H272.918z"/>
				<path fill="#FFFFFF" d="M278.617,597.633c0.144-0.168,0.336-0.323,0.384-0.359c-0.036,0-0.3,0.048-0.517,0.048h-2.397v-1.463
					h5.073v1.067l-2.711,2.985c-0.192,0.217-0.396,0.372-0.433,0.396c0.024,0,0.288-0.061,0.612-0.061h2.531v1.464h-5.253v-1.057
					L278.617,597.633z"/>
				<path fill="#FFFFFF" d="M283.669,599.144c0.12,0.972,0.72,1.331,1.379,1.331c0.646,0,1.091-0.3,1.379-0.72l1.115,0.804
					c-0.624,0.84-1.259,1.271-2.59,1.271c-1.716,0-2.976-1.26-2.976-3.059c0-1.667,1.127-3.046,2.926-3.046
					c1.979,0,2.76,1.415,2.76,3.214v0.204L283.669,599.144L283.669,599.144z M283.718,598.112h2.313
					c-0.107-0.672-0.623-1.02-1.139-1.02C284.354,597.094,283.886,597.429,283.718,598.112z"/>
				<path fill="#FFFFFF" d="M292.898,595.857v-2.087h1.68v2.087h0.827v1.559h-0.827v4.295h-1.68v-4.295h-0.814v-1.559H292.898z"/>
				<path fill="#FFFFFF" d="M296.222,598.771c0-1.739,1.343-3.046,3.059-3.046s3.059,1.307,3.059,3.046s-1.343,3.047-3.059,3.047
					S296.222,600.511,296.222,598.771z M300.695,598.771c0-0.888-0.563-1.547-1.414-1.547c-0.863,0-1.428,0.659-1.428,1.547
					c0,0.899,0.587,1.56,1.428,1.56C300.132,600.331,300.695,599.672,300.695,598.771z"/>
			</g>
		</g>
		<g>
			<g>
				<path fill="#FFFFFF" d="M339.832,595.138c0-1.057,0.827-1.883,1.871-1.883c1.043,0,1.871,0.826,1.871,1.883
					c0,1.043-0.828,1.871-1.871,1.871C340.659,597.01,339.832,596.181,339.832,595.138z M340.396,601.711l5.745-8.396h1.644
					l-5.744,8.396H340.396z M342.41,595.138c0-0.396-0.324-0.708-0.707-0.708c-0.396,0-0.708,0.313-0.708,0.708
					c0,0.384,0.312,0.695,0.708,0.695C342.086,595.834,342.41,595.521,342.41,595.138z M344.629,599.899
					c0-1.044,0.828-1.871,1.871-1.871s1.871,0.827,1.871,1.871c0,1.043-0.828,1.87-1.871,1.87S344.629,600.942,344.629,599.899z
					 M347.207,599.899c0-0.384-0.323-0.708-0.707-0.708c-0.396,0-0.707,0.324-0.707,0.708c0,0.396,0.312,0.707,0.707,0.707
					C346.884,600.606,347.207,600.296,347.207,599.899z"/>
			</g>
		</g>
		<path fill="#FFFFFF" d="M323.051,606.162h3.151c4.242,0,7.685-3.438,7.685-7.685c0-4.243-3.441-7.685-7.685-7.685h-3.151h-7
			c-4.244,0-7.685,3.44-7.685,7.685c0,0,0-4.243,0,0c0,4.245,3.439,7.685,7.685,7.685H323.051z"/>
	</g>
</g>
</svg>
