<?xml version="1.0" encoding="utf-8"?>
<!-- Generator: Adobe Illustrator 15.0.0, SVG Export Plug-In . SVG Version: 6.00 Build 0)  -->
<!DOCTYPE svg PUBLIC "-//W3C//DTD SVG 1.1//EN" "http://www.w3.org/Graphics/SVG/1.1/DTD/svg11.dtd">
<svg version="1.1" id="Layer_1" xmlns="http://www.w3.org/2000/svg" xmlns:xlink="http://www.w3.org/1999/xlink" x="0px" y="0px"
	 width="120.499px" height="25.079px" viewBox="237.39 551.938 120.499 25.079"
	 enable-background="new 237.39 551.938 120.499 25.079" xml:space="preserve">
<g>
	<path fill="#5A4495" d="M352.89,551.938h-8.652h-3.015h-34.055h-43.271l-2.056,2.545c-0.19,0.235-0.476,0.372-0.778,0.372h-7.757
		c-0.302,0-0.588-0.137-0.778-0.372l-2.056-2.545h-8.083c-2.761,0-5,2.238-5,5v12.167c0,2.762,2.239,5,5,5h8.088l2.051,2.539
		c0.19,0.236,0.477,0.373,0.778,0.373h7.757c0.302,0,0.588-0.137,0.778-0.373l2.051-2.539h43.274h34.055h3.015h8.652
		c2.762,0,5-2.238,5-5v-12.167C357.89,554.177,355.651,551.938,352.89,551.938z"/>
	<g>
		<g>
			<g>
				<path fill="#FFFFFF" d="M249.063,562.837c-0.3-0.323-0.563-0.553-1.043-0.553c-0.779,0-1.332,0.624-1.332,1.487
					c0,0.899,0.553,1.463,1.332,1.463c0.479,0,0.839-0.264,1.091-0.623l1.26,0.959c-0.601,0.815-1.319,1.248-2.352,1.248
					c-1.763,0-3.01-1.344-3.01-3.047s1.247-3.046,2.998-3.046c0.924,0,1.655,0.396,2.219,1.031L249.063,562.837z"/>
				<path fill="#FFFFFF" d="M251.548,566.711v-8.995h1.679v3.538c0,0.096-0.012,0.252-0.036,0.407
					c0.385-0.552,0.973-0.947,1.775-0.947c1.211,0,2.123,0.947,2.123,2.519v3.479h-1.691v-3.383c0-0.814-0.516-1.234-1.08-1.234
					c-0.516,0-1.02,0.407-1.091,1.247v3.37L251.548,566.711L251.548,566.711z"/>
				<path fill="#FFFFFF" d="M263.978,566.711c-0.72,0-1.211-0.385-1.475-0.995c-0.336,0.563-1.043,1.114-2.087,1.114
					c-1.295,0-1.955-0.84-1.955-1.715c0-0.972,0.792-1.919,2.423-1.919c0.492,0,0.971,0.061,1.415,0.145v-0.192
					c0-0.575-0.396-0.959-1.043-0.959c-0.456,0-0.828,0.204-1.067,0.588l-1.175-0.876c0,0,0.671-1.199,2.327-1.199
					c1.631,0,2.626,0.973,2.626,2.375v1.764c0,0.216,0.144,0.348,0.36,0.348h0.239v1.523L263.978,566.711L263.978,566.711z
					 M262.298,564.384c-0.313-0.061-0.696-0.119-0.923-0.119c-0.685,0-1.211,0.228-1.211,0.707c0,0.323,0.239,0.54,0.684,0.54
					C261.555,565.511,262.083,565.019,262.298,564.384z"/>
				<path fill="#FFFFFF" d="M267.255,566.711h-1.679v-5.854h1.679v0.396c0,0.096-0.012,0.239-0.036,0.407
					c0.384-0.552,0.972-0.947,1.775-0.947c1.211,0,2.123,0.947,2.123,2.519v3.479h-1.691v-3.383c0-0.814-0.516-1.234-1.08-1.234
					c-0.504,0-1.067,0.407-1.091,1.188V566.711L267.255,566.711z"/>
				<path fill="#FFFFFF" d="M276.314,560.953l0.743-0.852l0.984,0.924l-0.696,0.695c0.336,0.408,0.528,0.911,0.528,1.463
					c0,1.464-1.2,2.435-2.675,2.435c-0.349,0-0.647-0.034-0.937-0.106c-0.516,0.432-0.563,0.959,0.229,0.959
					c0.552,0,0.911-0.229,1.715-0.229c3.059,0,3.035,4.271-1.007,4.271c-3.034,0-3.658-1.967-2.627-3.322
					c-0.432-0.672-0.252-1.703,0.553-2.326c-0.396-0.42-0.612-0.996-0.612-1.68c0-1.463,1.211-2.446,2.688-2.446
					C275.595,560.737,275.979,560.81,276.314,560.953z M273.688,567.873c-0.324,0.612,0.072,1.213,1.511,1.213
					c2.111,0,2.052-1.465,0.948-1.465c-0.647,0-1.295,0.276-2.146,0.276C273.892,567.897,273.784,567.886,273.688,567.873z
					 M275.199,564.239c0.659,0,1.091-0.372,1.091-1.056c0-0.695-0.433-1.091-1.091-1.091c-0.672,0-1.104,0.406-1.104,1.091
					C274.096,563.881,274.563,564.239,275.199,564.239z"/>
				<path fill="#FFFFFF" d="M280.551,564.144c0.12,0.972,0.72,1.331,1.379,1.331c0.647,0,1.091-0.3,1.379-0.72l1.115,0.804
					c-0.624,0.84-1.259,1.271-2.59,1.271c-1.715,0-2.976-1.26-2.976-3.059c0-1.667,1.127-3.046,2.927-3.046
					c1.979,0,2.759,1.415,2.759,3.214v0.204L280.551,564.144L280.551,564.144z M280.6,563.112h2.314
					c-0.108-0.672-0.624-1.02-1.14-1.02C281.235,562.094,280.768,562.429,280.6,563.112z"/>
				<path fill="#FFFFFF" d="M289.912,564.743c0.407,0.469,1.055,0.659,1.618,0.659c0.359,0,0.624-0.144,0.624-0.359
					c0-0.3-0.3-0.442-0.792-0.588c-0.911-0.264-2.039-0.768-2.039-1.955c0-1.127,1.092-1.763,2.075-1.763
					c0.889,0,1.512,0.3,2.039,0.853l-0.936,1.008c-0.252-0.276-0.721-0.528-1.067-0.528c-0.312,0-0.54,0.146-0.54,0.372
					c0,0.288,0.335,0.432,0.863,0.588c0.888,0.264,2.027,0.815,2.027,1.932c0,1.104-0.947,1.87-2.268,1.87
					c-1.056,0-1.919-0.3-2.555-0.982L289.912,564.743z"/>
				<path fill="#FFFFFF" d="M295.899,557.942c0.601,0,1.104,0.504,1.104,1.104c0,0.6-0.504,1.104-1.104,1.104
					c-0.6,0-1.104-0.504-1.104-1.104C294.795,558.446,295.3,557.942,295.899,557.942z M295.024,566.711v-5.854h1.715v5.854H295.024z
					"/>
				<path fill="#FFFFFF" d="M300.723,562.633c0.146-0.168,0.336-0.323,0.384-0.359c-0.036,0-0.3,0.048-0.516,0.048h-2.398v-1.463
					h5.073v1.067l-2.711,2.985c-0.191,0.217-0.396,0.372-0.432,0.396c0.022,0,0.288-0.061,0.61-0.061h2.531v1.464h-5.253v-1.057
					L300.723,562.633z"/>
				<path fill="#FFFFFF" d="M305.775,564.144c0.119,0.972,0.72,1.331,1.379,1.331c0.647,0,1.093-0.3,1.38-0.72l1.114,0.804
					c-0.623,0.84-1.259,1.271-2.59,1.271c-1.715,0-2.975-1.26-2.975-3.059c0-1.667,1.127-3.046,2.926-3.046
					c1.979,0,2.76,1.415,2.76,3.214v0.204L305.775,564.144L305.775,564.144z M305.823,563.112h2.314
					c-0.108-0.672-0.624-1.02-1.14-1.02C306.459,562.094,305.991,562.429,305.823,563.112z"/>
				<path fill="#FFFFFF" d="M314.548,566.711v-8.995h1.679v3.729c0.456-0.479,1.057-0.72,1.703-0.72
					c1.619,0,2.543,1.475,2.543,3.034c0,1.583-0.888,3.069-2.531,3.069c-0.684,0-1.317-0.336-1.773-0.888v0.769L314.548,566.711
					L314.548,566.711z M318.806,563.783c0-0.862-0.433-1.559-1.308-1.559c-0.779,0-1.295,0.646-1.295,1.547
					c0,0.804,0.526,1.571,1.295,1.571C318.361,565.344,318.806,564.635,318.806,563.783z"/>
				<path fill="#FFFFFF" d="M323.02,566.063l-2.184-5.205h1.764l1.127,2.734c0.097,0.239,0.181,0.563,0.191,0.6
					c0-0.024,0.107-0.348,0.217-0.6l1.175-2.734h1.775l-4.042,9.127h-1.751L323.02,566.063z"/>
			</g>
		</g>
		<path fill="#FFFFFF" d="M332.279,563.478c0,4.245,3.44,7.685,7.686,7.685h3.15c4.243,0,7.686-3.438,7.686-7.685
			c0-4.243-3.441-7.685-7.686-7.685h-3.15C335.72,555.794,332.279,559.234,332.279,563.478
			C332.279,563.478,332.279,559.234,332.279,563.478z"/>
	</g>
</g>
</svg>
