<?xml version="1.0" encoding="utf-8"?>
<!-- Generator: Adobe Illustrator 15.0.0, SVG Export Plug-In . SVG Version: 6.00 Build 0)  -->
<!DOCTYPE svg PUBLIC "-//W3C//DTD SVG 1.1//EN" "http://www.w3.org/Graphics/SVG/1.1/DTD/svg11.dtd">
<svg version="1.1" id="Layer_1" xmlns="http://www.w3.org/2000/svg" xmlns:xlink="http://www.w3.org/1999/xlink" x="0px" y="0px"
	 width="44.497px" height="25.078px" viewBox="275.391 194.901 44.497 25.078"
	 enable-background="new 275.391 194.901 44.497 25.078" xml:space="preserve">
<g>
	<path fill="#5A4495" d="M315.001,194.912v-0.011h-0.112h-0.588h-3.3h-9.103l-2.057,2.545c-0.189,0.234-0.475,0.371-0.777,0.371
		h-7.758c-0.303,0-0.588-0.137-0.777-0.371l-2.057-2.545h-8.082c-2.762,0-5,2.238-5,5v12.166c0,2.762,2.238,5,5,5h8.088l2.051,2.539
		c0.189,0.235,0.476,0.373,0.777,0.373h7.758c0.304,0,0.588-0.138,0.777-0.373l2.051-2.539H311h3.3h0.588H315v-0.012
		c2.709-0.062,4.888-2.266,4.888-4.988v-12.166C319.889,197.178,317.71,194.974,315.001,194.912z"/>
	<g>
		<g>
			<g>
				<path fill="#FFFFFF" d="M284.122,208.704c0.407,0.468,1.055,0.659,1.619,0.659c0.359,0,0.623-0.144,0.623-0.359
					c0-0.3-0.3-0.442-0.792-0.588c-0.911-0.264-2.038-0.768-2.038-1.955c0-1.127,1.091-1.763,2.074-1.763
					c0.889,0,1.512,0.3,2.039,0.852l-0.936,1.009c-0.252-0.276-0.72-0.528-1.067-0.528c-0.312,0-0.54,0.145-0.54,0.372
					c0,0.288,0.335,0.432,0.863,0.588c0.888,0.264,2.027,0.815,2.027,1.931c0,1.104-0.947,1.871-2.268,1.871
					c-1.056,0-1.919-0.3-2.555-0.982L284.122,208.704z"/>
				<path fill="#FFFFFF" d="M289.174,210.671v-8.994h1.679v3.537c0,0.097-0.012,0.252-0.036,0.408
					c0.385-0.552,0.973-0.948,1.775-0.948c1.211,0,2.123,0.948,2.123,2.52v3.479h-1.691v-3.382c0-0.814-0.516-1.234-1.08-1.234
					c-0.516,0-1.02,0.406-1.091,1.247v3.369L289.174,210.671L289.174,210.671z"/>
				<path fill="#FFFFFF" d="M295.894,207.732c0-1.739,1.343-3.046,3.06-3.046c1.716,0,3.058,1.307,3.058,3.046
					s-1.343,3.047-3.058,3.047C297.238,210.779,295.894,209.472,295.894,207.732z M300.367,207.732c0-0.888-0.563-1.547-1.415-1.547
					c-0.864,0-1.428,0.659-1.428,1.547c0,0.898,0.587,1.56,1.428,1.56C299.805,209.292,300.367,208.632,300.367,207.732z"/>
				<path fill="#FFFFFF" d="M312.389,204.818l-2.015,5.853h-1.907l-0.875-2.733c-0.062-0.168-0.12-0.479-0.133-0.54l-0.144,0.54
					l-0.899,2.733h-1.906c-0.66-1.942-1.32-3.896-1.967-5.853h1.811l0.911,3.226c0.084,0.324,0.168,0.708,0.192,0.78
					c0.012-0.061,0.096-0.432,0.203-0.78l0.946-3.226h1.703l0.924,3.226c0.097,0.35,0.168,0.744,0.181,0.792
					c0.012-0.048,0.107-0.432,0.217-0.792l0.936-3.226H312.389z"/>
			</g>
		</g>
	</g>
</g>
</svg>
