<?xml version="1.0" encoding="utf-8"?>
<!-- Generator: Adobe Illustrator 15.0.0, SVG Export Plug-In . SVG Version: 6.00 Build 0)  -->
<!DOCTYPE svg PUBLIC "-//W3C//DTD SVG 1.1//EN" "http://www.w3.org/Graphics/SVG/1.1/DTD/svg11.dtd">
<svg version="1.1" id="Layer_1" xmlns="http://www.w3.org/2000/svg" xmlns:xlink="http://www.w3.org/1999/xlink" x="0px" y="0px"
	 width="175.5px" height="25.078px" viewBox="209.89 291.944 175.5 25.078" enable-background="new 209.89 291.944 175.5 25.078"
	 xml:space="preserve">
<g>
	<path fill="#5A4495" d="M380.39,291.944h-0.589h-6.133h-0.278h-0.589h-6.133H354h-0.61h-0.589h-6.133h-0.278h-0.589h-6.133h-4.873
		H327h-11.61h-0.589h-6.133h-0.278h-0.589h-0.006h-6.127H289h-52.603l-2.056,2.545c-0.19,0.235-0.476,0.372-0.778,0.372h-7.757
		c-0.303,0-0.588-0.137-0.778-0.372l-2.056-2.545h-8.083c-2.762,0-5,2.238-5,5v12.167c0,2.762,2.238,4.999,5,4.999h8.088
		l2.051,2.539c0.19,0.236,0.477,0.373,0.778,0.373h7.757c0.304,0,0.588-0.137,0.778-0.373l2.051-2.539H289h12.668h6.127h0.006h0.589
		h0.278h6.133h0.589H327h7.795h4.873h6.133h0.589h0.278h6.133h0.589H354h12.668h6.133h0.589h0.278h6.133h0.589
		c2.762,0,5-2.237,5-4.999v-12.167C385.39,294.183,383.151,291.944,380.39,291.944z"/>
	<g>
		<g>
			<g>
				<path fill="#FFFFFF" d="M217.643,304.749c0.408,0.468,1.055,0.658,1.619,0.658c0.36,0,0.624-0.143,0.624-0.358
					c0-0.3-0.3-0.443-0.792-0.588c-0.912-0.265-2.039-0.769-2.039-1.955c0-1.127,1.091-1.763,2.075-1.763
					c0.888,0,1.511,0.3,2.039,0.853l-0.937,1.008c-0.252-0.277-0.72-0.529-1.066-0.529c-0.313,0-0.54,0.146-0.54,0.373
					c0,0.287,0.335,0.433,0.862,0.588c0.889,0.265,2.027,0.814,2.027,1.931c0,1.104-0.947,1.871-2.267,1.871
					c-1.057,0-1.919-0.3-2.556-0.982L217.643,304.749z"/>
				<path fill="#FFFFFF" d="M231.894,300.862l-2.015,5.854h-1.907l-0.875-2.734c-0.06-0.168-0.12-0.479-0.132-0.541l-0.145,0.541
					l-0.898,2.734h-1.907c-0.66-1.943-1.319-3.898-1.967-5.854h1.811l0.911,3.228c0.084,0.323,0.168,0.707,0.192,0.778
					c0.012-0.061,0.096-0.432,0.204-0.778l0.946-3.228h1.703l0.923,3.228c0.097,0.348,0.169,0.743,0.181,0.791
					c0.012-0.048,0.107-0.433,0.216-0.791l0.936-3.228H231.894z"/>
				<path fill="#FFFFFF" d="M233.722,297.948c0.6,0,1.104,0.504,1.104,1.104c0,0.6-0.505,1.104-1.104,1.104
					s-1.104-0.504-1.104-1.104C232.618,298.452,233.123,297.948,233.722,297.948z M232.847,306.717v-5.854h1.715v5.854H232.847z"/>
				<path fill="#FFFFFF" d="M236.65,300.862v-2.086h1.68v2.086h0.828v1.56h-0.828v4.295h-1.68v-4.295h-0.814v-1.56H236.65z"/>
				<path fill="#FFFFFF" d="M244.148,302.842c-0.3-0.322-0.563-0.552-1.043-0.552c-0.779,0-1.331,0.623-1.331,1.486
					c0,0.9,0.552,1.463,1.331,1.463c0.479,0,0.839-0.264,1.091-0.623l1.26,0.959c-0.601,0.816-1.319,1.248-2.352,1.248
					c-1.763,0-3.01-1.344-3.01-3.047s1.247-3.045,2.998-3.045c0.924,0,1.655,0.396,2.219,1.031L244.148,302.842z"/>
				<path fill="#FFFFFF" d="M246.634,306.717v-8.996h1.679v3.539c0,0.096-0.012,0.252-0.036,0.408
					c0.385-0.554,0.973-0.949,1.775-0.949c1.211,0,2.123,0.949,2.123,2.52v3.479h-1.691v-3.384c0-0.813-0.516-1.233-1.08-1.233
					c-0.516,0-1.02,0.406-1.091,1.246v3.371L246.634,306.717L246.634,306.717z"/>
				<path fill="#FFFFFF" d="M261.127,302.842c-0.3-0.322-0.564-0.552-1.043-0.552c-0.78,0-1.331,0.623-1.331,1.486
					c0,0.9,0.551,1.463,1.331,1.463c0.479,0,0.839-0.264,1.091-0.623l1.259,0.959c-0.6,0.816-1.318,1.248-2.351,1.248
					c-1.764,0-3.011-1.344-3.011-3.047s1.247-3.045,2.998-3.045c0.925,0,1.655,0.396,2.22,1.031L261.127,302.842z"/>
				<path fill="#FFFFFF" d="M263.253,303.776c0-1.738,1.343-3.045,3.059-3.045c1.715,0,3.059,1.307,3.059,3.045
					c0,1.74-1.344,3.047-3.059,3.047S263.253,305.517,263.253,303.776z M267.727,303.776c0-0.887-0.563-1.547-1.415-1.547
					c-0.864,0-1.427,0.66-1.427,1.547c0,0.9,0.587,1.562,1.427,1.562C267.163,305.338,267.727,304.677,267.727,303.776z"/>
				<path fill="#FFFFFF" d="M271.137,304.749c0.408,0.468,1.055,0.658,1.619,0.658c0.359,0,0.624-0.143,0.624-0.358
					c0-0.3-0.3-0.443-0.792-0.588c-0.912-0.265-2.039-0.769-2.039-1.955c0-1.127,1.091-1.763,2.075-1.763
					c0.888,0,1.511,0.3,2.039,0.853l-0.937,1.008c-0.252-0.277-0.72-0.529-1.066-0.529c-0.313,0-0.54,0.146-0.54,0.373
					c0,0.287,0.335,0.433,0.862,0.588c0.889,0.265,2.027,0.814,2.027,1.931c0,1.104-0.947,1.871-2.267,1.871
					c-1.057,0-1.919-0.3-2.556-0.982L271.137,304.749z"/>
				<path fill="#FFFFFF" d="M276.645,300.862v-2.086h1.679v2.086h0.828v1.56h-0.828v4.295h-1.679v-4.295h-0.814v-1.56H276.645z"/>
				<path fill="#FFFFFF" d="M285.822,306.717h-1.679v-0.396c0-0.096,0.012-0.24,0.036-0.408c-0.384,0.554-0.984,0.947-1.775,0.947
					c-1.211,0-2.122-0.947-2.122-2.518v-3.479h1.69v3.383c0,0.814,0.516,1.234,1.08,1.234c0.503,0,1.055-0.395,1.091-1.188v-3.43
					h1.679V306.717L285.822,306.717z"/>
				<path fill="#FFFFFF" d="M287.36,306.717v-5.854h1.68v0.301c0,0.107-0.024,0.3-0.049,0.479c0.349-0.563,0.912-0.924,1.607-0.924
					c0.852,0,1.367,0.396,1.643,0.961c0.421-0.564,1.067-0.961,1.859-0.961c1.199,0,1.931,0.815,1.931,2.219v3.779h-1.679v-3.658
					c0-0.637-0.456-0.959-0.912-0.959s-0.912,0.322-0.912,1.006v3.611h-1.679v-3.695c0-0.6-0.42-0.887-0.864-0.887
					c-0.456,0-0.923,0.313-0.946,0.912v3.67H287.36L287.36,306.717z"/>
				<path fill="#FFFFFF" d="M298.903,304.149c0.12,0.971,0.721,1.33,1.381,1.33c0.646,0,1.091-0.299,1.379-0.719l1.114,0.803
					c-0.623,0.84-1.26,1.271-2.59,1.271c-1.716,0-2.975-1.26-2.975-3.059c0-1.666,1.127-3.045,2.926-3.045
					c1.979,0,2.759,1.414,2.759,3.213v0.205L298.903,304.149L298.903,304.149z M298.952,303.118h2.313
					c-0.106-0.672-0.623-1.02-1.139-1.02C299.587,302.099,299.119,302.435,298.952,303.118z"/>
				<path fill="#FFFFFF" d="M308.131,300.862v-2.086h1.68v2.086h0.828v1.56h-0.828v4.295h-1.68v-4.295h-0.814v-1.56H308.131z"/>
				<path fill="#FFFFFF" d="M311.455,303.776c0-1.738,1.344-3.045,3.059-3.045s3.059,1.307,3.059,3.045
					c0,1.74-1.344,3.047-3.059,3.047S311.455,305.517,311.455,303.776z M315.93,303.776c0-0.887-0.563-1.547-1.416-1.547
					c-0.863,0-1.427,0.66-1.427,1.547c0,0.9,0.587,1.562,1.427,1.562C315.365,305.338,315.93,304.677,315.93,303.776z"/>
			</g>
		</g>
		<rect x="321.683" y="295.844" fill="#FFFFFF" width="57.312" height="14.778"/>
	</g>
</g>
</svg>
