<?xml version="1.0" encoding="utf-8"?>
<!-- Generator: Adobe Illustrator 15.0.0, SVG Export Plug-In . SVG Version: 6.00 Build 0)  -->
<!DOCTYPE svg PUBLIC "-//W3C//DTD SVG 1.1//EN" "http://www.w3.org/Graphics/SVG/1.1/DTD/svg11.dtd">
<svg version="1.1" id="Layer_1" xmlns="http://www.w3.org/2000/svg" xmlns:xlink="http://www.w3.org/1999/xlink" x="0px" y="0px"
	 width="103.497px" height="25.078px" viewBox="245.891 152.444 103.497 25.078"
	 enable-background="new 245.891 152.444 103.497 25.078" xml:space="preserve">
<g>
	<path fill="#5A4495" d="M344.389,152.444h-0.588h-6.133h-65.27l-2.057,2.545c-0.189,0.235-0.475,0.372-0.777,0.372h-7.758
		c-0.303,0-0.588-0.137-0.777-0.372l-2.057-2.545h-8.082c-2.762,0-5,2.238-5,5v12.167c0,2.762,2.238,4.999,5,4.999h8.088
		l2.051,2.539c0.189,0.235,0.476,0.373,0.777,0.373h7.758c0.304,0,0.588-0.137,0.777-0.373l2.051-2.539h65.274h6.133h0.588
		c2.762,0,5-2.237,5-4.999v-12.167C349.389,154.683,347.15,152.444,344.389,152.444z"/>
	<g>
		<g>
			<g>
				<path fill="#FFFFFF" d="M252.907,162.363v-2.087h1.679v2.087h0.828v1.559h-0.828v4.294h-1.679v-4.294h-0.815v-1.559H252.907z"/>
				<path fill="#FFFFFF" d="M256.591,168.216v-8.994h1.679v3.537c0,0.097-0.012,0.253-0.036,0.408
					c0.385-0.552,0.973-0.947,1.775-0.947c1.211,0,2.123,0.947,2.123,2.519v3.479h-1.691v-3.382c0-0.814-0.516-1.234-1.08-1.234
					c-0.516,0-1.02,0.406-1.091,1.247v3.369L256.591,168.216L256.591,168.216z"/>
				<path fill="#FFFFFF" d="M264.606,159.448c0.601,0,1.104,0.504,1.104,1.104c0,0.6-0.504,1.104-1.104,1.104
					c-0.6,0-1.104-0.504-1.104-1.104C263.502,159.952,264.007,159.448,264.606,159.448z M263.731,168.216v-5.853h1.715v5.853
					H263.731z"/>
				<path fill="#FFFFFF" d="M268.758,168.216h-1.679v-5.853h1.679v0.396c0,0.097-0.012,0.24-0.036,0.408
					c0.384-0.552,0.972-0.947,1.775-0.947c1.211,0,2.123,0.947,2.123,2.519v3.479h-1.691v-3.382c0-0.814-0.516-1.234-1.08-1.234
					c-0.504,0-1.067,0.406-1.091,1.188V168.216L268.758,168.216z"/>
				<path fill="#FFFFFF" d="M278.009,168.216l-1.643-2.459l-0.505,0.576v1.883h-1.702v-8.994h1.702v5.12l1.632-1.99h1.87
					l-2.003,2.291l2.472,3.573H278.009z"/>
			</g>
		</g>
		<rect x="283.401" y="155.927" fill="#FFFFFF" width="60.195" height="14.778"/>
	</g>
</g>
</svg>
