<?xml version="1.0" encoding="utf-8"?>
<!-- Generator: Adobe Illustrator 15.0.0, SVG Export Plug-In . SVG Version: 6.00 Build 0)  -->
<!DOCTYPE svg PUBLIC "-//W3C//DTD SVG 1.1//EN" "http://www.w3.org/Graphics/SVG/1.1/DTD/svg11.dtd">
<svg version="1.1" id="Layer_1" xmlns="http://www.w3.org/2000/svg" xmlns:xlink="http://www.w3.org/1999/xlink" x="0px" y="0px"
	 width="103.497px" height="25.078px" viewBox="245.891 64.19 103.497 25.078"
	 enable-background="new 245.891 64.19 103.497 25.078" xml:space="preserve">
<g>
	<path fill="#5A4495" d="M344.389,64.19h-0.588h-6.133h-65.27l-2.057,2.545c-0.189,0.235-0.475,0.372-0.777,0.372h-7.758
		c-0.303,0-0.588-0.137-0.777-0.372l-2.057-2.545h-8.082c-2.762,0-5,2.238-5,5v12.167c0,2.762,2.238,4.999,5,4.999h8.088
		l2.051,2.539c0.189,0.235,0.476,0.373,0.777,0.373h7.758c0.304,0,0.588-0.138,0.777-0.373l2.051-2.539h65.274h6.133h0.588
		c2.762,0,5-2.237,5-4.999V69.19C349.389,66.429,347.15,64.19,344.389,64.19z"/>
	<g>
		<g>
			<g>
				<path fill="#FFFFFF" d="M257.942,76.995c0.408,0.468,1.056,0.659,1.619,0.659c0.36,0,0.624-0.144,0.624-0.359
					c0-0.3-0.3-0.442-0.792-0.588c-0.912-0.264-2.039-0.768-2.039-1.955c0-1.127,1.091-1.763,2.075-1.763
					c0.888,0,1.511,0.3,2.039,0.852l-0.937,1.009c-0.252-0.276-0.72-0.528-1.066-0.528c-0.313,0-0.54,0.145-0.54,0.372
					c0,0.288,0.335,0.432,0.863,0.588c0.888,0.264,2.026,0.815,2.026,1.931c0,1.104-0.946,1.871-2.267,1.871
					c-1.056,0-1.919-0.3-2.555-0.982L257.942,76.995z"/>
				<path fill="#FFFFFF" d="M268.343,78.962c-0.72,0-1.211-0.384-1.475-0.995c-0.337,0.563-1.043,1.115-2.088,1.115
					c-1.295,0-1.954-0.84-1.954-1.715c0-0.972,0.792-1.919,2.423-1.919c0.492,0,0.971,0.06,1.415,0.144V75.4
					c0-0.575-0.396-0.959-1.043-0.959c-0.456,0-0.828,0.204-1.067,0.588l-1.175-0.876c0,0,0.671-1.199,2.327-1.199
					c1.631,0,2.626,0.973,2.626,2.375v1.763c0,0.217,0.144,0.349,0.359,0.349h0.24v1.522L268.343,78.962L268.343,78.962z
					 M266.664,76.635c-0.313-0.061-0.696-0.119-0.923-0.119c-0.685,0-1.212,0.228-1.212,0.707c0,0.323,0.24,0.54,0.685,0.54
					C265.92,77.763,266.448,77.271,266.664,76.635z"/>
				<path fill="#FFFFFF" d="M271.477,78.314l-2.183-5.205h1.763l1.127,2.734c0.096,0.239,0.18,0.563,0.192,0.6
					c0-0.024,0.107-0.348,0.216-0.6l1.175-2.734h1.775l-4.042,9.127h-1.751L271.477,78.314z"/>
			</g>
		</g>
		<rect x="283.305" y="67.673" fill="#FFFFFF" width="55.389" height="14.779"/>
	</g>
</g>
</svg>
