<?xml version="1.0" encoding="utf-8"?>
<!-- Generator: Adobe Illustrator 15.0.0, SVG Export Plug-In . SVG Version: 6.00 Build 0)  -->
<!DOCTYPE svg PUBLIC "-//W3C//DTD SVG 1.1//EN" "http://www.w3.org/Graphics/SVG/1.1/DTD/svg11.dtd">
<svg version="1.1" id="Layer_1" xmlns="http://www.w3.org/2000/svg" xmlns:xlink="http://www.w3.org/1999/xlink" x="0px" y="0px"
	 width="146.082px" height="25.08px" viewBox="225.39 258.812 146.082 25.08" enable-background="new 225.39 258.812 146.082 25.08"
	 xml:space="preserve">
<g>
	<path fill="#4B67AF" d="M366.473,258.812H366.3h-1.41h-3h-3.056h-2.944h-9.417h-4.791h-5.792h-14.722h-8.334h-17.666h-43.271
		l-2.056,2.545c-0.19,0.236-0.476,0.373-0.778,0.373h-7.757c-0.302,0-0.588-0.137-0.778-0.373l-2.056-2.545h-8.083
		c-2.761,0-5,2.237-5,5v12.168c0,2.762,2.239,5,5,5h8.088l2.051,2.539c0.19,0.235,0.477,0.373,0.778,0.373h7.757
		c0.303,0,0.588-0.138,0.778-0.373l2.051-2.539h43.274h17.666h8.334h14.722h20h2.944h3.056h3h1.41v-0.001h0.173
		c2.762,0,5-2.237,5-4.999v-12.168C371.473,261.05,369.234,258.812,366.473,258.812z"/>
	<g>
		<g>
			<g>
				<path fill="#FFFFFF" d="M232.378,276.581v-8.851h1.679v0.588c0.456-0.48,1.055-0.72,1.703-0.72c1.619,0,2.542,1.475,2.542,3.033
					c0,1.583-0.888,3.07-2.531,3.07c-0.684,0-1.318-0.336-1.774-0.888v3.766L232.378,276.581L232.378,276.581z M236.636,270.656
					c0-0.863-0.432-1.559-1.308-1.559c-0.779,0-1.295,0.646-1.295,1.547c0,0.804,0.526,1.57,1.295,1.57
					C236.192,272.216,236.636,271.508,236.636,270.656z"/>
				<path fill="#FFFFFF" d="M239.123,270.645c0-1.739,1.343-3.046,3.059-3.046c1.715,0,3.059,1.307,3.059,3.046
					c0,1.738-1.344,3.047-3.059,3.047C240.466,273.691,239.123,272.384,239.123,270.645z M243.596,270.645
					c0-0.889-0.563-1.547-1.415-1.547c-0.864,0-1.427,0.658-1.427,1.547c0,0.898,0.587,1.56,1.427,1.56
					C243.032,272.204,243.596,271.544,243.596,270.645z"/>
				<path fill="#FFFFFF" d="M247.354,264.815c0.601,0,1.104,0.504,1.104,1.104c0,0.601-0.504,1.104-1.104,1.104
					c-0.6,0-1.104-0.504-1.104-1.104C246.25,265.319,246.754,264.815,247.354,264.815z M246.479,273.583v-5.853h1.715v5.853H246.479
					z"/>
				<path fill="#FFFFFF" d="M251.505,273.583h-1.679v-5.853h1.679v0.396c0,0.097-0.012,0.24-0.036,0.408
					c0.384-0.552,0.972-0.948,1.775-0.948c1.211,0,2.123,0.948,2.123,2.52v3.479h-1.691v-3.382c0-0.814-0.516-1.234-1.08-1.234
					c-0.504,0-1.067,0.406-1.091,1.188V273.583z"/>
				<path fill="#FFFFFF" d="M257.362,267.73v-2.087h1.68v2.087h0.828v1.559h-0.828v4.294h-1.68v-4.294h-0.814v-1.559H257.362z"/>
				<path fill="#FFFFFF" d="M265.101,267.73v-2.087h1.679v2.087h0.828v1.559h-0.828v4.294h-1.679v-4.294h-0.814v-1.559H265.101z"/>
				<path fill="#FFFFFF" d="M268.425,270.645c0-1.739,1.343-3.046,3.059-3.046c1.715,0,3.059,1.307,3.059,3.046
					c0,1.738-1.343,3.047-3.059,3.047C269.769,273.691,268.425,272.384,268.425,270.645z M272.899,270.645
					c0-0.889-0.563-1.547-1.415-1.547c-0.863,0-1.427,0.658-1.427,1.547c0,0.898,0.587,1.56,1.427,1.56
					C272.335,272.204,272.899,271.544,272.899,270.645z"/>
				<path fill="#FFFFFF" d="M284.92,267.73l-2.016,5.853h-1.906l-0.875-2.733c-0.061-0.168-0.12-0.479-0.132-0.54l-0.145,0.54
					l-0.899,2.733h-1.906c-0.66-1.942-1.319-3.896-1.968-5.853h1.812l0.911,3.226c0.084,0.324,0.168,0.708,0.191,0.78
					c0.013-0.062,0.097-0.432,0.204-0.78l0.947-3.226h1.703l0.923,3.226c0.096,0.35,0.168,0.744,0.18,0.792
					c0.013-0.048,0.108-0.432,0.217-0.792l0.936-3.226H284.92z"/>
				<path fill="#FFFFFF" d="M290.574,273.583c-0.721,0-1.212-0.384-1.476-0.995c-0.336,0.563-1.043,1.115-2.087,1.115
					c-1.295,0-1.955-0.84-1.955-1.715c0-0.972,0.792-1.919,2.423-1.919c0.492,0,0.972,0.06,1.415,0.144v-0.191
					c0-0.575-0.396-0.959-1.043-0.959c-0.456,0-0.828,0.204-1.066,0.588l-1.176-0.876c0,0,0.672-1.199,2.327-1.199
					c1.631,0,2.626,0.972,2.626,2.375v1.763c0,0.217,0.145,0.349,0.36,0.349h0.24v1.522L290.574,273.583L290.574,273.583z
					 M288.895,271.256c-0.312-0.06-0.696-0.118-0.923-0.118c-0.684,0-1.211,0.228-1.211,0.707c0,0.323,0.24,0.54,0.684,0.54
					C288.151,272.384,288.679,271.892,288.895,271.256z"/>
				<path fill="#FFFFFF" d="M293.852,273.583h-1.679v-5.853h1.679v0.396c0,0.132-0.023,0.349-0.06,0.576
					c0.336-0.636,0.862-1.116,1.631-1.116v1.645c-0.875,0-1.571,0.504-1.571,1.463V273.583z"/>
				<path fill="#FFFFFF" d="M300.582,273.583v-0.768c-0.468,0.552-1.093,0.888-1.775,0.888c-1.643,0-2.53-1.487-2.53-3.07
					c0-1.56,0.924-3.033,2.542-3.033c0.647,0,1.247,0.238,1.703,0.72v-3.73h1.68v8.995L300.582,273.583L300.582,273.583z
					 M300.547,270.645c0-0.899-0.517-1.547-1.296-1.547c-0.875,0-1.308,0.694-1.308,1.559c0,0.852,0.444,1.56,1.308,1.56
					C300.019,272.216,300.547,271.448,300.547,270.645z"/>
				<path fill="#FFFFFF" d="M304.328,271.616c0.407,0.468,1.055,0.659,1.618,0.659c0.359,0,0.623-0.145,0.623-0.359
					c0-0.3-0.299-0.442-0.791-0.588c-0.911-0.264-2.039-0.768-2.039-1.955c0-1.127,1.093-1.763,2.074-1.763
					c0.89,0,1.513,0.3,2.039,0.852l-0.936,1.009c-0.252-0.276-0.72-0.528-1.066-0.528c-0.313,0-0.54,0.145-0.54,0.372
					c0,0.288,0.335,0.432,0.863,0.588c0.888,0.264,2.026,0.814,2.026,1.931c0,1.104-0.947,1.871-2.267,1.871
					c-1.057,0-1.92-0.3-2.555-0.982L304.328,271.616z"/>
			</g>
		</g>
		<rect x="313.669" y="262.378" fill="#FFFFFF" width="50" height="14.779"/>
	</g>
</g>
</svg>
