<?xml version="1.0" encoding="utf-8"?>
<!-- Generator: Adobe Illustrator 15.0.0, SVG Export Plug-In . SVG Version: 6.00 Build 0)  -->
<!DOCTYPE svg PUBLIC "-//W3C//DTD SVG 1.1//EN" "http://www.w3.org/Graphics/SVG/1.1/DTD/svg11.dtd">
<svg version="1.1" id="Layer_1" xmlns="http://www.w3.org/2000/svg" xmlns:xlink="http://www.w3.org/1999/xlink" x="0px" y="0px"
	 width="103.499px" height="25.078px" viewBox="245.89 432.844 103.499 25.078"
	 enable-background="new 245.89 432.844 103.499 25.078" xml:space="preserve">
<g>
	<path fill="#4B67AF" d="M344.39,432.844h-0.589h-6.133h-65.271l-2.056,2.545c-0.19,0.234-0.476,0.372-0.778,0.372h-7.757
		c-0.303,0-0.588-0.138-0.778-0.372l-2.056-2.545h-8.083c-2.762,0-5,2.237-5,5v12.167c0,2.762,2.238,4.999,5,4.999h8.088
		l2.051,2.539c0.19,0.235,0.477,0.373,0.778,0.373h7.757c0.304,0,0.588-0.138,0.778-0.373l2.051-2.539h65.274h6.133h0.589
		c2.762,0,5-2.237,5-4.999v-12.167C349.39,435.081,347.151,432.844,344.39,432.844z"/>
	<g>
		<g>
			<g>
				<path fill="#FFFFFF" d="M257.063,444.406c-0.3-0.324-0.563-0.553-1.043-0.553c-0.78,0-1.332,0.625-1.332,1.488
					c0,0.897,0.552,1.463,1.332,1.463c0.479,0,0.839-0.265,1.091-0.623l1.26,0.959c-0.601,0.813-1.319,1.248-2.352,1.248
					c-1.763,0-3.01-1.344-3.01-3.047s1.247-3.047,2.998-3.047c0.924,0,1.655,0.396,2.219,1.03L257.063,444.406z"/>
				<path fill="#FFFFFF" d="M259.548,448.279v-8.994h1.679v3.537c0,0.097-0.012,0.252-0.036,0.408
					c0.385-0.551,0.973-0.947,1.775-0.947c1.211,0,2.123,0.947,2.123,2.519v3.479h-1.691v-3.381c0-0.816-0.516-1.236-1.08-1.236
					c-0.516,0-1.02,0.408-1.091,1.248v3.369L259.548,448.279L259.548,448.279z"/>
				<path fill="#FFFFFF" d="M271.978,448.279c-0.72,0-1.211-0.383-1.475-0.994c-0.336,0.563-1.043,1.115-2.087,1.115
					c-1.295,0-1.955-0.84-1.955-1.715c0-0.973,0.792-1.92,2.423-1.92c0.492,0,0.971,0.061,1.415,0.145v-0.192
					c0-0.574-0.396-0.959-1.043-0.959c-0.456,0-0.828,0.205-1.067,0.588l-1.175-0.875c0,0,0.671-1.199,2.327-1.199
					c1.631,0,2.626,0.971,2.626,2.375v1.762c0,0.218,0.144,0.349,0.36,0.349h0.239v1.522L271.978,448.279L271.978,448.279z
					 M270.298,445.953c-0.313-0.061-0.696-0.118-0.923-0.118c-0.685,0-1.211,0.227-1.211,0.706c0,0.324,0.239,0.539,0.684,0.539
					C269.555,447.08,270.083,446.589,270.298,445.953z"/>
				<path fill="#FFFFFF" d="M275.255,448.279h-1.679v-5.852h1.679v0.395c0,0.097-0.012,0.24-0.036,0.408
					c0.384-0.551,0.972-0.947,1.775-0.947c1.211,0,2.123,0.947,2.123,2.519v3.479h-1.691v-3.381c0-0.816-0.516-1.236-1.08-1.236
					c-0.504,0-1.067,0.408-1.091,1.188V448.279L275.255,448.279z"/>
				<path fill="#FFFFFF" d="M284.314,442.523l0.743-0.852l0.984,0.924l-0.696,0.695c0.336,0.407,0.528,0.909,0.528,1.463
					c0,1.463-1.2,2.434-2.675,2.434c-0.349,0-0.647-0.035-0.937-0.107c-0.516,0.433-0.563,0.959,0.229,0.959
					c0.552,0,0.911-0.227,1.715-0.227c3.059,0,3.035,4.271-1.007,4.271c-3.034,0-3.658-1.968-2.627-3.322
					c-0.432-0.672-0.252-1.703,0.553-2.326c-0.396-0.42-0.612-0.996-0.612-1.68c0-1.463,1.211-2.447,2.688-2.447
					C283.595,442.307,283.979,442.38,284.314,442.523z M281.688,449.443c-0.324,0.611,0.072,1.211,1.511,1.211
					c2.111,0,2.052-1.463,0.948-1.463c-0.647,0-1.295,0.275-2.146,0.275C281.892,449.468,281.784,449.455,281.688,449.443z
					 M283.199,445.809c0.659,0,1.091-0.371,1.091-1.055c0-0.695-0.433-1.093-1.091-1.093c-0.672,0-1.104,0.408-1.104,1.093
					C282.096,445.449,282.563,445.809,283.199,445.809z"/>
				<path fill="#FFFFFF" d="M288.551,445.714c0.12,0.973,0.72,1.332,1.379,1.332c0.647,0,1.091-0.302,1.379-0.722l1.115,0.806
					c-0.624,0.84-1.259,1.271-2.59,1.271c-1.715,0-2.976-1.26-2.976-3.059c0-1.668,1.127-3.047,2.927-3.047
					c1.979,0,2.759,1.416,2.759,3.215v0.203L288.551,445.714L288.551,445.714z M288.6,444.682h2.314
					c-0.108-0.672-0.624-1.021-1.14-1.021C289.235,443.662,288.768,443.998,288.6,444.682z"/>
				<path fill="#FFFFFF" d="M298.859,447.634l-2.183-5.205h1.763l1.127,2.733c0.098,0.24,0.182,0.563,0.192,0.601
					c0-0.025,0.108-0.349,0.216-0.601l1.176-2.733h1.775l-4.042,9.127h-1.751L298.859,447.634z"/>
				<path fill="#FFFFFF" d="M307.32,448.279v-8.994H309v3.73c0.455-0.48,1.055-0.721,1.703-0.721c1.618,0,2.542,1.475,2.542,3.034
					c0,1.582-0.889,3.07-2.53,3.07c-0.685,0-1.32-0.336-1.775-0.889v0.768L307.32,448.279L307.32,448.279z M311.578,445.354
					c0-0.863-0.433-1.559-1.309-1.559c-0.778,0-1.295,0.646-1.295,1.547c0,0.803,0.527,1.569,1.295,1.569
					C311.135,446.912,311.578,446.205,311.578,445.354z"/>
				<path fill="#FFFFFF" d="M315.791,447.634l-2.183-5.205h1.763l1.128,2.733c0.097,0.24,0.181,0.563,0.191,0.601
					c0-0.025,0.107-0.349,0.215-0.601l1.177-2.733h1.774l-4.042,9.127h-1.751L315.791,447.634z"/>
			</g>
		</g>
		<path fill="#FFFFFF" d="M324.279,444.049c0,4.244,3.44,7.684,7.686,7.684h3.15c4.243,0,7.686-3.438,7.686-7.684
			c0-4.242-3.441-7.685-7.686-7.685h-3.15C327.72,436.364,324.279,439.806,324.279,444.049
			C324.279,444.049,324.279,439.806,324.279,444.049z"/>
	</g>
</g>
</svg>
