<?xml version="1.0" encoding="utf-8"?>
<!-- Generator: Adobe Illustrator 15.0.0, SVG Export Plug-In . SVG Version: 6.00 Build 0)  -->
<!DOCTYPE svg PUBLIC "-//W3C//DTD SVG 1.1//EN" "http://www.w3.org/Graphics/SVG/1.1/DTD/svg11.dtd">
<svg version="1.1" id="Layer_1" xmlns="http://www.w3.org/2000/svg" xmlns:xlink="http://www.w3.org/1999/xlink" x="0px" y="0px"
	 width="110.5px" height="25.078px" viewBox="242.39 710.183 110.5 25.078" enable-background="new 242.39 710.183 110.5 25.078"
	 xml:space="preserve">
<g>
	<path fill="#4B67AF" d="M347.89,710.183h-0.589h-6.133h-0.278h-0.589h-6.133H321.5h-52.603l-2.056,2.545
		c-0.19,0.235-0.476,0.372-0.778,0.372h-7.757c-0.303,0-0.588-0.137-0.778-0.372l-2.056-2.545h-8.083c-2.762,0-5,2.238-5,5v12.167
		c0,2.762,2.238,4.999,5,4.999h8.088l2.051,2.539c0.19,0.236,0.477,0.373,0.778,0.373h7.757c0.304,0,0.588-0.138,0.778-0.373
		l2.051-2.539H321.5h12.668h6.133h0.589h0.278h6.133h0.589c2.762,0,5-2.237,5-4.999v-12.167
		C352.89,712.422,350.651,710.183,347.89,710.183z"/>
	<g>
		<g>
			<g>
				<path fill="#FFFFFF" d="M253.72,719.197l0.743-0.852l0.983,0.924l-0.695,0.695c0.336,0.408,0.527,0.91,0.527,1.463
					c0,1.463-1.199,2.434-2.675,2.434c-0.348,0-0.646-0.035-0.936-0.106c-0.517,0.432-0.563,0.959,0.228,0.959
					c0.552,0,0.912-0.228,1.715-0.228c3.059,0,3.034,4.271-1.008,4.271c-3.034,0-3.658-1.967-2.626-3.322
					c-0.432-0.672-0.252-1.703,0.552-2.326c-0.396-0.42-0.611-0.996-0.611-1.68c0-1.463,1.211-2.447,2.687-2.447
					C253,718.98,253.384,719.053,253.72,719.197z M251.093,726.117c-0.324,0.611,0.072,1.211,1.511,1.211
					c2.111,0,2.051-1.463,0.948-1.463c-0.648,0-1.295,0.275-2.147,0.275C251.297,726.141,251.189,726.13,251.093,726.117z
					 M252.604,722.482c0.66,0,1.091-0.371,1.091-1.055c0-0.695-0.432-1.092-1.091-1.092c-0.671,0-1.104,0.407-1.104,1.092
					C251.501,722.123,251.969,722.482,252.604,722.482z"/>
				<path fill="#FFFFFF" d="M256.266,722.016c0-1.74,1.343-3.047,3.06-3.047c1.715,0,3.058,1.307,3.058,3.047
					c0,1.738-1.343,3.047-3.058,3.047C257.609,725.063,256.266,723.755,256.266,722.016z M260.74,722.016
					c0-0.889-0.563-1.547-1.414-1.547c-0.864,0-1.428,0.658-1.428,1.547c0,0.897,0.587,1.559,1.428,1.559
					C260.176,723.574,260.74,722.914,260.74,722.016z"/>
				<path fill="#FFFFFF" d="M267.618,719.102v-2.088h1.679v2.088h0.828v1.559h-0.828v4.293h-1.679v-4.293h-0.815v-1.559H267.618z"/>
				<path fill="#FFFFFF" d="M270.942,722.016c0-1.74,1.344-3.047,3.06-3.047c1.715,0,3.058,1.307,3.058,3.047
					c0,1.738-1.343,3.047-3.058,3.047C272.285,725.063,270.942,723.755,270.942,722.016z M275.416,722.016
					c0-0.889-0.564-1.547-1.415-1.547c-0.864,0-1.428,0.658-1.428,1.547c0,0.897,0.588,1.559,1.428,1.559
					C274.852,723.574,275.416,722.914,275.416,722.016z"/>
				<path fill="#FFFFFF" d="M283.205,721.979l-1.932-2.877h1.883l0.828,1.246c0.145,0.229,0.288,0.541,0.288,0.541
					s0.132-0.324,0.276-0.541l0.839-1.246h1.883l-1.942,2.877l2.026,2.975h-1.871l-0.923-1.391
					c-0.156-0.217-0.275-0.455-0.288-0.492c-0.012,0.023-0.107,0.252-0.264,0.492l-0.948,1.391h-1.871L283.205,721.979z"/>
				<path fill="#FFFFFF" d="M289.085,719.354c0.6,0,1.104,0.502,1.104,1.104c0,0.6-0.503,1.102-1.104,1.102
					s-1.104-0.502-1.104-1.102C287.982,719.855,288.486,719.354,289.085,719.354z M289.085,722.855c0.6,0,1.104,0.504,1.104,1.104
					c0,0.601-0.503,1.104-1.104,1.104s-1.104-0.504-1.104-1.104C287.982,723.359,288.486,722.855,289.085,722.855z"/>
				<path fill="#FFFFFF" d="M318.183,724.307L316,719.102h1.763l1.128,2.734c0.096,0.239,0.18,0.563,0.191,0.6
					c0-0.025,0.106-0.348,0.216-0.6l1.175-2.734h1.775l-4.041,9.127h-1.752L318.183,724.307z"/>
				<path fill="#FFFFFF" d="M323.883,719.354c0.6,0,1.104,0.502,1.104,1.104c0,0.6-0.504,1.102-1.104,1.102
					s-1.104-0.502-1.104-1.102C322.779,719.855,323.283,719.354,323.883,719.354z M323.883,722.855c0.6,0,1.104,0.504,1.104,1.104
					c0,0.601-0.504,1.104-1.104,1.104s-1.104-0.504-1.104-1.104C322.779,723.359,323.283,722.855,323.883,722.855z"/>
			</g>
		</g>
		<path fill="#FFFFFF" d="M292.467,721.238c0,4.244,3.438,7.685,7.684,7.685h3.152c4.242,0,7.684-3.439,7.684-7.685
			c0-4.242-3.44-7.684-7.684-7.684h-3.152C295.906,713.555,292.467,716.996,292.467,721.238
			C292.467,721.238,292.467,716.996,292.467,721.238z"/>
		<path fill="#FFFFFF" d="M327.467,721.238c0,4.244,3.438,7.685,7.684,7.685h3.152c4.242,0,7.684-3.439,7.684-7.685
			c0-4.242-3.44-7.684-7.684-7.684h-3.152C330.906,713.555,327.467,716.996,327.467,721.238
			C327.467,721.238,327.467,716.996,327.467,721.238z"/>
	</g>
</g>
</svg>
