<?xml version="1.0" encoding="utf-8"?>
<!-- Generator: Adobe Illustrator 15.0.0, SVG Export Plug-In . SVG Version: 6.00 Build 0)  -->
<!DOCTYPE svg PUBLIC "-//W3C//DTD SVG 1.1//EN" "http://www.w3.org/Graphics/SVG/1.1/DTD/svg11.dtd">
<svg version="1.1" id="Layer_1" xmlns="http://www.w3.org/2000/svg" xmlns:xlink="http://www.w3.org/1999/xlink" x="0px" y="0px"
	 width="135.499px" height="25.078px" viewBox="229.89 109.81 135.499 25.078"
	 enable-background="new 229.89 109.81 135.499 25.078" xml:space="preserve">
<g>
	<path fill="#4B67AF" d="M360.39,109.81h-20h-40.722h-43.271l-2.056,2.545c-0.19,0.234-0.476,0.372-0.778,0.372h-7.757
		c-0.302,0-0.588-0.138-0.778-0.372l-2.056-2.545h-8.083c-2.761,0-5,2.237-5,5v12.167c0,2.762,2.239,4.999,5,4.999h8.088
		l2.051,2.539c0.19,0.235,0.477,0.373,0.778,0.373h7.757c0.303,0,0.588-0.138,0.778-0.373l2.051-2.539h43.274h40.722h20
		c2.762,0,5-2.237,5-4.999V114.81C365.39,112.048,363.151,109.81,360.39,109.81z"/>
	<g>
		<g>
			<g>
				<path fill="#FFFFFF" d="M238.222,118.729v-2.087h1.679v2.087h0.828v1.559h-0.828v4.294h-1.679v-4.294h-0.814v-1.559H238.222z"/>
				<path fill="#FFFFFF" d="M247.399,124.581h-1.679v-0.396c0-0.098,0.012-0.24,0.036-0.408c-0.384,0.552-0.984,0.947-1.775,0.947
					c-1.211,0-2.123-0.947-2.123-2.52v-3.478h1.691v3.382c0,0.814,0.516,1.235,1.08,1.235c0.503,0,1.055-0.396,1.091-1.188v-3.43
					h1.679V124.581z"/>
				<path fill="#FFFFFF" d="M250.617,124.581h-1.68v-5.853h1.68v0.396c0,0.132-0.024,0.349-0.061,0.576
					c0.336-0.636,0.863-1.116,1.631-1.116v1.645c-0.875,0-1.57,0.504-1.57,1.463V124.581z"/>
				<path fill="#FFFFFF" d="M255.068,124.581h-1.679v-5.853h1.679v0.396c0,0.097-0.012,0.24-0.035,0.408
					c0.384-0.552,0.972-0.948,1.774-0.948c1.211,0,2.123,0.948,2.123,2.52v3.479h-1.691V121.2c0-0.814-0.516-1.235-1.079-1.235
					c-0.505,0-1.067,0.407-1.092,1.188V124.581z"/>
			</g>
		</g>
		<g>
			<g>
				<path fill="#FFFFFF" d="M319.725,124.581v-0.768c-0.469,0.552-1.092,0.888-1.774,0.888c-1.645,0-2.531-1.487-2.531-3.07
					c0-1.56,0.924-3.033,2.543-3.033c0.646,0,1.247,0.238,1.703,0.72v-3.73h1.68v8.995L319.725,124.581L319.725,124.581z
					 M319.688,121.643c0-0.899-0.516-1.547-1.295-1.547c-0.875,0-1.307,0.694-1.307,1.559c0,0.852,0.442,1.56,1.307,1.56
					C319.16,123.214,319.688,122.446,319.688,121.643z"/>
				<path fill="#FFFFFF" d="M324.213,122.015c0.12,0.972,0.72,1.331,1.379,1.331c0.648,0,1.092-0.301,1.38-0.721l1.115,0.805
					c-0.624,0.84-1.259,1.271-2.591,1.271c-1.716,0-2.976-1.26-2.976-3.059c0-1.667,1.128-3.046,2.927-3.046
					c1.979,0,2.76,1.415,2.76,3.214v0.204L324.213,122.015L324.213,122.015z M324.262,120.983h2.314
					c-0.108-0.672-0.624-1.021-1.141-1.021C324.896,119.964,324.43,120.3,324.262,120.983z"/>
				<path fill="#FFFFFF" d="M333.044,118.824l0.743-0.852l0.983,0.924l-0.695,0.694c0.336,0.408,0.527,0.911,0.527,1.464
					c0,1.464-1.2,2.435-2.676,2.435c-0.348,0-0.646-0.035-0.936-0.107c-0.517,0.433-0.563,0.959,0.229,0.959
					c0.552,0,0.912-0.228,1.715-0.228c3.06,0,3.035,4.27-1.008,4.27c-3.033,0-3.657-1.967-2.626-3.321
					c-0.432-0.672-0.252-1.703,0.552-2.326c-0.396-0.42-0.61-0.996-0.61-1.68c0-1.464,1.211-2.446,2.686-2.446
					C332.324,118.608,332.708,118.681,333.044,118.824z M330.417,125.744c-0.323,0.612,0.071,1.212,1.511,1.212
					c2.111,0,2.051-1.464,0.948-1.464c-0.647,0-1.296,0.276-2.147,0.276C330.621,125.769,330.514,125.757,330.417,125.744z
					 M331.928,122.11c0.66,0,1.092-0.372,1.092-1.056c0-0.695-0.432-1.092-1.092-1.092c-0.671,0-1.103,0.407-1.103,1.092
					C330.825,121.751,331.293,122.11,331.928,122.11z"/>
				<path fill="#FFFFFF" d="M337.629,124.581h-1.68v-5.853h1.68v0.396c0,0.132-0.023,0.349-0.062,0.576
					c0.336-0.636,0.863-1.116,1.632-1.116v1.645c-0.875,0-1.57,0.504-1.57,1.463V124.581z"/>
				<path fill="#FFFFFF" d="M341.732,122.015c0.12,0.972,0.721,1.331,1.379,1.331c0.648,0,1.093-0.301,1.381-0.721l1.114,0.805
					c-0.624,0.84-1.259,1.271-2.591,1.271c-1.715,0-2.975-1.26-2.975-3.059c0-1.667,1.128-3.046,2.927-3.046
					c1.979,0,2.759,1.415,2.759,3.214v0.204L341.732,122.015L341.732,122.015z M341.781,120.983h2.314
					c-0.108-0.672-0.624-1.021-1.14-1.021C342.416,119.964,341.949,120.3,341.781,120.983z"/>
				<path fill="#FFFFFF" d="M348.236,122.015c0.12,0.972,0.721,1.331,1.379,1.331c0.648,0,1.093-0.301,1.381-0.721l1.114,0.805
					c-0.624,0.84-1.259,1.271-2.591,1.271c-1.715,0-2.975-1.26-2.975-3.059c0-1.667,1.128-3.046,2.927-3.046
					c1.979,0,2.759,1.415,2.759,3.214v0.204L348.236,122.015L348.236,122.015z M348.285,120.983h2.313
					c-0.107-0.672-0.624-1.021-1.14-1.021C348.92,119.964,348.453,120.3,348.285,120.983z"/>
				<path fill="#FFFFFF" d="M353.997,122.614c0.406,0.468,1.056,0.659,1.619,0.659c0.358,0,0.623-0.145,0.623-0.359
					c0-0.3-0.301-0.442-0.792-0.588c-0.91-0.264-2.038-0.768-2.038-1.955c0-1.127,1.091-1.763,2.074-1.763
					c0.888,0,1.512,0.3,2.039,0.852l-0.936,1.008c-0.252-0.275-0.721-0.527-1.068-0.527c-0.312,0-0.539,0.145-0.539,0.372
					c0,0.288,0.336,0.432,0.863,0.588c0.888,0.264,2.027,0.814,2.027,1.931c0,1.104-0.947,1.871-2.269,1.871
					c-1.055,0-1.918-0.3-2.555-0.982L353.997,122.614z"/>
			</g>
		</g>
		<path fill="#FFFFFF" d="M274.912,112.173c-4.34,0-7.959,3.127-8.733,7.244l-1.194-0.164c-0.095-0.012-0.188,0.025-0.25,0.099
			c-0.061,0.072-0.08,0.174-0.049,0.264l1.318,3.955c0.033,0.1,0.12,0.172,0.225,0.186c0.014,0.002,0.025,0.003,0.037,0.003
			c0.092,0,0.178-0.044,0.229-0.121l2.337-3.451c0.055-0.079,0.063-0.181,0.023-0.269s-0.12-0.147-0.215-0.162l-1.64-0.225
			c0.717-3.714,3.99-6.528,7.911-6.528c4.443,0,8.059,3.615,8.059,8.061c0,4.442-3.614,8.059-8.059,8.059
			c-0.229,0-0.414,0.187-0.414,0.414c0,0.229,0.186,0.414,0.414,0.414c4.899,0,8.888-3.986,8.888-8.887
			C283.8,116.162,279.813,112.173,274.912,112.173z"/>
		<path fill="#FFFFFF" d="M290.797,121.349c0,4.244,3.439,7.684,7.685,7.684h3.151c4.243,0,7.685-3.438,7.685-7.684
			c0-4.242-3.44-7.685-7.685-7.685h-3.151C294.237,113.665,290.797,117.106,290.797,121.349
			C290.797,121.349,290.797,117.106,290.797,121.349z"/>
	</g>
</g>
</svg>
