<?xml version="1.0" encoding="utf-8"?>
<!-- Generator: Adobe Illustrator 15.0.0, SVG Export Plug-In . SVG Version: 6.00 Build 0)  -->
<!DOCTYPE svg PUBLIC "-//W3C//DTD SVG 1.1//EN" "http://www.w3.org/Graphics/SVG/1.1/DTD/svg11.dtd">
<svg version="1.1" id="Layer_1" xmlns="http://www.w3.org/2000/svg" xmlns:xlink="http://www.w3.org/1999/xlink" x="0px" y="0px"
	 width="103.499px" height="25.078px" viewBox="245.89 742.183 103.499 25.078"
	 enable-background="new 245.89 742.183 103.499 25.078" xml:space="preserve">
<g>
	<path fill="#4B67AF" d="M344.39,742.183h-0.589h-6.133h-65.271l-2.056,2.545c-0.19,0.235-0.476,0.372-0.778,0.372h-7.757
		c-0.303,0-0.588-0.137-0.778-0.372l-2.056-2.545h-8.083c-2.762,0-5,2.238-5,5v12.167c0,2.762,2.238,4.999,5,4.999h8.088
		l2.051,2.539c0.19,0.236,0.477,0.373,0.778,0.373h7.757c0.304,0,0.588-0.138,0.778-0.373l2.051-2.539h65.274h6.133h0.589
		c2.762,0,5-2.237,5-4.999v-12.167C349.39,744.422,347.151,742.183,344.39,742.183z"/>
	<g>
		<g>
			<g>
				<path fill="#FFFFFF" d="M258.013,751.197l0.743-0.852l0.984,0.924l-0.696,0.695c0.336,0.408,0.527,0.91,0.527,1.463
					c0,1.463-1.199,2.434-2.675,2.434c-0.348,0-0.646-0.035-0.936-0.106c-0.517,0.432-0.563,0.959,0.228,0.959
					c0.553,0,0.912-0.228,1.715-0.228c3.059,0,3.034,4.271-1.008,4.271c-3.034,0-3.658-1.967-2.626-3.322
					c-0.432-0.672-0.252-1.703,0.552-2.326c-0.396-0.42-0.611-0.996-0.611-1.68c0-1.463,1.211-2.447,2.687-2.447
					C257.293,750.98,257.677,751.053,258.013,751.197z M255.386,758.117c-0.324,0.611,0.072,1.211,1.511,1.211
					c2.111,0,2.051-1.463,0.948-1.463c-0.648,0-1.295,0.275-2.147,0.275C255.59,758.141,255.482,758.13,255.386,758.117z
					 M256.897,754.482c0.66,0,1.091-0.371,1.091-1.055c0-0.695-0.432-1.092-1.091-1.092c-0.671,0-1.104,0.407-1.104,1.092
					C255.794,754.123,256.262,754.482,256.897,754.482z"/>
				<path fill="#FFFFFF" d="M260.559,754.016c0-1.74,1.343-3.047,3.06-3.047c1.715,0,3.058,1.307,3.058,3.047
					c0,1.738-1.343,3.047-3.058,3.047C261.902,757.063,260.559,755.755,260.559,754.016z M265.033,754.016
					c0-0.889-0.564-1.547-1.415-1.547c-0.864,0-1.428,0.658-1.428,1.547c0,0.897,0.587,1.559,1.428,1.559
					C264.469,755.574,265.033,754.914,265.033,754.016z"/>
				<path fill="#FFFFFF" d="M271.911,751.102v-2.088h1.679v2.088h0.828v1.559h-0.828v4.293h-1.679v-4.293h-0.815v-1.559H271.911z"/>
				<path fill="#FFFFFF" d="M275.235,754.016c0-1.74,1.344-3.047,3.06-3.047c1.715,0,3.058,1.307,3.058,3.047
					c0,1.738-1.343,3.047-3.058,3.047C276.578,757.063,275.235,755.755,275.235,754.016z M279.708,754.016
					c0-0.889-0.564-1.547-1.415-1.547c-0.864,0-1.427,0.658-1.427,1.547c0,0.897,0.587,1.559,1.427,1.559
					C279.145,755.574,279.708,754.914,279.708,754.016z"/>
			</g>
		</g>
		<rect x="286.306" y="745.665" fill="#FFFFFF" width="55.388" height="14.779"/>
	</g>
</g>
</svg>
