<?xml version="1.0" encoding="utf-8"?>
<!-- Generator: Adobe Illustrator 15.0.0, SVG Export Plug-In . SVG Version: 6.00 Build 0)  -->
<!DOCTYPE svg PUBLIC "-//W3C//DTD SVG 1.1//EN" "http://www.w3.org/Graphics/SVG/1.1/DTD/svg11.dtd">
<svg version="1.1" id="Layer_1" xmlns="http://www.w3.org/2000/svg" xmlns:xlink="http://www.w3.org/1999/xlink" x="0px" y="0px"
	 width="78.481px" height="25.079px" viewBox="258.399 398.034 78.481 25.079"
	 enable-background="new 258.399 398.034 78.481 25.079" xml:space="preserve">
<g>
	<path fill="#4B67AF" d="M332.177,398.063v-0.029h-0.296h-0.589h-1.396h-4.737h-6.293H299.51h-14.603l-2.057,2.545
		c-0.189,0.234-0.476,0.371-0.778,0.371h-7.757c-0.302,0-0.588-0.137-0.777-0.371l-2.057-2.545h-8.083c-2.761,0-5,2.238-5,5V415.2
		c0,2.763,2.239,5,5,5h8.088l2.052,2.54c0.189,0.236,0.476,0.373,0.777,0.373h7.757c0.303,0,0.589-0.137,0.778-0.373l2.051-2.54
		h14.607h30.388h2.279v-0.029c2.621-0.156,4.704-2.311,4.704-4.971v-12.166C336.881,400.374,334.798,398.22,332.177,398.063z"/>
	<g>
		<g>
			<g>
				<path fill="#FFFFFF" d="M266.633,411.839c0.407,0.468,1.055,0.658,1.618,0.658c0.359,0,0.624-0.144,0.624-0.358
					c0-0.3-0.3-0.443-0.791-0.588c-0.912-0.265-2.039-0.769-2.039-1.955c0-1.127,1.091-1.764,2.074-1.764
					c0.888,0,1.512,0.301,2.039,0.853l-0.937,1.008c-0.252-0.276-0.72-0.528-1.067-0.528c-0.312,0-0.538,0.146-0.538,0.372
					c0,0.288,0.335,0.433,0.862,0.588c0.889,0.265,2.026,0.815,2.026,1.932c0,1.104-0.947,1.871-2.268,1.871
					c-1.056,0-1.919-0.3-2.555-0.983L266.633,411.839z"/>
				<path fill="#FFFFFF" d="M273.016,411.238c0.12,0.973,0.72,1.331,1.379,1.331c0.647,0,1.092-0.3,1.38-0.72l1.115,0.804
					c-0.624,0.84-1.26,1.271-2.591,1.271c-1.715,0-2.976-1.261-2.976-3.06c0-1.667,1.129-3.046,2.928-3.046
					c1.979,0,2.759,1.415,2.759,3.214v0.204L273.016,411.238L273.016,411.238z M273.063,410.207h2.314
					c-0.107-0.672-0.623-1.02-1.14-1.02C273.699,409.188,273.231,409.523,273.063,410.207z"/>
				<path fill="#FFFFFF" d="M278.644,407.952v-2.087h1.681v2.087h0.826v1.56h-0.826v4.294h-1.681v-4.294h-0.814v-1.56H278.644z"/>
				<path fill="#FFFFFF" d="M287.295,410.83l-1.932-2.878h1.884l0.828,1.247c0.144,0.229,0.286,0.54,0.286,0.54
					s0.133-0.324,0.276-0.54l0.839-1.247h1.884l-1.942,2.878l2.026,2.976h-1.87l-0.925-1.393c-0.155-0.216-0.274-0.454-0.288-0.49
					c-0.012,0.022-0.106,0.252-0.264,0.49l-0.947,1.393h-1.871L287.295,410.83z"/>
				<path fill="#FFFFFF" d="M296.392,407.952v-2.087h1.679v2.087h0.828v1.56h-0.828v4.294h-1.679v-4.294h-0.814v-1.56H296.392z"/>
				<path fill="#FFFFFF" d="M299.716,410.866c0-1.738,1.343-3.046,3.059-3.046c1.715,0,3.059,1.308,3.059,3.046
					c0,1.739-1.343,3.047-3.059,3.047S299.716,412.605,299.716,410.866z M304.189,410.866c0-0.888-0.563-1.547-1.415-1.547
					c-0.863,0-1.427,0.659-1.427,1.547c0,0.899,0.587,1.561,1.427,1.561C303.625,412.427,304.189,411.766,304.189,410.866z"/>
			</g>
		</g>
		<path fill="#FFFFFF" d="M311.076,409.573c0,4.244,3.438,7.685,7.684,7.685h3.152c4.241,0,7.684-3.439,7.684-7.685
			c0-4.242-3.441-7.684-7.684-7.684h-3.152C314.516,401.89,311.076,405.331,311.076,409.573
			C311.076,409.573,311.076,405.331,311.076,409.573z"/>
	</g>
</g>
</svg>
