<?xml version="1.0" encoding="utf-8"?>
<!-- Generator: Adobe Illustrator 15.0.0, SVG Export Plug-In . SVG Version: 6.00 Build 0)  -->
<!DOCTYPE svg PUBLIC "-//W3C//DTD SVG 1.1//EN" "http://www.w3.org/Graphics/SVG/1.1/DTD/svg11.dtd">
<svg version="1.1" id="Layer_1" xmlns="http://www.w3.org/2000/svg" xmlns:xlink="http://www.w3.org/1999/xlink" x="0px" y="0px"
	 width="135.499px" height="25.078px" viewBox="229.89 225.81 135.499 25.078"
	 enable-background="new 229.89 225.81 135.499 25.078" xml:space="preserve">
<g>
	<path fill="#4B67AF" d="M360.39,225.81h-20h-40.722h-43.271l-2.056,2.545c-0.19,0.234-0.476,0.372-0.778,0.372h-7.757
		c-0.302,0-0.588-0.138-0.778-0.372l-2.056-2.545h-8.083c-2.761,0-5,2.237-5,5v12.167c0,2.762,2.239,4.999,5,4.999h8.088
		l2.051,2.539c0.19,0.235,0.477,0.373,0.778,0.373h7.757c0.303,0,0.588-0.138,0.778-0.373l2.051-2.539h43.274h40.722h20
		c2.762,0,5-2.237,5-4.999V230.81C365.39,228.048,363.151,225.81,360.39,225.81z"/>
	<g>
		<g>
			<g>
				<path fill="#FFFFFF" d="M238.249,243.579v-8.851h1.679v0.588c0.456-0.48,1.055-0.72,1.703-0.72c1.619,0,2.542,1.475,2.542,3.033
					c0,1.583-0.888,3.07-2.531,3.07c-0.684,0-1.319-0.336-1.774-0.888v3.766L238.249,243.579L238.249,243.579z M242.506,237.654
					c0-0.863-0.432-1.559-1.309-1.559c-0.778,0-1.295,0.646-1.295,1.547c0,0.804,0.527,1.57,1.295,1.57
					C242.063,239.214,242.506,238.506,242.506,237.654z"/>
				<path fill="#FFFFFF" d="M244.993,237.643c0-1.739,1.343-3.046,3.059-3.046c1.715,0,3.058,1.307,3.058,3.046
					c0,1.738-1.343,3.047-3.058,3.047C246.336,240.689,244.993,239.382,244.993,237.643z M249.466,237.643
					c0-0.889-0.564-1.547-1.415-1.547c-0.864,0-1.427,0.658-1.427,1.547c0,0.898,0.587,1.56,1.427,1.56
					C248.902,239.202,249.466,238.542,249.466,237.643z"/>
				<path fill="#FFFFFF" d="M253.224,231.813c0.601,0,1.104,0.504,1.104,1.104c0,0.601-0.504,1.104-1.104,1.104
					c-0.6,0-1.104-0.504-1.104-1.104C252.12,232.317,252.625,231.813,253.224,231.813z M252.349,240.581v-5.853h1.715v5.853H252.349
					z"/>
				<path fill="#FFFFFF" d="M257.375,240.581h-1.68v-5.853h1.68v0.396c0,0.097-0.013,0.24-0.036,0.408
					c0.384-0.552,0.972-0.948,1.774-0.948c1.212,0,2.123,0.948,2.123,2.52v3.479h-1.69V237.2c0-0.814-0.517-1.235-1.08-1.235
					c-0.504,0-1.067,0.407-1.091,1.188V240.581L257.375,240.581z"/>
				<path fill="#FFFFFF" d="M263.232,234.729v-2.087h1.68v2.087h0.827v1.559h-0.827v4.294h-1.68v-4.294h-0.814v-1.559H263.232z"/>
				<path fill="#FFFFFF" d="M271.451,231.813c0.6,0,1.104,0.504,1.104,1.104c0,0.601-0.504,1.104-1.104,1.104
					c-0.601,0-1.104-0.504-1.104-1.104C270.347,232.317,270.852,231.813,271.451,231.813z M270.576,240.581v-5.853h1.715v5.853
					H270.576z"/>
				<path fill="#FFFFFF" d="M275.603,240.581h-1.679v-5.853h1.679v0.396c0,0.097-0.012,0.24-0.036,0.408
					c0.385-0.552,0.973-0.948,1.775-0.948c1.211,0,2.123,0.948,2.123,2.52v3.479h-1.691V237.2c0-0.814-0.516-1.235-1.08-1.235
					c-0.504,0-1.066,0.407-1.091,1.188V240.581L275.603,240.581z"/>
				<path fill="#FFFFFF" d="M288.562,240.581v-0.768c-0.468,0.552-1.092,0.888-1.774,0.888c-1.644,0-2.53-1.487-2.53-3.07
					c0-1.56,0.923-3.033,2.542-3.033c0.646,0,1.247,0.238,1.703,0.72v-3.73h1.679v8.995L288.562,240.581L288.562,240.581z
					 M288.525,237.643c0-0.899-0.516-1.547-1.295-1.547c-0.875,0-1.307,0.694-1.307,1.559c0,0.852,0.444,1.56,1.307,1.56
					C287.998,239.214,288.525,238.446,288.525,237.643z"/>
				<path fill="#FFFFFF" d="M292.655,231.813c0.601,0,1.104,0.504,1.104,1.104c0,0.601-0.504,1.104-1.104,1.104
					c-0.6,0-1.104-0.504-1.104-1.104C291.551,232.317,292.055,231.813,292.655,231.813z M291.779,240.581v-5.853h1.716v5.853
					H291.779z"/>
				<path fill="#FFFFFF" d="M296.806,240.581h-1.679v-5.853h1.679v0.396c0,0.132-0.023,0.349-0.06,0.576
					c0.336-0.636,0.862-1.116,1.631-1.116v1.645c-0.875,0-1.571,0.504-1.571,1.463V240.581z"/>
				<path fill="#FFFFFF" d="M300.91,238.015c0.118,0.972,0.719,1.331,1.379,1.331c0.646,0,1.092-0.301,1.379-0.721l1.115,0.805
					c-0.623,0.84-1.26,1.271-2.591,1.271c-1.715,0-2.975-1.26-2.975-3.059c0-1.667,1.127-3.046,2.926-3.046
					c1.979,0,2.76,1.415,2.76,3.214v0.204L300.91,238.015L300.91,238.015z M300.958,236.983h2.313
					c-0.107-0.672-0.624-1.021-1.14-1.021C301.594,235.964,301.126,236.3,300.958,236.983z"/>
				<path fill="#FFFFFF" d="M309.896,236.707c-0.3-0.323-0.563-0.552-1.043-0.552c-0.78,0-1.332,0.624-1.332,1.487
					c0,0.898,0.552,1.463,1.332,1.463c0.479,0,0.839-0.265,1.091-0.623l1.26,0.959c-0.601,0.814-1.318,1.248-2.351,1.248
					c-1.764,0-3.011-1.344-3.011-3.047s1.247-3.046,2.998-3.046c0.924,0,1.655,0.396,2.219,1.03L309.896,236.707z"/>
				<path fill="#FFFFFF" d="M312.838,234.729v-2.087h1.68v2.087h0.827v1.559h-0.827v4.294h-1.68v-4.294h-0.815v-1.559H312.838z"/>
				<path fill="#FFFFFF" d="M317.457,231.813c0.6,0,1.104,0.504,1.104,1.104c0,0.601-0.504,1.104-1.104,1.104
					c-0.601,0-1.104-0.504-1.104-1.104C316.353,232.317,316.857,231.813,317.457,231.813z M316.582,240.581v-5.853h1.715v5.853
					H316.582z"/>
				<path fill="#FFFFFF" d="M319.57,237.643c0-1.739,1.344-3.046,3.06-3.046c1.715,0,3.058,1.307,3.058,3.046
					c0,1.738-1.343,3.047-3.058,3.047C320.913,240.689,319.57,239.382,319.57,237.643z M324.043,237.643
					c0-0.889-0.563-1.547-1.414-1.547c-0.864,0-1.428,0.658-1.428,1.547c0,0.898,0.588,1.56,1.428,1.56
					C323.479,239.202,324.043,238.542,324.043,237.643z"/>
				<path fill="#FFFFFF" d="M328.545,240.581h-1.68v-5.853h1.68v0.396c0,0.097-0.012,0.24-0.036,0.408
					c0.384-0.552,0.972-0.948,1.774-0.948c1.212,0,2.122,0.948,2.122,2.52v3.479h-1.689V237.2c0-0.814-0.518-1.235-1.079-1.235
					c-0.504,0-1.068,0.407-1.092,1.188V240.581L328.545,240.581z"/>
			</g>
		</g>
		<path fill="#FFFFFF" d="M339.279,237.349c0,4.244,3.44,7.684,7.686,7.684h3.15c4.243,0,7.686-3.438,7.686-7.684
			c0-4.242-3.441-7.685-7.686-7.685h-3.15C342.72,229.665,339.279,233.106,339.279,237.349
			C339.279,237.349,339.279,233.106,339.279,237.349z"/>
	</g>
</g>
</svg>
