<?xml version="1.0" encoding="utf-8"?>
<!-- Generator: Adobe Illustrator 15.0.0, SVG Export Plug-In . SVG Version: 6.00 Build 0)  -->
<!DOCTYPE svg PUBLIC "-//W3C//DTD SVG 1.1//EN" "http://www.w3.org/Graphics/SVG/1.1/DTD/svg11.dtd">
<svg version="1.1" id="Layer_1" xmlns="http://www.w3.org/2000/svg" xmlns:xlink="http://www.w3.org/1999/xlink" x="0px" y="0px"
	 width="105.499px" height="25.078px" viewBox="244.89 60.959 105.499 25.078"
	 enable-background="new 244.89 60.959 105.499 25.078" xml:space="preserve">
<g>
	<path fill="#4B67AF" d="M345.39,60.959h-1.089h-4.261h-68.643l-2.056,2.545c-0.19,0.235-0.476,0.372-0.778,0.372h-7.757
		c-0.303,0-0.588-0.137-0.778-0.372l-2.056-2.545h-8.083c-2.762,0-5,2.238-5,5v12.167c0,2.763,2.238,5,5,5h8.088l2.051,2.539
		c0.19,0.235,0.477,0.372,0.778,0.372h7.757c0.304,0,0.588-0.137,0.778-0.372l2.051-2.539h68.646h4.261h1.089c2.762,0,5-2.237,5-5
		V65.959C350.39,63.197,348.151,60.959,345.39,60.959z"/>
	<path display="none" fill="#4B67AF" d="M269.893,83.126H337.5h2.5h6.891h0.276v-0.026c2.631-0.146,4.724-2.307,4.724-4.974V65.959
		c0-2.667-2.093-4.826-4.724-4.972v-0.028h-0.276H340h-2.5h-67.604l-2.056,2.545c-0.19,0.235-0.477,0.372-0.778,0.372h-7.757
		c-0.302,0-0.588-0.137-0.778-0.372l-2.055-2.545h-8.084c-2.761,0-5,2.238-5,5v12.167c0,2.763,2.239,5,5,5h8.088"/>
	<g>
		<g>
			<g>
				<path fill="#FFFFFF" d="M253.332,76.729v-5.854h1.679v0.301c0,0.106-0.024,0.3-0.048,0.479c0.348-0.563,0.911-0.924,1.606-0.924
					c0.853,0,1.367,0.396,1.644,0.96c0.42-0.563,1.066-0.96,1.858-0.96c1.199,0,1.932,0.815,1.932,2.219v3.778h-1.679V73.07
					c0-0.636-0.456-0.959-0.912-0.959s-0.912,0.323-0.912,1.007v3.61h-1.679v-3.694c0-0.6-0.421-0.887-0.864-0.887
					c-0.456,0-0.923,0.312-0.947,0.911v3.67L253.332,76.729L253.332,76.729z"/>
				<path fill="#FFFFFF" d="M263.184,73.791c0-1.738,1.343-3.046,3.06-3.046c1.715,0,3.058,1.308,3.058,3.046
					c0,1.739-1.343,3.047-3.058,3.047C264.527,76.838,263.184,75.53,263.184,73.791z M267.657,73.791
					c0-0.888-0.563-1.547-1.415-1.547c-0.864,0-1.428,0.659-1.428,1.547c0,0.899,0.587,1.561,1.428,1.561
					C267.094,75.351,267.657,74.69,267.657,73.791z"/>
				<path fill="#FFFFFF" d="M271.967,76.729l-2.135-5.854h1.822l1.067,3.046c0.12,0.336,0.192,0.757,0.204,0.841
					c0.012-0.062,0.084-0.492,0.204-0.841l1.066-3.046h1.823l-2.135,5.854H271.967z"/>
				<path fill="#FFFFFF" d="M278.243,74.163c0.119,0.973,0.72,1.331,1.379,1.331c0.646,0,1.091-0.3,1.379-0.72l1.115,0.804
					c-0.624,0.84-1.26,1.271-2.591,1.271c-1.715,0-2.975-1.261-2.975-3.06c0-1.667,1.127-3.046,2.926-3.046
					c1.979,0,2.759,1.415,2.759,3.214v0.204L278.243,74.163L278.243,74.163z M278.291,73.132h2.313
					c-0.107-0.672-0.624-1.02-1.139-1.02C278.927,72.112,278.459,72.448,278.291,73.132z"/>
			</g>
		</g>
		<path fill="#FFFFFF" d="M288.362,72.498c0,4.245,3.44,7.686,7.686,7.686h3.15c4.243,0,7.686-3.439,7.686-7.686
			c0-4.243-3.441-7.685-7.686-7.685h-3.15C291.803,64.813,288.362,68.255,288.362,72.498
			C288.362,72.498,288.362,68.255,288.362,72.498z"/>
		<g>
			<g>
				<path fill="#FFFFFF" d="M315.045,74.763c0.407,0.468,1.055,0.658,1.618,0.658c0.359,0,0.624-0.144,0.624-0.358
					c0-0.3-0.301-0.443-0.791-0.588c-0.912-0.265-2.039-0.769-2.039-1.955c0-1.127,1.091-1.764,2.074-1.764
					c0.888,0,1.512,0.301,2.038,0.853l-0.936,1.008c-0.252-0.276-0.72-0.528-1.067-0.528c-0.312,0-0.54,0.146-0.54,0.372
					c0,0.288,0.336,0.433,0.863,0.588c0.889,0.265,2.027,0.815,2.027,1.932c0,1.104-0.947,1.871-2.268,1.871
					c-1.056,0-1.919-0.3-2.555-0.983L315.045,74.763z"/>
				<path fill="#FFFFFF" d="M320.552,70.877V68.79h1.679v2.087h0.828v1.56h-0.828v4.294h-1.679v-4.294h-0.815v-1.56H320.552z"/>
				<path fill="#FFFFFF" d="M325.566,74.163c0.121,0.973,0.722,1.331,1.38,1.331c0.647,0,1.092-0.3,1.381-0.72l1.114,0.804
					c-0.624,0.84-1.26,1.271-2.591,1.271c-1.716,0-2.975-1.261-2.975-3.06c0-1.667,1.128-3.046,2.927-3.046
					c1.979,0,2.758,1.415,2.758,3.214v0.204L325.566,74.163L325.566,74.163z M325.615,73.132h2.314
					c-0.107-0.672-0.623-1.02-1.139-1.02C326.251,72.112,325.783,72.448,325.615,73.132z"/>
				<path fill="#FFFFFF" d="M330.74,79.728v-8.852h1.68v0.588c0.456-0.479,1.056-0.72,1.703-0.72c1.618,0,2.542,1.476,2.542,3.034
					c0,1.583-0.888,3.07-2.53,3.07c-0.684,0-1.319-0.336-1.774-0.889v3.767L330.74,79.728L330.74,79.728z M334.998,73.803
					c0-0.863-0.434-1.56-1.31-1.56c-0.778,0-1.295,0.647-1.295,1.547c0,0.805,0.527,1.571,1.295,1.571
					C334.554,75.362,334.998,74.654,334.998,73.803z"/>
				<path fill="#FFFFFF" d="M338.432,74.763c0.408,0.468,1.055,0.658,1.619,0.658c0.359,0,0.623-0.144,0.623-0.358
					c0-0.3-0.299-0.443-0.791-0.588c-0.912-0.265-2.039-0.769-2.039-1.955c0-1.127,1.092-1.764,2.074-1.764
					c0.889,0,1.512,0.301,2.039,0.853l-0.937,1.008c-0.252-0.276-0.719-0.528-1.065-0.528c-0.313,0-0.54,0.146-0.54,0.372
					c0,0.288,0.335,0.433,0.862,0.588c0.889,0.265,2.026,0.815,2.026,1.932c0,1.104-0.947,1.871-2.266,1.871
					c-1.058,0-1.92-0.3-2.556-0.983L338.432,74.763z"/>
			</g>
		</g>
	</g>
</g>
</svg>
