<?xml version="1.0" encoding="utf-8"?>
<!-- Generator: Adobe Illustrator 15.0.0, SVG Export Plug-In . SVG Version: 6.00 Build 0)  -->
<!DOCTYPE svg PUBLIC "-//W3C//DTD SVG 1.1//EN" "http://www.w3.org/Graphics/SVG/1.1/DTD/svg11.dtd">
<svg version="1.1" id="Layer_1" xmlns="http://www.w3.org/2000/svg" xmlns:xlink="http://www.w3.org/1999/xlink" x="0px" y="0px"
	 width="78.481px" height="25.08px" viewBox="258.399 466.901 78.481 25.08" enable-background="new 258.399 466.901 78.481 25.08"
	 xml:space="preserve">
<g>
	<path fill="#4B67AF" d="M332.177,466.931v-0.03h-0.296h-0.589h-1.396h-4.737h-6.293H299.51h-14.603l-2.057,2.545
		c-0.189,0.236-0.476,0.373-0.778,0.373h-7.757c-0.302,0-0.588-0.137-0.777-0.373l-2.057-2.545h-8.083c-2.761,0-5,2.238-5,5v12.168
		c0,2.762,2.239,5,5,5h8.088l2.052,2.539c0.189,0.236,0.476,0.373,0.777,0.373h7.757c0.303,0,0.589-0.137,0.778-0.373l2.051-2.539
		h14.607h30.388h2.279v-0.031c2.621-0.155,4.704-2.309,4.704-4.969V471.9C336.881,469.24,334.798,467.088,332.177,466.931z"/>
	<g>
		<g>
			<g>
				<path fill="#FFFFFF" d="M266.633,480.705c0.407,0.468,1.055,0.658,1.618,0.658c0.359,0,0.624-0.143,0.624-0.358
					c0-0.3-0.3-0.443-0.791-0.589c-0.912-0.264-2.039-0.768-2.039-1.954c0-1.128,1.091-1.763,2.074-1.763
					c0.888,0,1.512,0.299,2.039,0.853l-0.937,1.008c-0.252-0.277-0.72-0.529-1.067-0.529c-0.312,0-0.538,0.146-0.538,0.373
					c0,0.287,0.335,0.433,0.862,0.588c0.889,0.265,2.026,0.814,2.026,1.931c0,1.104-0.947,1.87-2.268,1.87
					c-1.056,0-1.919-0.299-2.555-0.981L266.633,480.705z"/>
				<path fill="#FFFFFF" d="M273.016,480.105c0.12,0.971,0.72,1.33,1.379,1.33c0.647,0,1.092-0.299,1.38-0.719l1.115,0.803
					c-0.624,0.84-1.26,1.271-2.591,1.271c-1.715,0-2.976-1.26-2.976-3.059c0-1.666,1.129-3.045,2.928-3.045
					c1.979,0,2.759,1.414,2.759,3.213v0.205L273.016,480.105L273.016,480.105z M273.063,479.074h2.314
					c-0.107-0.672-0.623-1.02-1.14-1.02C273.699,478.055,273.231,478.391,273.063,479.074z"/>
				<path fill="#FFFFFF" d="M278.644,476.818v-2.086h1.681v2.086h0.826v1.56h-0.826v4.295h-1.681v-4.295h-0.814v-1.56H278.644z"/>
				<path fill="#FFFFFF" d="M287.463,482.023l-2.184-5.205h1.764l1.128,2.734c0.096,0.24,0.18,0.563,0.19,0.6
					c0-0.022,0.108-0.348,0.217-0.6l1.176-2.734h1.774l-4.042,9.127h-1.751L287.463,482.023z"/>
				<path fill="#FFFFFF" d="M296.38,476.818v-2.086h1.679v2.086h0.828v1.56h-0.828v4.295h-1.679v-4.295h-0.815v-1.56H296.38z"/>
				<path fill="#FFFFFF" d="M299.704,479.732c0-1.738,1.343-3.045,3.059-3.045c1.715,0,3.058,1.307,3.058,3.045
					c0,1.74-1.343,3.047-3.058,3.047C301.047,482.779,299.704,481.473,299.704,479.732z M304.178,479.732
					c0-0.887-0.564-1.547-1.415-1.547c-0.864,0-1.427,0.66-1.427,1.547c0,0.9,0.587,1.562,1.427,1.562
					C303.613,481.294,304.178,480.634,304.178,479.732z"/>
			</g>
		</g>
		<path fill="#FFFFFF" d="M311.076,478.439c0,4.244,3.438,7.684,7.684,7.684h3.152c4.241,0,7.684-3.438,7.684-7.684
			c0-4.242-3.441-7.684-7.684-7.684h-3.152C314.516,470.757,311.076,474.197,311.076,478.439
			C311.076,478.439,311.076,474.197,311.076,478.439z"/>
	</g>
</g>
</svg>
