<?xml version="1.0" encoding="utf-8"?>
<!-- Generator: Adobe Illustrator 15.0.0, SVG Export Plug-In . SVG Version: 6.00 Build 0)  -->
<!DOCTYPE svg PUBLIC "-//W3C//DTD SVG 1.1//EN" "http://www.w3.org/Graphics/SVG/1.1/DTD/svg11.dtd">
<svg version="1.1" id="Layer_1" xmlns="http://www.w3.org/2000/svg" xmlns:xlink="http://www.w3.org/1999/xlink" x="0px" y="0px"
	 width="175.5px" height="25.078px" viewBox="209.89 778.183 175.5 25.078" enable-background="new 209.89 778.183 175.5 25.078"
	 xml:space="preserve">
<g>
	<path fill="#4B67AF" d="M380.39,778.183h-0.589h-6.133h-0.278h-0.589h-6.133H354h-0.61h-0.589h-6.133h-0.278h-0.589h-6.133h-4.873
		H327h-11.61h-0.589h-6.133h-0.278h-0.589h-0.006h-6.127H289h-52.603l-2.056,2.545c-0.19,0.235-0.476,0.372-0.778,0.372h-7.757
		c-0.303,0-0.588-0.137-0.778-0.372l-2.056-2.545h-8.083c-2.762,0-5,2.238-5,5v12.167c0,2.762,2.238,4.999,5,4.999h8.088
		l2.051,2.539c0.19,0.236,0.477,0.373,0.778,0.373h7.757c0.304,0,0.588-0.138,0.778-0.373l2.051-2.539H289h12.668h6.127h0.006h0.589
		h0.278h6.133h0.589H327h7.795h4.873h6.133h0.589h0.278h6.133h0.589H354h12.668h6.133h0.589h0.278h6.133h0.589
		c2.762,0,5-2.237,5-4.999v-12.167C385.39,780.422,383.151,778.183,380.39,778.183z"/>
	<g>
		<g>
			<g>
				<path fill="#FFFFFF" d="M221.72,787.197l0.743-0.852l0.983,0.924l-0.695,0.695c0.336,0.408,0.527,0.91,0.527,1.463
					c0,1.463-1.199,2.434-2.675,2.434c-0.348,0-0.646-0.035-0.936-0.106c-0.517,0.432-0.563,0.959,0.228,0.959
					c0.552,0,0.912-0.228,1.715-0.228c3.059,0,3.034,4.271-1.008,4.271c-3.034,0-3.658-1.967-2.626-3.322
					c-0.432-0.672-0.252-1.703,0.552-2.326c-0.396-0.42-0.611-0.996-0.611-1.68c0-1.463,1.211-2.447,2.687-2.447
					C221,786.98,221.384,787.053,221.72,787.197z M219.093,794.117c-0.324,0.611,0.072,1.211,1.511,1.211
					c2.111,0,2.051-1.463,0.948-1.463c-0.648,0-1.295,0.275-2.147,0.275C219.297,794.141,219.189,794.13,219.093,794.117z
					 M220.604,790.482c0.66,0,1.091-0.371,1.091-1.055c0-0.695-0.432-1.092-1.091-1.092c-0.671,0-1.104,0.407-1.104,1.092
					C219.501,790.123,219.969,790.482,220.604,790.482z"/>
				<path fill="#FFFFFF" d="M224.626,792.953v-8.994h1.703v8.994H224.626z"/>
				<path fill="#FFFFFF" d="M228.801,784.186c0.6,0,1.104,0.504,1.104,1.104c0,0.601-0.504,1.104-1.104,1.104
					s-1.104-0.504-1.104-1.104C227.697,784.69,228.202,784.186,228.801,784.186z M227.926,792.953v-5.852h1.715v5.852H227.926z"/>
				<path fill="#FFFFFF" d="M235.231,792.953v-0.768c-0.468,0.553-1.092,0.889-1.774,0.889c-1.644,0-2.53-1.487-2.53-3.069
					c0-1.562,0.923-3.035,2.542-3.035c0.647,0,1.247,0.239,1.703,0.721v-3.729h1.679v8.993L235.231,792.953L235.231,792.953z
					 M235.195,790.016c0-0.9-0.516-1.547-1.295-1.547c-0.875,0-1.307,0.694-1.307,1.559c0,0.853,0.444,1.56,1.307,1.56
					C234.667,791.587,235.195,790.818,235.195,790.016z"/>
				<path fill="#FFFFFF" d="M239.72,790.387c0.12,0.973,0.72,1.332,1.379,1.332c0.647,0,1.091-0.302,1.379-0.722l1.115,0.806
					c-0.624,0.84-1.259,1.271-2.59,1.271c-1.715,0-2.976-1.26-2.976-3.059c0-1.668,1.127-3.047,2.927-3.047
					c1.979,0,2.759,1.416,2.759,3.215v0.203L239.72,790.387L239.72,790.387z M239.769,789.355h2.314
					c-0.108-0.672-0.624-1.02-1.14-1.02C240.404,788.337,239.937,788.673,239.769,789.355z"/>
			</g>
		</g>
		<g>
			<g>
				<path fill="#FFFFFF" d="M271.65,790.986c0.408,0.469,1.056,0.66,1.619,0.66c0.36,0,0.624-0.145,0.624-0.359
					c0-0.301-0.3-0.442-0.792-0.588c-0.912-0.264-2.039-0.768-2.039-1.955c0-1.127,1.091-1.764,2.075-1.764
					c0.888,0,1.511,0.301,2.039,0.852l-0.937,1.009c-0.252-0.275-0.72-0.527-1.066-0.527c-0.313,0-0.54,0.146-0.54,0.371
					c0,0.289,0.335,0.432,0.863,0.588c0.888,0.264,2.026,0.816,2.026,1.932c0,1.104-0.946,1.871-2.267,1.871
					c-1.056,0-1.919-0.301-2.555-0.983L271.65,790.986z"/>
				<path fill="#FFFFFF" d="M278.033,790.387c0.119,0.973,0.72,1.332,1.379,1.332c0.646,0,1.091-0.302,1.379-0.722l1.114,0.806
					c-0.624,0.84-1.259,1.271-2.59,1.271c-1.715,0-2.975-1.26-2.975-3.059c0-1.668,1.127-3.047,2.926-3.047
					c1.979,0,2.759,1.416,2.759,3.215v0.203L278.033,790.387L278.033,790.387z M278.081,789.355h2.313
					c-0.107-0.672-0.624-1.02-1.139-1.02C278.717,788.337,278.249,788.673,278.081,789.355z"/>
				<path fill="#FFFFFF" d="M287.02,789.08c-0.3-0.323-0.563-0.553-1.043-0.553c-0.78,0-1.332,0.625-1.332,1.488
					c0,0.897,0.552,1.463,1.332,1.463c0.479,0,0.839-0.264,1.091-0.623l1.26,0.959c-0.601,0.814-1.319,1.248-2.352,1.248
					c-1.763,0-3.01-1.344-3.01-3.047s1.247-3.047,2.998-3.047c0.924,0,1.655,0.396,2.219,1.031L287.02,789.08z"/>
				<path fill="#FFFFFF" d="M290.093,790.986c0.408,0.469,1.055,0.66,1.619,0.66c0.359,0,0.624-0.145,0.624-0.359
					c0-0.301-0.3-0.442-0.792-0.588c-0.912-0.264-2.039-0.768-2.039-1.955c0-1.127,1.091-1.764,2.075-1.764
					c0.888,0,1.511,0.301,2.039,0.852l-0.937,1.009c-0.252-0.275-0.72-0.527-1.066-0.527c-0.313,0-0.54,0.146-0.54,0.371
					c0,0.289,0.335,0.432,0.862,0.588c0.889,0.264,2.027,0.816,2.027,1.932c0,1.104-0.947,1.871-2.267,1.871
					c-1.057,0-1.92-0.301-2.556-0.983L290.093,790.986z"/>
				<path fill="#FFFFFF" d="M299.201,787.102v-2.088h1.679v2.088h0.827v1.559h-0.827v4.293h-1.679v-4.293h-0.816v-1.559H299.201z"/>
				<path fill="#FFFFFF" d="M302.525,790.016c0-1.74,1.344-3.047,3.06-3.047c1.715,0,3.058,1.307,3.058,3.047
					c0,1.738-1.343,3.047-3.058,3.047C303.868,793.063,302.525,791.755,302.525,790.016z M306.998,790.016
					c0-0.889-0.563-1.547-1.414-1.547c-0.864,0-1.429,0.658-1.429,1.547c0,0.897,0.589,1.559,1.429,1.559
					C306.435,791.574,306.998,790.914,306.998,790.016z"/>
				<path fill="#FFFFFF" d="M314.788,789.979l-1.932-2.877h1.883l0.828,1.246c0.144,0.229,0.287,0.541,0.287,0.541
					s0.132-0.324,0.275-0.541l0.84-1.246h1.883l-1.941,2.877l2.025,2.975h-1.871l-0.923-1.391c-0.156-0.217-0.275-0.455-0.288-0.492
					c-0.012,0.023-0.106,0.252-0.264,0.492l-0.947,1.391h-1.871L314.788,789.979z"/>
				<path fill="#FFFFFF" d="M320.668,787.354c0.601,0,1.104,0.502,1.104,1.104c0,0.6-0.503,1.102-1.104,1.102
					s-1.104-0.502-1.104-1.102C319.565,787.855,320.068,787.354,320.668,787.354z M320.668,790.855c0.601,0,1.104,0.504,1.104,1.104
					c0,0.601-0.503,1.104-1.104,1.104s-1.104-0.504-1.104-1.104C319.565,791.359,320.068,790.855,320.668,790.855z"/>
			</g>
		</g>
		<g>
			<g>
				<path fill="#FFFFFF" d="M349.598,792.307l-2.184-5.205h1.764l1.127,2.734c0.096,0.239,0.18,0.563,0.191,0.6
					c0-0.025,0.107-0.348,0.217-0.6l1.175-2.734h1.775l-4.042,9.127h-1.751L349.598,792.307z"/>
				<path fill="#FFFFFF" d="M355.297,787.354c0.601,0,1.104,0.502,1.104,1.104c0,0.6-0.503,1.102-1.104,1.102
					s-1.104-0.502-1.104-1.102C354.194,787.855,354.697,787.354,355.297,787.354z M355.297,790.855c0.601,0,1.104,0.504,1.104,1.104
					c0,0.601-0.503,1.104-1.104,1.104s-1.104-0.504-1.104-1.104C354.194,791.359,354.697,790.855,355.297,790.855z"/>
			</g>
		</g>
		<path fill="#FFFFFF" d="M248.467,789.238c0,4.244,3.438,7.685,7.684,7.685h3.152c4.242,0,7.684-3.439,7.684-7.685
			c0-4.242-3.44-7.684-7.684-7.684h-3.152C251.906,781.555,248.467,784.996,248.467,789.238
			C248.467,789.238,248.467,784.996,248.467,789.238z"/>
		<path fill="#FFFFFF" d="M324.467,789.238c0,4.244,3.438,7.685,7.684,7.685h3.152c4.242,0,7.684-3.439,7.684-7.685
			c0-4.242-3.44-7.684-7.684-7.684h-3.152C327.906,781.555,324.467,784.996,324.467,789.238
			C324.467,789.238,324.467,784.996,324.467,789.238z"/>
		<path fill="#FFFFFF" d="M359.467,789.238c0,4.244,3.438,7.685,7.684,7.685h3.152c4.242,0,7.684-3.439,7.684-7.685
			c0-4.242-3.44-7.684-7.684-7.684h-3.152C362.906,781.555,359.467,784.996,359.467,789.238
			C359.467,789.238,359.467,784.996,359.467,789.238z"/>
	</g>
</g>
</svg>
