<?xml version="1.0" encoding="utf-8"?>
<!-- Generator: Adobe Illustrator 15.0.0, SVG Export Plug-In . SVG Version: 6.00 Build 0)  -->
<!DOCTYPE svg PUBLIC "-//W3C//DTD SVG 1.1//EN" "http://www.w3.org/Graphics/SVG/1.1/DTD/svg11.dtd">
<svg version="1.1" id="Layer_1" xmlns="http://www.w3.org/2000/svg" xmlns:xlink="http://www.w3.org/1999/xlink" x="0px" y="0px"
	 width="120.667px" height="25.078px" viewBox="237.306 565.039 120.667 25.078"
	 enable-background="new 237.306 565.039 120.667 25.078" xml:space="preserve">
<g>
	<path fill="#4B67AF" d="M352.974,565.039h-0.589h-0.635h-0.944h-3h-1.554h-6.293h-1.004h-31.871h-43.271l-2.056,2.545
		c-0.19,0.235-0.476,0.372-0.778,0.372h-7.757c-0.302,0-0.588-0.137-0.778-0.372l-2.056-2.545h-8.083c-2.761,0-5,2.238-5,5v12.167
		c0,2.763,2.239,4.999,5,4.999h8.088l2.051,2.539c0.19,0.236,0.477,0.373,0.778,0.373h7.757c0.302,0,0.588-0.137,0.778-0.373
		l2.051-2.539h43.274h31.871h1.004h6.293h1.554h3h0.944h0.635h0.589c2.762,0,5-2.236,5-4.999v-12.167
		C357.974,567.277,355.735,565.039,352.974,565.039z"/>
	<g>
		<g>
			<g>
				<path fill="#FFFFFF" d="M247.428,572.044c0.6,0,1.104,0.504,1.104,1.104s-0.505,1.104-1.104,1.104s-1.104-0.505-1.104-1.104
					S246.828,572.044,247.428,572.044z M246.553,580.811v-5.854h1.715v5.854H246.553z"/>
				<path fill="#FFFFFF" d="M251.915,576.445v4.365h-1.703v-4.365h-0.84v-1.488h0.84v-1.055c0-1.416,0.995-2.229,2.159-2.229
					c0.406,0,0.768,0.069,1.066,0.203l-0.552,1.428c-0.108-0.062-0.24-0.097-0.372-0.097c-0.384,0-0.6,0.3-0.6,0.814v0.936h1.234
					v1.488H251.915z"/>
				<path fill="#FFFFFF" d="M257.567,577.871c0-1.737,1.345-3.045,3.06-3.045s3.059,1.308,3.059,3.045
					c0,1.74-1.344,3.047-3.059,3.047S257.567,579.611,257.567,577.871z M262.041,577.871c0-0.887-0.563-1.547-1.415-1.547
					c-0.863,0-1.428,0.66-1.428,1.547c0,0.9,0.588,1.562,1.428,1.562C261.478,579.432,262.041,578.771,262.041,577.871z"/>
				<path fill="#FFFFFF" d="M266.543,580.811h-1.681v-5.854h1.681v0.396c0,0.096-0.014,0.24-0.036,0.408
					c0.384-0.553,0.972-0.949,1.773-0.949c1.213,0,2.123,0.949,2.123,2.52v3.479h-1.689v-3.383c0-0.814-0.518-1.234-1.08-1.234
					c-0.504,0-1.067,0.406-1.091,1.188V580.811L266.543,580.811z"/>
				<path fill="#FFFFFF" d="M276.875,578.244c0.12,0.972,0.72,1.33,1.379,1.33c0.647,0,1.092-0.299,1.38-0.719l1.115,0.803
					c-0.624,0.84-1.261,1.271-2.591,1.271c-1.716,0-2.976-1.26-2.976-3.06c0-1.666,1.128-3.045,2.927-3.045
					c1.979,0,2.76,1.414,2.76,3.213v0.205L276.875,578.244L276.875,578.244z M276.923,577.214h2.313
					c-0.106-0.673-0.623-1.021-1.139-1.021C277.559,576.193,277.091,576.529,276.923,577.214z"/>
				<path fill="#FFFFFF" d="M286.006,580.811v-0.769c-0.468,0.552-1.092,0.888-1.775,0.888c-1.644,0-2.529-1.486-2.529-3.07
					c0-1.559,0.923-3.033,2.542-3.033c0.646,0,1.247,0.238,1.702,0.72v-3.73h1.681v8.996L286.006,580.811L286.006,580.811z
					 M285.97,577.871c0-0.897-0.516-1.547-1.296-1.547c-0.875,0-1.307,0.695-1.307,1.56c0,0.852,0.442,1.561,1.307,1.561
					C285.441,579.443,285.97,578.677,285.97,577.871z"/>
				<path fill="#FFFFFF" d="M292.821,575.053l0.743-0.853l0.984,0.924l-0.696,0.695c0.336,0.408,0.528,0.912,0.528,1.463
					c0,1.465-1.2,2.437-2.675,2.437c-0.349,0-0.647-0.035-0.937-0.107c-0.516,0.433-0.563,0.959,0.229,0.959
					c0.552,0,0.912-0.229,1.716-0.229c3.058,0,3.034,4.27-1.008,4.27c-3.034,0-3.658-1.967-2.627-3.322
					c-0.433-0.672-0.252-1.702,0.552-2.325c-0.396-0.42-0.611-0.996-0.611-1.681c0-1.463,1.211-2.444,2.688-2.444
					C292.102,574.839,292.485,574.91,292.821,575.053z M290.194,581.973c-0.322,0.613,0.072,1.213,1.513,1.213
					c2.109,0,2.051-1.465,0.946-1.465c-0.646,0-1.295,0.276-2.146,0.276C290.398,581.998,290.291,581.986,290.194,581.973z
					 M291.706,578.341c0.658,0,1.091-0.373,1.091-1.058c0-0.694-0.433-1.09-1.091-1.09c-0.672,0-1.104,0.406-1.104,1.09
					C290.603,577.98,291.07,578.341,291.706,578.341z"/>
				<path fill="#FFFFFF" d="M297.059,578.244c0.12,0.972,0.72,1.33,1.379,1.33c0.648,0,1.092-0.299,1.38-0.719l1.115,0.803
					c-0.624,0.84-1.259,1.271-2.591,1.271c-1.715,0-2.975-1.26-2.975-3.06c0-1.666,1.128-3.045,2.927-3.045
					c1.979,0,2.759,1.414,2.759,3.213v0.205L297.059,578.244L297.059,578.244z M297.106,577.214h2.315
					c-0.108-0.673-0.624-1.021-1.141-1.021C297.742,576.193,297.274,576.529,297.106,577.214z"/>
				<path fill="#FFFFFF" d="M301.968,579.791c0-0.541,0.456-1.079,1.115-1.079c0.814,0,1.224,0.637,1.224,1.438
					c0,0.947-0.66,1.979-1.644,2.303c-0.155-0.274-0.313-0.551-0.456-0.828c0.553-0.286,0.721-0.646,0.815-0.778
					C302.399,580.785,301.968,580.391,301.968,579.791z"/>
				<path fill="#FFFFFF" d="M309.179,580.811v-8.996h1.679v3.73c0.456-0.48,1.057-0.72,1.703-0.72c1.619,0,2.543,1.476,2.543,3.033
					c0,1.584-0.888,3.07-2.531,3.07c-0.684,0-1.317-0.336-1.773-0.887v0.768L309.179,580.811L309.179,580.811z M313.437,577.884
					c0-0.863-0.433-1.56-1.308-1.56c-0.779,0-1.295,0.648-1.295,1.547c0,0.806,0.526,1.572,1.295,1.572
					C312.992,579.443,313.437,578.734,313.437,577.884z"/>
				<path fill="#FFFFFF" d="M315.923,577.871c0-1.737,1.343-3.045,3.059-3.045c1.715,0,3.059,1.308,3.059,3.045
					c0,1.74-1.344,3.047-3.059,3.047C317.266,580.919,315.923,579.611,315.923,577.871z M320.396,577.871
					c0-0.887-0.563-1.547-1.415-1.547c-0.863,0-1.427,0.66-1.427,1.547c0,0.9,0.587,1.562,1.427,1.562
					C319.833,579.432,320.396,578.771,320.396,577.871z"/>
				<path fill="#FFFFFF" d="M328.712,580.811h-1.679v-0.396c0-0.096,0.012-0.239,0.034-0.407c-0.383,0.553-0.982,0.946-1.774,0.946
					c-1.211,0-2.122-0.946-2.122-2.518v-3.479h1.689v3.384c0,0.813,0.517,1.233,1.08,1.233c0.504,0,1.056-0.395,1.093-1.188v-3.431
					h1.679V580.811z"/>
				<path fill="#FFFFFF" d="M331.93,580.811h-1.679v-5.854h1.679v0.396c0,0.096-0.012,0.24-0.035,0.408
					c0.383-0.553,0.972-0.949,1.774-0.949c1.212,0,2.123,0.949,2.123,2.52v3.479h-1.69v-3.383c0-0.814-0.517-1.234-1.08-1.234
					c-0.504,0-1.066,0.406-1.092,1.188V580.811L331.93,580.811z"/>
				<path fill="#FFFFFF" d="M341.145,576.936c-0.299-0.322-0.563-0.551-1.043-0.551c-0.779,0-1.331,0.623-1.331,1.485
					c0,0.9,0.552,1.463,1.331,1.463c0.479,0,0.84-0.264,1.092-0.622l1.26,0.959c-0.601,0.815-1.319,1.247-2.352,1.247
					c-1.764,0-3.01-1.344-3.01-3.047s1.246-3.045,2.998-3.045c0.924,0,1.654,0.396,2.219,1.031L341.145,576.936z"/>
				<path fill="#FFFFFF" d="M344.962,578.244c0.12,0.972,0.72,1.33,1.38,1.33c0.646,0,1.091-0.299,1.379-0.719l1.115,0.803
					c-0.623,0.84-1.26,1.271-2.59,1.271c-1.717,0-2.976-1.26-2.976-3.06c0-1.666,1.127-3.045,2.926-3.045
					c1.979,0,2.76,1.414,2.76,3.213v0.205L344.962,578.244L344.962,578.244z M345.01,577.214h2.314
					c-0.107-0.673-0.623-1.021-1.14-1.021C345.646,576.193,345.178,576.529,345.01,577.214z"/>
			</g>
		</g>
	</g>
</g>
</svg>
