<?xml version="1.0" encoding="utf-8"?>
<!-- Generator: Adobe Illustrator 15.0.0, SVG Export Plug-In . SVG Version: 6.00 Build 0)  -->
<!DOCTYPE svg PUBLIC "-//W3C//DTD SVG 1.1//EN" "http://www.w3.org/Graphics/SVG/1.1/DTD/svg11.dtd">
<svg version="1.1" id="Layer_1" xmlns="http://www.w3.org/2000/svg" xmlns:xlink="http://www.w3.org/1999/xlink" x="0px" y="0px"
	 width="161.499px" height="25.079px" viewBox="216.89 601.372 161.499 25.079"
	 enable-background="new 216.89 601.372 161.499 25.079" xml:space="preserve">
<g>
	<path fill="#4B67AF" d="M373.39,601.372h-20h-6h-20h-14.722h-8.334h-17.666h-43.271l-2.056,2.546
		c-0.19,0.234-0.476,0.371-0.778,0.371h-7.757c-0.302,0-0.588-0.137-0.778-0.371l-2.056-2.546h-8.083c-2.761,0-5,2.238-5,5v12.167
		c0,2.763,2.239,5,5,5h8.088l2.051,2.539c0.19,0.236,0.477,0.373,0.778,0.373h7.757c0.303,0,0.588-0.137,0.778-0.373l2.051-2.539
		h43.274h17.666h8.334h14.722h20h6h20c2.762,0,5-2.237,5-5v-12.167C378.39,603.61,376.151,601.372,373.39,601.372z"/>
	<g>
		<g>
			<g>
				<path fill="#FFFFFF" d="M224.966,614.177c0.408,0.469,1.055,0.66,1.619,0.66c0.359,0,0.624-0.146,0.624-0.359
					c0-0.301-0.3-0.443-0.792-0.588c-0.912-0.265-2.039-0.769-2.039-1.955c0-1.127,1.091-1.764,2.075-1.764
					c0.888,0,1.511,0.301,2.039,0.852l-0.937,1.008c-0.252-0.274-0.72-0.526-1.067-0.526c-0.312,0-0.539,0.145-0.539,0.37
					c0,0.289,0.335,0.433,0.862,0.589c0.889,0.264,2.027,0.815,2.027,1.932c0,1.104-0.947,1.871-2.268,1.871
					c-1.056,0-1.919-0.301-2.555-0.984L224.966,614.177z"/>
				<path fill="#FFFFFF" d="M231.349,613.576c0.12,0.974,0.72,1.332,1.379,1.332c0.647,0,1.091-0.301,1.379-0.721l1.115,0.805
					c-0.624,0.84-1.259,1.271-2.59,1.271c-1.715,0-2.975-1.26-2.975-3.06c0-1.668,1.127-3.047,2.926-3.047
					c1.979,0,2.759,1.416,2.759,3.215v0.203L231.349,613.576L231.349,613.576z M231.397,612.546h2.314
					c-0.108-0.673-0.624-1.021-1.14-1.021C232.033,611.525,231.565,611.861,231.397,612.546z"/>
				<path fill="#FFFFFF" d="M236.978,610.291v-2.088h1.68v2.088h0.827v1.56h-0.827v4.293h-1.68v-4.293h-0.814v-1.56H236.978z"/>
				<path fill="#FFFFFF" d="M245.941,616.143h-1.679v-5.853h1.679v0.396c0,0.133-0.023,0.348-0.06,0.576
					c0.336-0.635,0.863-1.115,1.631-1.115v1.644c-0.875,0-1.571,0.504-1.571,1.463V616.143z"/>
				<path fill="#FFFFFF" d="M248.354,613.205c0-1.739,1.343-3.047,3.06-3.047c1.715,0,3.058,1.308,3.058,3.047
					c0,1.738-1.343,3.048-3.058,3.048C249.697,616.253,248.354,614.943,248.354,613.205z M252.827,613.205
					c0-0.889-0.563-1.547-1.415-1.547c-0.864,0-1.428,0.658-1.428,1.547c0,0.898,0.587,1.56,1.428,1.56
					C252.264,614.764,252.827,614.104,252.827,613.205z"/>
				<path fill="#FFFFFF" d="M256.105,610.291v-2.088h1.68v2.088h0.827v1.56h-0.827v4.293h-1.68v-4.293h-0.814v-1.56H256.105z"/>
				<path fill="#FFFFFF" d="M265.138,616.143c-0.72,0-1.211-0.383-1.475-0.994c-0.336,0.563-1.043,1.115-2.087,1.115
					c-1.296,0-1.955-0.84-1.955-1.715c0-0.974,0.792-1.92,2.423-1.92c0.492,0,0.971,0.061,1.415,0.145v-0.193
					c0-0.573-0.396-0.959-1.043-0.959c-0.456,0-0.828,0.205-1.067,0.589l-1.175-0.875c0,0,0.672-1.199,2.327-1.199
					c1.631,0,2.626,0.971,2.626,2.375v1.762c0,0.217,0.144,0.348,0.359,0.348h0.24v1.523L265.138,616.143L265.138,616.143z
					 M263.459,613.816c-0.313-0.061-0.695-0.119-0.923-0.119c-0.685,0-1.211,0.228-1.211,0.707c0,0.324,0.239,0.539,0.684,0.539
					C262.715,614.943,263.243,614.451,263.459,613.816z"/>
				<path fill="#FFFFFF" d="M267.192,610.291v-2.088h1.68v2.088h0.827v1.56h-0.827v4.293h-1.68v-4.293h-0.814v-1.56H267.192z"/>
				<path fill="#FFFFFF" d="M271.812,607.375c0.601,0,1.104,0.505,1.104,1.104s-0.504,1.104-1.104,1.104
					c-0.6,0-1.104-0.505-1.104-1.104S271.212,607.375,271.812,607.375z M270.937,616.143v-5.853h1.715v5.853H270.937z"/>
				<path fill="#FFFFFF" d="M273.924,613.205c0-1.739,1.343-3.047,3.059-3.047c1.715,0,3.059,1.308,3.059,3.047
					c0,1.738-1.343,3.048-3.059,3.048C275.268,616.253,273.924,614.943,273.924,613.205z M278.398,613.205
					c0-0.889-0.563-1.547-1.415-1.547c-0.863,0-1.427,0.658-1.427,1.547c0,0.898,0.587,1.56,1.427,1.56
					C277.834,614.764,278.398,614.104,278.398,613.205z"/>
				<path fill="#FFFFFF" d="M282.899,616.143h-1.679v-5.853h1.679v0.396c0,0.096-0.012,0.24-0.036,0.408
					c0.385-0.551,0.973-0.947,1.775-0.947c1.211,0,2.123,0.947,2.123,2.519v3.479h-1.691v-3.381c0-0.816-0.516-1.236-1.08-1.236
					c-0.504,0-1.066,0.408-1.091,1.188V616.143L282.899,616.143z"/>
				<path fill="#FFFFFF" d="M292.488,614.177c0.408,0.469,1.056,0.66,1.619,0.66c0.359,0,0.624-0.146,0.624-0.359
					c0-0.301-0.3-0.443-0.792-0.588c-0.912-0.265-2.039-0.769-2.039-1.955c0-1.127,1.092-1.764,2.075-1.764
					c0.888,0,1.511,0.301,2.039,0.852l-0.936,1.008c-0.252-0.274-0.721-0.526-1.067-0.526c-0.312,0-0.54,0.145-0.54,0.37
					c0,0.289,0.335,0.433,0.863,0.589c0.888,0.264,2.026,0.815,2.026,1.932c0,1.104-0.946,1.871-2.267,1.871
					c-1.056,0-1.919-0.301-2.555-0.984L292.488,614.177z"/>
				<path fill="#FFFFFF" d="M297.996,610.291v-2.088h1.679v2.088h0.827v1.56h-0.827v4.293h-1.679v-4.293h-0.815v-1.56H297.996z"/>
				<path fill="#FFFFFF" d="M303.215,615.496l-2.184-5.205h1.764l1.127,2.734c0.097,0.24,0.181,0.563,0.191,0.6
					c0-0.024,0.108-0.348,0.217-0.6l1.176-2.734h1.774l-4.043,9.127h-1.75L303.215,615.496z"/>
				<path fill="#FFFFFF" d="M308.076,616.143v-8.994h1.702v8.994H308.076z"/>
				<path fill="#FFFFFF" d="M312.646,613.576c0.12,0.974,0.721,1.332,1.379,1.332c0.648,0,1.093-0.301,1.38-0.721l1.115,0.805
					c-0.624,0.84-1.259,1.271-2.591,1.271c-1.715,0-2.975-1.26-2.975-3.06c0-1.668,1.128-3.047,2.927-3.047
					c1.979,0,2.759,1.416,2.759,3.215v0.203L312.646,613.576L312.646,613.576z M312.695,612.546h2.314
					c-0.108-0.673-0.624-1.021-1.14-1.021C313.33,611.525,312.863,611.861,312.695,612.546z"/>
			</g>
		</g>
		<rect x="321.669" y="604.938" fill="#FFFFFF" width="50" height="14.779"/>
	</g>
</g>
</svg>
