<?xml version="1.0" encoding="utf-8"?>
<!-- Generator: Adobe Illustrator 15.0.0, SVG Export Plug-In . SVG Version: 6.00 Build 0)  -->
<!DOCTYPE svg PUBLIC "-//W3C//DTD SVG 1.1//EN" "http://www.w3.org/Graphics/SVG/1.1/DTD/svg11.dtd">
<svg version="1.1" id="Layer_1" xmlns="http://www.w3.org/2000/svg" xmlns:xlink="http://www.w3.org/1999/xlink" x="0px" y="0px"
	 width="159.5px" height="25.078px" viewBox="217.89 226.173 159.5 25.078" enable-background="new 217.89 226.173 159.5 25.078"
	 xml:space="preserve">
<g>
	<g>
		<path fill="#007D5B" d="M372.39,226.173h-0.589h-6.133h-0.278h-0.589h-0.411h-0.589h-5.133h-1h-0.278h-0.589h-4.998h-1.135h-1.418
			h-1.582h-4.873H335h-11.61h-0.589h-6.133h-0.278h-0.589h-0.006h-6.127H297h-52.603l-2.056,2.546
			c-0.19,0.233-0.476,0.37-0.778,0.37h-7.757c-0.303,0-0.588-0.137-0.778-0.37l-2.056-2.546h-8.083c-2.762,0-5,2.238-5,5v12.166
			c0,2.763,2.238,5,5,5h8.088l2.051,2.539c0.19,0.236,0.477,0.373,0.778,0.373h7.757c0.304,0,0.588-0.137,0.778-0.373l2.051-2.539
			H297h12.668h6.127h0.006h0.589h0.278h6.133h0.589H335h7.795h4.873h1.582h1.418h1.135h4.998h0.589h0.278h1h5.133h0.589h0.411h0.589
			h0.278h6.133h0.589c2.762,0,5-2.237,5-5v-12.166C377.39,228.411,375.151,226.173,372.39,226.173z"/>
		<g>
			<g>
				<path fill="#FFFFFF" d="M231.369,237.069c-0.301-0.323-0.564-0.552-1.043-0.552c-0.78,0-1.332,0.624-1.332,1.486
					c0,0.899,0.552,1.463,1.332,1.463c0.479,0,0.839-0.264,1.091-0.622l1.259,0.959c-0.6,0.814-1.319,1.247-2.351,1.247
					c-1.764,0-3.011-1.344-3.011-3.047s1.247-3.046,2.998-3.046c0.924,0,1.655,0.396,2.22,1.031L231.369,237.069z"/>
				<path fill="#FFFFFF" d="M233.855,240.943v-8.995h1.68v3.538c0,0.096-0.013,0.252-0.036,0.408
					c0.384-0.553,0.972-0.948,1.774-0.948c1.211,0,2.123,0.948,2.123,2.519v3.479h-1.69v-3.382c0-0.815-0.517-1.235-1.08-1.235
					c-0.517,0-1.021,0.407-1.091,1.247v3.37L233.855,240.943L233.855,240.943z"/>
				<path fill="#FFFFFF" d="M246.284,240.943c-0.721,0-1.212-0.384-1.476-0.995c-0.336,0.563-1.043,1.115-2.087,1.115
					c-1.295,0-1.955-0.84-1.955-1.715c0-0.973,0.792-1.919,2.423-1.919c0.492,0,0.972,0.06,1.415,0.144v-0.192
					c0-0.574-0.396-0.959-1.043-0.959c-0.456,0-0.828,0.204-1.066,0.589l-1.176-0.877c0,0,0.672-1.198,2.327-1.198
					c1.631,0,2.626,0.972,2.626,2.375v1.763c0,0.216,0.145,0.348,0.36,0.348h0.24v1.523L246.284,240.943L246.284,240.943z
					 M244.605,238.616c-0.312-0.06-0.695-0.119-0.923-0.119c-0.684,0-1.211,0.229-1.211,0.707c0,0.324,0.24,0.54,0.684,0.54
					C243.861,239.744,244.389,239.252,244.605,238.616z"/>
				<path fill="#FFFFFF" d="M249.562,240.943h-1.679v-5.854h1.679v0.396c0,0.096-0.012,0.24-0.036,0.408
					c0.385-0.553,0.973-0.948,1.775-0.948c1.211,0,2.123,0.948,2.123,2.519v3.479h-1.691v-3.382c0-0.815-0.516-1.235-1.08-1.235
					c-0.504,0-1.066,0.407-1.091,1.188V240.943z"/>
				<path fill="#FFFFFF" d="M258.621,235.187l0.742-0.853l0.984,0.924l-0.696,0.695c0.336,0.408,0.528,0.911,0.528,1.463
					c0,1.464-1.2,2.436-2.675,2.436c-0.348,0-0.647-0.035-0.937-0.107c-0.516,0.433-0.563,0.959,0.229,0.959
					c0.552,0,0.912-0.228,1.715-0.228c3.059,0,3.035,4.27-1.007,4.27c-3.034,0-3.658-1.967-2.626-3.322
					c-0.433-0.672-0.252-1.702,0.552-2.325c-0.396-0.42-0.612-0.996-0.612-1.681c0-1.463,1.211-2.445,2.688-2.445
					C257.901,234.971,258.285,235.043,258.621,235.187z M255.994,242.106c-0.324,0.612,0.071,1.212,1.511,1.212
					c2.111,0,2.051-1.464,0.948-1.464c-0.648,0-1.295,0.275-2.147,0.275C256.198,242.131,256.09,242.119,255.994,242.106z
					 M257.505,238.473c0.66,0,1.091-0.372,1.091-1.057c0-0.694-0.432-1.091-1.091-1.091c-0.671,0-1.104,0.407-1.104,1.091
					C256.402,238.113,256.87,238.473,257.505,238.473z"/>
				<path fill="#FFFFFF" d="M262.858,238.377c0.12,0.973,0.721,1.331,1.379,1.331c0.647,0,1.092-0.3,1.38-0.72l1.114,0.804
					c-0.624,0.84-1.259,1.271-2.59,1.271c-1.715,0-2.975-1.26-2.975-3.06c0-1.667,1.127-3.046,2.926-3.046
					c1.979,0,2.759,1.415,2.759,3.214v0.204L262.858,238.377L262.858,238.377z M262.906,237.346h2.314
					c-0.108-0.673-0.624-1.021-1.139-1.021C263.542,236.326,263.074,236.662,262.906,237.346z"/>
				<path fill="#FFFFFF" d="M271.631,243.941v-8.852h1.679v0.589c0.456-0.48,1.055-0.721,1.703-0.721
					c1.619,0,2.542,1.476,2.542,3.034c0,1.583-0.888,3.07-2.531,3.07c-0.684,0-1.318-0.336-1.774-0.889v3.767L271.631,243.941
					L271.631,243.941z M275.889,238.017c0-0.863-0.432-1.56-1.308-1.56c-0.779,0-1.295,0.647-1.295,1.547
					c0,0.805,0.526,1.571,1.295,1.571C275.445,239.576,275.889,238.868,275.889,238.017z"/>
				<path fill="#FFFFFF" d="M280.066,238.377c0.12,0.973,0.721,1.331,1.379,1.331c0.647,0,1.092-0.3,1.38-0.72l1.114,0.804
					c-0.624,0.84-1.259,1.271-2.59,1.271c-1.715,0-2.975-1.26-2.975-3.06c0-1.667,1.127-3.046,2.926-3.046
					c1.979,0,2.759,1.415,2.759,3.214v0.204L280.066,238.377L280.066,238.377z M280.114,237.346h2.314
					c-0.108-0.673-0.624-1.021-1.139-1.021C280.75,236.326,280.282,236.662,280.114,237.346z"/>
				<path fill="#FFFFFF" d="M286.918,240.943h-1.68v-5.854h1.68v0.396c0,0.096-0.013,0.24-0.036,0.408
					c0.384-0.553,0.972-0.948,1.774-0.948c1.212,0,2.123,0.948,2.123,2.519v3.479h-1.69v-3.382c0-0.815-0.517-1.235-1.08-1.235
					c-0.504,0-1.067,0.407-1.091,1.188V240.943L286.918,240.943z"/>
				<path fill="#FFFFFF" d="M299.732,237.069c-0.299-0.323-0.563-0.552-1.043-0.552c-0.779,0-1.331,0.624-1.331,1.486
					c0,0.899,0.552,1.463,1.331,1.463c0.479,0,0.84-0.264,1.092-0.622l1.26,0.959c-0.601,0.814-1.319,1.247-2.352,1.247
					c-1.763,0-3.01-1.344-3.01-3.047s1.247-3.046,2.998-3.046c0.924,0,1.655,0.396,2.219,1.031L299.732,237.069z"/>
				<path fill="#FFFFFF" d="M301.859,238.005c0-1.738,1.344-3.046,3.06-3.046c1.715,0,3.058,1.308,3.058,3.046
					c0,1.739-1.343,3.048-3.058,3.048C303.202,241.052,301.859,239.744,301.859,238.005z M306.332,238.005
					c0-0.888-0.563-1.547-1.414-1.547c-0.864,0-1.429,0.659-1.429,1.547c0,0.899,0.589,1.561,1.429,1.561
					C305.769,239.564,306.332,238.904,306.332,238.005z"/>
				<path fill="#FFFFFF" d="M309.154,240.943v-8.995h1.703v8.995H309.154z"/>
				<path fill="#FFFFFF" d="M312.035,238.005c0-1.738,1.343-3.046,3.059-3.046c1.715,0,3.058,1.308,3.058,3.046
					c0,1.739-1.343,3.048-3.058,3.048C313.378,241.052,312.035,239.744,312.035,238.005z M316.508,238.005
					c0-0.888-0.563-1.547-1.414-1.547c-0.864,0-1.428,0.659-1.428,1.547c0,0.899,0.588,1.561,1.428,1.561
					C315.944,239.564,316.508,238.904,316.508,238.005z"/>
				<path fill="#FFFFFF" d="M324.824,240.943h-1.681v-0.396c0-0.097,0.012-0.239,0.036-0.407c-0.384,0.552-0.983,0.946-1.775,0.946
					c-1.211,0-2.121-0.946-2.121-2.519v-3.479h1.689v3.383c0,0.814,0.516,1.234,1.079,1.234c0.504,0,1.056-0.396,1.092-1.188v-3.431
					h1.681V240.943L324.824,240.943z"/>
				<path fill="#FFFFFF" d="M328.041,240.943h-1.68v-5.854h1.68v0.396c0,0.132-0.023,0.348-0.061,0.576
					c0.336-0.637,0.863-1.116,1.631-1.116v1.644c-0.876,0-1.57,0.505-1.57,1.464V240.943z"/>
				<path fill="#FFFFFF" d="M334.414,240.943v-8.995h1.68v3.73c0.455-0.48,1.055-0.721,1.703-0.721c1.619,0,2.542,1.476,2.542,3.034
					c0,1.583-0.888,3.07-2.53,3.07c-0.684,0-1.32-0.336-1.774-0.889v0.769L334.414,240.943L334.414,240.943z M338.672,238.017
					c0-0.863-0.433-1.56-1.309-1.56c-0.778,0-1.295,0.647-1.295,1.547c0,0.805,0.527,1.571,1.295,1.571
					C338.229,239.576,338.672,238.868,338.672,238.017z"/>
				<path fill="#FFFFFF" d="M342.885,240.296l-2.182-5.205h1.762l1.128,2.734c0.097,0.24,0.181,0.563,0.192,0.6
					c0-0.023,0.106-0.348,0.215-0.6l1.176-2.734h1.775l-4.042,9.128h-1.752L342.885,240.296z"/>
			</g>
		</g>
		<path fill="#FFFFFF" d="M351.803,237.48c0,4.245,3.439,7.685,7.684,7.685h3.152c4.242,0,7.684-3.438,7.684-7.685
			c0-4.243-3.44-7.686-7.684-7.686h-3.152C355.242,229.796,351.803,233.237,351.803,237.48
			C351.803,237.48,351.803,233.237,351.803,237.48z"/>
	</g>
</g>
</svg>
