<?xml version="1.0" encoding="utf-8"?>
<!-- Generator: Adobe Illustrator 15.0.0, SVG Export Plug-In . SVG Version: 6.00 Build 0)  -->
<!DOCTYPE svg PUBLIC "-//W3C//DTD SVG 1.1//EN" "http://www.w3.org/Graphics/SVG/1.1/DTD/svg11.dtd">
<svg version="1.1" id="Layer_1" xmlns="http://www.w3.org/2000/svg" xmlns:xlink="http://www.w3.org/1999/xlink" x="0px" y="0px"
	 width="159.5px" height="25.078px" viewBox="217.89 260.923 159.5 25.078" enable-background="new 217.89 260.923 159.5 25.078"
	 xml:space="preserve">
<g>
	<g>
		<path fill="#007D5B" d="M372.39,260.923h-0.589h-6.133h-0.278h-0.589h-0.411h-0.589h-5.133h-1h-0.278h-0.589h-4.998h-1.135h-1.418
			h-1.582h-4.873H335h-11.61h-0.589h-6.133h-0.278h-0.589h-0.006h-6.127H297h-52.603l-2.056,2.546
			c-0.19,0.233-0.476,0.37-0.778,0.37h-7.757c-0.303,0-0.588-0.137-0.778-0.37l-2.056-2.546h-8.083c-2.762,0-5,2.238-5,5v12.166
			c0,2.763,2.238,5,5,5h8.088l2.051,2.539c0.19,0.236,0.477,0.373,0.778,0.373h7.757c0.304,0,0.588-0.137,0.778-0.373l2.051-2.539
			H297h12.668h6.127h0.006h0.589h0.278h6.133h0.589H335h7.795h4.873h1.582h1.418h1.135h4.998h0.589h0.278h1h5.133h0.589h0.411h0.589
			h0.278h6.133h0.589c2.762,0,5-2.237,5-5v-12.166C377.39,263.161,375.151,260.923,372.39,260.923z"/>
		<g>
			<g>
				<path fill="#FFFFFF" d="M231.369,271.819c-0.301-0.323-0.564-0.552-1.043-0.552c-0.78,0-1.332,0.624-1.332,1.486
					c0,0.899,0.552,1.463,1.332,1.463c0.479,0,0.839-0.264,1.091-0.622l1.259,0.959c-0.6,0.814-1.319,1.248-2.351,1.248
					c-1.764,0-3.011-1.345-3.011-3.048c0-1.702,1.247-3.046,2.998-3.046c0.924,0,1.655,0.396,2.22,1.031L231.369,271.819z"/>
				<path fill="#FFFFFF" d="M233.855,275.693v-8.995h1.68v3.538c0,0.096-0.013,0.252-0.036,0.408
					c0.384-0.553,0.972-0.948,1.774-0.948c1.211,0,2.123,0.948,2.123,2.519v3.479h-1.69v-3.382c0-0.815-0.517-1.235-1.08-1.235
					c-0.517,0-1.021,0.407-1.091,1.247v3.37L233.855,275.693L233.855,275.693z"/>
				<path fill="#FFFFFF" d="M246.284,275.693c-0.721,0-1.212-0.384-1.476-0.995c-0.336,0.563-1.043,1.115-2.087,1.115
					c-1.295,0-1.955-0.84-1.955-1.715c0-0.973,0.792-1.919,2.423-1.919c0.492,0,0.972,0.06,1.415,0.144v-0.192
					c0-0.574-0.396-0.959-1.043-0.959c-0.456,0-0.828,0.204-1.066,0.589l-1.176-0.877c0,0,0.672-1.198,2.327-1.198
					c1.631,0,2.626,0.972,2.626,2.375v1.763c0,0.216,0.145,0.348,0.36,0.348h0.24v1.523L246.284,275.693L246.284,275.693z
					 M244.605,273.366c-0.312-0.06-0.695-0.119-0.923-0.119c-0.684,0-1.211,0.229-1.211,0.707c0,0.324,0.24,0.54,0.684,0.54
					C243.861,274.494,244.389,274.002,244.605,273.366z"/>
				<path fill="#FFFFFF" d="M249.562,275.693h-1.679v-5.854h1.679v0.396c0,0.096-0.012,0.24-0.036,0.408
					c0.385-0.553,0.973-0.948,1.775-0.948c1.211,0,2.123,0.948,2.123,2.519v3.479h-1.691v-3.382c0-0.815-0.516-1.235-1.08-1.235
					c-0.504,0-1.066,0.407-1.091,1.188V275.693z"/>
				<path fill="#FFFFFF" d="M258.621,269.937l0.742-0.853l0.984,0.925l-0.696,0.694c0.336,0.408,0.528,0.911,0.528,1.463
					c0,1.464-1.2,2.436-2.675,2.436c-0.348,0-0.647-0.035-0.937-0.107c-0.516,0.433-0.563,0.959,0.229,0.959
					c0.552,0,0.912-0.228,1.715-0.228c3.059,0,3.035,4.27-1.007,4.27c-3.034,0-3.658-1.967-2.626-3.321
					c-0.433-0.673-0.252-1.703,0.552-2.326c-0.396-0.42-0.612-0.996-0.612-1.681c0-1.463,1.211-2.445,2.688-2.445
					C257.901,269.721,258.285,269.793,258.621,269.937z M255.994,276.856c-0.324,0.611,0.071,1.212,1.511,1.212
					c2.111,0,2.051-1.464,0.948-1.464c-0.648,0-1.295,0.275-2.147,0.275C256.198,276.881,256.09,276.869,255.994,276.856z
					 M257.505,273.223c0.66,0,1.091-0.372,1.091-1.057c0-0.694-0.432-1.091-1.091-1.091c-0.671,0-1.104,0.407-1.104,1.091
					C256.402,272.863,256.87,273.223,257.505,273.223z"/>
				<path fill="#FFFFFF" d="M262.858,273.127c0.12,0.973,0.721,1.331,1.379,1.331c0.647,0,1.092-0.3,1.38-0.72l1.114,0.804
					c-0.624,0.84-1.259,1.271-2.59,1.271c-1.715,0-2.975-1.26-2.975-3.06c0-1.667,1.127-3.046,2.926-3.046
					c1.979,0,2.759,1.415,2.759,3.214v0.204L262.858,273.127L262.858,273.127z M262.906,272.096h2.314
					c-0.108-0.673-0.624-1.021-1.139-1.021C263.542,271.076,263.074,271.412,262.906,272.096z"/>
				<path fill="#FFFFFF" d="M271.631,278.691v-8.852h1.679v0.589c0.456-0.48,1.055-0.721,1.703-0.721
					c1.619,0,2.542,1.476,2.542,3.034c0,1.583-0.888,3.07-2.531,3.07c-0.684,0-1.318-0.336-1.774-0.889v3.767L271.631,278.691
					L271.631,278.691z M275.889,272.767c0-0.863-0.432-1.56-1.308-1.56c-0.779,0-1.295,0.647-1.295,1.547
					c0,0.805,0.526,1.571,1.295,1.571C275.445,274.326,275.889,273.618,275.889,272.767z"/>
				<path fill="#FFFFFF" d="M280.066,273.127c0.12,0.973,0.721,1.331,1.379,1.331c0.647,0,1.092-0.3,1.38-0.72l1.114,0.804
					c-0.624,0.84-1.259,1.271-2.59,1.271c-1.715,0-2.975-1.26-2.975-3.06c0-1.667,1.127-3.046,2.926-3.046
					c1.979,0,2.759,1.415,2.759,3.214v0.204L280.066,273.127L280.066,273.127z M280.114,272.096h2.314
					c-0.108-0.673-0.624-1.021-1.139-1.021C280.75,271.076,280.282,271.412,280.114,272.096z"/>
				<path fill="#FFFFFF" d="M286.918,275.693h-1.68v-5.854h1.68v0.396c0,0.096-0.013,0.24-0.036,0.408
					c0.384-0.553,0.972-0.948,1.774-0.948c1.212,0,2.123,0.948,2.123,2.519v3.479h-1.69v-3.382c0-0.815-0.517-1.235-1.08-1.235
					c-0.504,0-1.067,0.407-1.091,1.188V275.693L286.918,275.693z"/>
				<path fill="#FFFFFF" d="M296.507,273.727c0.408,0.468,1.055,0.659,1.619,0.659c0.358,0,0.624-0.145,0.624-0.359
					c0-0.3-0.3-0.443-0.792-0.588c-0.912-0.265-2.039-0.769-2.039-1.955c0-1.127,1.091-1.763,2.075-1.763
					c0.888,0,1.511,0.3,2.04,0.852l-0.937,1.008c-0.252-0.275-0.72-0.528-1.068-0.528c-0.312,0-0.54,0.146-0.54,0.372
					c0,0.288,0.336,0.433,0.863,0.589c0.889,0.264,2.027,0.814,2.027,1.931c0,1.104-0.947,1.871-2.268,1.871
					c-1.056,0-1.919-0.3-2.555-0.983L296.507,273.727z"/>
				<path fill="#FFFFFF" d="M301.559,275.693v-8.995h1.68v3.538c0,0.096-0.013,0.252-0.036,0.408
					c0.385-0.553,0.973-0.948,1.774-0.948c1.211,0,2.123,0.948,2.123,2.519v3.479h-1.69v-3.382c0-0.815-0.517-1.235-1.079-1.235
					c-0.517,0-1.021,0.407-1.092,1.247v3.37L301.559,275.693L301.559,275.693z"/>
				<path fill="#FFFFFF" d="M313.988,275.693c-0.721,0-1.212-0.384-1.476-0.995c-0.336,0.563-1.044,1.115-2.087,1.115
					c-1.295,0-1.955-0.84-1.955-1.715c0-0.973,0.791-1.919,2.423-1.919c0.491,0,0.972,0.06,1.415,0.144v-0.192
					c0-0.574-0.396-0.959-1.043-0.959c-0.456,0-0.828,0.204-1.068,0.589l-1.175-0.877c0,0,0.672-1.198,2.327-1.198
					c1.631,0,2.626,0.972,2.626,2.375v1.763c0,0.216,0.145,0.348,0.36,0.348h0.239v1.523L313.988,275.693L313.988,275.693z
					 M312.309,273.366c-0.312-0.06-0.695-0.119-0.924-0.119c-0.684,0-1.211,0.229-1.211,0.707c0,0.324,0.24,0.54,0.684,0.54
					C311.564,274.494,312.093,274.002,312.309,273.366z"/>
				<path fill="#FFFFFF" d="M319.545,275.693v-0.769c-0.469,0.553-1.092,0.889-1.775,0.889c-1.644,0-2.531-1.487-2.531-3.07
					c0-1.56,0.925-3.034,2.544-3.034c0.646,0,1.246,0.239,1.702,0.721v-3.73h1.681v8.995L319.545,275.693L319.545,275.693z
					 M319.508,272.755c0-0.898-0.516-1.547-1.295-1.547c-0.875,0-1.308,0.695-1.308,1.56c0,0.852,0.443,1.56,1.308,1.56
					C318.98,274.326,319.508,273.559,319.508,272.755z"/>
				<path fill="#FFFFFF" d="M324.033,273.127c0.119,0.973,0.72,1.331,1.379,1.331c0.647,0,1.092-0.3,1.38-0.72l1.114,0.804
					c-0.623,0.84-1.259,1.271-2.591,1.271c-1.715,0-2.975-1.26-2.975-3.06c0-1.667,1.128-3.046,2.927-3.046
					c1.979,0,2.759,1.415,2.759,3.214v0.204L324.033,273.127L324.033,273.127z M324.082,272.096h2.313
					c-0.107-0.673-0.624-1.021-1.14-1.021C324.717,271.076,324.25,271.412,324.082,272.096z"/>
				<path fill="#FFFFFF" d="M332.806,275.693v-8.995h1.679v3.73c0.456-0.48,1.057-0.721,1.703-0.721
					c1.619,0,2.543,1.476,2.543,3.034c0,1.583-0.888,3.07-2.53,3.07c-0.685,0-1.318-0.336-1.774-0.889v0.769L332.806,275.693
					L332.806,275.693z M337.063,272.767c0-0.863-0.433-1.56-1.308-1.56c-0.779,0-1.295,0.647-1.295,1.547
					c0,0.805,0.526,1.571,1.295,1.571C336.619,274.326,337.063,273.618,337.063,272.767z"/>
				<path fill="#FFFFFF" d="M341.277,275.046l-2.184-5.205h1.764l1.127,2.734c0.097,0.24,0.181,0.563,0.191,0.6
					c0-0.023,0.108-0.348,0.217-0.6l1.175-2.734h1.775l-4.042,9.128h-1.751L341.277,275.046z"/>
			</g>
		</g>
		<path fill="#FFFFFF" d="M351.803,272.23c0,4.245,3.439,7.685,7.684,7.685h3.152c4.242,0,7.684-3.438,7.684-7.685
			c0-4.243-3.44-7.686-7.684-7.686h-3.152C355.242,264.546,351.803,267.987,351.803,272.23
			C351.803,272.23,351.803,267.987,351.803,272.23z"/>
	</g>
</g>
</svg>
