<?xml version="1.0" encoding="utf-8"?>
<!-- Generator: Adobe Illustrator 15.0.0, SVG Export Plug-In . SVG Version: 6.00 Build 0)  -->
<!DOCTYPE svg PUBLIC "-//W3C//DTD SVG 1.1//EN" "http://www.w3.org/Graphics/SVG/1.1/DTD/svg11.dtd">
<svg version="1.1" id="Layer_1" xmlns="http://www.w3.org/2000/svg" xmlns:xlink="http://www.w3.org/1999/xlink" x="0px" y="0px"
	 width="49.497px" height="25.078px" viewBox="272.891 55.852 49.497 25.078" enable-background="new 272.891 55.852 49.497 25.078"
	 xml:space="preserve">
<g>
	<path fill="#007D5B" d="M317.501,55.863v-0.011h-0.112h-0.588h-3.3h-1h-0.112h-0.588h-3.3h-0.668h-8.435l-2.057,2.545
		c-0.189,0.233-0.475,0.371-0.777,0.371h-7.758c-0.303,0-0.588-0.138-0.777-0.371l-2.057-2.545h-8.082c-2.762,0-5,2.237-5,5v12.166
		c0,2.762,2.238,5,5,5h8.088l2.051,2.539c0.189,0.235,0.476,0.373,0.777,0.373h7.758c0.304,0,0.588-0.138,0.777-0.373l2.051-2.539
		h8.439h0.668h3.3h0.588h0.112h1h3.3h0.588h0.112v-0.013c2.709-0.061,4.888-2.265,4.888-4.987V60.853
		C322.389,58.129,320.21,55.925,317.501,55.863z"/>
	<g>
		<g>
			<g>
				<path fill="#FFFFFF" d="M281.974,69.656c0.408,0.468,1.055,0.659,1.619,0.659c0.36,0,0.624-0.145,0.624-0.359
					c0-0.3-0.3-0.442-0.792-0.588c-0.912-0.264-2.039-0.768-2.039-1.955c0-1.127,1.091-1.763,2.075-1.763
					c0.888,0,1.511,0.3,2.039,0.852l-0.937,1.009c-0.252-0.276-0.72-0.528-1.066-0.528c-0.313,0-0.54,0.145-0.54,0.372
					c0,0.288,0.335,0.432,0.862,0.588c0.889,0.264,2.027,0.814,2.027,1.931c0,1.104-0.947,1.871-2.267,1.871
					c-1.057,0-1.919-0.3-2.556-0.982L281.974,69.656z"/>
				<path fill="#FFFFFF" d="M287.481,65.771v-2.087h1.68v2.087h0.827v1.559h-0.827v4.294h-1.68V67.33h-0.814v-1.559H287.481z"/>
				<path fill="#FFFFFF" d="M296.514,71.623c-0.72,0-1.211-0.384-1.475-0.995c-0.336,0.563-1.043,1.115-2.087,1.115
					c-1.296,0-1.955-0.84-1.955-1.715c0-0.972,0.792-1.919,2.423-1.919c0.492,0,0.971,0.06,1.415,0.144v-0.191
					c0-0.575-0.396-0.959-1.043-0.959c-0.456,0-0.828,0.204-1.067,0.588l-1.175-0.876c0,0,0.671-1.199,2.327-1.199
					c1.631,0,2.626,0.972,2.626,2.375v1.763c0,0.217,0.144,0.349,0.359,0.349h0.24v1.522L296.514,71.623L296.514,71.623z
					 M294.835,69.296c-0.313-0.06-0.696-0.118-0.923-0.118c-0.685,0-1.211,0.228-1.211,0.706c0,0.324,0.239,0.54,0.684,0.54
					C294.091,70.424,294.619,69.932,294.835,69.296z"/>
				<path fill="#FFFFFF" d="M298.113,71.623V65.77h1.68v0.3c0,0.107-0.024,0.3-0.048,0.479c0.348-0.563,0.91-0.924,1.606-0.924
					c0.853,0,1.367,0.396,1.644,0.96c0.42-0.563,1.066-0.96,1.858-0.96c1.199,0,1.932,0.816,1.932,2.22v3.777h-1.68v-3.658
					c0-0.636-0.456-0.959-0.912-0.959c-0.455,0-0.911,0.323-0.911,1.008v3.609h-1.679v-3.693c0-0.601-0.42-0.888-0.864-0.888
					c-0.455,0-0.923,0.313-0.946,0.911v3.67L298.113,71.623L298.113,71.623z"/>
				<path fill="#FFFFFF" d="M308.324,74.621V65.77h1.68v0.588c0.455-0.48,1.055-0.72,1.703-0.72c1.619,0,2.543,1.475,2.543,3.033
					c0,1.583-0.89,3.07-2.531,3.07c-0.684,0-1.319-0.336-1.775-0.888v3.766L308.324,74.621L308.324,74.621z M312.582,68.696
					c0-0.863-0.433-1.559-1.308-1.559c-0.778,0-1.295,0.646-1.295,1.547c0,0.804,0.527,1.57,1.295,1.57
					C312.139,70.256,312.582,69.548,312.582,68.696z"/>
			</g>
		</g>
	</g>
</g>
</svg>
