<?xml version="1.0" encoding="utf-8"?>
<!-- Generator: Adobe Illustrator 15.0.0, SVG Export Plug-In . SVG Version: 6.00 Build 0)  -->
<!DOCTYPE svg PUBLIC "-//W3C//DTD SVG 1.1//EN" "http://www.w3.org/Graphics/SVG/1.1/DTD/svg11.dtd">
<svg version="1.1" id="Layer_1" xmlns="http://www.w3.org/2000/svg" xmlns:xlink="http://www.w3.org/1999/xlink" x="0px" y="0px"
	 width="183.5px" height="25.078px" viewBox="205.89 178.399 183.5 25.078" enable-background="new 205.89 178.399 183.5 25.078"
	 xml:space="preserve">
<g>
	<path fill="#007D5B" d="M384.39,178.399h-0.589h-6.133h-0.278h-0.589h-0.411h-0.589h-5.133h-1h-0.278h-0.589h-6.133H358h-0.61
		h-0.589h-1.456H350h-0.61h-0.589h-6.133h-0.278h-0.589h-6.133h-4.873H323h-11.61h-0.589h-6.133h-0.278h-0.589h-0.006h-6.127H285
		h-52.603l-2.056,2.545c-0.19,0.234-0.476,0.371-0.778,0.371h-7.757c-0.303,0-0.588-0.137-0.778-0.371l-2.056-2.545h-8.083
		c-2.762,0-5,2.238-5,5v12.166c0,2.762,2.238,5,5,5h8.088l2.051,2.539c0.19,0.235,0.477,0.373,0.778,0.373h7.757
		c0.304,0,0.588-0.138,0.778-0.373l2.051-2.539H285h12.668h6.127h0.006h0.589h0.278h6.133h0.589H323h7.795h4.873h6.133h0.589h0.278
		h6.133h0.589H350h5.345h1.456h0.589H358h4.668h6.133h0.589h0.278h1h5.133h0.589h0.411h0.589h0.278h6.133h0.589c2.762,0,5-2.238,5-5
		v-12.166C389.39,180.638,387.151,178.399,384.39,178.399z"/>
	<g>
		<g>
			<g>
				<path fill="#FFFFFF" d="M216.143,191.203c0.408,0.468,1.055,0.659,1.619,0.659c0.36,0,0.624-0.144,0.624-0.359
					c0-0.3-0.3-0.442-0.792-0.588c-0.912-0.264-2.039-0.768-2.039-1.955c0-1.127,1.091-1.763,2.075-1.763
					c0.888,0,1.511,0.3,2.039,0.852l-0.937,1.009c-0.252-0.276-0.72-0.528-1.066-0.528c-0.313,0-0.54,0.145-0.54,0.372
					c0,0.288,0.335,0.432,0.862,0.588c0.889,0.264,2.027,0.815,2.027,1.931c0,1.104-0.947,1.871-2.267,1.871
					c-1.057,0-1.919-0.3-2.556-0.982L216.143,191.203z"/>
				<path fill="#FFFFFF" d="M222.526,190.604c0.12,0.972,0.721,1.331,1.379,1.331c0.647,0,1.092-0.3,1.38-0.721l1.114,0.805
					c-0.624,0.84-1.259,1.271-2.59,1.271c-1.715,0-2.975-1.26-2.975-3.059c0-1.667,1.127-3.046,2.926-3.046
					c1.979,0,2.759,1.415,2.759,3.214v0.204L222.526,190.604L222.526,190.604z M222.574,189.572h2.313
					c-0.108-0.672-0.624-1.02-1.139-1.02C223.21,188.553,222.742,188.889,222.574,189.572z"/>
				<path fill="#FFFFFF" d="M228.154,187.317v-2.087h1.68v2.087h0.828v1.559h-0.828v4.294h-1.68v-4.294h-0.814v-1.559H228.154z"/>
				<path fill="#FFFFFF" d="M235.438,196.168v-8.851h1.68v0.588c0.455-0.48,1.055-0.72,1.702-0.72c1.619,0,2.542,1.475,2.542,3.034
					c0,1.583-0.888,3.069-2.53,3.069c-0.685,0-1.319-0.336-1.775-0.888v3.766L235.438,196.168L235.438,196.168z M239.696,190.243
					c0-0.863-0.432-1.559-1.308-1.559c-0.779,0-1.295,0.646-1.295,1.547c0,0.804,0.527,1.571,1.295,1.571
					C239.252,191.803,239.696,191.095,239.696,190.243z"/>
				<path fill="#FFFFFF" d="M243.874,190.604c0.12,0.972,0.72,1.331,1.379,1.331c0.646,0,1.091-0.3,1.379-0.721l1.115,0.805
					c-0.624,0.84-1.26,1.271-2.59,1.271c-1.716,0-2.976-1.26-2.976-3.059c0-1.667,1.127-3.046,2.926-3.046
					c1.979,0,2.76,1.415,2.76,3.214v0.204L243.874,190.604L243.874,190.604z M243.922,189.572h2.313
					c-0.107-0.672-0.624-1.02-1.139-1.02C244.558,188.553,244.09,188.889,243.922,189.572z"/>
				<path fill="#FFFFFF" d="M250.726,193.17h-1.679v-5.853h1.679v0.396c0,0.097-0.012,0.24-0.036,0.408
					c0.385-0.552,0.973-0.948,1.775-0.948c1.211,0,2.123,0.948,2.123,2.52v3.479h-1.691v-3.382c0-0.814-0.516-1.234-1.08-1.234
					c-0.504,0-1.066,0.406-1.091,1.188V193.17z"/>
				<path fill="#FFFFFF" d="M263.541,189.296c-0.3-0.322-0.564-0.552-1.043-0.552c-0.78,0-1.331,0.624-1.331,1.487
					c0,0.898,0.551,1.463,1.331,1.463c0.479,0,0.839-0.264,1.091-0.623l1.259,0.959c-0.6,0.815-1.319,1.248-2.351,1.248
					c-1.764,0-3.011-1.344-3.011-3.047s1.247-3.046,2.998-3.046c0.925,0,1.655,0.396,2.22,1.03L263.541,189.296z"/>
				<path fill="#FFFFFF" d="M265.667,190.231c0-1.739,1.343-3.046,3.059-3.046c1.715,0,3.059,1.307,3.059,3.046
					s-1.344,3.047-3.059,3.047C267.01,193.278,265.667,191.971,265.667,190.231z M270.14,190.231c0-0.888-0.563-1.547-1.415-1.547
					c-0.864,0-1.427,0.659-1.427,1.547c0,0.898,0.587,1.56,1.427,1.56C269.576,191.791,270.14,191.131,270.14,190.231z"/>
				<path fill="#FFFFFF" d="M272.962,193.17v-8.995h1.703v8.995H272.962z"/>
				<path fill="#FFFFFF" d="M275.842,190.231c0-1.739,1.343-3.046,3.059-3.046s3.059,1.307,3.059,3.046s-1.343,3.047-3.059,3.047
					C277.186,193.278,275.842,191.971,275.842,190.231z M280.316,190.231c0-0.888-0.563-1.547-1.415-1.547
					c-0.863,0-1.427,0.659-1.427,1.547c0,0.898,0.587,1.56,1.427,1.56C279.752,191.791,280.316,191.131,280.316,190.231z"/>
				<path fill="#FFFFFF" d="M288.631,193.17h-1.679v-0.396c0-0.097,0.012-0.24,0.035-0.408c-0.384,0.552-0.983,0.947-1.774,0.947
					c-1.211,0-2.123-0.947-2.123-2.52v-3.478h1.691v3.382c0,0.815,0.516,1.235,1.079,1.235c0.504,0,1.056-0.396,1.092-1.188v-3.43
					h1.679V193.17L288.631,193.17z"/>
				<path fill="#FFFFFF" d="M291.849,193.17h-1.679v-5.853h1.679v0.396c0,0.133-0.023,0.349-0.06,0.576
					c0.336-0.636,0.862-1.116,1.631-1.116v1.645c-0.875,0-1.571,0.504-1.571,1.463V193.17z"/>
				<path fill="#FFFFFF" d="M298.677,187.317v-2.087h1.679v2.087h0.827v1.559h-0.827v4.294h-1.679v-4.294h-0.815v-1.559H298.677z"/>
				<path fill="#FFFFFF" d="M302.002,190.231c0-1.739,1.343-3.046,3.059-3.046c1.715,0,3.059,1.307,3.059,3.046
					s-1.344,3.047-3.059,3.047C303.345,193.278,302.002,191.971,302.002,190.231z M306.475,190.231c0-0.888-0.563-1.547-1.414-1.547
					c-0.864,0-1.428,0.659-1.428,1.547c0,0.898,0.588,1.56,1.428,1.56C305.911,191.791,306.475,191.131,306.475,190.231z"/>
			</g>
		</g>
		<rect x="315.631" y="182.298" fill="#FFFFFF" width="64.862" height="14.779"/>
	</g>
</g>
</svg>
