<?xml version="1.0" encoding="utf-8"?>
<!-- Generator: Adobe Illustrator 15.0.0, SVG Export Plug-In . SVG Version: 6.00 Build 0)  -->
<!DOCTYPE svg PUBLIC "-//W3C//DTD SVG 1.1//EN" "http://www.w3.org/Graphics/SVG/1.1/DTD/svg11.dtd">
<svg version="1.1" id="Layer_1" xmlns="http://www.w3.org/2000/svg" xmlns:xlink="http://www.w3.org/1999/xlink" x="0px" y="0px"
	 width="115.5px" height="25.078px" viewBox="239.89 363.674 115.5 25.078" enable-background="new 239.89 363.674 115.5 25.078"
	 xml:space="preserve">
<g>
	<g>
		<path fill="#007D5B" d="M350.39,363.674h-0.589h-6.133h-0.278h-0.589h-0.411h-0.589H337.5h-0.832h-1h-0.278h-0.589h-1.006h-2.127
			h-0.865H326h-1.25H319h-52.603l-2.056,2.545c-0.19,0.233-0.476,0.371-0.778,0.371h-7.757c-0.303,0-0.588-0.138-0.778-0.371
			l-2.056-2.545h-8.083c-2.762,0-5,2.237-5,5v12.166c0,2.762,2.238,5,5,5h8.088l2.051,2.539c0.19,0.235,0.477,0.373,0.778,0.373
			h7.757c0.304,0,0.588-0.138,0.778-0.373l2.051-2.539H319h5.75H326h4.803h0.865h2.127h1.006h0.589h0.278h1h0.832h4.301h0.589h0.411
			h0.589h0.278h6.133h0.589c2.762,0,5-2.238,5-5v-12.166C355.39,365.911,353.151,363.674,350.39,363.674z"/>
		<g>
			<g>
				<path fill="#FFFFFF" d="M250.143,376.477c0.408,0.468,1.055,0.659,1.619,0.659c0.36,0,0.624-0.145,0.624-0.359
					c0-0.3-0.3-0.443-0.792-0.588c-0.912-0.264-2.039-0.768-2.039-1.955c0-1.127,1.091-1.763,2.075-1.763
					c0.888,0,1.511,0.3,2.039,0.852l-0.937,1.008c-0.252-0.275-0.72-0.527-1.066-0.527c-0.313,0-0.54,0.145-0.54,0.372
					c0,0.288,0.335,0.432,0.862,0.588c0.889,0.264,2.027,0.814,2.027,1.931c0,1.104-0.947,1.871-2.267,1.871
					c-1.057,0-1.919-0.3-2.556-0.983L250.143,376.477z"/>
				<path fill="#FFFFFF" d="M256.526,375.878c0.12,0.972,0.721,1.331,1.379,1.331c0.647,0,1.092-0.301,1.38-0.721l1.114,0.805
					c-0.624,0.84-1.259,1.271-2.59,1.271c-1.715,0-2.975-1.26-2.975-3.059c0-1.667,1.127-3.046,2.926-3.046
					c1.979,0,2.759,1.414,2.759,3.214v0.204L256.526,375.878L256.526,375.878z M256.574,374.846h2.313
					c-0.108-0.672-0.624-1.021-1.139-1.021C257.21,373.826,256.742,374.162,256.574,374.846z"/>
				<path fill="#FFFFFF" d="M262.154,372.592v-2.087h1.68v2.087h0.828v1.559h-0.828v4.294h-1.68v-4.294h-0.814v-1.559H262.154z"/>
				<path fill="#FFFFFF" d="M269.438,381.441v-8.851h1.68v0.588c0.455-0.48,1.055-0.72,1.702-0.72c1.619,0,2.542,1.475,2.542,3.033
					c0,1.583-0.888,3.07-2.53,3.07c-0.685,0-1.319-0.336-1.775-0.888v3.766L269.438,381.441L269.438,381.441z M273.696,375.517
					c0-0.863-0.432-1.559-1.308-1.559c-0.779,0-1.295,0.646-1.295,1.547c0,0.804,0.527,1.57,1.295,1.57
					C273.252,377.076,273.696,376.368,273.696,375.517z"/>
				<path fill="#FFFFFF" d="M277.874,375.878c0.12,0.972,0.72,1.331,1.379,1.331c0.646,0,1.091-0.301,1.379-0.721l1.115,0.805
					c-0.624,0.84-1.26,1.271-2.591,1.271c-1.715,0-2.975-1.26-2.975-3.059c0-1.667,1.127-3.046,2.926-3.046
					c1.979,0,2.76,1.414,2.76,3.214v0.204L277.874,375.878L277.874,375.878z M277.922,374.846h2.313
					c-0.107-0.672-0.624-1.021-1.139-1.021C278.558,373.826,278.09,374.162,277.922,374.846z"/>
				<path fill="#FFFFFF" d="M284.726,378.443h-1.679v-5.853h1.679v0.396c0,0.096-0.012,0.24-0.036,0.408
					c0.385-0.552,0.973-0.948,1.775-0.948c1.211,0,2.123,0.948,2.123,2.52v3.479h-1.691v-3.382c0-0.815-0.516-1.235-1.08-1.235
					c-0.504,0-1.066,0.407-1.091,1.188V378.443L284.726,378.443z"/>
				<path fill="#FFFFFF" d="M294.314,376.477c0.408,0.468,1.056,0.659,1.619,0.659c0.359,0,0.624-0.145,0.624-0.359
					c0-0.3-0.3-0.443-0.792-0.588c-0.912-0.264-2.039-0.768-2.039-1.955c0-1.127,1.091-1.763,2.075-1.763
					c0.888,0,1.511,0.3,2.039,0.852l-0.937,1.008c-0.252-0.275-0.72-0.527-1.066-0.527c-0.313,0-0.54,0.145-0.54,0.372
					c0,0.288,0.335,0.432,0.863,0.588c0.888,0.264,2.026,0.814,2.026,1.931c0,1.104-0.946,1.871-2.267,1.871
					c-1.057,0-1.919-0.3-2.555-0.983L294.314,376.477z"/>
				<path fill="#FFFFFF" d="M300.302,369.677c0.6,0,1.104,0.504,1.104,1.104c0,0.601-0.504,1.104-1.104,1.104
					s-1.104-0.504-1.104-1.104C299.198,370.18,299.702,369.677,300.302,369.677z M299.426,378.443v-5.853h1.715v5.853H299.426z"/>
				<path fill="#FFFFFF" d="M305.125,374.365c0.145-0.168,0.336-0.322,0.384-0.358c-0.036,0-0.3,0.048-0.516,0.048h-2.398v-1.463
					h5.073v1.066l-2.711,2.986c-0.191,0.216-0.396,0.372-0.433,0.396c0.023,0,0.288-0.06,0.611-0.06h2.531v1.463h-5.254v-1.056
					L305.125,374.365z"/>
				<path fill="#FFFFFF" d="M310.178,375.878c0.119,0.972,0.719,1.331,1.379,1.331c0.647,0,1.092-0.301,1.379-0.721l1.115,0.805
					c-0.623,0.84-1.259,1.271-2.59,1.271c-1.715,0-2.976-1.26-2.976-3.059c0-1.667,1.127-3.046,2.927-3.046
					c1.979,0,2.76,1.414,2.76,3.214v0.204L310.178,375.878L310.178,375.878z M310.226,374.846h2.314
					c-0.108-0.672-0.624-1.021-1.141-1.021C310.861,373.826,310.394,374.162,310.226,374.846z"/>
				<path fill="#FFFFFF" d="M319.406,372.592v-2.087h1.68v2.087h0.827v1.559h-0.827v4.294h-1.68v-4.294h-0.815v-1.559H319.406z"/>
				<path fill="#FFFFFF" d="M322.73,375.506c0-1.739,1.343-3.046,3.06-3.046c1.715,0,3.058,1.307,3.058,3.046
					c0,1.738-1.343,3.047-3.058,3.047C324.073,378.552,322.73,377.244,322.73,375.506z M327.203,375.506
					c0-0.889-0.563-1.547-1.414-1.547c-0.864,0-1.429,0.658-1.429,1.547c0,0.898,0.589,1.56,1.429,1.56
					C326.64,377.064,327.203,376.404,327.203,375.506z"/>
			</g>
		</g>
		<path fill="#FFFFFF" d="M331.803,374.98c0,4.245,3.439,7.685,7.684,7.685h3.152c4.242,0,7.684-3.438,7.684-7.685
			c0-4.243-3.44-7.685-7.684-7.685h-3.152C335.242,367.297,331.803,370.737,331.803,374.98
			C331.803,374.98,331.803,370.737,331.803,374.98z"/>
	</g>
</g>
</svg>
