<?xml version="1.0" encoding="utf-8"?>
<!-- Generator: Adobe Illustrator 15.0.0, SVG Export Plug-In . SVG Version: 6.00 Build 0)  -->
<!DOCTYPE svg PUBLIC "-//W3C//DTD SVG 1.1//EN" "http://www.w3.org/Graphics/SVG/1.1/DTD/svg11.dtd">
<svg version="1.1" id="Layer_1" xmlns="http://www.w3.org/2000/svg" xmlns:xlink="http://www.w3.org/1999/xlink" x="0px" y="0px"
	 width="140.5px" height="25.078px" viewBox="227.39 327.424 140.5 25.078" enable-background="new 227.39 327.424 140.5 25.078"
	 xml:space="preserve">
<g>
	<g>
		<path fill="#007D5B" d="M362.89,327.424h-0.589h-6.133h-0.278h-0.589h-0.411h-0.589h-3.411h-0.589h-1.133h-1h-0.278h-0.589h-3.133
			h-0.278h-0.589h-0.411h-0.587h-0.002h-0.551h-0.582h-1.418h-1.582h-0.278h-0.589h-0.006h-0.127h-1h-0.278h-0.589h-2.006h-2.127
			h-0.865h-0.553h-0.582h-1.418h-1.582h-0.278h-0.39h-0.199h-0.006h-1.045h-2.955h-2.127H318.5h-5h-1.25h-4.75h-1h-52.603
			l-2.056,2.545c-0.19,0.233-0.476,0.371-0.778,0.371h-7.757c-0.303,0-0.588-0.138-0.778-0.371l-2.056-2.545h-8.083
			c-2.762,0-5,2.237-5,5v12.166c0,2.762,2.238,5,5,5h8.088l2.051,2.539c0.19,0.235,0.477,0.373,0.778,0.373h7.757
			c0.304,0,0.588-0.138,0.778-0.373l2.051-2.539H306.5h1h4.75h1.25h5h0.668h2.127h2.955h1.045h0.006h0.199h0.39h0.278h1.582h1.418
			h0.582h0.553h0.865h2.127h2.006h0.589h0.278h1h0.127h0.006h0.589h0.278h1.582h1.418h0.582h0.551h0.002h0.587h0.411h0.589h0.278
			h3.133h0.589h0.278h1h1.133h0.589h3.411h0.589h0.411h0.589h0.278h6.133h0.589c2.763,0,5-2.238,5-5v-12.166
			C367.89,329.661,365.651,327.424,362.89,327.424z"/>
		<g>
			<g>
				<path fill="#FFFFFF" d="M237.869,338.319c-0.301-0.323-0.564-0.552-1.043-0.552c-0.78,0-1.332,0.624-1.332,1.487
					c0,0.898,0.552,1.463,1.332,1.463c0.479,0,0.839-0.265,1.091-0.623l1.259,0.959c-0.6,0.814-1.319,1.248-2.351,1.248
					c-1.764,0-3.011-1.345-3.011-3.047c0-1.703,1.247-3.046,2.998-3.046c0.924,0,1.655,0.396,2.22,1.03L237.869,338.319z"/>
				<path fill="#FFFFFF" d="M240.355,342.193v-8.995h1.68v3.538c0,0.096-0.013,0.252-0.036,0.408
					c0.384-0.552,0.972-0.948,1.774-0.948c1.211,0,2.123,0.948,2.123,2.52v3.479h-1.69v-3.382c0-0.815-0.517-1.235-1.08-1.235
					c-0.517,0-1.021,0.407-1.091,1.247v3.37L240.355,342.193L240.355,342.193z"/>
				<path fill="#FFFFFF" d="M252.784,342.193c-0.721,0-1.212-0.384-1.476-0.995c-0.336,0.563-1.043,1.115-2.087,1.115
					c-1.295,0-1.955-0.84-1.955-1.715c0-0.972,0.792-1.919,2.423-1.919c0.492,0,0.972,0.06,1.415,0.144v-0.191
					c0-0.575-0.396-0.959-1.043-0.959c-0.456,0-0.828,0.204-1.066,0.588l-1.176-0.876c0,0,0.672-1.199,2.327-1.199
					c1.631,0,2.626,0.972,2.626,2.375v1.763c0,0.216,0.145,0.349,0.36,0.349h0.24v1.522L252.784,342.193L252.784,342.193z
					 M251.105,339.866c-0.312-0.06-0.695-0.119-0.923-0.119c-0.684,0-1.211,0.229-1.211,0.707c0,0.324,0.24,0.54,0.684,0.54
					C250.361,340.994,250.889,340.503,251.105,339.866z"/>
				<path fill="#FFFFFF" d="M256.062,342.193h-1.679v-5.853h1.679v0.396c0,0.096-0.012,0.24-0.036,0.408
					c0.385-0.552,0.973-0.948,1.775-0.948c1.211,0,2.123,0.948,2.123,2.52v3.479h-1.691v-3.382c0-0.815-0.516-1.235-1.08-1.235
					c-0.504,0-1.066,0.407-1.091,1.188V342.193L256.062,342.193z"/>
				<path fill="#FFFFFF" d="M265.121,336.437l0.742-0.852l0.984,0.924l-0.696,0.694c0.336,0.408,0.528,0.911,0.528,1.464
					c0,1.464-1.2,2.435-2.675,2.435c-0.348,0-0.647-0.035-0.937-0.107c-0.516,0.433-0.563,0.959,0.229,0.959
					c0.552,0,0.912-0.228,1.715-0.228c3.059,0,3.035,4.27-1.007,4.27c-3.034,0-3.658-1.967-2.626-3.321
					c-0.433-0.672-0.252-1.703,0.552-2.326c-0.396-0.42-0.612-0.996-0.612-1.68c0-1.464,1.211-2.446,2.688-2.446
					C264.401,336.221,264.785,336.294,265.121,336.437z M262.494,343.356c-0.324,0.612,0.071,1.212,1.511,1.212
					c2.11,0,2.051-1.464,0.948-1.464c-0.648,0-1.296,0.276-2.147,0.276C262.698,343.382,262.59,343.369,262.494,343.356z
					 M264.005,339.723c0.66,0,1.091-0.372,1.091-1.056c0-0.695-0.432-1.092-1.091-1.092c-0.671,0-1.104,0.407-1.104,1.092
					C262.902,339.363,263.37,339.723,264.005,339.723z"/>
				<path fill="#FFFFFF" d="M269.358,339.628c0.12,0.972,0.721,1.331,1.379,1.331c0.647,0,1.092-0.301,1.38-0.721l1.114,0.805
					c-0.624,0.84-1.259,1.271-2.59,1.271c-1.715,0-2.975-1.26-2.975-3.059c0-1.667,1.127-3.046,2.926-3.046
					c1.979,0,2.759,1.414,2.759,3.214v0.204L269.358,339.628L269.358,339.628z M269.406,338.596h2.314
					c-0.108-0.672-0.624-1.021-1.139-1.021C270.042,337.576,269.574,337.912,269.406,338.596z"/>
				<path fill="#FFFFFF" d="M278.131,345.191v-8.851h1.679v0.588c0.456-0.48,1.055-0.72,1.703-0.72c1.619,0,2.542,1.475,2.542,3.033
					c0,1.583-0.888,3.07-2.531,3.07c-0.684,0-1.318-0.336-1.774-0.888v3.766L278.131,345.191L278.131,345.191z M282.389,339.267
					c0-0.863-0.432-1.559-1.308-1.559c-0.779,0-1.295,0.646-1.295,1.547c0,0.804,0.526,1.57,1.295,1.57
					C281.945,340.826,282.389,340.118,282.389,339.267z"/>
				<path fill="#FFFFFF" d="M286.566,339.628c0.12,0.972,0.721,1.331,1.379,1.331c0.647,0,1.092-0.301,1.38-0.721l1.114,0.805
					c-0.624,0.84-1.259,1.271-2.59,1.271c-1.715,0-2.975-1.26-2.975-3.059c0-1.667,1.127-3.046,2.926-3.046
					c1.979,0,2.759,1.414,2.759,3.214v0.204L286.566,339.628L286.566,339.628z M286.614,338.596h2.314
					c-0.108-0.672-0.624-1.021-1.139-1.021C287.25,337.576,286.782,337.912,286.614,338.596z"/>
				<path fill="#FFFFFF" d="M293.418,342.193h-1.68v-5.853h1.68v0.396c0,0.096-0.013,0.24-0.036,0.408
					c0.384-0.552,0.972-0.948,1.774-0.948c1.212,0,2.123,0.948,2.123,2.52v3.479h-1.69v-3.382c0-0.815-0.517-1.235-1.08-1.235
					c-0.504,0-1.067,0.407-1.091,1.188V342.193L293.418,342.193z"/>
				<path fill="#FFFFFF" d="M303.007,340.227c0.407,0.468,1.056,0.659,1.619,0.659c0.358,0,0.624-0.145,0.624-0.359
					c0-0.3-0.302-0.443-0.792-0.588c-0.911-0.264-2.039-0.768-2.039-1.955c0-1.127,1.091-1.763,2.075-1.763
					c0.887,0,1.511,0.3,2.039,0.852l-0.937,1.008c-0.252-0.275-0.721-0.527-1.068-0.527c-0.312,0-0.539,0.145-0.539,0.372
					c0,0.288,0.337,0.432,0.863,0.588c0.889,0.264,2.027,0.814,2.027,1.931c0,1.104-0.947,1.871-2.269,1.871
					c-1.055,0-1.918-0.3-2.555-0.983L303.007,340.227z"/>
				<path fill="#FFFFFF" d="M308.994,333.427c0.6,0,1.104,0.504,1.104,1.104c0,0.601-0.504,1.104-1.104,1.104
					c-0.601,0-1.104-0.504-1.104-1.104C307.89,333.93,308.395,333.427,308.994,333.427z M308.119,342.193v-5.853h1.715v5.853
					H308.119z"/>
				<path fill="#FFFFFF" d="M313.817,338.115c0.145-0.168,0.336-0.322,0.385-0.358c-0.035,0-0.301,0.048-0.517,0.048h-2.397v-1.463
					h5.072v1.066l-2.711,2.986c-0.191,0.216-0.396,0.372-0.432,0.396c0.023,0,0.288-0.06,0.612-0.06h2.529v1.463h-5.253v-1.056
					L313.817,338.115z"/>
				<path fill="#FFFFFF" d="M318.869,339.628c0.12,0.972,0.721,1.331,1.38,1.331c0.646,0,1.091-0.301,1.38-0.721l1.115,0.805
					c-0.624,0.84-1.261,1.271-2.592,1.271c-1.716,0-2.975-1.26-2.975-3.059c0-1.667,1.128-3.046,2.927-3.046
					c1.979,0,2.758,1.414,2.758,3.214v0.204L318.869,339.628L318.869,339.628z M318.918,338.596h2.313
					c-0.106-0.672-0.623-1.021-1.139-1.021C319.554,337.576,319.086,337.912,318.918,338.596z"/>
				<path fill="#FFFFFF" d="M327.643,342.193v-8.995h1.68v3.73c0.455-0.48,1.056-0.72,1.703-0.72c1.619,0,2.542,1.475,2.542,3.033
					c0,1.583-0.888,3.07-2.529,3.07c-0.685,0-1.32-0.336-1.775-0.888v0.768L327.643,342.193L327.643,342.193z M331.9,339.267
					c0-0.863-0.432-1.559-1.308-1.559c-0.779,0-1.295,0.646-1.295,1.547c0,0.804,0.526,1.57,1.295,1.57
					C331.457,340.826,331.9,340.118,331.9,339.267z"/>
				<path fill="#FFFFFF" d="M336.113,341.547l-2.182-5.205h1.762l1.128,2.733c0.098,0.24,0.182,0.563,0.192,0.601
					c0-0.024,0.107-0.349,0.215-0.601l1.176-2.733h1.775l-4.042,9.127h-1.751L336.113,341.547z"/>
			</g>
		</g>
		<path fill="#FFFFFF" d="M343.303,338.73c0,4.245,3.439,7.685,7.684,7.685h3.152c4.242,0,7.684-3.438,7.684-7.685
			c0-4.243-3.44-7.685-7.684-7.685h-3.152C346.742,331.047,343.303,334.487,343.303,338.73
			C343.303,338.73,343.303,334.487,343.303,338.73z"/>
	</g>
</g>
</svg>
