<?xml version="1.0" encoding="utf-8"?>
<!-- Generator: Adobe Illustrator 15.0.0, SVG Export Plug-In . SVG Version: 6.00 Build 0)  -->
<!DOCTYPE svg PUBLIC "-//W3C//DTD SVG 1.1//EN" "http://www.w3.org/Graphics/SVG/1.1/DTD/svg11.dtd">
<svg version="1.1" id="Layer_1" xmlns="http://www.w3.org/2000/svg" xmlns:xlink="http://www.w3.org/1999/xlink" x="0px" y="0px"
	 width="66.497px" height="25.078px" viewBox="264.391 87.109 66.497 25.078" enable-background="new 264.391 87.109 66.497 25.078"
	 xml:space="preserve">
<g>
	<path fill="#007D5B" d="M326.001,87.12v-0.011h-0.112h-0.588h-3.3h-18h-0.112h-0.588h-3.3h-3.167h-5.936l-2.057,2.545
		c-0.189,0.235-0.475,0.372-0.777,0.372h-7.758c-0.303,0-0.588-0.137-0.777-0.372l-2.057-2.545h-8.082c-2.762,0-5,2.238-5,5v12.167
		c0,2.762,2.238,4.999,5,4.999h8.088l2.051,2.539c0.189,0.235,0.476,0.373,0.777,0.373h7.758c0.304,0,0.588-0.138,0.777-0.373
		l2.051-2.539h5.94H300h3.3h0.588H304h18h3.3h0.588H326v-0.011c2.709-0.063,4.888-2.267,4.888-4.988V92.109
		C330.889,89.386,328.71,87.183,326.001,87.12z"/>
	<g>
		<g>
			<g>
				<path fill="#FFFFFF" d="M270.652,104.877v-8.851h1.68v0.588c0.456-0.48,1.055-0.72,1.703-0.72c1.618,0,2.542,1.475,2.542,3.034
					c0,1.583-0.889,3.069-2.531,3.069c-0.685,0-1.319-0.336-1.775-0.888v3.766L270.652,104.877L270.652,104.877z M274.91,98.952
					c0-0.863-0.433-1.559-1.309-1.559c-0.779,0-1.295,0.646-1.295,1.547c0,0.804,0.527,1.571,1.295,1.571
					C274.466,100.512,274.91,99.804,274.91,98.952z"/>
				<path fill="#FFFFFF" d="M279.087,99.313c0.12,0.972,0.72,1.331,1.379,1.331c0.647,0,1.091-0.3,1.379-0.721l1.115,0.805
					c-0.624,0.84-1.259,1.271-2.59,1.271c-1.716,0-2.976-1.26-2.976-3.059c0-1.667,1.127-3.046,2.926-3.046
					c1.979,0,2.76,1.415,2.76,3.214v0.204L279.087,99.313L279.087,99.313z M279.135,98.281h2.314c-0.108-0.672-0.624-1.02-1.14-1.02
					C279.771,97.262,279.303,97.598,279.135,98.281z"/>
				<path fill="#FFFFFF" d="M285.939,101.879h-1.679v-5.853h1.679v0.396c0,0.097-0.012,0.24-0.036,0.408
					c0.385-0.552,0.973-0.948,1.775-0.948c1.211,0,2.123,0.948,2.123,2.52v3.479h-1.691v-3.382c0-0.814-0.516-1.234-1.08-1.234
					c-0.504,0-1.066,0.406-1.091,1.188V101.879L285.939,101.879z"/>
				<path fill="#FFFFFF" d="M298.897,101.879v-0.768c-0.468,0.552-1.092,0.888-1.774,0.888c-1.644,0-2.53-1.486-2.53-3.069
					c0-1.561,0.923-3.034,2.542-3.034c0.646,0,1.247,0.238,1.703,0.72v-3.729h1.679v8.994L298.897,101.879L298.897,101.879z
					 M298.861,98.94c0-0.899-0.516-1.547-1.295-1.547c-0.875,0-1.307,0.694-1.307,1.559c0,0.853,0.444,1.561,1.307,1.561
					C298.333,100.512,298.861,99.744,298.861,98.94z"/>
				<path fill="#FFFFFF" d="M301.695,98.94c0-1.739,1.345-3.046,3.06-3.046s3.059,1.307,3.059,3.046s-1.344,3.047-3.059,3.047
					S301.695,100.68,301.695,98.94z M306.169,98.94c0-0.888-0.563-1.547-1.415-1.547c-0.863,0-1.428,0.659-1.428,1.547
					c0,0.898,0.588,1.56,1.428,1.56C305.605,100.5,306.169,99.84,306.169,98.94z"/>
				<path fill="#FFFFFF" d="M318.189,96.026l-2.014,5.853h-1.907l-0.876-2.733c-0.06-0.168-0.119-0.479-0.132-0.54l-0.145,0.54
					l-0.899,2.733h-1.906c-0.66-1.942-1.319-3.896-1.967-5.853h1.811l0.912,3.226c0.084,0.324,0.168,0.708,0.191,0.78
					c0.012-0.061,0.096-0.432,0.204-0.78l0.946-3.226h1.703l0.925,3.226c0.096,0.35,0.167,0.744,0.18,0.792
					c0.012-0.048,0.107-0.432,0.216-0.792l0.937-3.226H318.189z"/>
				<path fill="#FFFFFF" d="M320.762,101.879h-1.679v-5.853h1.679v0.396c0,0.097-0.012,0.24-0.035,0.408
					c0.383-0.552,0.971-0.948,1.774-0.948c1.212,0,2.123,0.948,2.123,2.52v3.479h-1.69v-3.382c0-0.814-0.517-1.234-1.08-1.234
					c-0.504,0-1.066,0.406-1.092,1.188V101.879L320.762,101.879z"/>
			</g>
		</g>
	</g>
</g>
</svg>
