<?xml version="1.0" encoding="utf-8"?>
<!-- Generator: Adobe Illustrator 15.0.0, SVG Export Plug-In . SVG Version: 6.00 Build 0)  -->
<!DOCTYPE svg PUBLIC "-//W3C//DTD SVG 1.1//EN" "http://www.w3.org/Graphics/SVG/1.1/DTD/svg11.dtd">
<svg version="1.1" id="Layer_1" xmlns="http://www.w3.org/2000/svg" xmlns:xlink="http://www.w3.org/1999/xlink" x="0px" y="0px"
	 width="44.497px" height="25.078px" viewBox="275.391 24.942 44.497 25.078" enable-background="new 275.391 24.942 44.497 25.078"
	 xml:space="preserve">
<g>
	<path fill="#007D5B" d="M315.001,24.954v-0.012h-0.112h-0.588h-3.3h-9.103l-2.057,2.545c-0.189,0.236-0.475,0.373-0.777,0.373
		h-7.758c-0.303,0-0.588-0.137-0.777-0.373l-2.057-2.545h-8.082c-2.762,0-5,2.238-5,5V42.11c0,2.762,2.238,4.998,5,4.998h8.088
		l2.051,2.539c0.189,0.235,0.476,0.373,0.777,0.373h7.758c0.304,0,0.588-0.138,0.777-0.373l2.051-2.539H311h3.3h0.588H315v-0.011
		c2.709-0.063,4.888-2.266,4.888-4.987V29.942C319.889,27.22,317.71,25.016,315.001,24.954z"/>
	<g>
		<g>
			<g>
				<path fill="#FFFFFF" d="M288.5,36.838c-0.3-0.322-0.564-0.552-1.043-0.552c-0.78,0-1.332,0.624-1.332,1.487
					c0,0.898,0.552,1.463,1.332,1.463c0.479,0,0.839-0.264,1.091-0.623l1.259,0.959c-0.6,0.815-1.319,1.248-2.351,1.248
					c-1.764,0-3.011-1.344-3.011-3.047s1.247-3.046,2.998-3.046c0.925,0,1.655,0.396,2.22,1.03L288.5,36.838z"/>
				<path fill="#FFFFFF" d="M290.986,40.712v-8.995h1.703v8.995H290.986z"/>
				<path fill="#FFFFFF" d="M295.557,38.146c0.12,0.972,0.72,1.331,1.379,1.331c0.648,0,1.091-0.3,1.379-0.721l1.115,0.805
					c-0.624,0.84-1.259,1.271-2.59,1.271c-1.715,0-2.976-1.26-2.976-3.059c0-1.667,1.128-3.046,2.927-3.046
					c1.979,0,2.759,1.415,2.759,3.214v0.204L295.557,38.146L295.557,38.146z M295.605,37.114h2.314
					c-0.108-0.672-0.624-1.02-1.14-1.02C296.24,36.095,295.773,36.431,295.605,37.114z"/>
				<path fill="#FFFFFF" d="M306.078,40.712c-0.72,0-1.211-0.384-1.476-0.995c-0.336,0.563-1.043,1.115-2.087,1.115
					c-1.296,0-1.955-0.84-1.955-1.715c0-0.972,0.792-1.919,2.423-1.919c0.492,0,0.972,0.06,1.415,0.144V37.15
					c0-0.575-0.396-0.959-1.044-0.959c-0.455,0-0.827,0.204-1.065,0.588l-1.177-0.876c0,0,0.673-1.199,2.326-1.199
					c1.632,0,2.627,0.973,2.627,2.375v1.763c0,0.217,0.146,0.349,0.359,0.349h0.24v1.522L306.078,40.712L306.078,40.712z
					 M304.399,38.385c-0.312-0.061-0.694-0.119-0.923-0.119c-0.684,0-1.212,0.228-1.212,0.707c0,0.323,0.239,0.54,0.684,0.54
					C303.656,39.513,304.184,39.021,304.399,38.385z"/>
				<path fill="#FFFFFF" d="M309.356,40.712h-1.679v-5.853h1.679v0.396c0,0.133-0.023,0.349-0.06,0.576
					c0.336-0.636,0.863-1.116,1.631-1.116v1.645c-0.876,0-1.571,0.504-1.571,1.463V40.712z"/>
			</g>
		</g>
	</g>
</g>
</svg>
