<?xml version="1.0" encoding="utf-8"?>
<!-- Generator: Adobe Illustrator 15.0.0, SVG Export Plug-In . SVG Version: 6.00 Build 0)  -->
<!DOCTYPE svg PUBLIC "-//W3C//DTD SVG 1.1//EN" "http://www.w3.org/Graphics/SVG/1.1/DTD/svg11.dtd">
<svg version="1.1" id="Layer_1" xmlns="http://www.w3.org/2000/svg" xmlns:xlink="http://www.w3.org/1999/xlink" x="0px" y="0px"
	 width="53.497px" height="25.078px" viewBox="270.891 118.018 53.497 25.078"
	 enable-background="new 270.891 118.018 53.497 25.078" xml:space="preserve">
<g>
	<path fill="#007D5B" d="M319.501,118.03v-0.012h-0.112h-0.588h-3.3h-0.112h-0.588h-0.3h-0.112h-0.588h-2.3h-1h-0.112h-0.556h-0.032
		h-3.3h-0.668h-2.166h-6.269l-2.057,2.545c-0.189,0.234-0.475,0.372-0.777,0.372h-7.758c-0.303,0-0.588-0.138-0.777-0.372
		l-2.057-2.545h-8.082c-2.762,0-5,2.237-5,5v12.167c0,2.762,2.238,4.999,5,4.999h8.088l2.051,2.539
		c0.189,0.235,0.476,0.373,0.777,0.373h7.758c0.304,0,0.588-0.138,0.777-0.373l2.051-2.539h6.273h2.166h0.668h3.3h0.032h0.556h0.112
		h1h2.3h0.588h0.112h0.3h0.588h0.112h3.3h0.588h0.112v-0.013c2.709-0.061,4.888-2.264,4.888-4.986v-12.167
		C324.389,120.296,322.21,118.091,319.501,118.03z"/>
	<g>
		<g>
			<g>
				<path fill="#FFFFFF" d="M279.196,135.788v-8.851h1.68v0.588c0.456-0.48,1.055-0.72,1.703-0.72c1.618,0,2.542,1.475,2.542,3.033
					c0,1.583-0.889,3.07-2.531,3.07c-0.685,0-1.319-0.336-1.775-0.888v3.766L279.196,135.788L279.196,135.788z M283.454,129.863
					c0-0.863-0.433-1.559-1.309-1.559c-0.778,0-1.295,0.646-1.295,1.547c0,0.804,0.527,1.57,1.295,1.57
					C283.01,131.423,283.454,130.715,283.454,129.863z"/>
				<path fill="#FFFFFF" d="M287.631,130.224c0.12,0.972,0.72,1.331,1.379,1.331c0.648,0,1.091-0.301,1.379-0.721l1.115,0.805
					c-0.624,0.84-1.259,1.271-2.59,1.271c-1.715,0-2.976-1.26-2.976-3.059c0-1.667,1.127-3.046,2.926-3.046
					c1.979,0,2.76,1.415,2.76,3.214v0.204L287.631,130.224L287.631,130.224z M287.68,129.192h2.314
					c-0.108-0.672-0.624-1.021-1.14-1.021C288.315,128.173,287.848,128.509,287.68,129.192z"/>
				<path fill="#FFFFFF" d="M294.483,132.79h-1.679v-5.853h1.679v0.396c0,0.097-0.012,0.24-0.036,0.408
					c0.385-0.552,0.973-0.948,1.775-0.948c1.211,0,2.123,0.948,2.123,2.52v3.479h-1.691v-3.382c0-0.814-0.516-1.235-1.08-1.235
					c-0.504,0-1.066,0.407-1.091,1.188V132.79L294.483,132.79z"/>
				<path fill="#FFFFFF" d="M308.977,132.79h-1.679v-0.396c0-0.098,0.012-0.24,0.036-0.408c-0.384,0.552-0.984,0.947-1.775,0.947
					c-1.211,0-2.123-0.947-2.123-2.52v-3.478h1.691v3.382c0,0.814,0.516,1.235,1.08,1.235c0.503,0,1.055-0.396,1.091-1.188v-3.43
					h1.679V132.79L308.977,132.79z"/>
				<path fill="#FFFFFF" d="M310.516,135.788v-8.851h1.68v0.588c0.455-0.48,1.056-0.72,1.703-0.72c1.619,0,2.543,1.475,2.543,3.033
					c0,1.583-0.889,3.07-2.53,3.07c-0.685,0-1.319-0.336-1.775-0.888v3.766L310.516,135.788L310.516,135.788z M314.773,129.863
					c0-0.863-0.432-1.559-1.307-1.559c-0.779,0-1.295,0.646-1.295,1.547c0,0.804,0.526,1.57,1.295,1.57
					C314.33,131.423,314.773,130.715,314.773,129.863z"/>
			</g>
		</g>
	</g>
</g>
</svg>
