<?xml version="1.0" encoding="utf-8"?>
<!-- Generator: Adobe Illustrator 15.0.0, SVG Export Plug-In . SVG Version: 6.00 Build 0)  -->
<!DOCTYPE svg PUBLIC "-//W3C//DTD SVG 1.1//EN" "http://www.w3.org/Graphics/SVG/1.1/DTD/svg11.dtd">
<svg version="1.1" id="Layer_1" xmlns="http://www.w3.org/2000/svg" xmlns:xlink="http://www.w3.org/1999/xlink" x="0px" y="0px"
	 width="128.5px" height="25.079px" viewBox="233.39 293.923 128.5 25.079" enable-background="new 233.39 293.923 128.5 25.079"
	 xml:space="preserve">
<g>
	<g>
		<path fill="#007D5B" d="M356.89,293.923h-0.589h-6.133h-0.278h-0.589h-0.411h-0.589h-5.133h-1h-0.278h-0.589h-4.998h-0.553h-0.582
			h-1.418h-1.582h-0.278h-0.589h-0.006h-4h-2.127H319.5h-1.25h-5.75h-52.603l-2.056,2.546c-0.19,0.233-0.476,0.37-0.778,0.37h-7.757
			c-0.303,0-0.588-0.137-0.778-0.37l-2.056-2.546h-8.083c-2.762,0-5,2.238-5,5.001v12.166c0,2.762,2.238,5,5,5h8.088l2.051,2.539
			c0.19,0.235,0.477,0.373,0.778,0.373h7.757c0.304,0,0.588-0.138,0.778-0.373l2.051-2.539H312.5h5.75h1.25h5.668h2.127h4h0.006
			h0.589h0.278h1.582h1.418h0.582h0.553h4.998h0.589h0.278h1h5.133h0.589h0.411h0.589h0.278h6.133h0.589c2.762,0,5-2.238,5-5
			v-12.166C361.89,296.161,359.651,293.923,356.89,293.923z"/>
		<g>
			<g>
				<path fill="#FFFFFF" d="M243.643,306.727c0.408,0.468,1.055,0.659,1.619,0.659c0.36,0,0.624-0.145,0.624-0.359
					c0-0.3-0.3-0.443-0.792-0.588c-0.912-0.264-2.039-0.768-2.039-1.955c0-1.127,1.091-1.763,2.075-1.763
					c0.888,0,1.511,0.3,2.039,0.852l-0.937,1.008c-0.252-0.275-0.72-0.527-1.066-0.527c-0.313,0-0.54,0.145-0.54,0.372
					c0,0.288,0.335,0.432,0.862,0.588c0.889,0.264,2.027,0.814,2.027,1.931c0,1.104-0.947,1.871-2.267,1.871
					c-1.057,0-1.919-0.3-2.556-0.983L243.643,306.727z"/>
				<path fill="#FFFFFF" d="M250.026,306.128c0.12,0.972,0.721,1.331,1.379,1.331c0.647,0,1.092-0.301,1.38-0.721l1.114,0.805
					c-0.624,0.84-1.259,1.271-2.59,1.271c-1.715,0-2.975-1.26-2.975-3.059c0-1.667,1.127-3.046,2.926-3.046
					c1.979,0,2.759,1.414,2.759,3.214v0.204L250.026,306.128L250.026,306.128z M250.074,305.096h2.313
					c-0.108-0.672-0.624-1.021-1.139-1.021C250.71,304.076,250.242,304.412,250.074,305.096z"/>
				<path fill="#FFFFFF" d="M255.654,302.842v-2.087h1.68v2.087h0.828v1.559h-0.828v4.294h-1.68V304.4h-0.814v-1.559H255.654z"/>
				<path fill="#FFFFFF" d="M262.938,311.691v-8.851h1.68v0.588c0.455-0.48,1.055-0.72,1.702-0.72c1.619,0,2.542,1.475,2.542,3.033
					c0,1.583-0.888,3.07-2.53,3.07c-0.685,0-1.319-0.336-1.775-0.888v3.766L262.938,311.691L262.938,311.691z M267.196,305.767
					c0-0.863-0.432-1.559-1.308-1.559c-0.779,0-1.295,0.646-1.295,1.547c0,0.804,0.527,1.57,1.295,1.57
					C266.752,307.326,267.196,306.618,267.196,305.767z"/>
				<path fill="#FFFFFF" d="M271.374,306.128c0.12,0.972,0.72,1.331,1.379,1.331c0.646,0,1.091-0.301,1.379-0.721l1.115,0.805
					c-0.624,0.84-1.26,1.271-2.591,1.271c-1.715,0-2.975-1.26-2.975-3.059c0-1.667,1.127-3.046,2.926-3.046
					c1.979,0,2.76,1.414,2.76,3.214v0.204L271.374,306.128L271.374,306.128z M271.422,305.096h2.313
					c-0.107-0.672-0.624-1.021-1.139-1.021C272.058,304.076,271.59,304.412,271.422,305.096z"/>
				<path fill="#FFFFFF" d="M278.226,308.693h-1.679v-5.853h1.679v0.396c0,0.096-0.012,0.24-0.036,0.408
					c0.385-0.552,0.973-0.948,1.775-0.948c1.211,0,2.123,0.948,2.123,2.52v3.479h-1.691v-3.382c0-0.815-0.516-1.235-1.08-1.235
					c-0.504,0-1.066,0.407-1.091,1.188V308.693L278.226,308.693z"/>
				<path fill="#FFFFFF" d="M287.814,306.727c0.408,0.468,1.056,0.659,1.619,0.659c0.359,0,0.624-0.145,0.624-0.359
					c0-0.3-0.3-0.443-0.792-0.588c-0.912-0.264-2.039-0.768-2.039-1.955c0-1.127,1.091-1.763,2.075-1.763
					c0.888,0,1.511,0.3,2.039,0.852l-0.937,1.008c-0.252-0.275-0.72-0.527-1.066-0.527c-0.313,0-0.54,0.145-0.54,0.372
					c0,0.288,0.335,0.432,0.863,0.588c0.888,0.264,2.026,0.814,2.026,1.931c0,1.104-0.946,1.871-2.267,1.871
					c-1.057,0-1.919-0.3-2.555-0.983L287.814,306.727z"/>
				<path fill="#FFFFFF" d="M292.866,308.693v-8.995h1.679v3.538c0,0.096-0.012,0.252-0.036,0.408
					c0.384-0.552,0.972-0.948,1.775-0.948c1.211,0,2.122,0.948,2.122,2.52v3.479h-1.69v-3.382c0-0.815-0.517-1.235-1.08-1.235
					c-0.516,0-1.021,0.407-1.091,1.247v3.37L292.866,308.693L292.866,308.693z"/>
				<path fill="#FFFFFF" d="M305.295,308.693c-0.719,0-1.211-0.384-1.476-0.995c-0.336,0.563-1.043,1.115-2.087,1.115
					c-1.296,0-1.955-0.84-1.955-1.715c0-0.972,0.792-1.919,2.424-1.919c0.491,0,0.971,0.06,1.415,0.144v-0.191
					c0-0.575-0.396-0.959-1.045-0.959c-0.454,0-0.826,0.204-1.065,0.588l-1.176-0.876c0,0,0.672-1.199,2.325-1.199
					c1.633,0,2.628,0.972,2.628,2.375v1.763c0,0.216,0.145,0.349,0.358,0.349h0.24v1.522L305.295,308.693L305.295,308.693z
					 M303.616,306.366c-0.313-0.06-0.695-0.119-0.924-0.119c-0.684,0-1.212,0.229-1.212,0.707c0,0.324,0.239,0.54,0.685,0.54
					C302.873,307.494,303.4,307.003,303.616,306.366z"/>
				<path fill="#FFFFFF" d="M310.852,308.693v-0.768c-0.467,0.552-1.092,0.888-1.774,0.888c-1.644,0-2.529-1.487-2.529-3.07
					c0-1.56,0.923-3.034,2.542-3.034c0.646,0,1.247,0.239,1.703,0.721v-3.73h1.679v8.995L310.852,308.693L310.852,308.693z
					 M310.816,305.756c0-0.899-0.516-1.547-1.296-1.547c-0.876,0-1.308,0.694-1.308,1.559c0,0.852,0.443,1.56,1.308,1.56
					C310.288,307.326,310.816,306.559,310.816,305.756z"/>
				<path fill="#FFFFFF" d="M315.341,306.128c0.12,0.972,0.72,1.331,1.38,1.331c0.647,0,1.091-0.301,1.379-0.721l1.115,0.805
					c-0.623,0.84-1.26,1.271-2.59,1.271c-1.716,0-2.976-1.26-2.976-3.059c0-1.667,1.127-3.046,2.927-3.046
					c1.979,0,2.759,1.414,2.759,3.214v0.204L315.341,306.128L315.341,306.128z M315.389,305.096h2.314
					c-0.107-0.672-0.623-1.021-1.14-1.021C316.024,304.076,315.557,304.412,315.389,305.096z"/>
				<path fill="#FFFFFF" d="M324.568,302.842v-2.087h1.681v2.087h0.828v1.559h-0.828v4.294h-1.681V304.4h-0.813v-1.559H324.568z"/>
				<path fill="#FFFFFF" d="M327.893,305.756c0-1.739,1.344-3.046,3.06-3.046c1.715,0,3.059,1.307,3.059,3.046
					c0,1.738-1.344,3.047-3.059,3.047C329.237,308.802,327.893,307.494,327.893,305.756z M332.367,305.756
					c0-0.889-0.564-1.547-1.416-1.547c-0.863,0-1.428,0.658-1.428,1.547c0,0.898,0.587,1.56,1.428,1.56
					C331.803,307.314,332.367,306.654,332.367,305.756z"/>
			</g>
		</g>
		<path fill="#FFFFFF" d="M337.303,305.23c0,4.245,3.439,7.685,7.684,7.685h3.152c4.242,0,7.684-3.438,7.684-7.685
			c0-4.243-3.44-7.686-7.684-7.686h-3.152C340.742,297.546,337.303,300.987,337.303,305.23
			C337.303,305.23,337.303,300.987,337.303,305.23z"/>
	</g>
</g>
</svg>
