<?xml version="1.0" encoding="utf-8"?>
<!-- Generator: Adobe Illustrator 15.0.0, SVG Export Plug-In . SVG Version: 6.00 Build 0)  -->
<!DOCTYPE svg PUBLIC "-//W3C//DTD SVG 1.1//EN" "http://www.w3.org/Graphics/SVG/1.1/DTD/svg11.dtd">
<svg version="1.1" id="Layer_1" xmlns="http://www.w3.org/2000/svg" xmlns:xlink="http://www.w3.org/1999/xlink" x="0px" y="0px"
	 width="98.5px" height="25.078px" viewBox="248.39 110.4 98.5 25.078" enable-background="new 248.39 110.4 98.5 25.078"
	 xml:space="preserve">
<g>
	<path fill="#9A4794" d="M341.89,110.4h-1.589h-5.133h-0.278h-0.589h-4.714h-1.419H325.5h-3.61h-0.207h-0.382H315.5h-0.332h-0.278
		h-0.589h-0.411h-0.589h-5.133h-0.278h-0.589h-0.133h-0.278h-0.589h-0.006H303.5h-28.603l-2.056,2.545
		c-0.19,0.235-0.476,0.372-0.778,0.372h-7.757c-0.303,0-0.588-0.137-0.778-0.372l-2.056-2.545h-8.083c-2.762,0-5,2.238-5,5v12.167
		c0,2.762,2.238,4.999,5,4.999h8.088l2.051,2.539c0.19,0.235,0.477,0.373,0.778,0.373h7.757c0.304,0,0.588-0.138,0.778-0.373
		l2.051-2.539H303.5h2.795h0.006h0.589h0.278h0.133h0.589h0.278h5.133h0.589h0.411h0.589h0.278h0.332h5.801h0.382h0.207h3.61h2.668
		h1.419h4.714h0.589h0.278h6.133h0.589c2.762,0,5-2.237,5-4.999V115.4C346.89,112.639,344.651,110.4,341.89,110.4z"/>
	<g>
		<g>
			<g>
				<path fill="#FFFFFF" d="M257.05,123.204c0.408,0.468,1.055,0.659,1.619,0.659c0.359,0,0.624-0.144,0.624-0.359
					c0-0.3-0.3-0.442-0.792-0.588c-0.912-0.264-2.039-0.768-2.039-1.955c0-1.127,1.091-1.763,2.075-1.763
					c0.888,0,1.511,0.3,2.039,0.852l-0.937,1.009c-0.252-0.276-0.72-0.528-1.067-0.528c-0.312,0-0.539,0.145-0.539,0.372
					c0,0.288,0.335,0.432,0.862,0.588c0.889,0.264,2.027,0.815,2.027,1.931c0,1.104-0.947,1.871-2.268,1.871
					c-1.056,0-1.919-0.3-2.555-0.982L257.05,123.204z"/>
				<path fill="#FFFFFF" d="M262.558,119.318v-2.087h1.679v2.087h0.828v1.559h-0.828v4.294h-1.679v-4.294h-0.814v-1.559H262.558z"/>
				<path fill="#FFFFFF" d="M265.882,122.232c0-1.739,1.343-3.046,3.059-3.046c1.715,0,3.059,1.307,3.059,3.046
					s-1.344,3.047-3.059,3.047C267.225,125.279,265.882,123.972,265.882,122.232z M270.355,122.232c0-0.888-0.563-1.547-1.415-1.547
					c-0.863,0-1.427,0.659-1.427,1.547c0,0.898,0.587,1.56,1.427,1.56C269.792,123.792,270.355,123.132,270.355,122.232z"/>
				<path fill="#FFFFFF" d="M273.178,128.169v-8.851h1.679v0.588c0.456-0.48,1.056-0.72,1.703-0.72c1.619,0,2.542,1.475,2.542,3.034
					c0,1.583-0.888,3.069-2.531,3.069c-0.684,0-1.318-0.336-1.774-0.888v3.766L273.178,128.169L273.178,128.169z M277.436,122.244
					c0-0.863-0.432-1.559-1.308-1.559c-0.779,0-1.295,0.646-1.295,1.547c0,0.804,0.526,1.571,1.295,1.571
					C276.992,123.804,277.436,123.096,277.436,122.244z"/>
				<path fill="#FFFFFF" d="M289.231,125.171c-0.72,0-1.211-0.384-1.475-0.995c-0.336,0.563-1.043,1.115-2.087,1.115
					c-1.295,0-1.955-0.84-1.955-1.715c0-0.972,0.792-1.919,2.423-1.919c0.492,0,0.971,0.06,1.415,0.144v-0.191
					c0-0.575-0.396-0.959-1.043-0.959c-0.456,0-0.828,0.204-1.067,0.588l-1.175-0.876c0,0,0.672-1.199,2.327-1.199
					c1.631,0,2.626,0.973,2.626,2.375v1.763c0,0.217,0.145,0.349,0.36,0.349h0.239v1.522L289.231,125.171L289.231,125.171z
					 M287.552,122.844c-0.313-0.061-0.695-0.119-0.923-0.119c-0.685,0-1.211,0.228-1.211,0.707c0,0.323,0.24,0.54,0.684,0.54
					C286.808,123.972,287.336,123.479,287.552,122.844z"/>
				<path fill="#FFFFFF" d="M290.83,125.171v-8.995h1.703v8.995H290.83z"/>
				<path fill="#FFFFFF" d="M294.069,125.171v-8.995h1.703v8.995H294.069z"/>
				<path fill="#FFFFFF" d="M301.497,123.204c0.406,0.468,1.056,0.659,1.619,0.659c0.358,0,0.623-0.144,0.623-0.359
					c0-0.3-0.301-0.442-0.792-0.588c-0.91-0.264-2.038-0.768-2.038-1.955c0-1.127,1.091-1.763,2.074-1.763
					c0.888,0,1.512,0.3,2.039,0.852l-0.936,1.009c-0.252-0.276-0.721-0.528-1.068-0.528c-0.312,0-0.539,0.145-0.539,0.372
					c0,0.288,0.336,0.432,0.863,0.588c0.888,0.264,2.027,0.815,2.027,1.931c0,1.104-0.947,1.871-2.269,1.871
					c-1.055,0-1.918-0.3-2.555-0.982L301.497,123.204z"/>
				<path fill="#FFFFFF" d="M306.189,122.232c0-1.739,1.343-3.046,3.06-3.046c1.715,0,3.058,1.307,3.058,3.046
					s-1.343,3.047-3.058,3.047C307.532,125.279,306.189,123.972,306.189,122.232z M310.662,122.232c0-0.888-0.563-1.547-1.414-1.547
					c-0.864,0-1.429,0.659-1.429,1.547c0,0.898,0.589,1.56,1.429,1.56C310.099,123.792,310.662,123.132,310.662,122.232z"/>
				<path fill="#FFFFFF" d="M318.979,125.171h-1.68v-0.396c0-0.097,0.012-0.24,0.036-0.408c-0.384,0.552-0.983,0.947-1.775,0.947
					c-1.211,0-2.122-0.947-2.122-2.52v-3.478h1.69v3.382c0,0.815,0.516,1.235,1.079,1.235c0.504,0,1.056-0.396,1.092-1.188v-3.43
					h1.68V125.171L318.979,125.171z"/>
				<path fill="#FFFFFF" d="M322.195,125.171h-1.679v-5.853h1.679v0.396c0,0.097-0.012,0.24-0.034,0.408
					c0.383-0.552,0.971-0.948,1.773-0.948c1.212,0,2.123,0.948,2.123,2.52v3.479h-1.689v-3.382c0-0.814-0.518-1.234-1.08-1.234
					c-0.504,0-1.067,0.406-1.093,1.188V125.171L322.195,125.171z"/>
				<path fill="#FFFFFF" d="M331.555,125.171v-0.768c-0.468,0.552-1.092,0.888-1.775,0.888c-1.643,0-2.529-1.486-2.529-3.069
					c0-1.561,0.923-3.034,2.542-3.034c0.647,0,1.248,0.238,1.703,0.72v-3.729h1.68v8.994L331.555,125.171L331.555,125.171z
					 M331.519,122.232c0-0.899-0.516-1.547-1.296-1.547c-0.875,0-1.307,0.694-1.307,1.559c0,0.853,0.442,1.561,1.307,1.561
					C330.99,123.804,331.519,123.036,331.519,122.232z"/>
				<path fill="#FFFFFF" d="M335.301,123.204c0.407,0.468,1.055,0.659,1.618,0.659c0.359,0,0.624-0.144,0.624-0.359
					c0-0.3-0.3-0.442-0.791-0.588c-0.912-0.264-2.039-0.768-2.039-1.955c0-1.127,1.091-1.763,2.074-1.763
					c0.888,0,1.512,0.3,2.039,0.852l-0.937,1.009c-0.252-0.276-0.72-0.528-1.066-0.528c-0.313,0-0.54,0.145-0.54,0.372
					c0,0.288,0.336,0.432,0.862,0.588c0.89,0.264,2.027,0.815,2.027,1.931c0,1.104-0.947,1.871-2.267,1.871
					c-1.057,0-1.92-0.3-2.556-0.982L335.301,123.204z"/>
			</g>
		</g>
	</g>
</g>
</svg>
