<?xml version="1.0" encoding="utf-8"?>
<!-- Generator: Adobe Illustrator 15.0.0, SVG Export Plug-In . SVG Version: 6.00 Build 0)  -->
<!DOCTYPE svg PUBLIC "-//W3C//DTD SVG 1.1//EN" "http://www.w3.org/Graphics/SVG/1.1/DTD/svg11.dtd">
<svg version="1.1" id="Layer_1" xmlns="http://www.w3.org/2000/svg" xmlns:xlink="http://www.w3.org/1999/xlink" x="0px" y="0px"
	 width="135.499px" height="25.078px" viewBox="229.89 307.717 135.499 25.078"
	 enable-background="new 229.89 307.717 135.499 25.078" xml:space="preserve">
<g>
	<path fill="#9A4794" d="M360.39,307.717h-20h-40.722h-43.271l-2.056,2.545c-0.19,0.233-0.476,0.371-0.778,0.371h-7.757
		c-0.302,0-0.588-0.138-0.778-0.371l-2.056-2.545h-8.083c-2.761,0-5,2.237-5,5v12.166c0,2.762,2.239,5,5,5h8.088l2.051,2.539
		c0.19,0.235,0.477,0.373,0.778,0.373h7.757c0.303,0,0.588-0.138,0.778-0.373l2.051-2.539h43.274h40.722h20c2.762,0,5-2.238,5-5
		v-12.166C365.39,309.954,363.151,307.717,360.39,307.717z"/>
	<g>
		<g>
			<g>
				<path fill="#FFFFFF" d="M237.562,318.612c-0.3-0.322-0.563-0.551-1.043-0.551c-0.78,0-1.332,0.623-1.332,1.486
					c0,0.899,0.552,1.463,1.332,1.463c0.479,0,0.839-0.265,1.091-0.623l1.26,0.959c-0.601,0.815-1.319,1.248-2.352,1.248
					c-1.763,0-3.01-1.344-3.01-3.047s1.247-3.045,2.998-3.045c0.924,0,1.655,0.395,2.219,1.03L237.562,318.612z"/>
				<path fill="#FFFFFF" d="M240.047,322.487v-8.996h1.679v3.539c0,0.097-0.012,0.252-0.036,0.408
					c0.385-0.553,0.973-0.949,1.775-0.949c1.211,0,2.123,0.949,2.123,2.521v3.479h-1.691v-3.383c0-0.814-0.516-1.234-1.08-1.234
					c-0.516,0-1.02,0.406-1.091,1.246v3.371L240.047,322.487L240.047,322.487z"/>
				<path fill="#FFFFFF" d="M252.477,322.487c-0.72,0-1.211-0.385-1.475-0.996c-0.336,0.564-1.043,1.115-2.087,1.115
					c-1.295,0-1.955-0.84-1.955-1.715c0-0.971,0.792-1.918,2.423-1.918c0.492,0,0.971,0.059,1.415,0.143v-0.19
					c0-0.576-0.396-0.959-1.043-0.959c-0.456,0-0.828,0.203-1.067,0.588l-1.175-0.877c0,0,0.671-1.199,2.327-1.199
					c1.631,0,2.626,0.973,2.626,2.375v1.764c0,0.215,0.144,0.349,0.36,0.349h0.239v1.522L252.477,322.487L252.477,322.487z
					 M250.797,320.159c-0.313-0.059-0.696-0.119-0.923-0.119c-0.685,0-1.211,0.229-1.211,0.707c0,0.324,0.239,0.541,0.684,0.541
					C250.054,321.288,250.582,320.797,250.797,320.159z"/>
				<path fill="#FFFFFF" d="M255.754,322.487h-1.679v-5.854h1.679v0.396c0,0.096-0.012,0.24-0.036,0.408
					c0.384-0.553,0.972-0.949,1.775-0.949c1.211,0,2.123,0.949,2.123,2.521v3.479h-1.691v-3.383c0-0.814-0.516-1.234-1.08-1.234
					c-0.504,0-1.067,0.406-1.091,1.188V322.487z"/>
				<path fill="#FFFFFF" d="M264.813,316.729l0.743-0.852l0.984,0.924l-0.696,0.694c0.336,0.408,0.528,0.912,0.528,1.464
					c0,1.465-1.2,2.436-2.676,2.436c-0.348,0-0.646-0.035-0.936-0.107c-0.516,0.433-0.563,0.96,0.228,0.96
					c0.553,0,0.912-0.229,1.716-0.229c3.059,0,3.034,4.27-1.008,4.27c-3.033,0-3.657-1.967-2.626-3.321
					c-0.432-0.672-0.252-1.703,0.553-2.326c-0.396-0.42-0.612-0.996-0.612-1.68c0-1.463,1.211-2.445,2.688-2.445
					C264.094,316.515,264.478,316.588,264.813,316.729z M262.187,323.649c-0.324,0.613,0.072,1.213,1.511,1.213
					c2.111,0,2.052-1.465,0.948-1.465c-0.647,0-1.295,0.277-2.146,0.277C262.391,323.676,262.283,323.663,262.187,323.649z
					 M263.698,320.017c0.66,0,1.092-0.373,1.092-1.057c0-0.695-0.433-1.091-1.092-1.091c-0.671,0-1.103,0.406-1.103,1.091
					C262.595,319.657,263.062,320.017,263.698,320.017z"/>
				<path fill="#FFFFFF" d="M269.05,319.922c0.12,0.971,0.72,1.33,1.379,1.33c0.647,0,1.091-0.3,1.379-0.72l1.115,0.804
					c-0.624,0.84-1.259,1.271-2.59,1.271c-1.715,0-2.976-1.26-2.976-3.059c0-1.666,1.127-3.045,2.927-3.045
					c1.979,0,2.759,1.413,2.759,3.213v0.205L269.05,319.922L269.05,319.922z M269.099,318.89h2.314
					c-0.108-0.672-0.624-1.021-1.14-1.021C269.734,317.87,269.267,318.206,269.099,318.89z"/>
				<path fill="#FFFFFF" d="M279.311,322.487l-2.135-5.854h1.823l1.066,3.047c0.12,0.336,0.192,0.756,0.204,0.84
					c0.012-0.062,0.084-0.492,0.204-0.84l1.067-3.047h1.822l-2.135,5.854H279.311z"/>
				<path fill="#FFFFFF" d="M283.896,319.549c0-1.738,1.343-3.045,3.06-3.045c1.715,0,3.058,1.307,3.058,3.045
					c0,1.739-1.343,3.047-3.058,3.047C285.239,322.595,283.896,321.288,283.896,319.549z M288.369,319.549
					c0-0.888-0.563-1.547-1.415-1.547c-0.864,0-1.428,0.659-1.428,1.547c0,0.899,0.587,1.561,1.428,1.561
					C287.806,321.108,288.369,320.448,288.369,319.549z"/>
				<path fill="#FFFFFF" d="M291.191,322.487v-8.996h1.703v8.996H291.191z"/>
				<path fill="#FFFFFF" d="M299.924,322.487h-1.679v-0.396c0-0.097,0.012-0.24,0.036-0.408c-0.385,0.553-0.984,0.947-1.775,0.947
					c-1.211,0-2.123-0.947-2.123-2.519v-3.479h1.691v3.383c0,0.813,0.516,1.233,1.079,1.233c0.504,0,1.056-0.395,1.092-1.188v-3.43
					h1.679V322.487L299.924,322.487z"/>
				<path fill="#FFFFFF" d="M301.463,322.487v-5.854h1.68v0.301c0,0.106-0.023,0.299-0.049,0.479
					c0.348-0.563,0.912-0.924,1.607-0.924c0.852,0,1.366,0.396,1.643,0.961c0.42-0.563,1.068-0.961,1.859-0.961
					c1.198,0,1.932,0.816,1.932,2.219v3.779h-1.68v-3.658c0-0.637-0.455-0.959-0.912-0.959c-0.455,0-0.911,0.322-0.911,1.007v3.61
					h-1.679v-3.695c0-0.6-0.42-0.887-0.863-0.887c-0.456,0-0.924,0.313-0.947,0.912v3.67H301.463L301.463,322.487z"/>
				<path fill="#FFFFFF" d="M313.006,319.922c0.12,0.971,0.72,1.33,1.379,1.33c0.648,0,1.092-0.3,1.38-0.72l1.115,0.804
					c-0.624,0.84-1.259,1.271-2.591,1.271c-1.715,0-2.976-1.26-2.976-3.059c0-1.666,1.128-3.045,2.928-3.045
					c1.979,0,2.759,1.413,2.759,3.213v0.205L313.006,319.922L313.006,319.922z M313.055,318.89h2.314
					c-0.108-0.672-0.624-1.021-1.141-1.021C313.689,317.87,313.223,318.206,313.055,318.89z"/>
				<path fill="#FFFFFF" d="M321.778,322.487v-8.996h1.68v3.73c0.456-0.48,1.056-0.719,1.703-0.719c1.618,0,2.543,1.475,2.543,3.032
					c0,1.584-0.889,3.07-2.531,3.07c-0.685,0-1.318-0.336-1.774-0.887v0.768L321.778,322.487L321.778,322.487z M326.036,319.56
					c0-0.863-0.434-1.559-1.309-1.559c-0.778,0-1.295,0.647-1.295,1.547c0,0.805,0.527,1.571,1.295,1.571
					C325.592,321.12,326.036,320.411,326.036,319.56z"/>
				<path fill="#FFFFFF" d="M330.25,321.84l-2.185-5.205h1.765l1.127,2.733c0.096,0.24,0.18,0.564,0.19,0.601
					c0-0.023,0.108-0.349,0.218-0.601l1.175-2.733h1.774l-4.042,9.127h-1.751L330.25,321.84z"/>
			</g>
		</g>
		<path fill="#FFFFFF" d="M351.465,326.938h3.149c4.244,0,7.687-3.439,7.687-7.684c0-4.245-3.441-7.687-7.687-7.687h-3.149h-7
			c-4.244,0-7.687,3.441-7.687,7.687c0,0,0-4.244,0,0c0,4.243,3.441,7.684,7.687,7.684H351.465z"/>
	</g>
</g>
</svg>
