<?xml version="1.0" encoding="utf-8"?>
<!-- Generator: Adobe Illustrator 15.0.0, SVG Export Plug-In . SVG Version: 6.00 Build 0)  -->
<!DOCTYPE svg PUBLIC "-//W3C//DTD SVG 1.1//EN" "http://www.w3.org/Graphics/SVG/1.1/DTD/svg11.dtd">
<svg version="1.1" id="Layer_1" xmlns="http://www.w3.org/2000/svg" xmlns:xlink="http://www.w3.org/1999/xlink" x="0px" y="0px"
	 width="138.5px" height="25.078px" viewBox="228.39 74.744 138.5 25.078" enable-background="new 228.39 74.744 138.5 25.078"
	 xml:space="preserve">
<g>
	<path fill="#9A4794" d="M361.89,74.744h-0.589h-6.133h-0.278h-0.589h-4.714h-1.419H345.5h-3.61h-0.589H335.5h-0.332h-0.278h-0.589
		h-0.411h-0.589h-5.133h-0.278h-0.589h-0.133h-0.278h-0.589h-0.006h-5.127h-1h-3.873h-0.208H315.5h-0.61h-0.589h-1.714H307.5
		h-52.603l-2.056,2.545c-0.19,0.235-0.476,0.372-0.778,0.372h-7.757c-0.303,0-0.588-0.137-0.778-0.372l-2.056-2.545h-8.083
		c-2.762,0-5,2.238-5,5v12.167c0,2.762,2.238,4.999,5,4.999h8.088l2.051,2.539c0.19,0.236,0.477,0.373,0.778,0.373h7.757
		c0.304,0,0.588-0.137,0.778-0.373l2.051-2.539H307.5h5.087h1.714h0.589h0.61h0.587h0.208h3.873h1h5.127h0.006h0.589h0.278h0.133
		h0.589h0.278h5.133h0.589h0.411h0.589h0.278h0.332h5.801h0.589h3.61h2.668h1.419h4.714h0.589h0.278h6.133h0.589
		c2.762,0,5-2.237,5-4.999V79.744C366.89,76.982,364.651,74.744,361.89,74.744z"/>
	<g>
		<g>
			<g>
				<path fill="#FFFFFF" d="M237.055,92.513v-8.852h1.679v0.588c0.456-0.479,1.056-0.72,1.703-0.72c1.619,0,2.542,1.475,2.542,3.034
					c0,1.583-0.888,3.069-2.531,3.069c-0.684,0-1.318-0.336-1.774-0.888v3.767L237.055,92.513L237.055,92.513z M241.313,86.588
					c0-0.862-0.432-1.559-1.308-1.559c-0.779,0-1.295,0.646-1.295,1.547c0,0.804,0.526,1.571,1.295,1.571
					C240.869,88.147,241.313,87.439,241.313,86.588z"/>
				<path fill="#FFFFFF" d="M244.159,89.515V80.52h1.702v8.995H244.159z"/>
				<path fill="#FFFFFF" d="M252.748,89.515c-0.721,0-1.211-0.385-1.476-0.995c-0.336,0.563-1.043,1.115-2.087,1.115
					c-1.295,0-1.955-0.841-1.955-1.716c0-0.972,0.792-1.919,2.423-1.919c0.492,0,0.972,0.061,1.415,0.145v-0.192
					c0-0.575-0.396-0.959-1.043-0.959c-0.456,0-0.828,0.204-1.066,0.588l-1.175-0.876c0,0,0.671-1.199,2.326-1.199
					c1.632,0,2.626,0.973,2.626,2.375v1.764c0,0.216,0.145,0.348,0.36,0.348h0.24v1.523L252.748,89.515L252.748,89.515z
					 M251.069,87.188c-0.312-0.061-0.695-0.119-0.923-0.119c-0.684,0-1.211,0.228-1.211,0.707c0,0.324,0.24,0.54,0.685,0.54
					C250.325,88.315,250.853,87.823,251.069,87.188z"/>
				<path fill="#FFFFFF" d="M255.882,88.867l-2.183-5.205h1.763l1.127,2.734c0.096,0.24,0.18,0.563,0.191,0.6
					c0-0.023,0.108-0.348,0.217-0.6l1.175-2.734h1.774l-4.042,9.127h-1.751L255.882,88.867z"/>
				<path fill="#FFFFFF" d="M264.931,87.548c0.408,0.469,1.055,0.659,1.619,0.659c0.359,0,0.624-0.144,0.624-0.358
					c0-0.301-0.3-0.443-0.792-0.588c-0.912-0.265-2.039-0.769-2.039-1.955c0-1.127,1.091-1.764,2.075-1.764
					c0.888,0,1.511,0.3,2.039,0.853l-0.937,1.008c-0.252-0.276-0.72-0.528-1.066-0.528c-0.313,0-0.54,0.146-0.54,0.372
					c0,0.288,0.335,0.433,0.862,0.588c0.889,0.265,2.027,0.815,2.027,1.932c0,1.104-0.947,1.871-2.267,1.871
					c-1.057,0-1.919-0.301-2.556-0.983L264.931,87.548z"/>
				<path fill="#FFFFFF" d="M269.623,86.576c0-1.739,1.343-3.046,3.059-3.046c1.715,0,3.058,1.307,3.058,3.046
					s-1.343,3.047-3.058,3.047C270.966,89.623,269.623,88.315,269.623,86.576z M274.096,86.576c0-0.888-0.563-1.547-1.415-1.547
					c-0.864,0-1.427,0.659-1.427,1.547c0,0.899,0.587,1.561,1.427,1.561C273.532,88.136,274.096,87.476,274.096,86.576z"/>
				<path fill="#FFFFFF" d="M282.412,89.515h-1.68v-0.396c0-0.097,0.013-0.24,0.036-0.408c-0.384,0.553-0.983,0.947-1.774,0.947
					c-1.211,0-2.123-0.947-2.123-2.519v-3.479h1.69v3.382c0,0.815,0.517,1.235,1.08,1.235c0.503,0,1.055-0.396,1.091-1.188v-3.43
					h1.68V89.515L282.412,89.515z"/>
				<path fill="#FFFFFF" d="M285.629,89.515h-1.679v-5.854h1.679v0.396c0,0.096-0.012,0.239-0.036,0.407
					c0.384-0.552,0.972-0.947,1.775-0.947c1.211,0,2.122,0.947,2.122,2.519v3.479h-1.69v-3.383c0-0.814-0.516-1.234-1.08-1.234
					c-0.504,0-1.067,0.407-1.091,1.188V89.515z"/>
				<path fill="#FFFFFF" d="M294.988,89.515v-0.769c-0.468,0.552-1.092,0.889-1.774,0.889c-1.644,0-2.53-1.487-2.53-3.07
					c0-1.561,0.923-3.034,2.542-3.034c0.647,0,1.247,0.239,1.703,0.72v-3.729h1.679v8.995L294.988,89.515L294.988,89.515z
					 M294.952,86.576c0-0.898-0.517-1.547-1.296-1.547c-0.875,0-1.307,0.695-1.307,1.559c0,0.853,0.444,1.561,1.307,1.561
					C294.424,88.147,294.952,87.38,294.952,86.576z"/>
			</g>
		</g>
		<rect x="301.683" y="78.644" fill="#FFFFFF" width="57.312" height="14.778"/>
	</g>
</g>
</svg>
