<?xml version="1.0" encoding="utf-8"?>
<!-- Generator: Adobe Illustrator 15.0.0, SVG Export Plug-In . SVG Version: 6.00 Build 0)  -->
<!DOCTYPE svg PUBLIC "-//W3C//DTD SVG 1.1//EN" "http://www.w3.org/Graphics/SVG/1.1/DTD/svg11.dtd">
<svg version="1.1" id="Layer_1" xmlns="http://www.w3.org/2000/svg" xmlns:xlink="http://www.w3.org/1999/xlink" x="0px" y="0px"
	 width="135.499px" height="25.079px" viewBox="229.89 269.211 135.499 25.079"
	 enable-background="new 229.89 269.211 135.499 25.079" xml:space="preserve">
<g>
	<path fill="#9A4794" d="M360.39,269.211h-20h-40.722h-43.271l-2.056,2.545c-0.19,0.235-0.476,0.372-0.778,0.372h-7.757
		c-0.302,0-0.588-0.137-0.778-0.372l-2.056-2.545h-8.083c-2.761,0-5,2.238-5,5v12.167c0,2.763,2.239,5,5,5h8.088l2.051,2.539
		c0.19,0.236,0.477,0.373,0.778,0.373h7.757c0.303,0,0.588-0.137,0.778-0.373l2.051-2.539h43.274h40.722h20c2.762,0,5-2.237,5-5
		v-12.167C365.39,271.449,363.151,269.211,360.39,269.211z"/>
	<g>
		<g>
			<g>
				<path fill="#FFFFFF" d="M238.836,282.016c0.408,0.468,1.055,0.658,1.619,0.658c0.359,0,0.624-0.144,0.624-0.358
					c0-0.3-0.301-0.443-0.792-0.588c-0.912-0.265-2.039-0.769-2.039-1.955c0-1.127,1.091-1.764,2.074-1.764
					c0.889,0,1.512,0.301,2.039,0.853l-0.936,1.008c-0.252-0.276-0.72-0.528-1.067-0.528c-0.312,0-0.54,0.146-0.54,0.372
					c0,0.288,0.335,0.433,0.863,0.588c0.888,0.265,2.027,0.815,2.027,1.932c0,1.104-0.947,1.871-2.268,1.871
					c-1.056,0-1.919-0.3-2.555-0.983L238.836,282.016z"/>
				<path fill="#FFFFFF" d="M245.219,281.416c0.12,0.973,0.72,1.331,1.379,1.331c0.647,0,1.091-0.3,1.379-0.72l1.115,0.804
					c-0.624,0.84-1.259,1.271-2.59,1.271c-1.715,0-2.976-1.261-2.976-3.06c0-1.667,1.127-3.046,2.927-3.046
					c1.979,0,2.759,1.415,2.759,3.214v0.204L245.219,281.416L245.219,281.416z M245.267,280.385h2.314
					c-0.108-0.673-0.624-1.021-1.14-1.021C245.903,279.365,245.435,279.701,245.267,280.385z"/>
				<path fill="#FFFFFF" d="M250.847,278.13v-2.087h1.679v2.087h0.828v1.56h-0.828v4.294h-1.679v-4.294h-0.814v-1.56H250.847z"/>
				<path fill="#FFFFFF" d="M259.067,275.215c0.601,0,1.104,0.505,1.104,1.104s-0.504,1.104-1.104,1.104
					c-0.6,0-1.104-0.504-1.104-1.104S258.467,275.215,259.067,275.215z M258.191,283.982v-5.854h1.715v5.854H258.191z"/>
				<path fill="#FFFFFF" d="M263.219,283.982h-1.679v-5.854h1.679v0.396c0,0.096-0.012,0.24-0.036,0.408
					c0.384-0.553,0.972-0.948,1.775-0.948c1.211,0,2.123,0.948,2.123,2.519v3.479h-1.691v-3.382c0-0.815-0.516-1.235-1.08-1.235
					c-0.504,0-1.066,0.407-1.091,1.188V283.982L263.219,283.982z"/>
				<path fill="#FFFFFF" d="M269.208,282.016c0.408,0.468,1.055,0.658,1.619,0.658c0.358,0,0.624-0.144,0.624-0.358
					c0-0.3-0.301-0.443-0.792-0.588c-0.912-0.265-2.039-0.769-2.039-1.955c0-1.127,1.091-1.764,2.074-1.764
					c0.889,0,1.512,0.301,2.039,0.853l-0.936,1.008c-0.252-0.276-0.72-0.528-1.067-0.528c-0.312,0-0.54,0.146-0.54,0.372
					c0,0.288,0.335,0.433,0.863,0.588c0.888,0.265,2.027,0.815,2.027,1.932c0,1.104-0.947,1.871-2.268,1.871
					c-1.056,0-1.919-0.3-2.555-0.983L269.208,282.016z"/>
				<path fill="#FFFFFF" d="M274.715,278.13v-2.087h1.679v2.087h0.828v1.56h-0.828v4.294h-1.679v-4.294H273.9v-1.56H274.715z"/>
				<path fill="#FFFFFF" d="M280.078,283.982h-1.68v-5.854h1.68v0.396c0,0.132-0.024,0.348-0.061,0.576
					c0.336-0.637,0.863-1.116,1.631-1.116v1.644c-0.875,0-1.57,0.504-1.57,1.463V283.982z"/>
				<path fill="#FFFFFF" d="M288.344,283.982h-1.679v-0.396c0-0.097,0.012-0.239,0.036-0.407c-0.385,0.552-0.984,0.946-1.775,0.946
					c-1.211,0-2.123-0.946-2.123-2.519v-3.479h1.691v3.382c0,0.815,0.516,1.235,1.08,1.235c0.503,0,1.055-0.396,1.091-1.188v-3.431
					h1.679V283.982L288.344,283.982z"/>
				<path fill="#FFFFFF" d="M289.882,283.982v-5.854h1.679v0.301c0,0.106-0.023,0.3-0.048,0.479
					c0.348-0.563,0.912-0.924,1.607-0.924c0.852,0,1.366,0.396,1.643,0.96c0.42-0.563,1.067-0.96,1.859-0.96
					c1.198,0,1.931,0.815,1.931,2.219v3.778h-1.679v-3.658c0-0.636-0.456-0.959-0.912-0.959s-0.912,0.323-0.912,1.007v3.61h-1.679
					v-3.694c0-0.6-0.42-0.887-0.864-0.887c-0.456,0-0.923,0.312-0.947,0.911v3.67L289.882,283.982L289.882,283.982z"/>
				<path fill="#FFFFFF" d="M301.426,281.416c0.119,0.973,0.719,1.331,1.379,1.331c0.648,0,1.092-0.3,1.379-0.72l1.115,0.804
					c-0.623,0.84-1.259,1.271-2.59,1.271c-1.715,0-2.976-1.261-2.976-3.06c0-1.667,1.127-3.046,2.927-3.046
					c1.979,0,2.76,1.415,2.76,3.214v0.204L301.426,281.416L301.426,281.416z M301.474,280.385h2.314
					c-0.108-0.673-0.624-1.021-1.141-1.021C302.109,279.365,301.642,279.701,301.474,280.385z"/>
				<path fill="#FFFFFF" d="M308.277,283.982h-1.68v-5.854h1.68v0.396c0,0.096-0.012,0.24-0.035,0.408
					c0.384-0.553,0.972-0.948,1.773-0.948c1.212,0,2.123,0.948,2.123,2.519v3.479h-1.69v-3.382c0-0.815-0.517-1.235-1.078-1.235
					c-0.505,0-1.068,0.407-1.093,1.188V283.982L308.277,283.982z"/>
				<path fill="#FFFFFF" d="M314.134,278.13v-2.087h1.679v2.087h0.828v1.56h-0.828v4.294h-1.679v-4.294h-0.815v-1.56H314.134z"/>
				<path fill="#FFFFFF" d="M321.873,278.13v-2.087h1.68v2.087h0.827v1.56h-0.827v4.294h-1.68v-4.294h-0.815v-1.56H321.873z"/>
				<path fill="#FFFFFF" d="M325.197,281.044c0-1.738,1.345-3.046,3.06-3.046s3.059,1.308,3.059,3.046
					c0,1.739-1.344,3.047-3.059,3.047S325.197,282.783,325.197,281.044z M329.671,281.044c0-0.888-0.563-1.547-1.415-1.547
					c-0.863,0-1.428,0.659-1.428,1.547c0,0.899,0.588,1.561,1.428,1.561C329.107,282.604,329.671,281.943,329.671,281.044z"/>
			</g>
		</g>
		<path fill="#FFFFFF" d="M339.279,280.75c0,4.245,3.44,7.686,7.686,7.686h3.15c4.243,0,7.686-3.439,7.686-7.686
			c0-4.243-3.441-7.685-7.686-7.685h-3.15C342.72,273.065,339.279,276.507,339.279,280.75
			C339.279,280.75,339.279,276.507,339.279,280.75z"/>
	</g>
</g>
</svg>
