<?xml version="1.0" encoding="utf-8"?>
<!-- Generator: Adobe Illustrator 15.0.0, SVG Export Plug-In . SVG Version: 6.00 Build 0)  -->
<!DOCTYPE svg PUBLIC "-//W3C//DTD SVG 1.1//EN" "http://www.w3.org/Graphics/SVG/1.1/DTD/svg11.dtd">
<svg version="1.1" id="Layer_1" xmlns="http://www.w3.org/2000/svg" xmlns:xlink="http://www.w3.org/1999/xlink" x="0px" y="0px"
	 width="135.499px" height="25.078px" viewBox="229.89 372.217 135.499 25.078"
	 enable-background="new 229.89 372.217 135.499 25.078" xml:space="preserve">
<g>
	<path fill="#9A4794" d="M360.39,372.217h-20h-40.722h-43.271l-2.056,2.545c-0.19,0.233-0.476,0.371-0.778,0.371h-7.757
		c-0.302,0-0.588-0.138-0.778-0.371l-2.056-2.545h-8.083c-2.761,0-5,2.237-5,5v12.166c0,2.762,2.239,5,5,5h8.088l2.051,2.539
		c0.19,0.235,0.477,0.373,0.778,0.373h7.757c0.303,0,0.588-0.138,0.778-0.373l2.051-2.539h43.274h40.722h20c2.762,0,5-2.238,5-5
		v-12.166C365.39,374.454,363.151,372.217,360.39,372.217z"/>
	<g>
		<g>
			<g>
				<path fill="#FFFFFF" d="M239.062,383.112c-0.3-0.322-0.563-0.551-1.043-0.551c-0.78,0-1.332,0.623-1.332,1.486
					c0,0.899,0.552,1.463,1.332,1.463c0.479,0,0.839-0.265,1.091-0.623l1.26,0.959c-0.601,0.815-1.319,1.248-2.352,1.248
					c-1.763,0-3.01-1.344-3.01-3.047s1.247-3.045,2.998-3.045c0.924,0,1.655,0.395,2.219,1.03L239.062,383.112z"/>
				<path fill="#FFFFFF" d="M241.547,386.987v-8.996h1.679v3.539c0,0.097-0.012,0.252-0.036,0.408
					c0.385-0.553,0.973-0.949,1.775-0.949c1.211,0,2.123,0.949,2.123,2.521v3.479h-1.691v-3.383c0-0.814-0.516-1.234-1.08-1.234
					c-0.516,0-1.02,0.406-1.091,1.246v3.371L241.547,386.987L241.547,386.987z"/>
				<path fill="#FFFFFF" d="M253.977,386.987c-0.72,0-1.211-0.385-1.475-0.996c-0.336,0.564-1.043,1.115-2.087,1.115
					c-1.295,0-1.955-0.84-1.955-1.715c0-0.971,0.792-1.918,2.423-1.918c0.492,0,0.971,0.059,1.415,0.143v-0.19
					c0-0.576-0.396-0.959-1.043-0.959c-0.456,0-0.828,0.203-1.067,0.588l-1.175-0.877c0,0,0.671-1.199,2.327-1.199
					c1.631,0,2.626,0.973,2.626,2.375v1.764c0,0.215,0.144,0.349,0.36,0.349h0.239v1.522L253.977,386.987L253.977,386.987z
					 M252.297,384.659c-0.313-0.059-0.696-0.119-0.923-0.119c-0.685,0-1.211,0.229-1.211,0.707c0,0.324,0.239,0.541,0.684,0.541
					C251.554,385.788,252.082,385.297,252.297,384.659z"/>
				<path fill="#FFFFFF" d="M257.254,386.987h-1.679v-5.854h1.679v0.396c0,0.096-0.012,0.24-0.036,0.408
					c0.384-0.553,0.972-0.949,1.775-0.949c1.211,0,2.122,0.949,2.122,2.521v3.479h-1.69v-3.383c0-0.814-0.516-1.234-1.08-1.234
					c-0.504,0-1.067,0.406-1.091,1.188V386.987L257.254,386.987z"/>
				<path fill="#FFFFFF" d="M266.313,381.229l0.743-0.852l0.984,0.924l-0.696,0.694c0.336,0.408,0.528,0.912,0.528,1.464
					c0,1.465-1.2,2.436-2.676,2.436c-0.348,0-0.646-0.035-0.936-0.107c-0.516,0.433-0.563,0.96,0.228,0.96
					c0.553,0,0.912-0.229,1.716-0.229c3.059,0,3.034,4.27-1.008,4.27c-3.033,0-3.657-1.967-2.626-3.321
					c-0.432-0.672-0.252-1.703,0.553-2.326c-0.396-0.42-0.612-0.996-0.612-1.68c0-1.463,1.211-2.445,2.688-2.445
					C265.594,381.015,265.978,381.088,266.313,381.229z M263.687,388.149c-0.324,0.613,0.072,1.213,1.511,1.213
					c2.111,0,2.052-1.465,0.948-1.465c-0.647,0-1.295,0.277-2.146,0.277C263.891,388.176,263.783,388.163,263.687,388.149z
					 M265.198,384.517c0.66,0,1.092-0.373,1.092-1.057c0-0.695-0.433-1.091-1.092-1.091c-0.671,0-1.103,0.406-1.103,1.091
					C264.095,384.157,264.562,384.517,265.198,384.517z"/>
				<path fill="#FFFFFF" d="M270.55,384.422c0.12,0.971,0.72,1.33,1.379,1.33c0.647,0,1.091-0.3,1.379-0.72l1.115,0.804
					c-0.624,0.84-1.259,1.271-2.59,1.271c-1.715,0-2.976-1.26-2.976-3.059c0-1.666,1.127-3.045,2.927-3.045
					c1.979,0,2.759,1.413,2.759,3.213v0.205L270.55,384.422L270.55,384.422z M270.599,383.39h2.314
					c-0.108-0.672-0.624-1.021-1.14-1.021C271.234,382.37,270.767,382.706,270.599,383.39z"/>
				<path fill="#FFFFFF" d="M279.779,381.135v-2.086h1.68v2.086h0.828v1.559h-0.828v4.295h-1.68v-4.295h-0.814v-1.559H279.779z"/>
				<path fill="#FFFFFF" d="M284.794,384.422c0.12,0.971,0.72,1.33,1.379,1.33c0.647,0,1.091-0.3,1.379-0.72l1.115,0.804
					c-0.624,0.84-1.259,1.271-2.59,1.271c-1.716,0-2.976-1.26-2.976-3.059c0-1.666,1.127-3.045,2.926-3.045
					c1.979,0,2.76,1.413,2.76,3.213v0.205L284.794,384.422L284.794,384.422z M284.842,383.39h2.313
					c-0.107-0.672-0.623-1.021-1.139-1.021C285.478,382.37,285.01,382.706,284.842,383.39z"/>
				<path fill="#FFFFFF" d="M289.967,386.987v-5.854h1.679v0.301c0,0.106-0.023,0.299-0.048,0.479
					c0.348-0.563,0.912-0.924,1.607-0.924c0.852,0,1.366,0.396,1.643,0.961c0.42-0.563,1.067-0.961,1.859-0.961
					c1.198,0,1.931,0.816,1.931,2.219v3.779h-1.679v-3.658c0-0.637-0.456-0.959-0.912-0.959s-0.912,0.322-0.912,1.007v3.61h-1.679
					v-3.695c0-0.6-0.42-0.887-0.864-0.887c-0.456,0-0.923,0.313-0.947,0.912v3.67H289.967L289.967,386.987z"/>
				<path fill="#FFFFFF" d="M300.179,389.985v-8.852h1.679v0.588c0.456-0.48,1.057-0.719,1.703-0.719
					c1.619,0,2.543,1.475,2.543,3.032c0,1.584-0.888,3.07-2.531,3.07c-0.684,0-1.317-0.336-1.773-0.887v3.766L300.179,389.985
					L300.179,389.985z M304.437,384.06c0-0.863-0.433-1.559-1.308-1.559c-0.779,0-1.295,0.647-1.295,1.547
					c0,0.805,0.526,1.571,1.295,1.571C303.992,385.62,304.437,384.911,304.437,384.06z"/>
				<path fill="#FFFFFF" d="M306.923,384.049c0-1.738,1.343-3.045,3.059-3.045c1.715,0,3.059,1.307,3.059,3.045
					c0,1.739-1.344,3.047-3.059,3.047C308.266,387.095,306.923,385.788,306.923,384.049z M311.396,384.049
					c0-0.888-0.563-1.547-1.415-1.547c-0.863,0-1.427,0.659-1.427,1.547c0,0.899,0.587,1.561,1.427,1.561
					C310.833,385.608,311.396,384.948,311.396,384.049z"/>
				<path fill="#FFFFFF" d="M317.818,386.987v-8.996h1.681v3.73c0.455-0.48,1.055-0.719,1.703-0.719
					c1.618,0,2.542,1.475,2.542,3.032c0,1.584-0.889,3.07-2.53,3.07c-0.685,0-1.32-0.336-1.775-0.887v0.768L317.818,386.987
					L317.818,386.987z M322.076,384.06c0-0.863-0.433-1.559-1.309-1.559c-0.779,0-1.295,0.647-1.295,1.547
					c0,0.805,0.527,1.571,1.295,1.571C321.633,385.62,322.076,384.911,322.076,384.06z"/>
				<path fill="#FFFFFF" d="M326.289,386.34l-2.183-5.205h1.763l1.128,2.733c0.097,0.24,0.181,0.564,0.191,0.601
					c0-0.023,0.107-0.349,0.215-0.601l1.177-2.733h1.774l-4.042,9.127h-1.751L326.289,386.34z"/>
			</g>
		</g>
		<path fill="#FFFFFF" d="M349.965,391.438h3.149c4.244,0,7.687-3.439,7.687-7.684c0-4.245-3.441-7.687-7.687-7.687h-3.149h-7
			c-4.244,0-7.687,3.441-7.687,7.687c0,0,0-4.244,0,0c0,4.243,3.441,7.684,7.687,7.684H349.965z"/>
	</g>
</g>
</svg>
