<?xml version="1.0" encoding="utf-8"?>
<!-- Generator: Adobe Illustrator 15.0.0, SVG Export Plug-In . SVG Version: 6.00 Build 0)  -->
<!DOCTYPE svg PUBLIC "-//W3C//DTD SVG 1.1//EN" "http://www.w3.org/Graphics/SVG/1.1/DTD/svg11.dtd">
<svg version="1.1" id="Layer_1" xmlns="http://www.w3.org/2000/svg" xmlns:xlink="http://www.w3.org/1999/xlink" x="0px" y="0px"
	 width="183.499px" height="25.078px" viewBox="205.89 228.993 183.499 25.078"
	 enable-background="new 205.89 228.993 183.499 25.078" xml:space="preserve">
<g>
	<path fill="#9A4794" d="M384.39,228.993h-20h-2h-4h-14.14h-1.86h-6h-20h-14.722h-8.334h-17.666h-43.271l-2.056,2.545
		c-0.19,0.234-0.476,0.371-0.778,0.371h-7.757c-0.302,0-0.588-0.137-0.778-0.371l-2.055-2.545h-8.084c-2.762,0-5,2.238-5,5v12.166
		c0,2.762,2.238,5,5,5h8.088l2.051,2.539c0.19,0.236,0.478,0.373,0.778,0.373h7.757c0.304,0,0.588-0.137,0.778-0.373l2.051-2.539
		h43.274h17.666h8.334h14.722h20h6h1.86h14.14h4h2h20c2.762,0,5-2.238,5-5v-12.166C389.39,231.231,387.151,228.993,384.39,228.993z"
		/>
	<g>
		<g>
			<g>
				<path fill="#FFFFFF" d="M217.24,246.762v-8.852h1.679v0.588c0.456-0.479,1.055-0.72,1.703-0.72c1.619,0,2.542,1.475,2.542,3.034
					c0,1.583-0.889,3.069-2.531,3.069c-0.684,0-1.319-0.336-1.775-0.888v3.767L217.24,246.762L217.24,246.762z M221.498,240.837
					c0-0.862-0.433-1.559-1.309-1.559c-0.778,0-1.295,0.646-1.295,1.547c0,0.804,0.527,1.571,1.295,1.571
					C221.054,242.396,221.498,241.688,221.498,240.837z"/>
				<path fill="#FFFFFF" d="M224.344,243.764v-8.995h1.703v8.995H224.344z"/>
				<path fill="#FFFFFF" d="M232.933,243.764c-0.72,0-1.211-0.385-1.475-0.995c-0.336,0.563-1.043,1.115-2.087,1.115
					c-1.295,0-1.955-0.841-1.955-1.716c0-0.972,0.792-1.919,2.423-1.919c0.492,0,0.971,0.061,1.415,0.145v-0.192
					c0-0.575-0.396-0.959-1.043-0.959c-0.456,0-0.828,0.204-1.067,0.588l-1.175-0.876c0,0,0.671-1.199,2.327-1.199
					c1.631,0,2.626,0.973,2.626,2.375v1.764c0,0.216,0.144,0.348,0.359,0.348h0.24v1.523L232.933,243.764L232.933,243.764z
					 M231.253,241.437c-0.313-0.061-0.696-0.119-0.923-0.119c-0.685,0-1.211,0.228-1.211,0.707c0,0.324,0.239,0.54,0.684,0.54
					C230.51,242.564,231.038,242.072,231.253,241.437z"/>
				<path fill="#FFFFFF" d="M236.066,243.116l-2.183-5.205h1.763l1.127,2.734c0.097,0.24,0.181,0.563,0.192,0.6
					c0-0.023,0.107-0.348,0.216-0.6l1.175-2.734h1.775l-4.042,9.127h-1.751L236.066,243.116z"/>
				<path fill="#FFFFFF" d="M246.207,243.764h-1.68v-5.854h1.68v0.396c0,0.096-0.013,0.239-0.036,0.407
					c0.384-0.552,0.972-0.947,1.774-0.947c1.212,0,2.123,0.947,2.123,2.519v3.479h-1.69v-3.383c0-0.814-0.517-1.234-1.08-1.234
					c-0.504,0-1.067,0.407-1.091,1.188V243.764z"/>
				<path fill="#FFFFFF" d="M251.248,240.825c0-1.739,1.343-3.046,3.059-3.046c1.715,0,3.059,1.307,3.059,3.046
					s-1.344,3.047-3.059,3.047C252.591,243.872,251.248,242.564,251.248,240.825z M255.721,240.825c0-0.888-0.563-1.547-1.415-1.547
					c-0.864,0-1.427,0.659-1.427,1.547c0,0.899,0.587,1.561,1.427,1.561C255.157,242.385,255.721,241.725,255.721,240.825z"/>
				<path fill="#FFFFFF" d="M258.999,237.911v-2.087h1.679v2.087h0.828v1.56h-0.828v4.294h-1.679v-4.294h-0.815v-1.56H258.999z"/>
				<path fill="#FFFFFF" d="M264.014,241.197c0.12,0.972,0.72,1.331,1.379,1.331c0.647,0,1.091-0.3,1.379-0.72l1.115,0.804
					c-0.624,0.84-1.259,1.271-2.59,1.271c-1.715,0-2.976-1.26-2.976-3.059c0-1.667,1.128-3.046,2.927-3.046
					c1.979,0,2.759,1.415,2.759,3.214v0.204L264.014,241.197L264.014,241.197z M264.063,240.166h2.314
					c-0.108-0.672-0.624-1.02-1.14-1.02C264.698,239.146,264.23,239.482,264.063,240.166z"/>
			</g>
		</g>
		<g>
			<g>
				<path fill="#FFFFFF" d="M301.255,239.398v4.365h-1.703v-4.365h-0.84v-1.487h0.84v-1.056c0-1.415,0.995-2.23,2.159-2.23
					c0.407,0,0.768,0.071,1.065,0.203l-0.551,1.428c-0.107-0.06-0.24-0.096-0.372-0.096c-0.384,0-0.6,0.3-0.6,0.815v0.936h1.234
					v1.487H301.255z"/>
				<path fill="#FFFFFF" d="M303.308,240.825c0-1.739,1.343-3.046,3.06-3.046c1.715,0,3.058,1.307,3.058,3.046
					s-1.343,3.047-3.058,3.047C304.65,243.872,303.308,242.564,303.308,240.825z M307.781,240.825c0-0.888-0.563-1.547-1.414-1.547
					c-0.864,0-1.428,0.659-1.428,1.547c0,0.899,0.587,1.561,1.428,1.561C307.218,242.385,307.781,241.725,307.781,240.825z"/>
				<path fill="#FFFFFF" d="M312.283,243.764h-1.681v-5.854h1.681v0.396c0,0.132-0.024,0.348-0.062,0.575
					c0.336-0.636,0.863-1.115,1.631-1.115v1.644c-0.875,0-1.569,0.504-1.569,1.463V243.764z"/>
			</g>
		</g>
		<g>
			<g>
				<path fill="#FFFFFF" d="M349.24,243.764v-8.995h1.68v3.729c0.456-0.479,1.056-0.72,1.703-0.72c1.618,0,2.542,1.475,2.542,3.034
					c0,1.583-0.888,3.069-2.53,3.069c-0.684,0-1.319-0.336-1.774-0.888v0.769L349.24,243.764L349.24,243.764z M353.498,240.837
					c0-0.862-0.434-1.559-1.31-1.559c-0.778,0-1.295,0.646-1.295,1.547c0,0.804,0.527,1.571,1.295,1.571
					C353.054,242.396,353.498,241.688,353.498,240.837z"/>
				<path fill="#FFFFFF" d="M357.675,241.197c0.12,0.972,0.72,1.331,1.38,1.331c0.647,0,1.091-0.3,1.379-0.72l1.115,0.804
					c-0.623,0.84-1.26,1.271-2.59,1.271c-1.716,0-2.976-1.26-2.976-3.059c0-1.667,1.127-3.046,2.927-3.046
					c1.979,0,2.759,1.415,2.759,3.214v0.204L357.675,241.197L357.675,241.197z M357.723,240.166h2.314
					c-0.107-0.672-0.623-1.02-1.14-1.02C358.358,239.146,357.891,239.482,357.723,240.166z"/>
				<path fill="#FFFFFF" d="M368.197,243.764c-0.721,0-1.212-0.385-1.476-0.995c-0.336,0.563-1.044,1.115-2.087,1.115
					c-1.295,0-1.955-0.841-1.955-1.716c0-0.972,0.791-1.919,2.423-1.919c0.491,0,0.972,0.061,1.415,0.145v-0.192
					c0-0.575-0.396-0.959-1.043-0.959c-0.456,0-0.828,0.204-1.068,0.588l-1.175-0.876c0,0,0.672-1.199,2.327-1.199
					c1.631,0,2.626,0.973,2.626,2.375v1.764c0,0.216,0.145,0.348,0.36,0.348h0.239v1.523L368.197,243.764L368.197,243.764z
					 M366.518,241.437c-0.312-0.061-0.695-0.119-0.924-0.119c-0.684,0-1.211,0.228-1.211,0.707c0,0.324,0.24,0.54,0.684,0.54
					C365.773,242.564,366.302,242.072,366.518,241.437z"/>
				<path fill="#FFFFFF" d="M370.251,237.911v-2.087h1.679v2.087h0.828v1.56h-0.828v4.294h-1.679v-4.294h-0.815v-1.56H370.251z"/>
				<path fill="#FFFFFF" d="M374.523,241.797c0.407,0.469,1.056,0.659,1.618,0.659c0.36,0,0.624-0.144,0.624-0.358
					c0-0.301-0.3-0.443-0.791-0.589c-0.912-0.264-2.039-0.768-2.039-1.954c0-1.127,1.091-1.764,2.074-1.764
					c0.888,0,1.512,0.3,2.039,0.853l-0.937,1.008c-0.252-0.276-0.72-0.528-1.066-0.528c-0.313,0-0.54,0.146-0.54,0.372
					c0,0.288,0.336,0.433,0.863,0.588c0.889,0.265,2.026,0.815,2.026,1.932c0,1.104-0.946,1.871-2.267,1.871
					c-1.056,0-1.919-0.301-2.555-0.983L374.523,241.797z"/>
			</g>
		</g>
		<path fill="#FFFFFF" d="M333.002,247.633h3.149c4.244,0,7.687-3.438,7.687-7.684s-3.441-7.686-7.687-7.686h-3.149h-7
			c-4.244,0-7.687,3.44-7.687,7.686c0,0,0-4.244,0,0s3.441,7.684,7.687,7.684H333.002z"/>
		<path fill="#FFFFFF" d="M274.771,239.948c0,4.244,3.439,7.684,7.685,7.684h3.151c4.242,0,7.685-3.438,7.685-7.684
			c0-4.242-3.441-7.684-7.685-7.684h-3.151C278.211,232.265,274.771,235.706,274.771,239.948
			C274.771,239.948,274.771,235.706,274.771,239.948z"/>
	</g>
</g>
</svg>
