<?xml version="1.0" encoding="utf-8"?>
<!-- Generator: Adobe Illustrator 15.0.0, SVG Export Plug-In . SVG Version: 6.00 Build 0)  -->
<!DOCTYPE svg PUBLIC "-//W3C//DTD SVG 1.1//EN" "http://www.w3.org/Graphics/SVG/1.1/DTD/svg11.dtd">
<svg version="1.1" id="Layer_1" xmlns="http://www.w3.org/2000/svg" xmlns:xlink="http://www.w3.org/1999/xlink" x="0px" y="0px"
	 width="195.5px" height="25.078px" viewBox="205.303 37.126 195.5 25.078" enable-background="new 205.303 37.126 195.5 25.078"
	 xml:space="preserve">
<g>
	<path fill="#9A4794" d="M395.803,37.126h-0.589h-6.133h-0.278h-0.589h-6.133h-6.278h-0.589h-5.801h-0.332h-0.278h-0.589h-6.133
		h-0.278h-0.589h-6.133h-4.873H350h-0.587h-0.61h-0.589h-6.133h-0.278h-0.589h-6.133h-4.873h-7.795h-11.61h-0.589h-6.133h-0.278
		h-0.589h-0.006h-6.127h-12.668h-52.603l-2.056,2.545c-0.19,0.235-0.477,0.372-0.778,0.372h-7.757c-0.303,0-0.588-0.137-0.778-0.372
		l-2.056-2.545h-8.083c-2.762,0-5,2.238-5,5v12.167c0,2.763,2.238,4.999,5,4.999h8.088l2.051,2.539
		c0.19,0.236,0.477,0.373,0.778,0.373h7.757c0.303,0,0.588-0.137,0.778-0.373l2.051-2.539h52.606h12.668h6.127h0.006h0.589h0.278
		h6.133h0.589h11.61h7.795h4.873h6.133h0.589h0.278h6.133h0.589h0.61H350h0.208h4.873h6.133h0.589h0.278h6.133h0.589h0.278h0.332
		h5.801h0.589h6.278h6.133h0.589h0.278h6.133h0.589c2.762,0,5-2.236,5-4.999V42.126C400.803,39.364,398.564,37.126,395.803,37.126z"
		/>
	<g>
		<g>
			<g>
				<path fill="#FFFFFF" d="M212.468,54.896v-8.852h1.679v0.588c0.456-0.479,1.056-0.72,1.703-0.72c1.619,0,2.542,1.476,2.542,3.034
					c0,1.583-0.888,3.07-2.531,3.07c-0.684,0-1.318-0.336-1.774-0.889v3.767L212.468,54.896L212.468,54.896z M216.726,48.971
					c0-0.863-0.432-1.56-1.308-1.56c-0.779,0-1.295,0.647-1.295,1.547c0,0.805,0.526,1.571,1.295,1.571
					C216.282,50.53,216.726,49.822,216.726,48.971z"/>
				<path fill="#FFFFFF" d="M219.572,51.897v-8.995h1.703v8.995H219.572z"/>
				<path fill="#FFFFFF" d="M228.161,51.897c-0.721,0-1.211-0.384-1.476-0.995c-0.336,0.563-1.043,1.115-2.087,1.115
					c-1.295,0-1.955-0.84-1.955-1.715c0-0.973,0.792-1.92,2.423-1.92c0.492,0,0.972,0.061,1.415,0.145v-0.192
					c0-0.574-0.396-0.959-1.043-0.959c-0.456,0-0.828,0.204-1.066,0.588l-1.176-0.876c0,0,0.672-1.198,2.327-1.198
					c1.631,0,2.626,0.972,2.626,2.375v1.763c0,0.216,0.145,0.348,0.36,0.348h0.24v1.523L228.161,51.897L228.161,51.897z
					 M226.482,49.57c-0.312-0.06-0.695-0.119-0.923-0.119c-0.684,0-1.211,0.229-1.211,0.707c0,0.324,0.24,0.54,0.685,0.54
					C225.738,50.698,226.266,50.206,226.482,49.57z"/>
				<path fill="#FFFFFF" d="M231.295,51.25l-2.184-5.205h1.764l1.127,2.734c0.096,0.24,0.18,0.563,0.191,0.6
					c0-0.023,0.108-0.348,0.217-0.6l1.175-2.734h1.774l-4.042,9.127h-1.751L231.295,51.25z"/>
				<path fill="#FFFFFF" d="M240.344,49.931c0.408,0.468,1.055,0.658,1.619,0.658c0.358,0,0.624-0.144,0.624-0.358
					c0-0.3-0.3-0.443-0.792-0.588c-0.912-0.265-2.039-0.769-2.039-1.955c0-1.127,1.091-1.764,2.075-1.764
					c0.888,0,1.511,0.301,2.039,0.853l-0.937,1.008c-0.252-0.276-0.72-0.528-1.066-0.528c-0.313,0-0.54,0.146-0.54,0.372
					c0,0.288,0.335,0.433,0.862,0.588c0.889,0.265,2.027,0.815,2.027,1.932c0,1.104-0.947,1.871-2.267,1.871
					c-1.057,0-1.92-0.3-2.556-0.983L240.344,49.931z"/>
				<path fill="#FFFFFF" d="M245.036,48.959c0-1.738,1.343-3.046,3.059-3.046c1.715,0,3.058,1.308,3.058,3.046
					c0,1.739-1.343,3.047-3.058,3.047C246.379,52.006,245.036,50.698,245.036,48.959z M249.509,48.959
					c0-0.888-0.564-1.547-1.415-1.547c-0.864,0-1.427,0.659-1.427,1.547c0,0.899,0.587,1.561,1.427,1.561
					C248.945,50.519,249.509,49.858,249.509,48.959z"/>
				<path fill="#FFFFFF" d="M257.825,51.897h-1.68v-0.396c0-0.097,0.013-0.239,0.036-0.407c-0.384,0.552-0.983,0.946-1.774,0.946
					c-1.212,0-2.123-0.946-2.123-2.519v-3.479h1.69v3.382c0,0.815,0.517,1.235,1.08,1.235c0.503,0,1.055-0.396,1.091-1.188v-3.431
					h1.68V51.897z"/>
				<path fill="#FFFFFF" d="M261.042,51.897h-1.68v-5.854h1.68v0.396c0,0.096-0.013,0.24-0.036,0.408
					c0.384-0.553,0.972-0.948,1.774-0.948c1.212,0,2.123,0.948,2.123,2.519v3.479h-1.69v-3.382c0-0.815-0.517-1.235-1.08-1.235
					c-0.504,0-1.067,0.407-1.091,1.188V51.897L261.042,51.897z"/>
				<path fill="#FFFFFF" d="M270.401,51.897V51.13c-0.468,0.553-1.092,0.889-1.774,0.889c-1.644,0-2.53-1.487-2.53-3.07
					c0-1.56,0.923-3.034,2.542-3.034c0.647,0,1.247,0.239,1.703,0.721v-3.73h1.679v8.995h-1.619V51.897z M270.365,48.959
					c0-0.898-0.516-1.547-1.295-1.547c-0.875,0-1.307,0.695-1.307,1.56c0,0.852,0.444,1.56,1.307,1.56
					C269.837,50.53,270.365,49.763,270.365,48.959z"/>
			</g>
		</g>
		<g>
			<g>
				<path fill="#FFFFFF" d="M344.961,51.897h-1.679v-0.396c0-0.097,0.012-0.239,0.035-0.407c-0.384,0.552-0.983,0.946-1.774,0.946
					c-1.211,0-2.123-0.946-2.123-2.519v-3.479h1.69v3.382c0,0.815,0.517,1.235,1.08,1.235c0.503,0,1.056-0.396,1.092-1.188v-3.431
					h1.679V51.897L344.961,51.897z"/>
				<path fill="#FFFFFF" d="M348.18,51.897h-1.68v-5.854h1.68v0.396c0,0.096-0.013,0.24-0.037,0.408
					c0.385-0.553,0.974-0.948,1.775-0.948c1.211,0,2.123,0.948,2.123,2.519v3.479h-1.691v-3.382c0-0.815-0.516-1.235-1.079-1.235
					c-0.504,0-1.066,0.407-1.091,1.188V51.897L348.18,51.897z"/>
				<path fill="#FFFFFF" d="M354.035,46.045v-2.087h1.68v2.087h0.828v1.56h-0.828v4.294h-1.68v-4.294h-0.814v-1.56H354.035z"/>
				<path fill="#FFFFFF" d="M358.655,43.13c0.601,0,1.104,0.505,1.104,1.104s-0.504,1.104-1.104,1.104
					c-0.6,0-1.104-0.504-1.104-1.104S358.056,43.13,358.655,43.13z M357.779,51.897v-5.854h1.716v5.854H357.779z"/>
				<path fill="#FFFFFF" d="M361.128,51.897v-8.995h1.703v8.995H361.128z"/>
				<path fill="#FFFFFF" d="M371.926,51.897V51.13c-0.468,0.553-1.092,0.889-1.775,0.889c-1.643,0-2.529-1.487-2.529-3.07
					c0-1.56,0.923-3.034,2.542-3.034c0.647,0,1.248,0.239,1.703,0.721v-3.73h1.68v8.995h-1.62V51.897z M371.89,48.959
					c0-0.898-0.516-1.547-1.296-1.547c-0.875,0-1.307,0.695-1.307,1.56c0,0.852,0.442,1.56,1.307,1.56
					C371.361,50.53,371.89,49.763,371.89,48.959z"/>
				<path fill="#FFFFFF" d="M374.724,48.959c0-1.738,1.343-3.046,3.06-3.046c1.715,0,3.058,1.308,3.058,3.046
					c0,1.739-1.343,3.047-3.058,3.047C376.066,52.006,374.724,50.698,374.724,48.959z M379.197,48.959
					c0-0.888-0.563-1.547-1.415-1.547c-0.863,0-1.427,0.659-1.427,1.547c0,0.899,0.587,1.561,1.427,1.561
					C378.634,50.519,379.197,49.858,379.197,48.959z"/>
				<path fill="#FFFFFF" d="M383.699,51.897h-1.681v-5.854h1.681v0.396c0,0.096-0.014,0.24-0.037,0.408
					c0.385-0.553,0.973-0.948,1.774-0.948c1.211,0,2.123,0.948,2.123,2.519v3.479h-1.69v-3.382c0-0.815-0.517-1.235-1.079-1.235
					c-0.504,0-1.067,0.407-1.092,1.188L383.699,51.897L383.699,51.897z"/>
				<path fill="#FFFFFF" d="M390.431,49.331c0.12,0.973,0.72,1.331,1.38,1.331c0.647,0,1.091-0.3,1.379-0.72l1.115,0.804
					c-0.623,0.84-1.26,1.271-2.59,1.271c-1.716,0-2.976-1.261-2.976-3.06c0-1.667,1.128-3.046,2.927-3.046
					c1.979,0,2.759,1.415,2.759,3.214v0.204L390.431,49.331L390.431,49.331z M390.479,48.3h2.314c-0.107-0.672-0.623-1.02-1.14-1.02
					C391.114,47.28,390.646,47.616,390.479,48.3z"/>
			</g>
		</g>
		<rect x="277.096" y="41.025" fill="#FFFFFF" width="57.312" height="14.779"/>
	</g>
</g>
</svg>
