<?xml version="1.0" encoding="utf-8"?>
<!-- Generator: Adobe Illustrator 15.0.0, SVG Export Plug-In . SVG Version: 6.00 Build 0)  -->
<!DOCTYPE svg PUBLIC "-//W3C//DTD SVG 1.1//EN" "http://www.w3.org/Graphics/SVG/1.1/DTD/svg11.dtd">
<svg version="1.1" id="Layer_1" xmlns="http://www.w3.org/2000/svg" xmlns:xlink="http://www.w3.org/1999/xlink" x="0px" y="0px"
	 width="135.499px" height="25.078px" viewBox="229.89 340.217 135.499 25.078"
	 enable-background="new 229.89 340.217 135.499 25.078" xml:space="preserve">
<g>
	<path fill="#9A4794" d="M360.39,340.217h-20h-40.722h-43.271l-2.056,2.545c-0.19,0.233-0.476,0.371-0.778,0.371h-7.757
		c-0.302,0-0.588-0.138-0.778-0.371l-2.055-2.545h-8.084c-2.762,0-5,2.237-5,5v12.166c0,2.762,2.238,5,5,5h8.088l2.051,2.539
		c0.19,0.235,0.478,0.373,0.778,0.373h7.757c0.304,0,0.588-0.138,0.778-0.373l2.051-2.539h43.274h40.722h20c2.762,0,5-2.238,5-5
		v-12.166C365.39,342.454,363.151,340.217,360.39,340.217z"/>
	<g>
		<g>
			<g>
				<path fill="#FFFFFF" d="M239.495,353.021c0.407,0.467,1.055,0.658,1.618,0.658c0.36,0,0.624-0.144,0.624-0.359
					c0-0.299-0.3-0.442-0.792-0.588c-0.911-0.264-2.039-0.768-2.039-1.955c0-1.127,1.092-1.762,2.075-1.762
					c0.889,0,1.512,0.299,2.039,0.852l-0.936,1.008c-0.252-0.276-0.721-0.528-1.067-0.528c-0.312,0-0.54,0.145-0.54,0.373
					c0,0.287,0.335,0.432,0.863,0.588c0.888,0.264,2.027,0.813,2.027,1.93c0,1.104-0.947,1.871-2.268,1.871
					c-1.056,0-1.919-0.299-2.555-0.981L239.495,353.021z"/>
				<path fill="#FFFFFF" d="M245.877,352.422c0.12,0.971,0.72,1.33,1.379,1.33c0.646,0,1.091-0.3,1.379-0.72l1.115,0.804
					c-0.624,0.84-1.259,1.271-2.59,1.271c-1.716,0-2.976-1.26-2.976-3.059c0-1.666,1.127-3.045,2.926-3.045
					c1.979,0,2.76,1.413,2.76,3.213v0.205L245.877,352.422L245.877,352.422z M245.926,351.39h2.313
					c-0.107-0.672-0.623-1.021-1.139-1.021C246.562,350.37,246.094,350.706,245.926,351.39z"/>
				<path fill="#FFFFFF" d="M251.506,349.135v-2.086h1.679v2.086h0.828v1.559h-0.828v4.295h-1.679v-4.295h-0.815v-1.559H251.506z"/>
				<path fill="#FFFFFF" d="M260.277,354.987l-2.135-5.854h1.823l1.066,3.047c0.12,0.336,0.192,0.756,0.204,0.84
					c0.013-0.062,0.084-0.492,0.204-0.84l1.067-3.047h1.823l-2.136,5.854H260.277z"/>
				<path fill="#FFFFFF" d="M264.862,352.049c0-1.738,1.344-3.045,3.06-3.045c1.715,0,3.058,1.307,3.058,3.045
					c0,1.739-1.343,3.047-3.058,3.047S264.862,353.788,264.862,352.049z M269.336,352.049c0-0.888-0.563-1.547-1.415-1.547
					c-0.864,0-1.427,0.659-1.427,1.547c0,0.899,0.587,1.561,1.427,1.561C268.772,353.608,269.336,352.948,269.336,352.049z"/>
				<path fill="#FFFFFF" d="M272.158,354.987v-8.996h1.702v8.996H272.158z"/>
				<path fill="#FFFFFF" d="M280.891,354.987h-1.679v-0.396c0-0.097,0.012-0.24,0.036-0.408c-0.385,0.553-0.984,0.947-1.775,0.947
					c-1.211,0-2.123-0.947-2.123-2.519v-3.479h1.691v3.383c0,0.813,0.516,1.233,1.08,1.233c0.503,0,1.055-0.395,1.091-1.188v-3.43
					h1.679V354.987L280.891,354.987z"/>
				<path fill="#FFFFFF" d="M282.43,354.987v-5.854h1.679v0.301c0,0.106-0.023,0.299-0.048,0.479
					c0.349-0.563,0.912-0.924,1.607-0.924c0.852,0,1.367,0.396,1.643,0.961c0.42-0.563,1.067-0.961,1.859-0.961
					c1.199,0,1.931,0.816,1.931,2.219v3.779h-1.679v-3.658c0-0.637-0.456-0.959-0.912-0.959s-0.912,0.322-0.912,1.007v3.61h-1.679
					v-3.695c0-0.6-0.42-0.887-0.864-0.887c-0.456,0-0.923,0.313-0.947,0.912v3.67H282.43L282.43,354.987z"/>
				<path fill="#FFFFFF" d="M293.973,352.422c0.12,0.971,0.72,1.33,1.379,1.33c0.648,0,1.091-0.3,1.379-0.72l1.115,0.804
					c-0.624,0.84-1.259,1.271-2.59,1.271c-1.715,0-2.976-1.26-2.976-3.059c0-1.666,1.128-3.045,2.927-3.045
					c1.979,0,2.759,1.413,2.759,3.213v0.205L293.973,352.422L293.973,352.422z M294.021,351.39h2.314
					c-0.108-0.672-0.624-1.021-1.14-1.021C294.656,350.37,294.189,350.706,294.021,351.39z"/>
				<path fill="#FFFFFF" d="M303.201,349.135v-2.086h1.679v2.086h0.827v1.559h-0.827v4.295h-1.679v-4.295h-0.816v-1.559H303.201z"/>
				<path fill="#FFFFFF" d="M306.525,352.049c0-1.738,1.344-3.045,3.06-3.045c1.715,0,3.058,1.307,3.058,3.045
					c0,1.739-1.343,3.047-3.058,3.047C307.868,355.095,306.525,353.788,306.525,352.049z M310.998,352.049
					c0-0.888-0.563-1.547-1.414-1.547c-0.864,0-1.429,0.659-1.429,1.547c0,0.899,0.589,1.561,1.429,1.561
					C310.435,353.608,310.998,352.948,310.998,352.049z"/>
			</g>
		</g>
		<g>
			<g>
				<path fill="#FFFFFF" d="M348.26,348.415c0-1.057,0.828-1.883,1.871-1.883c1.044,0,1.871,0.826,1.871,1.883
					c0,1.044-0.827,1.871-1.871,1.871C349.088,350.286,348.26,349.459,348.26,348.415z M348.824,354.987l5.743-8.396h1.645
					l-5.745,8.396H348.824z M350.839,348.415c0-0.396-0.323-0.709-0.708-0.709c-0.396,0-0.707,0.313-0.707,0.709
					c0,0.384,0.313,0.695,0.707,0.695C350.516,349.11,350.839,348.799,350.839,348.415z M353.058,353.177
					c0-1.045,0.827-1.871,1.871-1.871s1.871,0.826,1.871,1.871c0,1.043-0.827,1.869-1.871,1.869S353.058,354.22,353.058,353.177z
					 M355.637,353.177c0-0.385-0.324-0.709-0.708-0.709c-0.396,0-0.708,0.324-0.708,0.709c0,0.395,0.313,0.707,0.708,0.707
					C355.313,353.885,355.637,353.571,355.637,353.177z"/>
			</g>
		</g>
		<path fill="#FFFFFF" d="M332.623,359.438h3.149c4.244,0,7.687-3.439,7.687-7.684c0-4.245-3.441-7.687-7.687-7.687h-3.149h-7
			c-4.244,0-7.687,3.441-7.687,7.687c0,0,0-4.244,0,0c0,4.243,3.441,7.684,7.687,7.684H332.623z"/>
	</g>
</g>
</svg>
