<?xml version="1.0" encoding="utf-8"?>
<!-- Generator: Adobe Illustrator 15.0.0, SVG Export Plug-In . SVG Version: 6.00 Build 0)  -->
<!DOCTYPE svg PUBLIC "-//W3C//DTD SVG 1.1//EN" "http://www.w3.org/Graphics/SVG/1.1/DTD/svg11.dtd">
<svg version="1.1" id="Layer_1" xmlns="http://www.w3.org/2000/svg" xmlns:xlink="http://www.w3.org/1999/xlink" x="0px" y="0px"
	 width="125.5px" height="25.078px" viewBox="234.889 188.69 125.5 25.078" enable-background="new 234.889 188.69 125.5 25.078"
	 xml:space="preserve">
<g>
	<g>
		<path fill="#9A4794" d="M355.39,188.69h-6.063h-3.938h-3.723h-10.999h-8.334h-17.666h-43.271l-2.056,2.545
			c-0.19,0.234-0.476,0.371-0.778,0.371h-7.757c-0.302,0-0.588-0.137-0.778-0.371l-2.055-2.545h-8.084c-2.762,0-5,2.238-5,5v12.166
			c0,2.762,2.238,5,5,5h8.088l2.051,2.539c0.19,0.235,0.478,0.373,0.778,0.373h7.757c0.304,0,0.588-0.138,0.778-0.373l2.051-2.539
			h43.274h17.666h8.334h10.999h3.723h3.938h6.063c2.762,0,5-2.238,5-5V193.69C360.39,190.929,358.151,188.69,355.39,188.69z"/>
		<g>
			<g>
				<path fill="#FFFFFF" d="M245.419,203.461h-1.679v-5.853h1.679v0.396c0,0.133-0.024,0.349-0.061,0.576
					c0.336-0.636,0.863-1.116,1.632-1.116v1.645c-0.875,0-1.571,0.504-1.571,1.463V203.461z"/>
				<path fill="#FFFFFF" d="M249.522,200.895c0.12,0.972,0.721,1.331,1.379,1.331c0.648,0,1.092-0.301,1.379-0.721l1.115,0.805
					c-0.624,0.84-1.259,1.271-2.59,1.271c-1.715,0-2.975-1.26-2.975-3.059c0-1.667,1.127-3.046,2.926-3.046
					c1.979,0,2.759,1.415,2.759,3.214v0.204L249.522,200.895L249.522,200.895z M249.571,199.863h2.314
					c-0.108-0.672-0.624-1.02-1.139-1.02C250.206,198.844,249.739,199.18,249.571,199.863z"/>
				<path fill="#FFFFFF" d="M255.283,201.494c0.407,0.468,1.055,0.659,1.618,0.659c0.359,0,0.624-0.145,0.624-0.359
					c0-0.3-0.3-0.442-0.792-0.588c-0.912-0.264-2.039-0.768-2.039-1.955c0-1.127,1.092-1.763,2.075-1.763
					c0.889,0,1.511,0.3,2.039,0.852l-0.936,1.009c-0.252-0.276-0.721-0.528-1.067-0.528c-0.312,0-0.54,0.145-0.54,0.372
					c0,0.288,0.335,0.432,0.863,0.588c0.888,0.264,2.027,0.815,2.027,1.931c0,1.104-0.947,1.871-2.268,1.871
					c-1.056,0-1.919-0.3-2.555-0.982L255.283,201.494z"/>
				<path fill="#FFFFFF" d="M260.791,197.608v-2.087h1.679v2.087h0.828v1.559h-0.828v4.294h-1.679v-4.294h-0.815v-1.559H260.791z"/>
				<path fill="#FFFFFF" d="M270.089,199.096v4.364h-1.703v-4.364h-0.84v-1.487h0.84v-1.056c0-1.415,0.995-2.23,2.159-2.23
					c0.408,0,0.768,0.071,1.066,0.203l-0.552,1.428c-0.107-0.06-0.24-0.096-0.372-0.096c-0.384,0-0.6,0.3-0.6,0.814v0.937h1.234
					v1.487H270.089z"/>
				<path fill="#FFFFFF" d="M272.142,200.522c0-1.739,1.343-3.046,3.06-3.046c1.715,0,3.058,1.307,3.058,3.046
					s-1.343,3.047-3.058,3.047C273.485,203.569,272.142,202.262,272.142,200.522z M276.616,200.522c0-0.889-0.564-1.547-1.415-1.547
					c-0.864,0-1.428,0.658-1.428,1.547c0,0.898,0.587,1.56,1.428,1.56C276.052,202.082,276.616,201.422,276.616,200.522z"/>
				<path fill="#FFFFFF" d="M281.117,203.461h-1.68v-5.853h1.68v0.396c0,0.133-0.024,0.349-0.061,0.576
					c0.336-0.636,0.863-1.116,1.631-1.116v1.645c-0.875,0-1.57,0.504-1.57,1.463V203.461z"/>
			</g>
		</g>
		<g>
			<g>
				<path fill="#FFFFFF" d="M318.74,203.461v-8.995h1.68v3.73c0.456-0.48,1.056-0.72,1.703-0.72c1.618,0,2.542,1.475,2.542,3.034
					c0,1.582-0.888,3.069-2.53,3.069c-0.684,0-1.319-0.336-1.774-0.888v0.768L318.74,203.461L318.74,203.461z M322.998,200.534
					c0-0.863-0.434-1.559-1.31-1.559c-0.778,0-1.295,0.646-1.295,1.547c0,0.804,0.527,1.57,1.295,1.57
					C322.554,202.094,322.998,201.386,322.998,200.534z"/>
				<path fill="#FFFFFF" d="M327.175,200.895c0.12,0.972,0.72,1.331,1.38,1.331c0.647,0,1.091-0.301,1.379-0.721l1.115,0.805
					c-0.623,0.84-1.26,1.271-2.59,1.271c-1.716,0-2.976-1.26-2.976-3.059c0-1.667,1.127-3.046,2.927-3.046
					c1.979,0,2.759,1.415,2.759,3.214v0.204L327.175,200.895L327.175,200.895z M327.223,199.863h2.314
					c-0.107-0.672-0.623-1.02-1.14-1.02C327.858,198.844,327.391,199.18,327.223,199.863z"/>
				<path fill="#FFFFFF" d="M337.697,203.461c-0.721,0-1.212-0.384-1.476-0.995c-0.336,0.563-1.044,1.115-2.087,1.115
					c-1.295,0-1.955-0.84-1.955-1.715c0-0.972,0.791-1.919,2.423-1.919c0.491,0,0.972,0.06,1.415,0.144v-0.191
					c0-0.575-0.396-0.959-1.043-0.959c-0.456,0-0.828,0.204-1.068,0.588l-1.175-0.876c0,0,0.672-1.199,2.327-1.199
					c1.631,0,2.626,0.972,2.626,2.375v1.763c0,0.217,0.145,0.349,0.36,0.349h0.239v1.522L337.697,203.461L337.697,203.461z
					 M336.018,201.134c-0.312-0.06-0.695-0.118-0.924-0.118c-0.684,0-1.211,0.228-1.211,0.707c0,0.323,0.24,0.54,0.684,0.54
					C335.273,202.262,335.802,201.77,336.018,201.134z"/>
				<path fill="#FFFFFF" d="M339.751,197.608v-2.087h1.679v2.087h0.828v1.559h-0.828v4.294h-1.679v-4.294h-0.815v-1.559H339.751z"/>
				<path fill="#FFFFFF" d="M344.023,201.494c0.407,0.468,1.056,0.659,1.618,0.659c0.36,0,0.624-0.145,0.624-0.359
					c0-0.3-0.3-0.442-0.791-0.588c-0.912-0.264-2.039-0.768-2.039-1.955c0-1.127,1.091-1.763,2.074-1.763
					c0.888,0,1.512,0.3,2.039,0.852l-0.937,1.009c-0.252-0.276-0.72-0.528-1.066-0.528c-0.313,0-0.54,0.145-0.54,0.372
					c0,0.288,0.336,0.432,0.863,0.588c0.889,0.264,2.026,0.815,2.026,1.931c0,1.104-0.946,1.871-2.267,1.871
					c-1.056,0-1.919-0.3-2.555-0.982L344.023,201.494z"/>
			</g>
		</g>
		<path fill="#FFFFFF" d="M302.012,207.913h3.151c4.242,0,7.685-3.438,7.685-7.684s-3.441-7.687-7.685-7.687h-3.151h-7
			c-4.244,0-7.685,3.441-7.685,7.687c0,0,0-4.244,0,0s3.439,7.684,7.685,7.684H302.012z"/>
	</g>
</g>
</svg>
