<?xml version="1.0" encoding="utf-8"?>
<!-- Generator: Adobe Illustrator 15.0.0, SVG Export Plug-In . SVG Version: 6.00 Build 0)  -->
<!DOCTYPE svg PUBLIC "-//W3C//DTD SVG 1.1//EN" "http://www.w3.org/Graphics/SVG/1.1/DTD/svg11.dtd">
<svg version="1.1" id="Layer_1" xmlns="http://www.w3.org/2000/svg" xmlns:xlink="http://www.w3.org/1999/xlink" x="0px" y="0px"
	 width="183.499px" height="25.078px" viewBox="205.89 152.69 183.499 25.078"
	 enable-background="new 205.89 152.69 183.499 25.078" xml:space="preserve">
<g>
	<path fill="#9A4794" d="M384.39,152.69h-20h-2h-4h-14.14h-1.86h-6h-20h-14.722h-8.334h-17.666h-43.271l-2.056,2.545
		c-0.19,0.234-0.476,0.371-0.778,0.371h-7.757c-0.302,0-0.588-0.137-0.778-0.371l-2.055-2.545h-8.084c-2.762,0-5,2.238-5,5v12.166
		c0,2.762,2.238,5,5,5h8.088l2.051,2.539c0.19,0.235,0.478,0.373,0.778,0.373h7.757c0.304,0,0.588-0.138,0.778-0.373l2.051-2.539
		h43.274h17.666h8.334h14.722h20h6h1.86h14.14h4h2h20c2.762,0,5-2.238,5-5V157.69C389.39,154.929,387.151,152.69,384.39,152.69z"/>
	<g>
		<g>
			<g>
				<path fill="#FFFFFF" d="M214.74,170.459v-8.851h1.679v0.588c0.456-0.48,1.055-0.72,1.703-0.72c1.619,0,2.542,1.475,2.542,3.034
					c0,1.582-0.889,3.069-2.531,3.069c-0.684,0-1.319-0.336-1.775-0.888v3.766L214.74,170.459L214.74,170.459z M218.998,164.534
					c0-0.863-0.433-1.559-1.309-1.559c-0.778,0-1.295,0.646-1.295,1.547c0,0.804,0.527,1.57,1.295,1.57
					C218.554,166.094,218.998,165.386,218.998,164.534z"/>
				<path fill="#FFFFFF" d="M221.844,167.461v-8.995h1.703v8.995H221.844z"/>
				<path fill="#FFFFFF" d="M230.433,167.461c-0.72,0-1.211-0.384-1.475-0.995c-0.336,0.563-1.043,1.115-2.087,1.115
					c-1.295,0-1.955-0.84-1.955-1.715c0-0.972,0.792-1.919,2.423-1.919c0.492,0,0.971,0.06,1.415,0.144v-0.191
					c0-0.575-0.396-0.959-1.043-0.959c-0.456,0-0.828,0.204-1.067,0.588l-1.175-0.876c0,0,0.671-1.199,2.327-1.199
					c1.631,0,2.626,0.972,2.626,2.375v1.763c0,0.217,0.144,0.349,0.359,0.349h0.24v1.522L230.433,167.461L230.433,167.461z
					 M228.753,165.134c-0.313-0.06-0.696-0.118-0.923-0.118c-0.685,0-1.211,0.228-1.211,0.707c0,0.323,0.239,0.54,0.684,0.54
					C228.01,166.262,228.538,165.77,228.753,165.134z"/>
				<path fill="#FFFFFF" d="M233.566,166.813l-2.183-5.205h1.763l1.127,2.733c0.097,0.24,0.181,0.563,0.192,0.601
					c0-0.024,0.107-0.348,0.216-0.601l1.175-2.733h1.775l-4.042,9.127h-1.751L233.566,166.813z"/>
				<path fill="#FFFFFF" d="M245.985,167.461v-0.768c-0.468,0.552-1.092,0.888-1.774,0.888c-1.644,0-2.53-1.486-2.53-3.069
					c0-1.561,0.923-3.034,2.542-3.034c0.647,0,1.247,0.238,1.703,0.72v-3.73h1.679v8.995L245.985,167.461L245.985,167.461z
					 M245.949,164.522c0-0.899-0.517-1.547-1.296-1.547c-0.875,0-1.307,0.694-1.307,1.559c0,0.853,0.444,1.561,1.307,1.561
					C245.421,166.094,245.949,165.326,245.949,164.522z"/>
				<path fill="#FFFFFF" d="M250.822,167.461h-1.679v-5.853h1.679v0.396c0,0.133-0.023,0.349-0.06,0.576
					c0.336-0.636,0.863-1.116,1.631-1.116v1.645c-0.875,0-1.571,0.504-1.571,1.463V167.461z"/>
				<path fill="#FFFFFF" d="M259.088,167.461h-1.679v-0.396c0-0.097,0.012-0.24,0.035-0.408c-0.384,0.552-0.983,0.947-1.774,0.947
					c-1.211,0-2.123-0.947-2.123-2.52v-3.478h1.69v3.382c0,0.815,0.517,1.235,1.08,1.235c0.503,0,1.056-0.396,1.092-1.188v-3.43
					h1.679V167.461z"/>
				<path fill="#FFFFFF" d="M260.627,167.461v-5.853h1.679v0.3c0,0.107-0.023,0.3-0.048,0.479c0.348-0.563,0.912-0.925,1.606-0.925
					c0.853,0,1.367,0.396,1.644,0.96c0.42-0.563,1.067-0.96,1.859-0.96c1.198,0,1.931,0.816,1.931,2.22v3.777h-1.679v-3.657
					c0-0.637-0.456-0.959-0.912-0.959s-0.912,0.322-0.912,1.007v3.609h-1.679v-3.693c0-0.601-0.421-0.888-0.864-0.888
					c-0.456,0-0.923,0.313-0.947,0.911v3.67L260.627,167.461L260.627,167.461z"/>
			</g>
		</g>
		<g>
			<g>
				<path fill="#FFFFFF" d="M303.755,163.096v4.364h-1.703v-4.364h-0.84v-1.487h0.84v-1.056c0-1.415,0.995-2.23,2.159-2.23
					c0.407,0,0.768,0.071,1.065,0.203l-0.551,1.428c-0.107-0.06-0.24-0.096-0.372-0.096c-0.384,0-0.6,0.3-0.6,0.814v0.937h1.234
					v1.487H303.755z"/>
				<path fill="#FFFFFF" d="M305.808,164.522c0-1.739,1.343-3.046,3.06-3.046c1.715,0,3.058,1.307,3.058,3.046
					s-1.343,3.047-3.058,3.047C307.15,167.569,305.808,166.262,305.808,164.522z M310.281,164.522c0-0.889-0.563-1.547-1.414-1.547
					c-0.864,0-1.428,0.658-1.428,1.547c0,0.898,0.587,1.56,1.428,1.56C309.718,166.082,310.281,165.422,310.281,164.522z"/>
				<path fill="#FFFFFF" d="M314.783,167.461h-1.681v-5.853h1.681v0.396c0,0.133-0.024,0.349-0.062,0.576
					c0.336-0.636,0.863-1.116,1.631-1.116v1.645c-0.875,0-1.569,0.504-1.569,1.463V167.461z"/>
			</g>
		</g>
		<g>
			<g>
				<path fill="#FFFFFF" d="M351.74,167.461v-8.995h1.68v3.73c0.456-0.48,1.056-0.72,1.703-0.72c1.618,0,2.542,1.475,2.542,3.034
					c0,1.582-0.888,3.069-2.53,3.069c-0.684,0-1.319-0.336-1.774-0.888v0.768L351.74,167.461L351.74,167.461z M355.998,164.534
					c0-0.863-0.434-1.559-1.31-1.559c-0.778,0-1.295,0.646-1.295,1.547c0,0.804,0.527,1.57,1.295,1.57
					C355.554,166.094,355.998,165.386,355.998,164.534z"/>
				<path fill="#FFFFFF" d="M360.175,164.895c0.12,0.972,0.72,1.331,1.38,1.331c0.647,0,1.091-0.301,1.379-0.721l1.115,0.805
					c-0.623,0.84-1.26,1.271-2.59,1.271c-1.716,0-2.976-1.26-2.976-3.059c0-1.667,1.127-3.046,2.927-3.046
					c1.979,0,2.759,1.415,2.759,3.214v0.204L360.175,164.895L360.175,164.895z M360.223,163.863h2.314
					c-0.107-0.672-0.623-1.02-1.14-1.02C360.858,162.844,360.391,163.18,360.223,163.863z"/>
				<path fill="#FFFFFF" d="M370.697,167.461c-0.721,0-1.212-0.384-1.476-0.995c-0.336,0.563-1.044,1.115-2.087,1.115
					c-1.295,0-1.955-0.84-1.955-1.715c0-0.972,0.791-1.919,2.423-1.919c0.491,0,0.972,0.06,1.415,0.144v-0.191
					c0-0.575-0.396-0.959-1.043-0.959c-0.456,0-0.828,0.204-1.068,0.588l-1.175-0.876c0,0,0.672-1.199,2.327-1.199
					c1.631,0,2.626,0.972,2.626,2.375v1.763c0,0.217,0.145,0.349,0.36,0.349h0.239v1.522L370.697,167.461L370.697,167.461z
					 M369.018,165.134c-0.312-0.06-0.695-0.118-0.924-0.118c-0.684,0-1.211,0.228-1.211,0.707c0,0.323,0.24,0.54,0.684,0.54
					C368.273,166.262,368.802,165.77,369.018,165.134z"/>
				<path fill="#FFFFFF" d="M372.751,161.608v-2.087h1.679v2.087h0.828v1.559h-0.828v4.294h-1.679v-4.294h-0.815v-1.559H372.751z"/>
				<path fill="#FFFFFF" d="M377.023,165.494c0.407,0.468,1.056,0.659,1.618,0.659c0.36,0,0.624-0.145,0.624-0.359
					c0-0.3-0.3-0.442-0.791-0.588c-0.912-0.264-2.039-0.768-2.039-1.955c0-1.127,1.091-1.763,2.074-1.763
					c0.888,0,1.512,0.3,2.039,0.852l-0.937,1.009c-0.252-0.276-0.72-0.528-1.066-0.528c-0.313,0-0.54,0.145-0.54,0.372
					c0,0.288,0.336,0.432,0.863,0.588c0.889,0.264,2.026,0.815,2.026,1.931c0,1.104-0.946,1.871-2.267,1.871
					c-1.056,0-1.919-0.3-2.555-0.982L377.023,165.494z"/>
			</g>
		</g>
		<path fill="#FFFFFF" d="M335.012,171.913h3.151c4.242,0,7.685-3.438,7.685-7.684s-3.441-7.687-7.685-7.687h-3.151h-7
			c-4.244,0-7.685,3.441-7.685,7.687c0,0,0-4.244,0,0s3.439,7.684,7.685,7.684H335.012z"/>
		<path fill="#FFFFFF" d="M277.271,163.646c0,4.244,3.439,7.684,7.685,7.684h3.151c4.242,0,7.685-3.438,7.685-7.684
			c0-4.242-3.441-7.685-7.685-7.685h-3.151C280.711,155.962,277.271,159.403,277.271,163.646
			C277.271,163.646,277.271,159.403,277.271,163.646z"/>
	</g>
</g>
</svg>
