<?xml version="1.0" encoding="utf-8"?>
<!-- Generator: Adobe Illustrator 15.0.0, SVG Export Plug-In . SVG Version: 6.00 Build 0)  -->
<!DOCTYPE svg PUBLIC "-//W3C//DTD SVG 1.1//EN" "http://www.w3.org/Graphics/SVG/1.1/DTD/svg11.dtd">
<svg version="1.1" id="Layer_1" xmlns="http://www.w3.org/2000/svg" xmlns:xlink="http://www.w3.org/1999/xlink" x="0px" y="0px"
	 width="129.5px" height="25.078px" viewBox="232.89 405.499 129.5 25.078" enable-background="new 232.89 405.499 129.5 25.078"
	 xml:space="preserve">
<g>
	<g>
		<path fill="#9A4794" d="M357.39,405.499h-13.14h-0.86h-0.89h-39.832h-43.271l-2.056,2.546c-0.19,0.233-0.476,0.37-0.778,0.37
			h-7.757c-0.302,0-0.588-0.137-0.778-0.37l-2.056-2.546h-8.083c-2.761,0-5,2.238-5,5v12.167c0,2.763,2.239,4.999,5,4.999h8.088
			l2.051,2.539c0.19,0.236,0.477,0.373,0.778,0.373h7.757c0.302,0,0.588-0.137,0.778-0.373l2.051-2.539h43.274H342.5h0.89h0.86
			h13.14c2.762,0,5-2.236,5-4.999v-12.167C362.39,407.737,360.151,405.499,357.39,405.499z"/>
		<g>
			<g>
				<path fill="#FFFFFF" d="M239.335,418.304c0.408,0.467,1.055,0.658,1.619,0.658c0.359,0,0.624-0.144,0.624-0.359
					c0-0.299-0.301-0.443-0.792-0.588c-0.912-0.265-2.039-0.769-2.039-1.955c0-1.127,1.091-1.762,2.074-1.762
					c0.889,0,1.512,0.299,2.039,0.852l-0.936,1.008c-0.252-0.276-0.72-0.528-1.067-0.528c-0.312,0-0.54,0.145-0.54,0.372
					c0,0.287,0.335,0.433,0.863,0.589c0.888,0.264,2.027,0.813,2.027,1.93c0,1.104-0.947,1.871-2.268,1.871
					c-1.056,0-1.919-0.299-2.555-0.982L239.335,418.304z"/>
				<path fill="#FFFFFF" d="M245.718,417.704c0.12,0.972,0.72,1.33,1.379,1.33c0.647,0,1.091-0.299,1.379-0.719l1.115,0.803
					c-0.624,0.841-1.259,1.271-2.59,1.271c-1.715,0-2.976-1.26-2.976-3.06c0-1.666,1.127-3.045,2.927-3.045
					c1.979,0,2.759,1.414,2.759,3.213v0.205L245.718,417.704L245.718,417.704z M245.767,416.674h2.314
					c-0.108-0.672-0.624-1.021-1.14-1.021C246.402,415.653,245.935,415.989,245.767,416.674z"/>
				<path fill="#FFFFFF" d="M251.347,414.418v-2.087h1.679v2.087h0.828v1.559h-0.828v4.295h-1.679v-4.295h-0.814v-1.559H251.347z"/>
				<path fill="#FFFFFF" d="M259.086,414.418v-2.087h1.679v2.087h0.828v1.559h-0.828v4.295h-1.679v-4.295h-0.815v-1.559H259.086z"/>
				<path fill="#FFFFFF" d="M264.102,417.704c0.12,0.972,0.72,1.33,1.379,1.33c0.648,0,1.091-0.299,1.379-0.719l1.115,0.803
					c-0.624,0.841-1.259,1.271-2.59,1.271c-1.715,0-2.975-1.26-2.975-3.06c0-1.666,1.127-3.045,2.926-3.045
					c1.979,0,2.759,1.414,2.759,3.213v0.205L264.102,417.704L264.102,417.704z M264.15,416.674h2.314
					c-0.108-0.672-0.624-1.021-1.139-1.021C264.785,415.653,264.318,415.989,264.15,416.674z"/>
				<path fill="#FFFFFF" d="M269.274,420.271v-5.854h1.68v0.301c0,0.106-0.024,0.299-0.049,0.479
					c0.349-0.563,0.912-0.924,1.607-0.924c0.852,0,1.367,0.396,1.643,0.961c0.421-0.563,1.067-0.961,1.859-0.961
					c1.199,0,1.931,0.816,1.931,2.219v3.779h-1.679v-3.658c0-0.637-0.456-0.959-0.912-0.959s-0.912,0.322-0.912,1.006v3.611h-1.679
					v-3.695c0-0.6-0.42-0.887-0.864-0.887c-0.456,0-0.923,0.313-0.946,0.912v3.67H269.274L269.274,420.271z"/>
				<path fill="#FFFFFF" d="M279.486,423.268v-8.851h1.68v0.588c0.456-0.48,1.055-0.72,1.703-0.72c1.618,0,2.542,1.476,2.542,3.033
					c0,1.584-0.889,3.07-2.531,3.07c-0.685,0-1.319-0.336-1.775-0.887v3.765L279.486,423.268L279.486,423.268z M283.744,417.344
					c0-0.863-0.433-1.56-1.309-1.56c-0.779,0-1.295,0.648-1.295,1.547c0,0.806,0.527,1.572,1.295,1.572
					C283.3,418.903,283.744,418.194,283.744,417.344z"/>
				<path fill="#FFFFFF" d="M286.23,417.331c0-1.737,1.343-3.045,3.06-3.045c1.715,0,3.058,1.308,3.058,3.045
					c0,1.74-1.343,3.048-3.058,3.048S286.23,419.071,286.23,417.331z M290.704,417.331c0-0.887-0.563-1.547-1.415-1.547
					c-0.864,0-1.428,0.66-1.428,1.547c0,0.9,0.588,1.562,1.428,1.562C290.141,418.892,290.704,418.231,290.704,417.331z"/>
				<path fill="#FFFFFF" d="M297.582,414.418v-2.087h1.679v2.087h0.827v1.559h-0.827v4.295h-1.679v-4.295h-0.815v-1.559H297.582z"/>
				<path fill="#FFFFFF" d="M300.906,417.331c0-1.737,1.344-3.045,3.06-3.045c1.715,0,3.058,1.308,3.058,3.045
					c0,1.74-1.343,3.048-3.058,3.048C302.249,420.379,300.906,419.071,300.906,417.331z M305.379,417.331
					c0-0.887-0.563-1.547-1.414-1.547c-0.864,0-1.428,0.66-1.428,1.547c0,0.9,0.588,1.562,1.428,1.562
					C304.815,418.892,305.379,418.231,305.379,417.331z"/>
			</g>
		</g>
		<g>
			<g>
				<path fill="#FFFFFF" d="M334.498,420.271v-8.996h1.679v3.73c0.456-0.48,1.056-0.72,1.703-0.72c1.619,0,2.542,1.476,2.542,3.033
					c0,1.584-0.887,3.07-2.53,3.07c-0.684,0-1.319-0.336-1.773-0.887v0.768L334.498,420.271L334.498,420.271z M338.756,417.344
					c0-0.863-0.434-1.56-1.31-1.56c-0.778,0-1.295,0.648-1.295,1.547c0,0.806,0.527,1.572,1.295,1.572
					C338.312,418.903,338.756,418.194,338.756,417.344z"/>
				<path fill="#FFFFFF" d="M341.602,423.268v-8.851h1.68v0.588c0.455-0.48,1.056-0.72,1.703-0.72c1.619,0,2.542,1.476,2.542,3.033
					c0,1.584-0.888,3.07-2.529,3.07c-0.685,0-1.32-0.336-1.775-0.887v3.765L341.602,423.268L341.602,423.268z M345.859,417.344
					c0-0.863-0.432-1.56-1.308-1.56c-0.779,0-1.295,0.648-1.295,1.547c0,0.806,0.527,1.572,1.295,1.572
					C345.416,418.903,345.859,418.194,345.859,417.344z"/>
				<path fill="#FFFFFF" d="M348.705,420.271v-5.854h1.68v0.301c0,0.106-0.023,0.299-0.048,0.479
					c0.348-0.563,0.911-0.924,1.605-0.924c0.853,0,1.367,0.396,1.645,0.961c0.42-0.563,1.066-0.961,1.857-0.961
					c1.199,0,1.933,0.816,1.933,2.219v3.779h-1.681v-3.658c0-0.637-0.454-0.959-0.91-0.959s-0.911,0.322-0.911,1.006v3.611h-1.681
					v-3.695c0-0.6-0.42-0.887-0.862-0.887c-0.455,0-0.925,0.313-0.947,0.912v3.67H348.705L348.705,420.271z"/>
			</g>
		</g>
		<path fill="#FFFFFF" d="M311.736,417.038c0,4.244,3.439,7.684,7.685,7.684h3.151c4.242,0,7.685-3.438,7.685-7.684
			c0-4.241-3.441-7.684-7.685-7.684h-3.151C315.176,409.354,311.736,412.797,311.736,417.038
			C311.736,417.038,311.736,412.797,311.736,417.038z"/>
	</g>
</g>
</svg>
