<?xml version="1.0" encoding="utf-8"?>
<!-- Generator: Adobe Illustrator 15.0.0, SVG Export Plug-In . SVG Version: 6.00 Build 0)  -->
<!DOCTYPE svg PUBLIC "-//W3C//DTD SVG 1.1//EN" "http://www.w3.org/Graphics/SVG/1.1/DTD/svg11.dtd">
<svg version="1.1" id="Layer_1" xmlns="http://www.w3.org/2000/svg" xmlns:xlink="http://www.w3.org/1999/xlink" x="0px" y="0px"
	 width="145.499px" height="40.167px" viewBox="224.891 145.911 145.499 40.167"
	 enable-background="new 224.891 145.911 145.499 40.167" xml:space="preserve">
<g>
	<g>
		<path fill="#C88330" d="M365.39,155.411h-11.056H338.39h-2.5h-0.5h-1.5H314.5h-9.991c-6.576-3.777-19.768-9.5-39.368-9.5
			c-27.889,0-39.179,10.901-40.17,11.916h-0.08v2.584v2.417v15.333c0,2.762,2.238,5,5,5h8.083l2.056,2.545
			c0.19,0.235,0.477,0.372,0.778,0.372h7.757c0.304,0,0.588-0.137,0.778-0.372l2.056-2.545H314.5h19.39h1.5h0.5h2.5h15.944h11.056
			c2.762,0,5-2.238,5-5v-17.75C370.39,157.649,368.151,155.411,365.39,155.411z"/>
		<g>
			<g>
				<g>
					<path fill="#FFFFFF" d="M241.452,166.282l-2.016,5.854h-1.907l-0.875-2.734c-0.06-0.168-0.119-0.479-0.132-0.54l-0.144,0.54
						l-0.899,2.734h-1.907c-0.659-1.943-1.318-3.897-1.967-5.854h1.812l0.911,3.226c0.084,0.324,0.168,0.708,0.191,0.78
						c0.013-0.061,0.097-0.432,0.204-0.78l0.947-3.226h1.703l0.923,3.226c0.096,0.35,0.168,0.744,0.18,0.792
						c0.012-0.048,0.108-0.432,0.216-0.792l0.937-3.226H241.452z"/>
					<path fill="#FFFFFF" d="M242.345,172.135v-8.995h1.679v3.538c0,0.096-0.012,0.252-0.036,0.407
						c0.385-0.552,0.973-0.947,1.775-0.947c1.211,0,2.123,0.947,2.123,2.519v3.479h-1.691v-3.383c0-0.814-0.516-1.234-1.079-1.234
						c-0.517,0-1.021,0.406-1.092,1.247v3.37L242.345,172.135L242.345,172.135z"/>
					<path fill="#FFFFFF" d="M250.756,169.568c0.12,0.972,0.72,1.331,1.379,1.331c0.647,0,1.091-0.3,1.379-0.72l1.115,0.804
						c-0.624,0.84-1.259,1.271-2.59,1.271c-1.715,0-2.976-1.26-2.976-3.059c0-1.667,1.127-3.046,2.926-3.046
						c1.979,0,2.76,1.415,2.76,3.214v0.204L250.756,169.568L250.756,169.568z M250.805,168.537h2.314
						c-0.108-0.672-0.624-1.02-1.14-1.02C251.44,167.518,250.973,167.854,250.805,168.537z"/>
					<path fill="#FFFFFF" d="M257.608,172.135h-1.679v-5.854h1.679v0.396c0,0.096-0.012,0.239-0.036,0.407
						c0.385-0.552,0.973-0.947,1.775-0.947c1.211,0,2.123,0.947,2.123,2.519v3.479h-1.691v-3.383c0-0.814-0.516-1.234-1.08-1.234
						c-0.504,0-1.066,0.406-1.091,1.188V172.135L257.608,172.135z"/>
					<path fill="#FFFFFF" d="M267.065,166.282v-2.087h1.68v2.087h0.827v1.559h-0.827v4.295h-1.68v-4.295h-0.814v-1.559H267.065z"/>
					<path fill="#FFFFFF" d="M270.749,172.135v-8.995h1.679v3.538c0,0.096-0.012,0.252-0.036,0.407
						c0.384-0.552,0.972-0.947,1.775-0.947c1.211,0,2.123,0.947,2.123,2.519v3.479h-1.691v-3.383c0-0.814-0.516-1.234-1.08-1.234
						c-0.516,0-1.02,0.406-1.091,1.247v3.37L270.749,172.135L270.749,172.135z"/>
					<path fill="#FFFFFF" d="M278.765,163.367c0.601,0,1.104,0.504,1.104,1.104c0,0.6-0.504,1.104-1.104,1.104
						c-0.6,0-1.104-0.504-1.104-1.104C277.661,163.871,278.165,163.367,278.765,163.367z M277.889,172.135v-5.854h1.715v5.854
						H277.889z"/>
					<path fill="#FFFFFF" d="M281.825,170.168c0.407,0.469,1.055,0.659,1.618,0.659c0.359,0,0.624-0.144,0.624-0.358
						c0-0.301-0.3-0.443-0.792-0.589c-0.912-0.264-2.039-0.768-2.039-1.955c0-1.127,1.092-1.763,2.075-1.763
						c0.889,0,1.511,0.3,2.039,0.853l-0.936,1.008c-0.252-0.276-0.721-0.528-1.067-0.528c-0.312,0-0.54,0.146-0.54,0.372
						c0,0.288,0.335,0.432,0.863,0.588c0.888,0.265,2.027,0.815,2.027,1.932c0,1.104-0.947,1.87-2.268,1.87
						c-1.056,0-1.919-0.3-2.555-0.982L281.825,170.168z"/>
					<path fill="#FFFFFF" d="M291.064,170.168c0.408,0.469,1.056,0.659,1.619,0.659c0.359,0,0.624-0.144,0.624-0.358
						c0-0.301-0.3-0.443-0.792-0.589c-0.912-0.264-2.039-0.768-2.039-1.955c0-1.127,1.091-1.763,2.075-1.763
						c0.888,0,1.511,0.3,2.039,0.853l-0.937,1.008c-0.252-0.276-0.72-0.528-1.066-0.528c-0.313,0-0.54,0.146-0.54,0.372
						c0,0.288,0.335,0.432,0.863,0.588c0.888,0.265,2.026,0.815,2.026,1.932c0,1.104-0.946,1.87-2.267,1.87
						c-1.057,0-1.919-0.3-2.555-0.982L291.064,170.168z"/>
					<path fill="#FFFFFF" d="M296.116,175.133v-8.851h1.679v0.588c0.456-0.479,1.055-0.72,1.703-0.72
						c1.619,0,2.543,1.475,2.543,3.034c0,1.583-0.889,3.069-2.531,3.069c-0.683,0-1.319-0.336-1.774-0.888v3.766L296.116,175.133
						L296.116,175.133z M300.374,169.208c0-0.862-0.434-1.559-1.309-1.559c-0.778,0-1.295,0.646-1.295,1.547
						c0,0.804,0.527,1.571,1.295,1.571C299.93,170.768,300.374,170.06,300.374,169.208z"/>
					<path fill="#FFFFFF" d="M304.899,172.135h-1.679v-5.854h1.679v0.396c0,0.132-0.023,0.348-0.06,0.575
						c0.336-0.636,0.863-1.115,1.631-1.115v1.644c-0.876,0-1.571,0.504-1.571,1.463V172.135z"/>
					<path fill="#FFFFFF" d="M308.607,163.367c0.601,0,1.104,0.504,1.104,1.104c0,0.6-0.504,1.104-1.104,1.104
						c-0.6,0-1.104-0.504-1.104-1.104C307.503,163.871,308.008,163.367,308.607,163.367z M307.732,172.135v-5.854h1.715v5.854
						H307.732z"/>
					<path fill="#FFFFFF" d="M311.535,166.282v-2.087h1.68v2.087h0.828v1.559h-0.828v4.295h-1.68v-4.295h-0.814v-1.559H311.535z"/>
					<path fill="#FFFFFF" d="M316.551,169.568c0.12,0.972,0.72,1.331,1.379,1.331c0.648,0,1.092-0.3,1.38-0.72l1.115,0.804
						c-0.624,0.84-1.259,1.271-2.591,1.271c-1.715,0-2.976-1.26-2.976-3.059c0-1.667,1.128-3.046,2.928-3.046
						c1.979,0,2.759,1.415,2.759,3.214v0.204L316.551,169.568L316.551,169.568z M316.6,168.537h2.314
						c-0.108-0.672-0.624-1.02-1.141-1.02C317.234,167.518,316.768,167.854,316.6,168.537z"/>
					<path fill="#FFFFFF" d="M329.137,168.261c-0.299-0.323-0.563-0.553-1.043-0.553c-0.779,0-1.331,0.624-1.331,1.487
						c0,0.899,0.552,1.463,1.331,1.463c0.479,0,0.84-0.264,1.092-0.623l1.259,0.959c-0.6,0.815-1.318,1.248-2.351,1.248
						c-1.764,0-3.01-1.344-3.01-3.047s1.246-3.046,2.998-3.046c0.924,0,1.653,0.396,2.219,1.031L329.137,168.261z"/>
					<path fill="#FFFFFF" d="M331.623,172.135v-8.995h1.703v8.995H331.623z"/>
					<path fill="#FFFFFF" d="M335.799,163.367c0.6,0,1.104,0.504,1.104,1.104c0,0.6-0.504,1.104-1.104,1.104
						s-1.104-0.504-1.104-1.104C334.695,163.871,335.199,163.367,335.799,163.367z M334.923,172.135v-5.854h1.715v5.854H334.923z"/>
					<path fill="#FFFFFF" d="M342.084,168.261c-0.299-0.323-0.563-0.553-1.043-0.553c-0.779,0-1.331,0.624-1.331,1.487
						c0,0.899,0.552,1.463,1.331,1.463c0.479,0,0.84-0.264,1.092-0.623l1.259,0.959c-0.6,0.815-1.318,1.248-2.351,1.248
						c-1.765,0-3.011-1.344-3.011-3.047s1.246-3.046,2.998-3.046c0.925,0,1.654,0.396,2.22,1.031L342.084,168.261z"/>
					<path fill="#FFFFFF" d="M348.42,172.135l-1.644-2.46l-0.504,0.576v1.884h-1.703v-8.995h1.703v5.121l1.631-1.991h1.871
						l-2.003,2.291l2.472,3.574H348.42z"/>
					<path fill="#FFFFFF" d="M352.273,169.568c0.12,0.972,0.721,1.331,1.379,1.331c0.648,0,1.093-0.3,1.381-0.72l1.114,0.804
						c-0.624,0.84-1.259,1.271-2.591,1.271c-1.715,0-2.975-1.26-2.975-3.059c0-1.667,1.128-3.046,2.927-3.046
						c1.979,0,2.759,1.415,2.759,3.214v0.204L352.273,169.568L352.273,169.568z M352.322,168.537h2.314
						c-0.108-0.672-0.624-1.02-1.14-1.02C352.957,167.518,352.49,167.854,352.322,168.537z"/>
					<path fill="#FFFFFF" d="M361.404,172.135v-0.769c-0.468,0.552-1.092,0.888-1.774,0.888c-1.644,0-2.53-1.486-2.53-3.069
						c0-1.561,0.923-3.034,2.542-3.034c0.648,0,1.248,0.239,1.703,0.72v-3.729h1.68v8.995L361.404,172.135L361.404,172.135z
						 M361.368,169.196c0-0.899-0.517-1.547-1.297-1.547c-0.875,0-1.307,0.695-1.307,1.559c0,0.853,0.443,1.561,1.307,1.561
						C360.84,170.768,361.368,170,361.368,169.196z"/>
				</g>
			</g>
		</g>
	</g>
</g>
</svg>
