<?xml version="1.0" encoding="utf-8"?>
<!-- Generator: Adobe Illustrator 15.0.0, SVG Export Plug-In . SVG Version: 6.00 Build 0)  -->
<!DOCTYPE svg PUBLIC "-//W3C//DTD SVG 1.1//EN" "http://www.w3.org/Graphics/SVG/1.1/DTD/svg11.dtd">
<svg version="1.1" id="Layer_1" xmlns="http://www.w3.org/2000/svg" xmlns:xlink="http://www.w3.org/1999/xlink" x="0px" y="0px"
	 width="145.501px" height="25.078px" viewBox="224.89 356.372 145.501 25.078"
	 enable-background="new 224.89 356.372 145.501 25.078" xml:space="preserve">
<g>
	<g>
		<path fill="#C88330" d="M365.391,356.372h-30H321.5h-70.103l-2.056,2.546c-0.19,0.234-0.476,0.371-0.778,0.371h-7.757
			c-0.302,0-0.588-0.137-0.778-0.371l-2.055-2.546h-8.084c-2.761,0-5,2.238-5,5v12.167c0,2.763,2.239,5,5,5h8.088l2.051,2.539
			c0.19,0.235,0.478,0.372,0.778,0.372h7.757c0.304,0,0.588-0.137,0.778-0.372l2.051-2.539H321.5h13.891h30c2.762,0,5-2.237,5-5
			v-12.167C370.391,358.61,368.152,356.372,365.391,356.372z"/>
		<g>
			<rect x="298.43" y="360.905" fill="#FFFFFF" width="60.651" height="12.343"/>
			<g>
				<g>
					<path fill="#FFFFFF" d="M236.967,371.144v-8.996h1.679v3.73c0.456-0.48,1.056-0.72,1.703-0.72c1.619,0,2.542,1.476,2.542,3.033
						c0,1.584-0.888,3.07-2.531,3.07c-0.684,0-1.318-0.336-1.774-0.887v0.768L236.967,371.144L236.967,371.144z M241.225,368.217
						c0-0.863-0.432-1.56-1.308-1.56c-0.779,0-1.295,0.648-1.295,1.547c0,0.806,0.526,1.572,1.295,1.572
						C240.781,369.776,241.225,369.067,241.225,368.217z"/>
					<path fill="#FFFFFF" d="M245.75,371.144h-1.68v-5.854h1.68v0.396c0,0.131-0.024,0.348-0.061,0.576
						c0.336-0.638,0.863-1.117,1.631-1.117v1.645c-0.875,0-1.57,0.505-1.57,1.464V371.144z"/>
					<path fill="#FFFFFF" d="M248.163,368.204c0-1.737,1.343-3.045,3.059-3.045c1.715,0,3.058,1.308,3.058,3.045
						c0,1.74-1.343,3.048-3.058,3.048C249.506,371.252,248.163,369.944,248.163,368.204z M252.637,368.204
						c0-0.887-0.563-1.547-1.415-1.547c-0.864,0-1.427,0.66-1.427,1.547c0,0.9,0.587,1.562,1.427,1.562
						C252.073,369.765,252.637,369.104,252.637,368.204z"/>
					<path fill="#FFFFFF" d="M260.808,371.144c-0.72,0-1.211-0.385-1.475-0.996c-0.336,0.564-1.043,1.115-2.087,1.115
						c-1.295,0-1.955-0.84-1.955-1.715c0-0.972,0.792-1.918,2.423-1.918c0.492,0,0.971,0.059,1.415,0.143v-0.191
						c0-0.575-0.396-0.959-1.043-0.959c-0.456,0-0.828,0.203-1.067,0.589l-1.175-0.878c0,0,0.672-1.198,2.327-1.198
						c1.631,0,2.626,0.973,2.626,2.375v1.764c0,0.215,0.144,0.348,0.36,0.348h0.239v1.523L260.808,371.144L260.808,371.144z
						 M259.129,368.815c-0.313-0.059-0.695-0.119-0.923-0.119c-0.685,0-1.211,0.229-1.211,0.707c0,0.324,0.239,0.541,0.684,0.541
						C258.385,369.944,258.913,369.452,259.129,368.815z"/>
					<path fill="#FFFFFF" d="M266.365,371.144v-0.768c-0.468,0.551-1.092,0.887-1.774,0.887c-1.644,0-2.53-1.486-2.53-3.07
						c0-1.559,0.923-3.033,2.542-3.033c0.647,0,1.247,0.238,1.703,0.72v-3.73h1.679v8.996L266.365,371.144L266.365,371.144z
						 M266.329,368.204c0-0.897-0.517-1.547-1.295-1.547c-0.875,0-1.308,0.695-1.308,1.56c0,0.852,0.444,1.561,1.308,1.561
						C265.801,369.776,266.329,369.01,266.329,368.204z"/>
					<path fill="#FFFFFF" d="M273.336,367.269c-0.3-0.322-0.564-0.551-1.043-0.551c-0.78,0-1.331,0.623-1.331,1.485
						c0,0.9,0.551,1.464,1.331,1.464c0.479,0,0.839-0.265,1.091-0.623l1.259,0.959c-0.6,0.815-1.318,1.248-2.351,1.248
						c-1.764,0-3.011-1.345-3.011-3.048c0-1.702,1.247-3.045,2.998-3.045c0.925,0,1.655,0.396,2.22,1.031L273.336,367.269z"/>
					<path fill="#FFFFFF" d="M280.751,371.144c-0.721,0-1.211-0.385-1.476-0.996c-0.336,0.564-1.043,1.115-2.087,1.115
						c-1.295,0-1.955-0.84-1.955-1.715c0-0.972,0.792-1.918,2.424-1.918c0.491,0,0.971,0.059,1.414,0.143v-0.191
						c0-0.575-0.396-0.959-1.043-0.959c-0.455,0-0.827,0.203-1.066,0.589l-1.175-0.878c0,0,0.672-1.198,2.327-1.198
						c1.631,0,2.626,0.973,2.626,2.375v1.764c0,0.215,0.144,0.348,0.359,0.348h0.24v1.523L280.751,371.144L280.751,371.144z
						 M279.072,368.815c-0.312-0.059-0.694-0.119-0.923-0.119c-0.684,0-1.211,0.229-1.211,0.707c0,0.324,0.24,0.541,0.685,0.541
						C278.329,369.944,278.856,369.452,279.072,368.815z"/>
					<path fill="#FFFFFF" d="M282.938,369.177c0.408,0.467,1.056,0.658,1.619,0.658c0.36,0,0.624-0.144,0.624-0.359
						c0-0.299-0.3-0.443-0.792-0.588c-0.912-0.265-2.039-0.769-2.039-1.955c0-1.127,1.091-1.762,2.075-1.762
						c0.888,0,1.511,0.299,2.039,0.852l-0.937,1.008c-0.252-0.276-0.72-0.528-1.066-0.528c-0.313,0-0.54,0.145-0.54,0.372
						c0,0.287,0.335,0.433,0.863,0.589c0.888,0.264,2.026,0.813,2.026,1.93c0,1.104-0.947,1.871-2.267,1.871
						c-1.057,0-1.919-0.299-2.556-0.982L282.938,369.177z"/>
					<path fill="#FFFFFF" d="M288.445,365.29v-2.086h1.68v2.086h0.828v1.56h-0.828v4.295h-1.68v-4.295h-0.814v-1.56H288.445z"/>
				</g>
			</g>
		</g>
	</g>
</g>
</svg>
