<?xml version="1.0" encoding="utf-8"?>
<!-- Generator: Adobe Illustrator 15.0.0, SVG Export Plug-In . SVG Version: 6.00 Build 0)  -->
<!DOCTYPE svg PUBLIC "-//W3C//DTD SVG 1.1//EN" "http://www.w3.org/Graphics/SVG/1.1/DTD/svg11.dtd">
<svg version="1.1" id="Layer_1" xmlns="http://www.w3.org/2000/svg" xmlns:xlink="http://www.w3.org/1999/xlink" x="0px" y="0px"
	 width="170.499px" height="40.167px" viewBox="223.081 98.411 170.499 40.167"
	 enable-background="new 223.081 98.411 170.499 40.167" xml:space="preserve">
<g>
	<g>
		<path fill="#C88330" d="M388.58,107.911h-27h-2.5h-25.5h-1.5h-29.382c-6.575-3.777-19.768-9.5-39.367-9.5
			c-27.89,0-39.18,10.901-40.17,11.916h-0.08v2.584v2.417v15.333c0,2.762,2.237,5,5,5h8.083l2.056,2.545
			c0.19,0.235,0.476,0.372,0.778,0.372h7.757c0.303,0,0.588-0.137,0.778-0.372l2.056-2.545h82.491h1.5h25.5h2.5h27
			c2.762,0,5-2.238,5-5v-17.75C393.58,110.149,391.342,107.911,388.58,107.911z"/>
		<g>
			<rect x="265.645" y="114.271" fill="#FFFFFF" width="50" height="14.778"/>
			<g>
				<g>
					<path fill="#FFFFFF" d="M239.882,118.782l-2.015,5.854h-1.907l-0.875-2.734c-0.061-0.168-0.12-0.479-0.132-0.54l-0.145,0.54
						l-0.898,2.734h-1.907c-0.66-1.943-1.319-3.897-1.967-5.854h1.811l0.911,3.226c0.084,0.324,0.168,0.708,0.192,0.78
						c0.012-0.061,0.096-0.432,0.203-0.78l0.947-3.226h1.703l0.923,3.226c0.097,0.35,0.168,0.744,0.181,0.792
						c0.012-0.048,0.107-0.432,0.216-0.792l0.936-3.226H239.882z"/>
					<path fill="#FFFFFF" d="M240.775,124.635v-8.995h1.68v3.538c0,0.096-0.013,0.252-0.036,0.407
						c0.384-0.552,0.972-0.947,1.774-0.947c1.211,0,2.123,0.947,2.123,2.519v3.479h-1.69v-3.383c0-0.814-0.517-1.234-1.08-1.234
						c-0.517,0-1.021,0.406-1.091,1.247v3.37L240.775,124.635L240.775,124.635z"/>
					<path fill="#FFFFFF" d="M249.186,122.068c0.12,0.972,0.72,1.331,1.379,1.331c0.647,0,1.091-0.3,1.379-0.72l1.115,0.804
						c-0.624,0.84-1.259,1.271-2.59,1.271c-1.715,0-2.975-1.26-2.975-3.059c0-1.667,1.127-3.046,2.926-3.046
						c1.979,0,2.759,1.415,2.759,3.214v0.204L249.186,122.068L249.186,122.068z M249.234,121.037h2.314
						c-0.108-0.672-0.624-1.02-1.139-1.02C249.87,120.018,249.402,120.354,249.234,121.037z"/>
					<path fill="#FFFFFF" d="M256.038,124.635h-1.68v-5.854h1.68v0.396c0,0.096-0.013,0.239-0.036,0.407
						c0.384-0.552,0.972-0.947,1.774-0.947c1.211,0,2.123,0.947,2.123,2.519v3.479h-1.69v-3.383c0-0.814-0.517-1.234-1.08-1.234
						c-0.504,0-1.067,0.406-1.091,1.188V124.635L256.038,124.635z"/>
				</g>
			</g>
			<g>
				<g>
					<path fill="#FFFFFF" d="M325.533,124.635l-1.645-2.46l-0.503,0.576v1.884h-1.703v-8.995h1.703v5.121l1.631-1.991h1.871
						l-2.004,2.291l2.471,3.574H325.533z"/>
					<path fill="#FFFFFF" d="M329.387,122.068c0.119,0.972,0.719,1.331,1.379,1.331c0.647,0,1.092-0.3,1.379-0.72l1.115,0.804
						c-0.623,0.84-1.259,1.271-2.59,1.271c-1.715,0-2.976-1.26-2.976-3.059c0-1.667,1.127-3.046,2.927-3.046
						c1.979,0,2.76,1.415,2.76,3.214v0.204L329.387,122.068L329.387,122.068z M329.435,121.037h2.314
						c-0.108-0.672-0.624-1.02-1.141-1.02C330.07,120.018,329.603,120.354,329.435,121.037z"/>
					<path fill="#FFFFFF" d="M336.094,123.987l-2.182-5.205h1.762l1.128,2.734c0.097,0.239,0.181,0.563,0.192,0.6
						c0-0.024,0.106-0.348,0.215-0.6l1.176-2.734h1.775l-4.042,9.127h-1.752L336.094,123.987z"/>
					<path fill="#FFFFFF" d="M344.555,127.633v-8.851h1.68v0.588c0.455-0.479,1.056-0.72,1.703-0.72
						c1.619,0,2.542,1.475,2.542,3.034c0,1.583-0.888,3.069-2.529,3.069c-0.685,0-1.32-0.336-1.775-0.888v3.766L344.555,127.633
						L344.555,127.633z M348.813,121.708c0-0.862-0.432-1.559-1.308-1.559c-0.779,0-1.295,0.646-1.295,1.547
						c0,0.804,0.526,1.571,1.295,1.571C348.369,123.268,348.813,122.56,348.813,121.708z"/>
					<path fill="#FFFFFF" d="M353.338,124.635h-1.68v-5.854h1.68v0.396c0,0.132-0.023,0.348-0.062,0.575
						c0.336-0.636,0.863-1.115,1.632-1.115v1.644c-0.875,0-1.57,0.504-1.57,1.463V124.635z"/>
					<path fill="#FFFFFF" d="M357.441,122.068c0.12,0.972,0.721,1.331,1.379,1.331c0.648,0,1.093-0.3,1.381-0.72l1.114,0.804
						c-0.624,0.84-1.259,1.271-2.591,1.271c-1.715,0-2.975-1.26-2.975-3.059c0-1.667,1.128-3.046,2.927-3.046
						c1.979,0,2.759,1.415,2.759,3.214v0.204L357.441,122.068L357.441,122.068z M357.49,121.037h2.314
						c-0.108-0.672-0.624-1.02-1.14-1.02C358.125,120.018,357.658,120.354,357.49,121.037z"/>
					<path fill="#FFFFFF" d="M363.202,122.668c0.406,0.469,1.056,0.659,1.618,0.659c0.359,0,0.624-0.144,0.624-0.359
						c0-0.3-0.301-0.442-0.792-0.588c-0.91-0.264-2.039-0.768-2.039-1.955c0-1.127,1.092-1.763,2.075-1.763
						c0.888,0,1.512,0.3,2.039,0.853l-0.936,1.008c-0.252-0.276-0.722-0.528-1.068-0.528c-0.312,0-0.539,0.146-0.539,0.372
						c0,0.288,0.336,0.432,0.863,0.588c0.888,0.264,2.027,0.815,2.027,1.932c0,1.104-0.947,1.87-2.269,1.87
						c-1.055,0-1.918-0.3-2.555-0.982L363.202,122.668z"/>
					<path fill="#FFFFFF" d="M368.842,122.668c0.408,0.469,1.055,0.659,1.619,0.659c0.358,0,0.623-0.144,0.623-0.359
						c0-0.3-0.299-0.442-0.791-0.588c-0.912-0.264-2.039-0.768-2.039-1.955c0-1.127,1.092-1.763,2.074-1.763
						c0.889,0,1.512,0.3,2.039,0.853l-0.937,1.008c-0.252-0.276-0.719-0.528-1.066-0.528c-0.313,0-0.539,0.146-0.539,0.372
						c0,0.288,0.335,0.432,0.862,0.588c0.889,0.264,2.026,0.815,2.026,1.932c0,1.104-0.947,1.87-2.267,1.87
						c-1.057,0-1.92-0.3-2.555-0.982L368.842,122.668z"/>
					<path fill="#FFFFFF" d="M375.225,122.068c0.12,0.972,0.72,1.331,1.379,1.331c0.648,0,1.092-0.3,1.38-0.72l1.115,0.804
						c-0.624,0.84-1.259,1.271-2.591,1.271c-1.715,0-2.975-1.26-2.975-3.059c0-1.667,1.128-3.046,2.927-3.046
						c1.979,0,2.759,1.415,2.759,3.214v0.204L375.225,122.068L375.225,122.068z M375.273,121.037h2.314
						c-0.108-0.672-0.624-1.02-1.141-1.02C375.908,120.018,375.441,120.354,375.273,121.037z"/>
					<path fill="#FFFFFF" d="M384.355,124.635v-0.769c-0.468,0.552-1.092,0.888-1.774,0.888c-1.644,0-2.53-1.486-2.53-3.069
						c0-1.561,0.923-3.034,2.542-3.034c0.648,0,1.248,0.239,1.703,0.72v-3.729h1.68v8.995L384.355,124.635L384.355,124.635z
						 M384.319,121.696c0-0.899-0.516-1.547-1.296-1.547c-0.875,0-1.307,0.695-1.307,1.559c0,0.853,0.443,1.561,1.307,1.561
						C383.791,123.268,384.319,122.5,384.319,121.696z"/>
				</g>
			</g>
		</g>
	</g>
</g>
</svg>
