<?xml version="1.0" encoding="utf-8"?>
<!-- Generator: Adobe Illustrator 15.0.0, SVG Export Plug-In . SVG Version: 6.00 Build 0)  -->
<!DOCTYPE svg PUBLIC "-//W3C//DTD SVG 1.1//EN" "http://www.w3.org/Graphics/SVG/1.1/DTD/svg11.dtd">
<svg version="1.1" id="Layer_1" xmlns="http://www.w3.org/2000/svg" xmlns:xlink="http://www.w3.org/1999/xlink" x="0px" y="0px"
	 width="230.499px" height="40.167px" viewBox="182.391 191.661 230.499 40.167"
	 enable-background="new 182.391 191.661 230.499 40.167" xml:space="preserve">
<g>
	<g>
		<path fill="#C88330" d="M407.89,201.161h-27h-2.5h-25.5h-1.5h-3.5h-7.664H320.89h-2.5h-25.5h-1.5h-29.381
			c-6.576-3.777-19.768-9.5-39.368-9.5c-27.889,0-39.179,10.901-40.17,11.916h-0.08v2.584v2.417v15.333c0,2.762,2.238,5,5,5h8.083
			l2.056,2.545c0.19,0.235,0.477,0.372,0.778,0.372h7.757c0.304,0,0.588-0.137,0.778-0.372l2.056-2.545h82.491h1.5h25.5h2.5h19.336
			h7.664h3.5h1.5h25.5h2.5h27c2.762,0,5-2.238,5-5v-17.75C412.89,203.399,410.651,201.161,407.89,201.161z"/>
		<g>
			<rect x="349.077" y="207.521" fill="#FFFFFF" width="56.854" height="14.778"/>
			<g>
				<g>
					<path fill="#FFFFFF" d="M199.314,212.032l-2.015,5.854h-1.907l-0.875-2.734c-0.06-0.168-0.12-0.479-0.132-0.54l-0.144,0.54
						l-0.899,2.734h-1.907c-0.66-1.943-1.318-3.897-1.967-5.854h1.811l0.911,3.226c0.084,0.324,0.168,0.708,0.192,0.78
						c0.012-0.061,0.096-0.432,0.204-0.78l0.947-3.226h1.702l0.924,3.226c0.096,0.35,0.168,0.744,0.18,0.792
						c0.012-0.048,0.107-0.432,0.216-0.792l0.937-3.226H199.314z"/>
					<path fill="#FFFFFF" d="M200.208,217.885v-8.995h1.679v3.538c0,0.096-0.012,0.252-0.036,0.407
						c0.384-0.552,0.972-0.947,1.775-0.947c1.211,0,2.123,0.947,2.123,2.519v3.479h-1.691v-3.383c0-0.814-0.516-1.234-1.08-1.234
						c-0.516,0-1.02,0.406-1.091,1.247v3.37L200.208,217.885L200.208,217.885z"/>
					<path fill="#FFFFFF" d="M208.619,215.318c0.119,0.972,0.72,1.331,1.379,1.331c0.646,0,1.091-0.3,1.379-0.72l1.115,0.804
						c-0.624,0.84-1.26,1.271-2.591,1.271c-1.715,0-2.975-1.26-2.975-3.059c0-1.667,1.127-3.046,2.926-3.046
						c1.979,0,2.759,1.415,2.759,3.214v0.204L208.619,215.318L208.619,215.318z M208.667,214.287h2.313
						c-0.107-0.672-0.624-1.02-1.139-1.02C209.303,213.268,208.835,213.604,208.667,214.287z"/>
					<path fill="#FFFFFF" d="M215.471,217.885h-1.679v-5.854h1.679v0.396c0,0.096-0.012,0.239-0.036,0.407
						c0.384-0.552,0.973-0.947,1.775-0.947c1.211,0,2.123,0.947,2.123,2.519v3.479h-1.691v-3.383c0-0.814-0.516-1.234-1.08-1.234
						c-0.504,0-1.066,0.406-1.091,1.188V217.885z"/>
					<path fill="#FFFFFF" d="M224.472,217.885v-8.995h1.679v3.729c0.456-0.479,1.056-0.72,1.703-0.72
						c1.619,0,2.542,1.475,2.542,3.034c0,1.583-0.888,3.069-2.53,3.069c-0.685,0-1.319-0.336-1.775-0.888v0.768h-1.618V217.885z
						 M228.729,214.958c0-0.862-0.432-1.559-1.308-1.559c-0.779,0-1.295,0.646-1.295,1.547c0,0.804,0.526,1.571,1.295,1.571
						C228.286,216.518,228.729,215.81,228.729,214.958z"/>
					<path fill="#FFFFFF" d="M236.925,217.885c-0.72,0-1.211-0.385-1.475-0.995c-0.337,0.563-1.043,1.114-2.088,1.114
						c-1.295,0-1.954-0.84-1.954-1.715c0-0.972,0.792-1.919,2.423-1.919c0.491,0,0.971,0.061,1.415,0.145v-0.192
						c0-0.575-0.396-0.959-1.043-0.959c-0.456,0-0.828,0.204-1.067,0.588l-1.175-0.876c0,0,0.671-1.199,2.327-1.199
						c1.631,0,2.626,0.973,2.626,2.375v1.764c0,0.216,0.144,0.348,0.359,0.348h0.24v1.523L236.925,217.885L236.925,217.885z
						 M235.246,215.558c-0.313-0.061-0.696-0.119-0.924-0.119c-0.684,0-1.211,0.228-1.211,0.707c0,0.324,0.24,0.54,0.685,0.54
						C234.502,216.686,235.03,216.193,235.246,215.558z"/>
					<path fill="#FFFFFF" d="M242.337,214.011c-0.3-0.323-0.564-0.553-1.043-0.553c-0.78,0-1.331,0.624-1.331,1.487
						c0,0.899,0.551,1.463,1.331,1.463c0.479,0,0.839-0.264,1.091-0.623l1.259,0.959c-0.6,0.815-1.318,1.248-2.351,1.248
						c-1.764,0-3.01-1.344-3.01-3.047s1.246-3.046,2.998-3.046c0.924,0,1.654,0.396,2.219,1.031L242.337,214.011z"/>
					<path fill="#FFFFFF" d="M248.673,217.885l-1.644-2.46l-0.504,0.576v1.884h-1.703v-8.995h1.703v5.121l1.632-1.991h1.87
						l-2.003,2.291l2.472,3.574H248.673z"/>
					<path fill="#FFFFFF" d="M255.153,217.885v-0.769c-0.468,0.552-1.092,0.888-1.774,0.888c-1.644,0-2.53-1.486-2.53-3.069
						c0-1.561,0.923-3.034,2.542-3.034c0.647,0,1.247,0.239,1.703,0.72v-3.729h1.679v8.995L255.153,217.885L255.153,217.885z
						 M255.117,214.946c0-0.899-0.517-1.547-1.296-1.547c-0.875,0-1.307,0.695-1.307,1.559c0,0.853,0.444,1.561,1.307,1.561
						C254.589,216.518,255.117,215.75,255.117,214.946z"/>
					<path fill="#FFFFFF" d="M259.99,217.885h-1.679v-5.854h1.679v0.396c0,0.132-0.023,0.348-0.06,0.575
						c0.336-0.636,0.863-1.115,1.631-1.115v1.644c-0.875,0-1.571,0.504-1.571,1.463V217.885z"/>
					<path fill="#FFFFFF" d="M262.403,214.946c0-1.739,1.344-3.046,3.06-3.046c1.715,0,3.058,1.307,3.058,3.046
						s-1.343,3.047-3.058,3.047C263.746,217.993,262.403,216.686,262.403,214.946z M266.876,214.946
						c0-0.888-0.564-1.547-1.415-1.547c-0.864,0-1.427,0.659-1.427,1.547c0,0.899,0.587,1.56,1.427,1.56
						C266.313,216.506,266.876,215.846,266.876,214.946z"/>
					<path fill="#FFFFFF" d="M269.699,220.883v-8.851h1.679v0.588c0.456-0.479,1.055-0.72,1.703-0.72
						c1.619,0,2.542,1.475,2.542,3.034c0,1.583-0.889,3.069-2.531,3.069c-0.684,0-1.319-0.336-1.775-0.888v3.766L269.699,220.883
						L269.699,220.883z M273.957,214.958c0-0.862-0.433-1.559-1.309-1.559c-0.778,0-1.295,0.646-1.295,1.547
						c0,0.804,0.527,1.571,1.295,1.571C273.513,216.518,273.957,215.81,273.957,214.958z"/>
					<path fill="#FFFFFF" d="M280.99,215.918c0.408,0.469,1.056,0.659,1.619,0.659c0.359,0,0.624-0.144,0.624-0.358
						c0-0.301-0.3-0.443-0.792-0.589c-0.912-0.264-2.039-0.768-2.039-1.955c0-1.127,1.092-1.763,2.075-1.763
						c0.888,0,1.511,0.3,2.039,0.853l-0.936,1.008c-0.252-0.276-0.721-0.528-1.067-0.528c-0.312,0-0.54,0.146-0.54,0.372
						c0,0.288,0.335,0.432,0.863,0.588c0.888,0.265,2.026,0.815,2.026,1.932c0,1.104-0.946,1.87-2.267,1.87
						c-1.056,0-1.919-0.3-2.555-0.982L280.99,215.918z"/>
					<path fill="#FFFFFF" d="M295.241,212.032l-2.016,5.854h-1.907l-0.876-2.734c-0.06-0.168-0.12-0.479-0.132-0.54l-0.144,0.54
						l-0.9,2.734h-1.907c-0.66-1.943-1.318-3.897-1.967-5.854h1.812l0.91,3.226c0.084,0.324,0.168,0.708,0.192,0.78
						c0.012-0.061,0.096-0.432,0.204-0.78l0.947-3.226h1.703l0.924,3.226c0.096,0.35,0.167,0.744,0.18,0.792
						c0.012-0.048,0.108-0.432,0.216-0.792l0.937-3.226H295.241z"/>
					<path fill="#FFFFFF" d="M297.069,209.117c0.601,0,1.104,0.504,1.104,1.104c0,0.6-0.504,1.104-1.104,1.104
						c-0.6,0-1.104-0.504-1.104-1.104C295.965,209.621,296.47,209.117,297.069,209.117z M296.194,217.885v-5.854h1.716v5.854
						H296.194z"/>
					<path fill="#FFFFFF" d="M299.998,212.032v-2.087h1.679v2.087h0.827v1.559h-0.827v4.295h-1.679v-4.295h-0.816v-1.559H299.998z"
						/>
					<path fill="#FFFFFF" d="M307.496,214.011c-0.302-0.323-0.564-0.553-1.044-0.553c-0.78,0-1.331,0.624-1.331,1.487
						c0,0.899,0.551,1.463,1.331,1.463c0.479,0,0.839-0.264,1.091-0.623l1.26,0.959c-0.6,0.815-1.319,1.248-2.351,1.248
						c-1.764,0-3.012-1.344-3.012-3.047s1.248-3.046,2.998-3.046c0.924,0,1.656,0.396,2.22,1.031L307.496,214.011z"/>
					<path fill="#FFFFFF" d="M309.981,217.885v-8.995h1.68v3.538c0,0.096-0.013,0.252-0.035,0.407
						c0.383-0.552,0.971-0.947,1.773-0.947c1.212,0,2.123,0.947,2.123,2.519v3.479h-1.689v-3.383c0-0.814-0.518-1.234-1.08-1.234
						c-0.517,0-1.021,0.406-1.092,1.247v3.37L309.981,217.885L309.981,217.885z"/>
					<path fill="#FFFFFF" d="M318.393,215.318c0.12,0.972,0.72,1.331,1.379,1.331c0.648,0,1.092-0.3,1.38-0.72l1.115,0.804
						c-0.624,0.84-1.259,1.271-2.591,1.271c-1.715,0-2.975-1.26-2.975-3.059c0-1.667,1.128-3.046,2.927-3.046
						c1.979,0,2.759,1.415,2.759,3.214v0.204L318.393,215.318L318.393,215.318z M318.441,214.287h2.314
						c-0.108-0.672-0.624-1.02-1.141-1.02C319.076,213.268,318.609,213.604,318.441,214.287z"/>
					<path fill="#FFFFFF" d="M324.153,215.918c0.407,0.469,1.057,0.659,1.619,0.659c0.359,0,0.624-0.144,0.624-0.358
						c0-0.301-0.301-0.443-0.792-0.589c-0.911-0.264-2.039-0.768-2.039-1.955c0-1.127,1.091-1.763,2.075-1.763
						c0.887,0,1.511,0.3,2.039,0.853l-0.936,1.008c-0.252-0.276-0.722-0.528-1.068-0.528c-0.313,0-0.539,0.146-0.539,0.372
						c0,0.288,0.336,0.432,0.863,0.588c0.888,0.265,2.026,0.815,2.026,1.932c0,1.104-0.946,1.87-2.268,1.87
						c-1.055,0-1.918-0.3-2.555-0.982L324.153,215.918z"/>
					<path fill="#FFFFFF" d="M333.26,212.032v-2.087h1.68v2.087h0.828v1.559h-0.828v4.295h-1.68v-4.295h-0.814v-1.559H333.26z"/>
					<path fill="#FFFFFF" d="M336.584,214.946c0-1.739,1.344-3.046,3.059-3.046s3.06,1.307,3.06,3.046s-1.345,3.047-3.06,3.047
						S336.584,216.686,336.584,214.946z M341.059,214.946c0-0.888-0.563-1.547-1.416-1.547c-0.863,0-1.427,0.659-1.427,1.547
						c0,0.899,0.587,1.56,1.427,1.56C340.494,216.506,341.059,215.846,341.059,214.946z"/>
				</g>
			</g>
		</g>
	</g>
</g>
</svg>
