<?xml version="1.0" encoding="utf-8"?>
<!-- Generator: Adobe Illustrator 15.0.0, SVG Export Plug-In . SVG Version: 6.00 Build 0)  -->
<!DOCTYPE svg PUBLIC "-//W3C//DTD SVG 1.1//EN" "http://www.w3.org/Graphics/SVG/1.1/DTD/svg11.dtd">
<svg version="1.1" id="Layer_1" xmlns="http://www.w3.org/2000/svg" xmlns:xlink="http://www.w3.org/1999/xlink" x="0px" y="0px"
	 width="170.499px" height="40.167px" viewBox="212.391 307.411 170.499 40.167"
	 enable-background="new 212.391 307.411 170.499 40.167" xml:space="preserve">
<g>
	<g>
		<path fill="#C88330" d="M377.89,316.911h-27h-2.5h-25.5h-1.5h-29.381c-6.576-3.776-19.768-9.5-39.368-9.5
			c-27.889,0-39.179,10.901-40.17,11.916h-0.08v2.584v2.417v15.333c0,2.763,2.238,5,5,5h8.083l2.056,2.546
			c0.19,0.234,0.477,0.371,0.778,0.371h7.757c0.304,0,0.588-0.137,0.778-0.371l2.056-2.546h82.491h1.5h25.5h2.5h27
			c2.762,0,5-2.237,5-5v-17.75C382.89,319.149,380.651,316.911,377.89,316.911z"/>
		<g>
			<rect x="313.952" y="323.271" fill="#FFFFFF" width="58.104" height="14.779"/>
			<g>
				<g>
					<path fill="#FFFFFF" d="M233.189,327.782l-2.015,5.854h-1.907l-0.875-2.734c-0.06-0.168-0.12-0.479-0.132-0.54l-0.144,0.54
						l-0.899,2.734h-1.907c-0.66-1.943-1.318-3.897-1.967-5.854h1.811l0.911,3.227c0.084,0.323,0.168,0.708,0.192,0.779
						c0.012-0.061,0.096-0.432,0.204-0.779l0.947-3.227h1.702l0.924,3.227c0.096,0.349,0.168,0.744,0.18,0.792
						c0.012-0.048,0.107-0.433,0.216-0.792l0.937-3.227H233.189z"/>
					<path fill="#FFFFFF" d="M234.083,333.635v-8.995h1.679v3.538c0,0.096-0.012,0.252-0.036,0.408
						c0.384-0.553,0.972-0.948,1.775-0.948c1.211,0,2.123,0.948,2.123,2.519v3.479h-1.691v-3.382c0-0.815-0.516-1.235-1.08-1.235
						c-0.516,0-1.02,0.407-1.091,1.247v3.37L234.083,333.635L234.083,333.635z"/>
					<path fill="#FFFFFF" d="M242.494,331.068c0.119,0.972,0.72,1.331,1.379,1.331c0.646,0,1.091-0.3,1.379-0.72l1.115,0.804
						c-0.624,0.84-1.26,1.271-2.591,1.271c-1.715,0-2.975-1.261-2.975-3.06c0-1.667,1.127-3.046,2.926-3.046
						c1.979,0,2.759,1.415,2.759,3.214v0.204L242.494,331.068L242.494,331.068z M242.542,330.037h2.313
						c-0.107-0.672-0.624-1.02-1.139-1.02C243.178,329.018,242.71,329.354,242.542,330.037z"/>
					<path fill="#FFFFFF" d="M249.346,333.635h-1.679v-5.854h1.679v0.396c0,0.096-0.012,0.24-0.036,0.408
						c0.384-0.553,0.973-0.948,1.775-0.948c1.211,0,2.123,0.948,2.123,2.519v3.479h-1.691v-3.382c0-0.815-0.516-1.235-1.08-1.235
						c-0.504,0-1.066,0.407-1.091,1.188V333.635z"/>
					<path fill="#FFFFFF" d="M258.299,333.635v-1.415h1.043v-5.553h-1.043v-1.429h3.802v1.429h-1.043v5.553h1.043v1.415H258.299z"/>
					<path fill="#FFFFFF" d="M268.87,333.635h-1.68v-5.854h1.68v0.396c0,0.132-0.024,0.348-0.061,0.576
						c0.336-0.637,0.863-1.116,1.631-1.116v1.644c-0.875,0-1.57,0.504-1.57,1.463V333.635z"/>
					<path fill="#FFFFFF" d="M272.973,331.068c0.12,0.972,0.72,1.331,1.379,1.331c0.647,0,1.091-0.3,1.379-0.72l1.115,0.804
						c-0.624,0.84-1.259,1.271-2.59,1.271c-1.715,0-2.976-1.261-2.976-3.06c0-1.667,1.128-3.046,2.927-3.046
						c1.979,0,2.759,1.415,2.759,3.214v0.204L272.973,331.068L272.973,331.068z M273.021,330.037h2.314
						c-0.108-0.672-0.624-1.02-1.14-1.02C273.657,329.018,273.189,329.354,273.021,330.037z"/>
					<path fill="#FFFFFF" d="M281.96,329.761c-0.3-0.323-0.564-0.553-1.043-0.553c-0.78,0-1.332,0.624-1.332,1.487
						c0,0.899,0.552,1.463,1.332,1.463c0.479,0,0.839-0.264,1.091-0.623l1.259,0.959c-0.6,0.815-1.319,1.248-2.351,1.248
						c-1.764,0-3.011-1.344-3.011-3.047s1.247-3.046,2.998-3.046c0.925,0,1.655,0.396,2.22,1.031L281.96,329.761z"/>
					<path fill="#FFFFFF" d="M285.777,331.068c0.12,0.972,0.721,1.331,1.379,1.331c0.647,0,1.092-0.3,1.38-0.72l1.114,0.804
						c-0.624,0.84-1.259,1.271-2.59,1.271c-1.715,0-2.975-1.261-2.975-3.06c0-1.667,1.127-3.046,2.926-3.046
						c1.979,0,2.759,1.415,2.759,3.214v0.204L285.777,331.068L285.777,331.068z M285.825,330.037h2.313
						c-0.108-0.672-0.624-1.02-1.139-1.02C286.461,329.018,285.993,329.354,285.825,330.037z"/>
					<path fill="#FFFFFF" d="M291.885,324.867c0.6,0,1.104,0.504,1.104,1.104c0,0.6-0.504,1.104-1.104,1.104
						s-1.104-0.504-1.104-1.104C290.781,325.371,291.286,324.867,291.885,324.867z M291.01,333.635v-5.854h1.715v5.854H291.01z"/>
					<path fill="#FFFFFF" d="M295.845,333.635l-2.135-5.854h1.823l1.066,3.046c0.12,0.336,0.192,0.757,0.204,0.841
						c0.012-0.062,0.084-0.492,0.204-0.841l1.067-3.046h1.822l-2.135,5.854H295.845z"/>
					<path fill="#FFFFFF" d="M302.121,331.068c0.118,0.972,0.719,1.331,1.379,1.331c0.646,0,1.092-0.3,1.379-0.72l1.115,0.804
						c-0.623,0.84-1.26,1.271-2.591,1.271c-1.715,0-2.975-1.261-2.975-3.06c0-1.667,1.127-3.046,2.926-3.046
						c1.979,0,2.76,1.415,2.76,3.214v0.204L302.121,331.068L302.121,331.068z M302.169,330.037h2.313
						c-0.107-0.672-0.624-1.02-1.14-1.02C302.805,329.018,302.337,329.354,302.169,330.037z"/>
				</g>
			</g>
		</g>
	</g>
</g>
</svg>
