<?xml version="1.0" encoding="utf-8"?>
<!-- Generator: Adobe Illustrator 15.0.0, SVG Export Plug-In . SVG Version: 6.00 Build 0)  -->
<!DOCTYPE svg PUBLIC "-//W3C//DTD SVG 1.1//EN" "http://www.w3.org/Graphics/SVG/1.1/DTD/svg11.dtd">
<svg version="1.1" id="Layer_1" xmlns="http://www.w3.org/2000/svg" xmlns:xlink="http://www.w3.org/1999/xlink" x="0px" y="0px"
	 width="115.502px" height="40.167px" viewBox="235.948 43.364 115.502 40.167"
	 enable-background="new 235.948 43.364 115.502 40.167" xml:space="preserve">
<g>
	<g>
		<path fill="#C88330" d="M346.449,52.864h-30.882c-6.575-3.777-19.768-9.5-39.37-9.5c-27.889,0-39.178,10.901-40.169,11.916h-0.081
			v2.584v2.417v15.333c0,2.762,2.239,5,5,5h8.083l2.057,2.545c0.189,0.235,0.476,0.372,0.778,0.372h7.757
			c0.302,0,0.588-0.137,0.777-0.372l2.057-2.545h83.993c2.762,0,5-2.238,5-5v-17.75C351.449,55.103,349.211,52.864,346.449,52.864z"
			/>
		<g>
			<g>
				<g>
					<path fill="#FFFFFF" d="M251.546,63.735l-2.016,5.853h-1.906l-0.875-2.733c-0.061-0.168-0.12-0.479-0.132-0.54l-0.145,0.54
						l-0.898,2.733h-1.907c-0.66-1.942-1.319-3.896-1.967-5.853h1.811l0.911,3.226c0.084,0.324,0.168,0.708,0.191,0.78
						c0.013-0.061,0.097-0.432,0.204-0.78l0.947-3.226h1.703l0.923,3.226c0.096,0.35,0.168,0.744,0.18,0.792
						c0.013-0.048,0.108-0.432,0.217-0.792l0.936-3.226H251.546z"/>
					<path fill="#FFFFFF" d="M252.439,69.588v-8.994h1.68v3.537c0,0.097-0.013,0.252-0.036,0.408
						c0.384-0.552,0.972-0.948,1.774-0.948c1.211,0,2.123,0.948,2.123,2.52v3.479h-1.69v-3.382c0-0.814-0.517-1.234-1.08-1.234
						c-0.517,0-1.021,0.406-1.091,1.247v3.369L252.439,69.588L252.439,69.588z"/>
					<path fill="#FFFFFF" d="M260.85,67.021c0.12,0.972,0.72,1.331,1.379,1.331c0.647,0,1.091-0.3,1.379-0.721l1.115,0.805
						c-0.624,0.84-1.259,1.271-2.59,1.271c-1.715,0-2.975-1.26-2.975-3.059c0-1.667,1.127-3.046,2.926-3.046
						c1.979,0,2.759,1.415,2.759,3.214v0.204L260.85,67.021L260.85,67.021z M260.898,65.99h2.314c-0.108-0.672-0.624-1.02-1.14-1.02
						C261.534,64.971,261.066,65.307,260.898,65.99z"/>
					<path fill="#FFFFFF" d="M267.702,69.588h-1.68v-5.853h1.68v0.396c0,0.097-0.013,0.24-0.036,0.408
						c0.384-0.552,0.972-0.948,1.774-0.948c1.211,0,2.123,0.948,2.123,2.52v3.479h-1.69v-3.382c0-0.814-0.517-1.234-1.08-1.234
						c-0.504,0-1.067,0.406-1.091,1.188V69.588L267.702,69.588z"/>
				</g>
			</g>
			<g>
				<g>
					<path fill="#FFFFFF" d="M311.161,65.714c-0.301-0.322-0.563-0.552-1.044-0.552c-0.779,0-1.331,0.624-1.331,1.487
						c0,0.898,0.552,1.463,1.331,1.463c0.479,0,0.84-0.264,1.092-0.623l1.26,0.959c-0.6,0.815-1.32,1.248-2.352,1.248
						c-1.764,0-3.011-1.344-3.011-3.047s1.247-3.046,2.998-3.046c0.924,0,1.655,0.396,2.22,1.03L311.161,65.714z"/>
					<path fill="#FFFFFF" d="M313.646,69.588v-8.994h1.703v8.994H313.646z"/>
					<path fill="#FFFFFF" d="M317.822,60.82c0.601,0,1.104,0.504,1.104,1.104c0,0.601-0.504,1.104-1.104,1.104
						c-0.6,0-1.104-0.504-1.104-1.104C316.718,61.324,317.223,60.82,317.822,60.82z M316.947,69.588v-5.853h1.716v5.853H316.947z"/>
					<path fill="#FFFFFF" d="M324.109,65.714c-0.301-0.322-0.563-0.552-1.044-0.552c-0.779,0-1.331,0.624-1.331,1.487
						c0,0.898,0.552,1.463,1.331,1.463c0.479,0,0.839-0.264,1.091-0.623l1.261,0.959c-0.601,0.815-1.319,1.248-2.352,1.248
						c-1.763,0-3.011-1.344-3.011-3.047s1.248-3.046,2.998-3.046c0.924,0,1.656,0.396,2.219,1.03L324.109,65.714z"/>
					<path fill="#FFFFFF" d="M330.445,69.588l-1.644-2.459l-0.504,0.576v1.883h-1.703v-8.994h1.703v5.12l1.631-1.99h1.871
						l-2.003,2.291l2.471,3.573H330.445z"/>
					<path fill="#FFFFFF" d="M334.298,67.021c0.12,0.972,0.72,1.331,1.38,1.331c0.647,0,1.091-0.3,1.379-0.721l1.115,0.805
						c-0.623,0.84-1.26,1.271-2.59,1.271c-1.716,0-2.976-1.26-2.976-3.059c0-1.667,1.127-3.046,2.927-3.046
						c1.979,0,2.759,1.415,2.759,3.214v0.204L334.298,67.021L334.298,67.021z M334.346,65.99h2.314
						c-0.107-0.672-0.623-1.02-1.14-1.02C334.981,64.971,334.514,65.307,334.346,65.99z"/>
					<path fill="#FFFFFF" d="M343.429,69.588V68.82c-0.468,0.552-1.092,0.888-1.775,0.888c-1.644,0-2.529-1.486-2.529-3.069
						c0-1.561,0.924-3.034,2.543-3.034c0.646,0,1.246,0.239,1.703,0.72v-3.729h1.679v8.994L343.429,69.588L343.429,69.588z
						 M343.393,66.649c0-0.899-0.516-1.547-1.295-1.547c-0.876,0-1.308,0.694-1.308,1.559c0,0.853,0.443,1.561,1.308,1.561
						C342.865,68.221,343.393,67.453,343.393,66.649z"/>
				</g>
			</g>
			<path fill="#009640" d="M300.18,59.106c-0.303-0.224-0.706-0.255-1.042-0.085c-1.264,0.642-5.118,2.081-6.233,0.351
				c-2.139-3.319-7.765-3.233-8.005-3.225c-0.02,0-0.035,0.01-0.055,0.012c-0.073,0.006-0.141,0.026-0.21,0.047
				c-0.056,0.019-0.111,0.029-0.162,0.058c-0.061,0.029-0.11,0.072-0.164,0.114c-0.048,0.039-0.096,0.072-0.135,0.117
				c-0.041,0.048-0.069,0.104-0.103,0.158c-0.033,0.059-0.067,0.115-0.09,0.182c-0.007,0.019-0.021,0.031-0.024,0.052l-4.999,18.488
				c-0.145,0.533,0.172,1.082,0.704,1.228c0.088,0.022,0.176,0.033,0.262,0.033c0.441,0,0.845-0.294,0.965-0.738l2.313-8.558
				c0.082,0.021,0.161,0.052,0.25,0.054c1.302-0.037,5,0.323,6.276,2.309c0.845,1.312,2.204,1.732,3.606,1.732
				c2.459,0,5.048-1.297,5.216-1.383c0.284-0.146,0.482-0.416,0.533-0.732l1.493-9.246C300.638,59.701,300.484,59.327,300.18,59.106
				z"/>
		</g>
	</g>
</g>
</svg>
