<?xml version="1.0" encoding="utf-8"?>
<!-- Generator: Adobe Illustrator 15.0.0, SVG Export Plug-In . SVG Version: 6.00 Build 0)  -->
<!DOCTYPE svg PUBLIC "-//W3C//DTD SVG 1.1//EN" "http://www.w3.org/Graphics/SVG/1.1/DTD/svg11.dtd">
<svg version="1.1" id="Layer_1" xmlns="http://www.w3.org/2000/svg" xmlns:xlink="http://www.w3.org/1999/xlink" x="0px" y="0px"
	 width="191.502px" height="25.078px" viewBox="201.889 397.372 191.502 25.078"
	 enable-background="new 201.889 397.372 191.502 25.078" xml:space="preserve">
<g>
	<g>
		<path fill="#C88330" d="M388.391,397.372h-30H344.5h-2.109h-21.75h-8.25H298.5h-70.104l-2.056,2.546
			c-0.19,0.234-0.476,0.371-0.778,0.371h-7.757c-0.302,0-0.588-0.137-0.778-0.371l-2.055-2.546h-8.084c-2.761,0-5,2.238-5,5v12.167
			c0,2.763,2.239,5,5,5h8.088l2.051,2.539c0.19,0.235,0.478,0.372,0.778,0.372h7.757c0.304,0,0.588-0.137,0.778-0.372l2.051-2.539
			H298.5h13.891h8.25h21.75h2.109h13.891h30c2.762,0,5-2.237,5-5v-12.167C393.391,399.61,391.152,397.372,388.391,397.372z"/>
		<g>
			<rect x="271.998" y="401.905" fill="#FFFFFF" width="60.65" height="12.343"/>
			<g>
				<g>
					<path fill="#FFFFFF" d="M210.536,412.144v-8.996h1.679v3.73c0.456-0.48,1.055-0.72,1.703-0.72c1.619,0,2.542,1.476,2.542,3.033
						c0,1.584-0.889,3.07-2.531,3.07c-0.684,0-1.319-0.336-1.775-0.887v0.768L210.536,412.144L210.536,412.144z M214.793,409.217
						c0-0.863-0.433-1.56-1.309-1.56c-0.778,0-1.295,0.648-1.295,1.547c0,0.806,0.527,1.572,1.295,1.572
						C214.35,410.776,214.793,410.067,214.793,409.217z"/>
					<path fill="#FFFFFF" d="M219.319,412.144h-1.679v-5.854h1.679v0.396c0,0.131-0.023,0.348-0.06,0.576
						c0.336-0.638,0.863-1.117,1.631-1.117v1.645c-0.875,0-1.571,0.505-1.571,1.464V412.144z"/>
					<path fill="#FFFFFF" d="M221.731,409.204c0-1.737,1.344-3.045,3.06-3.045c1.715,0,3.058,1.308,3.058,3.045
						c0,1.74-1.343,3.048-3.058,3.048S221.731,410.944,221.731,409.204z M226.205,409.204c0-0.887-0.563-1.547-1.415-1.547
						c-0.864,0-1.428,0.66-1.428,1.547c0,0.9,0.588,1.562,1.428,1.562C225.642,410.765,226.205,410.104,226.205,409.204z"/>
					<path fill="#FFFFFF" d="M234.376,412.144c-0.721,0-1.211-0.385-1.476-0.996c-0.336,0.564-1.043,1.115-2.087,1.115
						c-1.295,0-1.955-0.84-1.955-1.715c0-0.972,0.792-1.918,2.424-1.918c0.491,0,0.971,0.059,1.414,0.143v-0.191
						c0-0.575-0.396-0.959-1.043-0.959c-0.456,0-0.827,0.203-1.066,0.589l-1.175-0.878c0,0,0.672-1.198,2.326-1.198
						c1.632,0,2.626,0.973,2.626,2.375v1.764c0,0.215,0.145,0.348,0.36,0.348h0.24v1.523L234.376,412.144L234.376,412.144z
						 M232.697,409.815c-0.312-0.059-0.694-0.119-0.923-0.119c-0.684,0-1.211,0.229-1.211,0.707c0,0.324,0.24,0.541,0.685,0.541
						C231.954,410.944,232.481,410.452,232.697,409.815z"/>
					<path fill="#FFFFFF" d="M239.933,412.144v-0.768c-0.468,0.551-1.092,0.887-1.774,0.887c-1.644,0-2.53-1.486-2.53-3.07
						c0-1.559,0.923-3.033,2.542-3.033c0.646,0,1.247,0.238,1.703,0.72v-3.73h1.679v8.996L239.933,412.144L239.933,412.144z
						 M239.897,409.204c0-0.897-0.516-1.547-1.295-1.547c-0.875,0-1.307,0.695-1.307,1.56c0,0.852,0.443,1.561,1.307,1.561
						C239.369,410.776,239.897,410.01,239.897,409.204z"/>
					<path fill="#FFFFFF" d="M246.905,408.269c-0.3-0.322-0.563-0.551-1.043-0.551c-0.779,0-1.331,0.623-1.331,1.485
						c0,0.9,0.552,1.464,1.331,1.464c0.479,0,0.84-0.265,1.092-0.623l1.259,0.959c-0.601,0.815-1.319,1.248-2.352,1.248
						c-1.763,0-3.01-1.345-3.01-3.048c0-1.702,1.247-3.045,2.998-3.045c0.924,0,1.655,0.396,2.219,1.031L246.905,408.269z"/>
					<path fill="#FFFFFF" d="M254.32,412.144c-0.72,0-1.211-0.385-1.475-0.996c-0.336,0.564-1.043,1.115-2.087,1.115
						c-1.295,0-1.955-0.84-1.955-1.715c0-0.972,0.792-1.918,2.423-1.918c0.492,0,0.971,0.059,1.415,0.143v-0.191
						c0-0.575-0.396-0.959-1.043-0.959c-0.456,0-0.828,0.203-1.067,0.589l-1.175-0.878c0,0,0.672-1.198,2.327-1.198
						c1.631,0,2.626,0.973,2.626,2.375v1.764c0,0.215,0.145,0.348,0.36,0.348h0.24v1.523L254.32,412.144L254.32,412.144z
						 M252.641,409.815c-0.312-0.059-0.695-0.119-0.923-0.119c-0.684,0-1.211,0.229-1.211,0.707c0,0.324,0.24,0.541,0.684,0.541
						C251.897,410.944,252.425,410.452,252.641,409.815z"/>
					<path fill="#FFFFFF" d="M256.506,410.177c0.408,0.467,1.055,0.658,1.619,0.658c0.359,0,0.624-0.144,0.624-0.359
						c0-0.299-0.3-0.443-0.792-0.588c-0.912-0.265-2.039-0.769-2.039-1.955c0-1.127,1.091-1.762,2.075-1.762
						c0.888,0,1.511,0.299,2.039,0.852l-0.937,1.008c-0.252-0.276-0.72-0.528-1.067-0.528c-0.312,0-0.54,0.145-0.54,0.372
						c0,0.287,0.336,0.433,0.863,0.589c0.889,0.264,2.027,0.813,2.027,1.93c0,1.104-0.947,1.871-2.268,1.871
						c-1.056,0-1.919-0.299-2.555-0.982L256.506,410.177z"/>
					<path fill="#FFFFFF" d="M262.014,406.29v-2.086h1.679v2.086h0.828v1.56h-0.828v4.295h-1.679v-4.295h-0.814v-1.56H262.014z"/>
				</g>
			</g>
			<g>
				<g>
					<path fill="#FFFFFF" d="M342.885,412.144c-0.72,0-1.211-0.385-1.475-0.996c-0.336,0.564-1.044,1.115-2.089,1.115
						c-1.295,0-1.954-0.84-1.954-1.715c0-0.972,0.792-1.918,2.424-1.918c0.491,0,0.971,0.059,1.414,0.143v-0.191
						c0-0.575-0.396-0.959-1.043-0.959c-0.455,0-0.828,0.203-1.067,0.589l-1.175-0.878c0,0,0.671-1.198,2.326-1.198
						c1.631,0,2.627,0.973,2.627,2.375v1.764c0,0.215,0.144,0.348,0.358,0.348h0.24v1.523L342.885,412.144L342.885,412.144z
						 M341.205,409.815c-0.313-0.059-0.695-0.119-0.924-0.119c-0.684,0-1.212,0.229-1.212,0.707c0,0.324,0.24,0.541,0.685,0.541
						C340.462,410.944,340.99,410.452,341.205,409.815z"/>
					<path fill="#FFFFFF" d="M346.162,412.144h-1.68v-5.854h1.68v0.396c0,0.096-0.013,0.24-0.035,0.408
						c0.383-0.554,0.971-0.949,1.773-0.949c1.212,0,2.123,0.949,2.123,2.52v3.479h-1.689v-3.383c0-0.814-0.518-1.234-1.08-1.234
						c-0.504,0-1.067,0.406-1.092,1.188V412.144L346.162,412.144z"/>
					<path fill="#FFFFFF" d="M355.521,412.144v-0.768c-0.468,0.551-1.092,0.887-1.774,0.887c-1.644,0-2.53-1.486-2.53-3.07
						c0-1.559,0.923-3.033,2.542-3.033c0.647,0,1.248,0.238,1.703,0.72v-3.73h1.68v8.996L355.521,412.144L355.521,412.144z
						 M355.485,409.204c0-0.897-0.516-1.547-1.296-1.547c-0.875,0-1.307,0.695-1.307,1.56c0,0.852,0.443,1.561,1.307,1.561
						C354.957,410.776,355.485,410.01,355.485,409.204z"/>
					<path fill="#FFFFFF" d="M371.479,406.29l-2.016,5.854h-1.906l-0.876-2.734c-0.06-0.168-0.12-0.479-0.132-0.541l-0.145,0.541
						l-0.898,2.734h-1.907c-0.659-1.943-1.319-3.898-1.967-5.854h1.812l0.91,3.228c0.084,0.324,0.168,0.707,0.192,0.779
						c0.013-0.062,0.097-0.433,0.204-0.779l0.946-3.228h1.703l0.925,3.228c0.096,0.348,0.168,0.744,0.18,0.791
						c0.012-0.047,0.106-0.432,0.216-0.791l0.936-3.228H371.479z"/>
					<path fill="#FFFFFF" d="M377.133,412.144c-0.721,0-1.212-0.385-1.477-0.996c-0.336,0.564-1.044,1.115-2.087,1.115
						c-1.295,0-1.955-0.84-1.955-1.715c0-0.972,0.791-1.918,2.424-1.918c0.49,0,0.972,0.059,1.415,0.143v-0.191
						c0-0.575-0.396-0.959-1.043-0.959c-0.456,0-0.828,0.203-1.068,0.589l-1.175-0.878c0,0,0.672-1.198,2.327-1.198
						c1.631,0,2.626,0.973,2.626,2.375v1.764c0,0.215,0.144,0.348,0.359,0.348h0.239v1.523L377.133,412.144L377.133,412.144z
						 M375.453,409.815c-0.313-0.059-0.695-0.119-0.925-0.119c-0.684,0-1.211,0.229-1.211,0.707c0,0.324,0.24,0.541,0.685,0.541
						C374.709,410.944,375.237,410.452,375.453,409.815z"/>
					<path fill="#FFFFFF" d="M379.666,403.377c0.6,0,1.104,0.504,1.104,1.104s-0.504,1.104-1.104,1.104
						c-0.601,0-1.104-0.505-1.104-1.104S379.066,403.377,379.666,403.377z M378.791,412.144v-5.854h1.715v5.854H378.791z"/>
					<path fill="#FFFFFF" d="M382.594,406.29v-2.086h1.68v2.086h0.828v1.56h-0.828v4.295h-1.68v-4.295h-0.814v-1.56H382.594z"/>
				</g>
			</g>
		</g>
	</g>
</g>
</svg>
