<?xml version="1.0" encoding="iso-8859-1"?>
<!-- Generator: Adobe Illustrator 15.0.0, SVG Export Plug-In . SVG Version: 6.00 Build 0)  -->
<!DOCTYPE svg PUBLIC "-//W3C//DTD SVG 1.1//EN" "http://www.w3.org/Graphics/SVG/1.1/DTD/svg11.dtd">
<svg version="1.1" id="Layer_1" xmlns="http://www.w3.org/2000/svg" xmlns:xlink="http://www.w3.org/1999/xlink" x="0px" y="0px"
	 width="144.499px" height="40.166px" viewBox="0 0 144.499 40.166" style="enable-background:new 0 0 144.499 40.166;"
	 xml:space="preserve">
<g>
	<g>
		<path style="fill:#C88330;" d="M139.669,9.5h-1.17h-2.5h-25.5h-1.5H79.618C73.042,5.723,59.851,0,40.25,0
			C12.361,0,1.071,10.9,0.08,11.916H0V14.5v2.416V32.25c0,2.762,2.238,5,5,5h8.083l2.056,2.545c0.19,0.234,0.476,0.371,0.778,0.371
			h7.757c0.303,0,0.588-0.137,0.778-0.371l2.056-2.545h82.491h1.5h25.5h2.5h1.17V9.5z"/>
		<path style="fill:#C88330;" d="M139.499,9.5h-7.58v27.75h7.58c2.762,0,5-2.238,5-5V14.5C144.499,11.738,142.261,9.5,139.499,9.5z"
			/>
	</g>
	<g>
		<rect x="43.051" y="15.859" style="fill:#FFFFFF;" width="52.854" height="14.779"/>
		<g>
			<g>
				<path style="fill:#FFFFFF;" d="M17.287,20.371l-2.015,5.852h-1.907l-0.875-2.734c-0.061-0.168-0.12-0.479-0.133-0.539
					l-0.144,0.539l-0.899,2.734H9.408c-0.66-1.943-1.32-3.896-1.967-5.852h1.811l0.911,3.225c0.084,0.324,0.168,0.709,0.192,0.781
					c0.012-0.061,0.096-0.432,0.203-0.781l0.947-3.225h1.703l0.924,3.225c0.096,0.35,0.168,0.744,0.18,0.793
					c0.013-0.049,0.108-0.432,0.217-0.793l0.936-3.225H17.287z"/>
				<path style="fill:#FFFFFF;" d="M18.18,26.223v-8.994h1.68v3.537c0,0.096-0.012,0.252-0.036,0.408
					c0.384-0.551,0.972-0.947,1.774-0.947c1.212,0,2.123,0.947,2.123,2.518v3.479h-1.69v-3.381c0-0.816-0.517-1.236-1.079-1.236
					c-0.516,0-1.02,0.408-1.092,1.248v3.369H18.18z"/>
				<path style="fill:#FFFFFF;" d="M26.592,23.656c0.119,0.973,0.719,1.332,1.379,1.332c0.647,0,1.092-0.301,1.379-0.721
					l1.115,0.805c-0.623,0.84-1.259,1.271-2.59,1.271c-1.715,0-2.975-1.26-2.975-3.059c0-1.668,1.127-3.047,2.926-3.047
					c1.979,0,2.76,1.416,2.76,3.215v0.203H26.592z M26.64,22.625h2.314c-0.108-0.672-0.624-1.02-1.14-1.02
					C27.275,21.605,26.808,21.941,26.64,22.625z"/>
				<path style="fill:#FFFFFF;" d="M33.443,26.223h-1.68v-5.852h1.68v0.395c0,0.096-0.012,0.24-0.036,0.408
					c0.384-0.551,0.972-0.947,1.774-0.947c1.212,0,2.123,0.947,2.123,2.518v3.479h-1.69v-3.381c0-0.816-0.517-1.236-1.079-1.236
					c-0.504,0-1.068,0.408-1.092,1.188V26.223z"/>
			</g>
		</g>
		<g>
			<g>
				<path style="fill:#FFFFFF;" d="M101.836,27.516l4.314-4.283l-4.314-4.28l2.362-2.329l6.638,6.609l-6.638,6.644L101.836,27.516z"
					/>
			</g>
		</g>
		<path style="fill:#FFFFFF;" d="M115.787,23.25c0,4.9,3.974,8.875,8.875,8.875h3.641c4.9,0,8.875-3.975,8.875-8.875
			c0-4.902-3.975-8.875-8.875-8.875h-3.641C119.761,14.375,115.787,18.348,115.787,23.25
			C115.787,23.25,115.787,18.348,115.787,23.25z"/>
	</g>
</g>
</svg>
