<?xml version="1.0" encoding="UTF-8" standalone="no"?>
<!-- Generator: Adobe Illustrator 15.0.0, SVG Export Plug-In . SVG Version: 6.00 Build 0)  -->

<svg
   xmlns:dc="http://purl.org/dc/elements/1.1/"
   xmlns:cc="http://creativecommons.org/ns#"
   xmlns:rdf="http://www.w3.org/1999/02/22-rdf-syntax-ns#"
   xmlns:svg="http://www.w3.org/2000/svg"
   xmlns="http://www.w3.org/2000/svg"
   xmlns:sodipodi="http://sodipodi.sourceforge.net/DTD/sodipodi-0.dtd"
   xmlns:inkscape="http://www.inkscape.org/namespaces/inkscape"
   version="1.1"
   id="Layer_1"
   x="0px"
   y="0px"
   width="115.501px"
   height="69.328px"
   viewBox="239.89 18.566 115.501 69.328"
   enable-background="new 239.89 18.566 115.501 69.328"
   xml:space="preserve"
   sodipodi:docname="Scratch Control Blocks_repeat.svg"
   inkscape:version="0.92.1 r15371"><metadata
   id="metadata39"><rdf:RDF><cc:Work
       rdf:about=""><dc:format>image/svg+xml</dc:format><dc:type
         rdf:resource="http://purl.org/dc/dcmitype/StillImage" /></cc:Work></rdf:RDF></metadata><defs
   id="defs37" /><sodipodi:namedview
   pagecolor="#ffffff"
   bordercolor="#666666"
   borderopacity="1"
   objecttolerance="10"
   gridtolerance="10"
   guidetolerance="10"
   inkscape:pageopacity="0"
   inkscape:pageshadow="2"
   inkscape:window-width="1366"
   inkscape:window-height="705"
   id="namedview35"
   showgrid="false"
   inkscape:zoom="2.5108008"
   inkscape:cx="57.7505"
   inkscape:cy="34.664001"
   inkscape:window-x="-8"
   inkscape:window-y="-8"
   inkscape:window-maximized="1"
   inkscape:current-layer="g28" />
<g
   id="g32">
	<g
   id="g30">
		<path
   fill="#F2AF31"
   d="M351.223,62.9h-66.83l-2.051,2.539c-0.189,0.234-0.476,0.372-0.777,0.372h-7.758    c-0.302,0-0.588-0.138-0.777-0.372l-2.051-2.539h-8.089c-2.761,0-5-2.238-5-5V45.733c0-2.762,2.239-5,5-5h5.984h2.1h0.005    l2.051,2.539c0.189,0.234,0.477,0.372,0.777,0.372h7.758c0.303,0,0.588-0.138,0.777-0.372l2.051-2.539h0.005h65.993    c2.762,0,5-2.238,5-5V23.566c0-2.762-2.238-5-5-5h-83.993l-2.056,2.545c-0.189,0.235-0.476,0.372-0.777,0.372h-7.758    c-0.302,0-0.588-0.137-0.776-0.372l-2.057-2.545h-8.084c-2.718,0-4.919,2.172-4.987,4.875h-0.013v0.125v12.167v32.083v9.438v2.729    c0,2.762,2.239,5,5,5h8.089l2.052,2.539c0.188,0.234,0.476,0.372,0.776,0.372h7.757c0.304,0,0.588-0.138,0.778-0.372l2.051-2.539    h83.998c2.762,0,5-2.238,5-5V67.816C355.391,65.34,353.586,63.299,351.223,62.9z"
   id="path2" />
		<g
   id="g28">
			
			<path
   fill="#FFFFFF"
   d="M297.388,29.666c0,4.244,3.439,7.685,7.684,7.685h3.152c4.242,0,7.685-3.439,7.685-7.685     c0-4.242-3.441-7.684-7.685-7.684h-3.152C300.827,21.982,297.388,25.424,297.388,29.666     C297.388,29.666,297.388,25.424,297.388,29.666z"
   id="path20" />
			<g
   id="g26">
				<polygon
   fill="#FFFFFF"
   points="341.18,72.024 344.185,67.79 347.226,72.011     "
   id="polygon22" />
				<path
   fill="#FFFFFF"
   d="M347.674,71.856l-3.041-4.221c-0.085-0.117-0.258-0.19-0.448-0.19h-0.001      c-0.19,0.001-0.364,0.075-0.448,0.193l-3.005,4.232c-0.075,0.105-0.065,0.234,0.025,0.334c0.092,0.102,0.252,0.162,0.424,0.162      c0.001,0,0.002,0,0.002,0l2.521-0.004v1.254c0,2.832-3.341,5.138-7.443,5.138h-16.353c-0.276,0-0.5,0.153-0.5,0.346      c0,0.188,0.224,0.345,0.5,0.345h16.353c4.655,0,8.443-2.614,8.443-5.827v-1.257l2.522-0.005      c0.174-0.001,0.334-0.063,0.424-0.164C347.742,72.091,347.75,71.964,347.674,71.856z M344.703,71.671v-0.366      c0-0.189-0.226-0.346-0.5-0.346c-0.277,0-0.5,0.155-0.5,0.346v0.368l-1.722,0.005l2.205-3.106l2.232,3.097L344.703,71.671z"
   id="path24" />
			</g>
		<text
   xml:space="preserve"
   style="font-style:normal;font-variant:normal;font-weight:normal;font-stretch:normal;font-size:26.66666603px;line-height:1.25;font-family:Terminal;-inkscape-font-specification:Terminal;letter-spacing:0px;word-spacing:0px;fill:#000000;fill-opacity:1;stroke:none"
   x="253.4315"
   y="33.728016"
   id="text4518"><tspan
     sodipodi:role="line"
     id="tspan4516"
     x="253.4315"
     y="33.728016"
     style="fill:#ffffff;-inkscape-font-specification:Ubuntu;font-family:Ubuntu;font-weight:normal;font-style:normal;font-stretch:normal;font-variant:normal;font-size:13.33333333px">repita</tspan></text>
</g>
	</g>
</g>
</svg>