<?xml version="1.0" encoding="UTF-8" standalone="no"?>
<!-- Generator: Adobe Illustrator 15.0.0, SVG Export Plug-In . SVG Version: 6.00 Build 0)  -->

<svg
   xmlns:dc="http://purl.org/dc/elements/1.1/"
   xmlns:cc="http://creativecommons.org/ns#"
   xmlns:rdf="http://www.w3.org/1999/02/22-rdf-syntax-ns#"
   xmlns:svg="http://www.w3.org/2000/svg"
   xmlns="http://www.w3.org/2000/svg"
   xmlns:sodipodi="http://sodipodi.sourceforge.net/DTD/sodipodi-0.dtd"
   xmlns:inkscape="http://www.inkscape.org/namespaces/inkscape"
   version="1.1"
   id="Layer_1"
   x="0px"
   y="0px"
   width="115.501px"
   height="66.417px"
   viewBox="239.89 277.251 115.501 66.417"
   enable-background="new 239.89 277.251 115.501 66.417"
   xml:space="preserve"
   sodipodi:docname="Scratch Control Blocks_forever.svg"
   inkscape:version="0.92.1 r15371"><metadata
   id="metadata39"><rdf:RDF><cc:Work
       rdf:about=""><dc:format>image/svg+xml</dc:format><dc:type
         rdf:resource="http://purl.org/dc/dcmitype/StillImage" /></cc:Work></rdf:RDF></metadata><defs
   id="defs37" /><sodipodi:namedview
   pagecolor="#ffffff"
   bordercolor="#666666"
   borderopacity="1"
   objecttolerance="10"
   gridtolerance="10"
   guidetolerance="10"
   inkscape:pageopacity="0"
   inkscape:pageshadow="2"
   inkscape:window-width="1366"
   inkscape:window-height="705"
   id="namedview35"
   showgrid="false"
   inkscape:measure-start="0,0"
   inkscape:measure-end="0,0"
   inkscape:zoom="2.5108008"
   inkscape:cx="57.7505"
   inkscape:cy="33.2085"
   inkscape:window-x="-8"
   inkscape:window-y="-8"
   inkscape:window-maximized="1"
   inkscape:current-layer="g32" />
<g
   id="g32">
	<g
   id="g30">
		<path
   fill="#F2AF31"
   d="M266.393,343.668h83.998c2.762,0,5-2.238,5-5v-12.166c0-2.478-1.805-4.519-4.168-4.916h-66.83    l-2.051,2.538c-0.189,0.234-0.476,0.371-0.777,0.371h-7.758c-0.302,0-0.588-0.137-0.777-0.371l-2.051-2.538h-8.089    c-2.761,0-5-2.238-5-5v-12.168c0-2.763,2.239-5,5-5h5.984h2.1h0.005l2.051,2.538c0.189,0.236,0.477,0.373,0.777,0.373h7.758    c0.303,0,0.588-0.137,0.777-0.373l2.051-2.538h0.005h65.993c2.762,0,5-2.238,5-5.001v-12.166c0-2.762-2.238-5-5-5h-83.993    l-2.056,2.545c-0.189,0.234-0.476,0.371-0.777,0.371h-7.758c-0.302,0-0.588-0.137-0.776-0.371l-2.057-2.545h-8.084    c-2.718,0-4.919,2.172-4.987,4.875h-0.013v0.125v12.166v32.085v9.438v2.729c0,2.763,2.239,5,5,5h8.089"
   id="path2" />
		<g
   id="g28">
			<g
   id="g20">
				<g
   id="g18">
					
					
					
					
					
					
					
				</g>
			</g>
			<g
   id="g26">
				<polygon
   fill="#FFFFFF"
   points="340.312,330.709 343.316,326.475 346.357,330.695     "
   id="polygon22" />
				<path
   fill="#FFFFFF"
   d="M346.806,330.541l-3.041-4.221c-0.085-0.117-0.258-0.189-0.448-0.189c-0.001,0-0.001,0-0.001,0      c-0.19,0-0.363,0.073-0.447,0.192l-3.006,4.232c-0.074,0.105-0.065,0.233,0.025,0.334c0.092,0.102,0.252,0.163,0.424,0.163      c0.001,0,0.002,0,0.002,0l2.521-0.005v1.254c0,2.832-3.34,5.139-7.443,5.139h-16.353c-0.276,0-0.5,0.152-0.5,0.344      c0,0.19,0.224,0.347,0.5,0.347h16.353c4.655,0,8.443-2.615,8.443-5.828v-1.256l2.522-0.007c0.175,0,0.334-0.063,0.425-0.164      C346.874,330.774,346.882,330.648,346.806,330.541z M343.835,330.355v-0.367c0-0.189-0.226-0.345-0.5-0.345      c-0.277,0-0.5,0.154-0.5,0.345v0.368l-1.722,0.004l2.205-3.104l2.232,3.096L343.835,330.355z"
   id="path24" />
			</g>
		</g>
	</g>
<text
   xml:space="preserve"
   style="font-style:normal;font-variant:normal;font-weight:normal;font-stretch:normal;font-size:26.66666603px;line-height:1.25;font-family:Terminal;-inkscape-font-specification:Terminal;letter-spacing:0px;word-spacing:0px;fill:#000000;fill-opacity:1;stroke:none"
   x="256.21945"
   y="292.28998"
   id="text4518"><tspan
     sodipodi:role="line"
     id="tspan4516"
     x="256.21945"
     y="292.28998"
     style="font-style:normal;font-variant:normal;font-weight:normal;font-stretch:normal;font-size:16px;font-family:Ubuntu;-inkscape-font-specification:Ubuntu;fill:#ffffff">sempre</tspan></text>
</g>
</svg>