<?xml version="1.0" encoding="UTF-8" standalone="no"?>
<!-- Generator: Adobe Illustrator 15.0.0, SVG Export Plug-In . SVG Version: 6.00 Build 0)  -->

<svg
   xmlns:dc="http://purl.org/dc/elements/1.1/"
   xmlns:cc="http://creativecommons.org/ns#"
   xmlns:rdf="http://www.w3.org/1999/02/22-rdf-syntax-ns#"
   xmlns:svg="http://www.w3.org/2000/svg"
   xmlns="http://www.w3.org/2000/svg"
   xmlns:sodipodi="http://sodipodi.sourceforge.net/DTD/sodipodi-0.dtd"
   xmlns:inkscape="http://www.inkscape.org/namespaces/inkscape"
   version="1.1"
   id="Layer_1"
   x="0px"
   y="0px"
   width="89.499px"
   height="25.078px"
   viewBox="252.891 708.355 89.499 25.078"
   enable-background="new 252.891 708.355 89.499 25.078"
   xml:space="preserve"
   sodipodi:docname="Scratch Control Blocks_wait.svg"
   inkscape:version="0.92.1 r15371"><metadata
   id="metadata41"><rdf:RDF><cc:Work
       rdf:about=""><dc:format>image/svg+xml</dc:format><dc:type
         rdf:resource="http://purl.org/dc/dcmitype/StillImage" /></cc:Work></rdf:RDF></metadata><defs
   id="defs39" /><sodipodi:namedview
   pagecolor="#ffffff"
   bordercolor="#666666"
   borderopacity="1"
   objecttolerance="10"
   gridtolerance="10"
   guidetolerance="10"
   inkscape:pageopacity="0"
   inkscape:pageshadow="2"
   inkscape:window-width="1366"
   inkscape:window-height="705"
   id="namedview37"
   showgrid="false"
   inkscape:zoom="3.2402596"
   inkscape:cx="44.7495"
   inkscape:cy="12.539"
   inkscape:window-x="-8"
   inkscape:window-y="-8"
   inkscape:window-maximized="1"
   inkscape:current-layer="g30" />
<g
   id="g34">
	<g
   id="g32">
		<path
   fill="#F2AF31"
   d="M337.39,708.355h-0.588h-6.133h-0.279h-0.588h-4.785h-1.348h-7.319h-36.951l-2.056,2.545    c-0.19,0.234-0.476,0.371-0.778,0.371h-7.757c-0.303,0-0.588-0.137-0.778-0.371l-2.056-2.545h-8.083c-2.762,0-5,2.238-5,5v12.166    c0,2.762,2.238,5,5,5h8.088l2.051,2.539c0.19,0.236,0.477,0.373,0.778,0.373h7.757c0.304,0,0.588-0.137,0.778-0.373l2.051-2.539    h36.956h7.319h1.348h4.785h0.588h0.279h6.133h0.588c2.762,0,5-2.238,5-5v-12.166C342.39,710.594,340.151,708.355,337.39,708.355z"
   id="path2" />
		<g
   id="g30">
			
			
			<path
   fill="#FFFFFF"
   d="M288.771,719.41c0,4.244,3.439,7.685,7.685,7.685h3.151c4.242,0,7.685-3.439,7.685-7.685     c0-4.242-3.441-7.684-7.685-7.684h-3.151C292.211,711.727,288.771,715.169,288.771,719.41     C288.771,719.41,288.771,715.169,288.771,719.41z"
   id="path28" />
		<text
   xml:space="preserve"
   style="font-style:normal;font-variant:normal;font-weight:normal;font-stretch:normal;font-size:20.6490593px;line-height:1.25;font-family:Terminal;-inkscape-font-specification:Terminal;letter-spacing:0px;word-spacing:0px;fill:#000000;fill-opacity:1;stroke:none;stroke-width:0.77433974"
   x="255.82202"
   y="721.20697"
   id="text4520"><tspan
     sodipodi:role="line"
     id="tspan4518"
     x="255.82202"
     y="721.20697"
     style="font-style:normal;font-variant:normal;font-weight:normal;font-stretch:normal;font-size:10.32452965px;font-family:Ubuntu;-inkscape-font-specification:Ubuntu;fill:#ffffff;stroke-width:0.77433974">espere</tspan></text>
<text
   xml:space="preserve"
   style="font-style:normal;font-variant:normal;font-weight:normal;font-stretch:normal;font-size:20.6490593px;line-height:1.25;font-family:Terminal;-inkscape-font-specification:Terminal;letter-spacing:0px;word-spacing:0px;fill:#000000;fill-opacity:1;stroke:none;stroke-width:0.77433974"
   x="308.82129"
   y="721.19147"
   id="text4520-7"><tspan
     sodipodi:role="line"
     id="tspan4518-9"
     x="308.82129"
     y="721.19147"
     style="font-style:normal;font-variant:normal;font-weight:normal;font-stretch:normal;font-size:10.32452965px;font-family:Ubuntu;-inkscape-font-specification:Ubuntu;fill:#ffffff;stroke-width:0.77433974">segs</tspan></text>
</g>
	</g>
</g>
</svg>