<?xml version="1.0" encoding="UTF-8" standalone="no"?>
<!-- Generator: Adobe Illustrator 15.0.0, SVG Export Plug-In . SVG Version: 6.00 Build 0)  -->

<svg
   xmlns:dc="http://purl.org/dc/elements/1.1/"
   xmlns:cc="http://creativecommons.org/ns#"
   xmlns:rdf="http://www.w3.org/1999/02/22-rdf-syntax-ns#"
   xmlns:svg="http://www.w3.org/2000/svg"
   xmlns="http://www.w3.org/2000/svg"
   xmlns:sodipodi="http://sodipodi.sourceforge.net/DTD/sodipodi-0.dtd"
   xmlns:inkscape="http://www.inkscape.org/namespaces/inkscape"
   version="1.1"
   id="Layer_1"
   x="0px"
   y="0px"
   width="132.501px"
   height="69.328px"
   viewBox="231.39 406.594 132.501 69.328"
   enable-background="new 231.39 406.594 132.501 69.328"
   xml:space="preserve"
   sodipodi:docname="Scratch Control Blocks_if then.svg"
   inkscape:version="0.92.1 r15371"><metadata
   id="metadata37"><rdf:RDF><cc:Work
       rdf:about=""><dc:format>image/svg+xml</dc:format><dc:type
         rdf:resource="http://purl.org/dc/dcmitype/StillImage" /></cc:Work></rdf:RDF></metadata><defs
   id="defs35" /><sodipodi:namedview
   pagecolor="#ffffff"
   bordercolor="#666666"
   borderopacity="1"
   objecttolerance="10"
   gridtolerance="10"
   guidetolerance="10"
   inkscape:pageopacity="0"
   inkscape:pageshadow="2"
   inkscape:window-width="1366"
   inkscape:window-height="705"
   id="namedview33"
   showgrid="false"
   inkscape:zoom="2.1886626"
   inkscape:cx="66.250504"
   inkscape:cy="34.664001"
   inkscape:window-x="-8"
   inkscape:window-y="-8"
   inkscape:window-maximized="1"
   inkscape:current-layer="Layer_1" />
<g
   id="g30">
	<g
   id="g28">
		<path
   fill="#F2AF31"
   d="M254.39,428.76h5.984h2.1h0.005l2.051,2.539c0.189,0.234,0.477,0.372,0.777,0.372h7.758    c0.303,0,0.588-0.138,0.777-0.372l2.051-2.539h0.005h38.12h27.873h17c2.762,0,5-2.238,5-5v-12.167c0-2.763-2.238-5-5-5h-17    h-27.873h-56.12l-2.056,2.545c-0.189,0.234-0.476,0.372-0.777,0.372h-7.758c-0.302,0-0.588-0.138-0.777-0.372l-2.056-2.545h-8.084    c-2.718,0-4.919,2.172-4.987,4.875h-0.013v0.125v12.167v32.083v9.438v2.729c0,2.762,2.239,5,5,5h8.089l2.051,2.539    c0.189,0.234,0.477,0.372,0.777,0.372h7.757c0.304,0,0.588-0.138,0.778-0.372l2.051-2.539h56.125h27.873h17c2.762,0,5-2.238,5-5    v-12.167c0-2.478-1.805-4.519-4.168-4.916h-17h-28.705h-38.125l-2.051,2.539c-0.189,0.234-0.476,0.372-0.777,0.372h-7.758    c-0.302,0-0.588-0.138-0.777-0.372l-2.051-2.539h-8.089c-2.761,0-5-2.238-5-5V433.76C249.39,430.998,251.629,428.76,254.39,428.76    z"
   id="path2" />
		<g
   id="g26">
			
			
			<rect
   x="264.553"
   y="410.303"
   fill="#FFFFFF"
   width="57.215"
   height="14.778"
   id="rect24" />
		</g>
	</g>
</g>
<text
   xml:space="preserve"
   style="font-style:normal;font-variant:normal;font-weight:normal;font-stretch:normal;font-size:14.16193199px;line-height:1.25;font-family:Ubuntu;-inkscape-font-specification:Ubuntu;letter-spacing:0px;word-spacing:0px;fill:#ffffff;fill-opacity:1;stroke:none;stroke-width:0.88512075"
   x="246.11221"
   y="422.80447"
   id="text4526"><tspan
     sodipodi:role="line"
     id="tspan4524"
     x="246.11221"
     y="422.80447"
     style="stroke-width:0.88512075">se</tspan></text>
<text
   xml:space="preserve"
   style="font-style:normal;font-variant:normal;font-weight:normal;font-stretch:normal;font-size:14.16193199px;line-height:1.25;font-family:Ubuntu;-inkscape-font-specification:Ubuntu;letter-spacing:0px;word-spacing:0px;fill:#ffffff;fill-opacity:1;stroke:none;stroke-width:0.88512075"
   x="323.72241"
   y="422.80447"
   id="text4526-1"><tspan
     sodipodi:role="line"
     id="tspan4524-2"
     x="323.72241"
     y="422.80447"
     style="stroke-width:0.88512075">então</tspan></text>
</svg>