<?xml version="1.0" encoding="UTF-8" standalone="no"?>
<!-- Generator: Adobe Illustrator 15.0.0, SVG Export Plug-In . SVG Version: 6.00 Build 0)  -->

<svg
   xmlns:dc="http://purl.org/dc/elements/1.1/"
   xmlns:cc="http://creativecommons.org/ns#"
   xmlns:rdf="http://www.w3.org/1999/02/22-rdf-syntax-ns#"
   xmlns:svg="http://www.w3.org/2000/svg"
   xmlns="http://www.w3.org/2000/svg"
   xmlns:sodipodi="http://sodipodi.sourceforge.net/DTD/sodipodi-0.dtd"
   xmlns:inkscape="http://www.inkscape.org/namespaces/inkscape"
   version="1.1"
   id="Layer_1"
   x="0px"
   y="0px"
   width="132.501px"
   height="113.582px"
   viewBox="354.389 239.935 132.501 113.582"
   enable-background="new 354.389 239.935 132.501 113.582"
   xml:space="preserve"
   sodipodi:docname="Scratch Control Blocks_if then else.svg"
   inkscape:version="0.92.1 r15371"><metadata
   id="metadata47"><rdf:RDF><cc:Work
       rdf:about=""><dc:format>image/svg+xml</dc:format><dc:type
         rdf:resource="http://purl.org/dc/dcmitype/StillImage" /></cc:Work></rdf:RDF></metadata><defs
   id="defs45" /><sodipodi:namedview
   pagecolor="#ffffff"
   bordercolor="#666666"
   borderopacity="1"
   objecttolerance="10"
   gridtolerance="10"
   guidetolerance="10"
   inkscape:pageopacity="0"
   inkscape:pageshadow="2"
   inkscape:window-width="1366"
   inkscape:window-height="705"
   id="namedview43"
   showgrid="false"
   inkscape:zoom="2.077794"
   inkscape:cx="66.250504"
   inkscape:cy="56.791"
   inkscape:window-x="-8"
   inkscape:window-y="-8"
   inkscape:window-maximized="1"
   inkscape:current-layer="Layer_1" />
<g
   id="g40">
	<path
   fill="#F2AF31"
   d="M398.897,262.102h38.12h27.873h17c2.762,0,5-2.238,5-5v-12.167c0-2.762-2.238-5-5-5h-17h-27.873h-56.12   l-2.057,2.545c-0.188,0.235-0.476,0.372-0.776,0.372h-7.758c-0.303,0-0.589-0.137-0.777-0.372l-2.056-2.545h-8.084   c-2.719,0-4.919,2.172-4.987,4.875h-0.013v0.125v12.167v31.961v0.122v0.003v9.436v2.729v0.003v32.083v9.438v2.729   c0,2.762,2.238,5,5,5h8.089l2.051,2.539c0.188,0.235,0.476,0.372,0.777,0.372h7.757c0.303,0,0.588-0.137,0.777-0.372l2.052-2.539   h56.125h27.873h17c2.762,0,5-2.238,5-5v-12.167c0-2.477-1.805-4.518-4.168-4.916h-17h-28.705h-38.125l-2.052,2.539   c-0.188,0.235-0.476,0.372-0.776,0.372h-7.758c-0.303,0-0.589-0.137-0.777-0.372l-2.051-2.539h-8.089c-2.762,0-5-2.238-5-5v-12.167   c0-2.762,2.238-5,5-5h5.983h2.101h0.005l2.051,2.539c0.188,0.235,0.476,0.372,0.777,0.372h7.758c0.302,0,0.588-0.137,0.776-0.372   l2.052-2.539h0.005h38.12h27.873h17c2.762,0,5-2.238,5-5v-0.003v-12.164v-0.003c0-0.329-0.036-0.647-0.097-0.959   c-0.021-0.103-0.058-0.198-0.083-0.298c-0.054-0.202-0.107-0.402-0.186-0.594c-0.049-0.123-0.112-0.236-0.17-0.354   c-0.077-0.153-0.153-0.307-0.244-0.45c-0.081-0.128-0.173-0.246-0.265-0.367c-0.088-0.114-0.177-0.228-0.274-0.332   c-0.115-0.127-0.236-0.244-0.365-0.357c-0.09-0.08-0.182-0.156-0.275-0.229c-0.151-0.117-0.305-0.226-0.469-0.324   c-0.084-0.051-0.172-0.094-0.259-0.141c-0.186-0.098-0.372-0.188-0.57-0.263c-0.071-0.027-0.146-0.045-0.219-0.067   c-0.222-0.07-0.442-0.137-0.676-0.177c-0.006-0.002-0.012-0.004-0.018-0.005h-0.027c-0.264-0.043-0.529-0.081-0.805-0.081h-17   h-27.873h-38.12h-0.005l-2.052,2.539c-0.188,0.235-0.476,0.372-0.776,0.372h-7.758c-0.303,0-0.589-0.137-0.777-0.372l-2.051-2.539   h-4.581l-0.065,0.081h-3.441c-2.762,0-5-2.238-5-5v-12.167c0-2.762,2.238-5,5-5h5.983h2.101h0.005l2.051,2.539   c0.189,0.235,0.476,0.372,0.777,0.372h7.758c0.302,0,0.588-0.137,0.777-0.372l2.051-2.539H398.897z"
   id="path2" />
	<g
   id="g38">
		
		
		
		<rect
   x="387.553"
   y="243.645"
   fill="#FFFFFF"
   width="57.215"
   height="14.779"
   id="rect36" />
	</g>
</g>
<text
   xml:space="preserve"
   style="font-style:normal;font-variant:normal;font-weight:normal;font-stretch:normal;font-size:14.16193199px;line-height:1.25;font-family:Ubuntu;-inkscape-font-specification:Ubuntu;letter-spacing:0px;word-spacing:0px;fill:#ffffff;fill-opacity:1;stroke:none;stroke-width:0.88512075"
   x="368.41962"
   y="254.92874"
   id="text4526"><tspan
     sodipodi:role="line"
     id="tspan4524"
     x="368.41962"
     y="254.92874"
     style="stroke-width:0.88512075">se</tspan></text>
<text
   xml:space="preserve"
   style="font-style:normal;font-variant:normal;font-weight:normal;font-stretch:normal;font-size:14.16193199px;line-height:1.25;font-family:Ubuntu;-inkscape-font-specification:Ubuntu;letter-spacing:0px;word-spacing:0px;fill:#ffffff;fill-opacity:1;stroke:none;stroke-width:0.88512075"
   x="446.02982"
   y="254.92874"
   id="text4526-1"><tspan
     sodipodi:role="line"
     id="tspan4524-2"
     x="446.02982"
     y="254.92874"
     style="stroke-width:0.88512075">então</tspan></text>
<text
   xml:space="preserve"
   style="font-style:normal;font-variant:normal;font-weight:normal;font-stretch:normal;font-size:14.16193199px;line-height:1.25;font-family:Ubuntu;-inkscape-font-specification:Ubuntu;letter-spacing:0px;word-spacing:0px;fill:#ffffff;fill-opacity:1;stroke:none;stroke-width:0.88512075"
   x="368.41962"
   y="300.91791"
   id="text4526-4"><tspan
     sodipodi:role="line"
     id="tspan4524-9"
     x="368.41962"
     y="300.91791"
     style="stroke-width:0.88512075">senão</tspan></text>
</svg>