<?xml version="1.0" encoding="UTF-8" standalone="no"?>
<!-- Generator: Adobe Illustrator 15.0.0, SVG Export Plug-In . SVG Version: 6.00 Build 0)  -->

<svg
   xmlns:dc="http://purl.org/dc/elements/1.1/"
   xmlns:cc="http://creativecommons.org/ns#"
   xmlns:rdf="http://www.w3.org/1999/02/22-rdf-syntax-ns#"
   xmlns:svg="http://www.w3.org/2000/svg"
   xmlns="http://www.w3.org/2000/svg"
   xmlns:sodipodi="http://sodipodi.sourceforge.net/DTD/sodipodi-0.dtd"
   xmlns:inkscape="http://www.inkscape.org/namespaces/inkscape"
   version="1.1"
   id="Layer_1"
   x="0px"
   y="0px"
   width="129.501px"
   height="25.078px"
   viewBox="232.89 794.619 129.501 25.078"
   enable-background="new 232.89 794.619 129.501 25.078"
   xml:space="preserve"
   sodipodi:docname="Scratch Control Blocks_wait until.svg"
   inkscape:version="0.92.1 r15371"><metadata
   id="metadata39"><rdf:RDF><cc:Work
       rdf:about=""><dc:format>image/svg+xml</dc:format><dc:type
         rdf:resource="http://purl.org/dc/dcmitype/StillImage" /></cc:Work></rdf:RDF></metadata><defs
   id="defs37" /><sodipodi:namedview
   pagecolor="#ffffff"
   bordercolor="#666666"
   borderopacity="1"
   objecttolerance="10"
   gridtolerance="10"
   guidetolerance="10"
   inkscape:pageopacity="0"
   inkscape:pageshadow="2"
   inkscape:window-width="1366"
   inkscape:window-height="705"
   id="namedview35"
   showgrid="false"
   inkscape:zoom="2.2393648"
   inkscape:cx="64.750504"
   inkscape:cy="12.539"
   inkscape:window-x="-8"
   inkscape:window-y="-8"
   inkscape:window-maximized="1"
   inkscape:current-layer="g28" />
<g
   id="g32">
	<g
   id="g30">
		<path
   fill="#F2AF31"
   d="M357.391,794.619h-0.588h-6.133h-0.279h-0.588h-4.785h-1.348h-7.32h-18.959h-0.588h-6.133h-0.279h-0.588    h-1.031h-3.754h-1.348h-7.321h-36.951l-2.055,2.545c-0.191,0.234-0.477,0.371-0.779,0.371h-7.756    c-0.303,0-0.588-0.137-0.779-0.371l-2.055-2.545h-8.084c-2.762,0-5,2.238-5,5v12.166c0,2.763,2.238,5,5,5h8.088l2.051,2.539    c0.191,0.236,0.478,0.373,0.779,0.373h7.756c0.304,0,0.588-0.137,0.779-0.373l2.051-2.539h36.955h7.321h1.348h3.754h1.031h0.588    h0.279h6.133h0.588h18.959h7.32h1.348h4.785h0.588h0.279h6.133h0.588c2.762,0,5-2.237,5-5v-12.166    C362.391,796.857,360.152,794.619,357.391,794.619z"
   id="path2" />
		<g
   id="g28">
			<rect
   x="297.03"
   y="798.537"
   fill="#FFFFFF"
   width="57.217"
   height="14.779"
   id="rect4" />
			
		<text
   xml:space="preserve"
   style="font-style:normal;font-variant:normal;font-weight:normal;font-stretch:normal;font-size:24.80795479px;line-height:1.25;font-family:Terminal;-inkscape-font-specification:Terminal;letter-spacing:0px;word-spacing:0px;fill:#000000;fill-opacity:1;stroke:none;stroke-width:0.93029833"
   x="235.17017"
   y="808.70502"
   id="text4518"><tspan
     sodipodi:role="line"
     id="tspan4516"
     x="235.17017"
     y="808.70502"
     style="font-style:normal;font-variant:normal;font-weight:normal;font-stretch:normal;font-size:12.40397739px;font-family:Ubuntu;-inkscape-font-specification:Ubuntu;fill:#ffffff;stroke-width:0.93029833">espere até</tspan></text>
</g>
	</g>
</g>
</svg>